<?xml version="1.0" encoding="utf-8"?>
<!-- Generator: Adobe Illustrator 16.0.0, SVG Export Plug-In . SVG Version: 6.00 Build 0)  -->
<!DOCTYPE svg PUBLIC "-//W3C//DTD SVG 1.1//EN" "http://www.w3.org/Graphics/SVG/1.1/DTD/svg11.dtd">
<svg version="1.1" id="Ebene_1" xmlns="http://www.w3.org/2000/svg" xmlns:xlink="http://www.w3.org/1999/xlink" x="0px" y="0px"
	 width="269.291px" height="70.866px" viewBox="0 0 269.291 70.866" enable-background="new 0 0 269.291 70.866"
	 xml:space="preserve">
<rect x="0.001" y="0" width="269.292" height="70.866"/>
<g>
	<path fill="#FFFFFF" d="M13.899,21.42h4.55v6.23h-4.55V21.42z M19.849,21.42h6.3v29.19h-6.3V21.42z"/>
	<path fill="#FFFFFF" d="M49.599,21.42c1.773,0,2.66,0.91,2.66,2.73V48.09c0,1.681-0.794,2.521-2.38,2.521h-17.64
		c-1.727,0-2.59-0.84-2.59-2.521V24.01c0-1.726,0.863-2.59,2.59-2.59H49.599z M35.948,27.581v17.01h9.94v-17.01H35.948z"/>
	<path fill="#FFFFFF" d="M55.757,33.041h9.87v6.09h-9.87V33.041z"/>
	<path fill="#FFFFFF" d="M75.147,39.061V50.68h-6.3V21.49h6.23v11.48l8.96-11.48h7.77l-13.86,17.57H75.147z M80.117,39.061
		l4.76-6.09h3.92c1.773,0,2.66,0.817,2.66,2.45V50.68h-6.37V39.061H80.117z"/>
	<path fill="#FFFFFF" d="M97.266,21.42h17.36c1.772,0,2.66,0.91,2.66,2.73v26.46h-6.37V39.13h-8.471v-6.09h8.471v-5.46h-9.94v23.03
		h-6.3v-26.53C94.676,22.308,95.54,21.42,97.266,21.42z M98.596,12.39h6.3v6.02h-6.3V12.39z M107.066,12.39h6.301v6.02h-6.301V12.39
		z"/>
	<path fill="#FFFFFF" d="M120.786,28.98v-7.7l12.74,11.13l12.67-11.06v29.26h-6.3V34.72l-6.37,6.09L120.786,28.98z M127.085,50.61
		h-6.3V31.22l6.3,5.81V50.61z"/>
	<path fill="#FFFFFF" d="M149.695,21.42h20.09c1.727,0,2.59,0.91,2.59,2.73v12.39c0,1.727-0.863,2.59-2.59,2.59h-12.32v-6.09h8.54
		v-5.46h-10.01v23.03h-6.3V21.42z"/>
	<path fill="#FFFFFF" d="M175.875,21.42h20.09v6.16h-13.79v23.03h-6.3V21.42z M183.714,33.041h9.8v6.09h-9.8V33.041z"/>
	<path fill="#FFFFFF" d="M199.463,21.42h20.09v6.16h-13.79v17.01h13.79v6.02h-20.09V21.42z M207.303,33.041h9.8v6.09h-9.8V33.041z"
		/>
	<path fill="#FFFFFF" d="M223.053,21.42h19.951c1.771,0,2.66,0.91,2.66,2.73v12.39c0,1.727-0.889,2.59-2.66,2.59h-5.951l8.961,11.48
		h-7.77l-7.49-9.59v-7.98h8.539v-5.39h-10.01v22.96h-6.23V21.42z"/>
	<path fill="#FFFFFF" d="M249.092,44.59h6.301v6.02h-6.301V44.59z"/>
</g>
<g>
	<path fill="#FFFFFF" d="M203.512,57.786v-1.87l3.094,2.703l3.077-2.687v7.106h-1.53V59.18l-1.547,1.479L203.512,57.786z
		 M205.042,63.039h-1.53V58.33l1.53,1.411V63.039z"/>
	<path fill="#FFFFFF" d="M210.533,55.95h4.845c0.431,0,0.646,0.221,0.646,0.663v3.009c0,0.419-0.216,0.629-0.646,0.629h-1.444
		l2.176,2.788h-1.888l-1.818-2.329v-1.938h2.074v-1.31h-2.431v5.576h-1.513V55.95z"/>
	<path fill="#FFFFFF" d="M216.857,57.786v-1.87l3.094,2.703l3.077-2.687v7.106h-1.529V59.18l-1.548,1.479L216.857,57.786z
		 M218.388,63.039h-1.53V58.33l1.53,1.411V63.039z"/>
	<path fill="#FFFFFF" d="M224.507,63.039c-0.419,0-0.629-0.21-0.629-0.629v-5.814c0-0.431,0.21-0.646,0.629-0.646h4.25v1.462h-3.349
		v5.627H224.507z M225.765,61.543h2.992v1.496h-2.992V61.543z"/>
	<path fill="#FFFFFF" d="M231.137,57.412v5.627h-1.53V55.95h4.913c0.386,0,0.578,0.21,0.578,0.629v5.44
		c0,0.102-0.031,0.212-0.094,0.331s-0.142,0.229-0.237,0.331c-0.097,0.103-0.204,0.188-0.323,0.256
		c-0.119,0.067-0.229,0.102-0.332,0.102h-2.618v-1.496h2.058v-4.131H231.137z"/>
	<path fill="#FFFFFF" d="M235.947,61.577h1.53v1.462h-1.53V61.577z"/>
	<path fill="#FFFFFF" d="M243.802,55.95v7.14l-5.475-5.185v-1.989l3.961,3.553V55.95H243.802z M239.857,63.039h-1.53v-4.573
		l1.53,1.395V63.039z"/>
	<path fill="#FFFFFF" d="M244.651,55.95h4.879v1.496h-3.349v4.131h3.349v1.462h-4.879V55.95z M246.556,58.772h2.38v1.479h-2.38
		V58.772z"/>
	<path fill="#FFFFFF" d="M250.38,55.95h1.377v1.513h-1.377V55.95z M252.097,55.95h3.18v1.513h-1.649v5.576h-1.53V55.95z"/>
</g>
<g>
</g>
<g>
</g>
<g>
</g>
<g>
</g>
<g>
</g>
<g>
</g>
</svg>
