<?xml version="1.0" encoding="utf-8"?>
<!-- Generator: Adobe Illustrator 16.0.0, SVG Export Plug-In . SVG Version: 6.00 Build 0)  -->
<!DOCTYPE svg PUBLIC "-//W3C//DTD SVG 1.1//EN" "http://www.w3.org/Graphics/SVG/1.1/DTD/svg11.dtd">
<svg version="1.1" id="Ebene_1" xmlns="http://www.w3.org/2000/svg" xmlns:xlink="http://www.w3.org/1999/xlink" x="0px" y="0px"
	 width="425.197px" height="85.039px" viewBox="0 0 425.197 85.039" enable-background="new 0 0 425.197 85.039"
	 xml:space="preserve">
<rect width="425.197" height="85.039"/>
<g>
	<path fill="#FFFFFF" d="M9.93,54.373V33.528c0-1.393,0.678-2.09,2.035-2.09h13.75v4.73H14.88v18.205H9.93z M16.09,40.568h7.7v4.785
		h-7.7V40.568z"/>
	<path fill="#FFFFFF" d="M28.464,33.528c0-1.393,0.678-2.09,2.035-2.09h2.915v9.13h7.81v-4.29h-6.655v-4.84h9.57
		c1.393,0,2.09,0.715,2.09,2.145v20.79h-5.005v-9.02h-7.81v9.02h-4.95V33.528z"/>
	<path fill="#FFFFFF" d="M66.688,31.438v4.84h-12.76v4.29h6.6v4.785h-9.515c-1.357,0-2.035-0.641-2.035-1.925v-9.955
		c0-1.356,0.678-2.035,2.035-2.035H66.688z M61.738,49.643v-9.075h3.025c0.623,0,1.1,0.202,1.43,0.605
		c0.33,0.404,0.495,0.917,0.495,1.54v9.68c0,1.32-0.605,1.98-1.815,1.98H48.979v-4.73H61.738z"/>
	<path fill="#FFFFFF" d="M79.668,54.373h-4.895v-18.04h-5.335v-4.895h10.23V54.373z M85.278,36.333h-4.455v-4.895h4.455V36.333z"/>
	<path fill="#FFFFFF" d="M88.028,52.338v-18.81c0-1.393,0.678-2.09,2.035-2.09h13.75v4.73H92.978v13.365h10.835v4.84h-13.75
		C88.706,54.373,88.028,53.695,88.028,52.338z M101.888,40.568v4.785h-7.7v-4.785H101.888z"/>
	<path fill="#FFFFFF" d="M111.458,54.373h-4.895V33.528c0-1.393,0.678-2.09,2.035-2.09h13.64c1.393,0,2.09,0.715,2.09,2.145v9.735
		c0,1.357-0.697,2.035-2.09,2.035h-4.675l7.04,9.02h-6.105l-5.885-7.535v-6.27h6.71v-4.235h-7.865V54.373z"/>
	<path fill="#FFFFFF" d="M127.077,49.643h4.95v4.73h-4.95V49.643z"/>
	<path fill="#FFFFFF" d="M160.131,45.353h-6.655v9.02h-4.95V31.438h4.95v9.13h6.655V45.353z M166.236,31.438v22.935h-4.95V31.438
		H166.236z"/>
	<path fill="#FFFFFF" d="M169.041,33.528c0-1.393,0.678-2.09,2.035-2.09h2.915v9.13h7.81v-4.29h-6.655v-4.84h9.57
		c1.393,0,2.09,0.715,2.09,2.145v20.79h-5.005v-9.02h-7.81v9.02h-4.95V33.528z"/>
	<path fill="#FFFFFF" d="M194.45,54.373h-4.895V33.528c0-1.393,0.678-2.09,2.035-2.09h13.64c1.393,0,2.09,0.715,2.09,2.145v9.735
		c0,1.357-0.697,2.035-2.09,2.035h-4.675l7.04,9.02h-6.105l-5.885-7.535v-6.27h6.71v-4.235h-7.865V54.373z"/>
	<path fill="#FFFFFF" d="M215.02,31.438v18.095h7.81V36.168h-6.655v-4.73h9.79c1.246,0,1.87,0.679,1.87,2.035v17.6
		c0,0.33-0.102,0.688-0.303,1.072c-0.202,0.385-0.459,0.743-0.77,1.073c-0.312,0.33-0.66,0.605-1.045,0.825
		c-0.385,0.22-0.743,0.33-1.072,0.33h-14.575V31.438H215.02z"/>
	<path fill="#FFFFFF" d="M230.583,52.338v-18.81c0-1.393,0.678-2.09,2.035-2.09h13.75v4.73h-10.835v13.365h10.835v4.84h-13.75
		C231.262,54.373,230.583,53.695,230.583,52.338z M244.443,40.568v4.785h-7.7v-4.785H244.443z"/>
	<path fill="#FFFFFF" d="M254.013,54.373h-4.895V33.528c0-1.393,0.678-2.09,2.035-2.09h13.64c1.393,0,2.09,0.715,2.09,2.145v9.735
		c0,1.357-0.697,2.035-2.09,2.035h-4.675l7.04,9.02h-6.105l-5.885-7.535v-6.27h6.71v-4.235h-7.865V54.373z"/>
	<path fill="#FFFFFF" d="M269.632,49.643h4.95v4.73h-4.95V49.643z"/>
	<path fill="#FFFFFF" d="M296.031,54.373h-4.895V33.528c0-1.393,0.678-2.09,2.035-2.09h13.64c1.394,0,2.091,0.715,2.091,2.145v9.735
		c0,1.357-0.697,2.035-2.091,2.035h-4.675l7.04,9.02h-6.104l-5.886-7.535v-6.27h6.71v-4.235h-7.865V54.373z"/>
	<path fill="#FFFFFF" d="M316.602,49.643h7.809V36.278h-6.6v-4.84h9.516c1.393,0,2.09,0.715,2.09,2.145v18.81
		c0,1.32-0.624,1.98-1.87,1.98h-13.86c-1.356,0-2.035-0.66-2.035-1.98v-18.92c0-1.356,0.679-2.035,2.035-2.035h2.916V49.643z"/>
	<path fill="#FFFFFF" d="M337.115,49.643h7.81V36.278h-6.6v-4.84h9.515c1.393,0,2.09,0.715,2.09,2.145v18.81
		c0,1.32-0.623,1.98-1.869,1.98H334.2c-1.356,0-2.035-0.66-2.035-1.98v-18.92c0-1.356,0.679-2.035,2.035-2.035h2.915V49.643z"/>
	<path fill="#FFFFFF" d="M362.909,54.373h-4.896v-18.04h-5.334v-4.895h10.229V54.373z M368.52,36.333h-4.455v-4.895h4.455V36.333z"
		/>
	<path fill="#FFFFFF" d="M371.27,52.338v-18.81c0-1.393,0.678-2.09,2.035-2.09h13.75v4.73h-10.836v13.365h10.836v4.84h-13.75
		C371.947,54.373,371.27,53.695,371.27,52.338z M385.129,40.568v4.785h-7.699v-4.785H385.129z"/>
	<path fill="#FFFFFF" d="M394.699,54.373h-4.896V33.528c0-1.393,0.679-2.09,2.035-2.09h13.64c1.393,0,2.09,0.715,2.09,2.145v9.735
		c0,1.357-0.697,2.035-2.09,2.035h-4.675l7.04,9.02h-6.105l-5.885-7.535v-6.27h6.71v-4.235h-7.864V54.373z"/>
	<path fill="#FFFFFF" d="M410.318,49.643h4.949v4.73h-4.949V49.643z"/>
</g>
<g>
	<path fill="#FFFFFF" d="M354.778,70.859v-2.2l3.64,3.18l3.62-3.16v8.36h-1.8v-4.54l-1.82,1.74L354.778,70.859z M356.578,77.039
		h-1.8v-5.54l1.8,1.66V77.039z"/>
	<path fill="#FFFFFF" d="M363.038,68.699h5.7c0.506,0,0.76,0.26,0.76,0.78v3.54c0,0.493-0.254,0.739-0.76,0.739h-1.7l2.56,3.28
		h-2.22l-2.14-2.74V72.02h2.439v-1.54h-2.859v6.56h-1.78V68.699z"/>
	<path fill="#FFFFFF" d="M370.479,70.859v-2.2l3.639,3.18l3.621-3.16v8.36h-1.801v-4.54l-1.82,1.74L370.479,70.859z M372.277,77.039
		h-1.799v-5.54l1.799,1.66V77.039z"/>
	<path fill="#FFFFFF" d="M379.479,77.039c-0.494,0-0.74-0.246-0.74-0.74v-6.84c0-0.507,0.246-0.76,0.74-0.76h5v1.72h-3.94v6.62
		H379.479z M380.958,75.279h3.521v1.76h-3.521V75.279z"/>
	<path fill="#FFFFFF" d="M387.277,70.419v6.62h-1.8v-8.34h5.78c0.453,0,0.68,0.247,0.68,0.74v6.399c0,0.12-0.037,0.25-0.11,0.391
		c-0.073,0.14-0.166,0.27-0.279,0.39s-0.24,0.22-0.38,0.3c-0.141,0.08-0.271,0.12-0.391,0.12h-3.08v-1.76h2.42v-4.86H387.277z"/>
	<path fill="#FFFFFF" d="M392.938,75.319h1.8v1.72h-1.8V75.319z"/>
	<path fill="#FFFFFF" d="M402.178,68.699v8.399l-6.44-6.1v-2.34l4.66,4.18v-4.14H402.178z M397.537,77.039h-1.8v-5.38l1.8,1.64
		V77.039z"/>
	<path fill="#FFFFFF" d="M403.178,68.699h5.74v1.76h-3.94v4.86h3.94v1.72h-5.74V68.699z M405.418,72.02h2.8v1.739h-2.8V72.02z"/>
	<path fill="#FFFFFF" d="M409.917,68.699h1.62v1.78h-1.62V68.699z M411.937,68.699h3.74v1.78h-1.939v6.56h-1.801V68.699z"/>
</g>
<g>
</g>
<g>
</g>
<g>
</g>
<g>
</g>
<g>
</g>
<g>
</g>
</svg>
