<?xml version="1.0" encoding="utf-8"?>
<!-- Generator: Adobe Illustrator 16.0.0, SVG Export Plug-In . SVG Version: 6.00 Build 0)  -->
<!DOCTYPE svg PUBLIC "-//W3C//DTD SVG 1.1//EN" "http://www.w3.org/Graphics/SVG/1.1/DTD/svg11.dtd">
<svg version="1.1" id="Ebene_1" xmlns="http://www.w3.org/2000/svg" xmlns:xlink="http://www.w3.org/1999/xlink" x="0px" y="0px"
	 width="212.599px" height="85.039px" viewBox="0 0 212.599 85.039" enable-background="new 0 0 212.599 85.039"
	 xml:space="preserve">
<rect x="0" width="212.599" height="85.039"/>
<g>
	<path fill="#FFFFFF" d="M136.539,70.198v-2.2l3.64,3.18l3.62-3.159v8.359h-1.8v-4.54l-1.82,1.739L136.539,70.198z M138.339,76.378
		h-1.8v-5.54l1.8,1.66V76.378z"/>
	<path fill="#FFFFFF" d="M144.799,68.038h5.7c0.506,0,0.76,0.26,0.76,0.779v3.541c0,0.492-0.254,0.738-0.76,0.738h-1.7l2.561,3.28
		h-2.221l-2.14-2.74v-2.278h2.438v-1.539h-2.858v6.56h-1.78V68.038L144.799,68.038z"/>
	<path fill="#FFFFFF" d="M152.24,70.198v-2.2l3.639,3.18l3.621-3.159v8.359h-1.801v-4.54l-1.82,1.739L152.24,70.198z
		 M154.038,76.378h-1.799v-5.54l1.799,1.66V76.378z"/>
	<path fill="#FFFFFF" d="M161.24,76.378c-0.494,0-0.74-0.246-0.74-0.74v-6.84c0-0.507,0.246-0.76,0.74-0.76h5v1.72h-3.94v6.62
		H161.24z M162.719,74.618h3.521v1.76h-3.521V74.618z"/>
	<path fill="#FFFFFF" d="M169.038,69.758v6.62h-1.8v-8.34h5.779c0.453,0,0.681,0.246,0.681,0.74v6.398c0,0.12-0.037,0.25-0.11,0.391
		s-0.166,0.271-0.279,0.391c-0.112,0.119-0.239,0.22-0.38,0.3s-0.271,0.12-0.391,0.12h-3.08v-1.76h2.42v-4.86H169.038z"/>
	<path fill="#FFFFFF" d="M174.699,74.657h1.8v1.721h-1.8V74.657z"/>
	<path fill="#FFFFFF" d="M183.939,68.038v8.398l-6.44-6.1v-2.34l4.66,4.18v-4.141h1.78V68.038z M179.298,76.378h-1.8v-5.38l1.8,1.64
		V76.378z"/>
	<path fill="#FFFFFF" d="M184.939,68.038h5.739v1.76h-3.939v4.859h3.939v1.721h-5.739V68.038z M187.178,71.358h2.8v1.739h-2.8
		V71.358z"/>
	<path fill="#FFFFFF" d="M191.677,68.038h1.62v1.779h-1.62V68.038z M193.698,68.038h3.74v1.779h-1.939v6.561h-1.801V68.038z"/>
</g>
<g>
	<path fill="#FFFFFF" d="M30.909,42.503h-9.196v12.464h-6.84V23.275h6.84v12.616h9.196V42.503z M39.345,23.275v31.692h-6.84V23.275
		H39.345z"/>
	<path fill="#FFFFFF" d="M43.221,26.163c0-1.925,0.937-2.888,2.812-2.888h18.848c1.925,0,2.888,0.988,2.888,2.964v28.728h-6.916
		V42.503h-9.196v-6.612h9.196v-5.928H50.061v25.004h-6.84V26.163z"/>
	<path fill="#FFFFFF" d="M74.38,54.967c-1.875,0-2.812-0.938-2.812-2.813V26.163c0-1.925,0.937-2.888,2.812-2.888h19v6.536H78.408
		v25.156H74.38z M80.004,48.279H93.38v6.688H80.004V48.279z"/>
	<path fill="#FFFFFF" d="M104.019,54.967h-6.84V23.275h6.84V54.967z M114.811,42.503h-9.196v-8.664l8.056-10.564h8.436
		l-9.728,12.616h6.308c2.026,0,3.04,0.963,3.04,2.888v16.188h-6.916V42.503z"/>
	<path fill="#FFFFFF" d="M125.906,23.275h6.84v31.692h-6.84V23.275z M134.343,48.431h12.008v6.536h-12.008V48.431z"/>
	<path fill="#FFFFFF" d="M150.149,23.275h21.812v6.688H156.99v18.468h14.972v6.536h-21.812V23.275z M158.661,35.891h10.64v6.612
		h-10.64V35.891z"/>
	<path fill="#FFFFFF" d="M175.76,23.275h6.156v6.764h-6.156V23.275z M183.437,23.275h14.212v6.764h-7.373v24.928h-6.839V23.275z"/>
</g>
</svg>
