<?xml version="1.0" encoding="utf-8"?>
<!-- Generator: Adobe Illustrator 16.0.0, SVG Export Plug-In . SVG Version: 6.00 Build 0)  -->
<!DOCTYPE svg PUBLIC "-//W3C//DTD SVG 1.1//EN" "http://www.w3.org/Graphics/SVG/1.1/DTD/svg11.dtd">
<svg version="1.1" id="Ebene_1" xmlns="http://www.w3.org/2000/svg" xmlns:xlink="http://www.w3.org/1999/xlink" x="0px" y="0px"
	 width="354.331px" height="85.039px" viewBox="0 0 354.331 85.039" enable-background="new 0 0 354.331 85.039"
	 xml:space="preserve">
<rect x="0" width="354.331" height="85.039"/>
<g>
	<path fill="#FFFFFF" d="M279.539,70.198v-2.2l3.64,3.18l3.62-3.159v8.359h-1.8v-4.54l-1.82,1.739L279.539,70.198z M281.339,76.378
		h-1.8v-5.54l1.8,1.66V76.378z"/>
	<path fill="#FFFFFF" d="M287.799,68.038h5.7c0.506,0,0.76,0.26,0.76,0.779v3.541c0,0.492-0.254,0.738-0.76,0.738h-1.7l2.561,3.28
		h-2.221l-2.14-2.74v-2.278h2.438v-1.539h-2.858v6.56h-1.78V68.038L287.799,68.038z"/>
	<path fill="#FFFFFF" d="M295.24,70.198v-2.2l3.639,3.18l3.621-3.159v8.359h-1.801v-4.54l-1.82,1.739L295.24,70.198z
		 M297.038,76.378h-1.799v-5.54l1.799,1.66V76.378z"/>
	<path fill="#FFFFFF" d="M304.24,76.378c-0.494,0-0.74-0.246-0.74-0.74v-6.84c0-0.507,0.246-0.76,0.74-0.76h5v1.72h-3.94v6.62
		H304.24z M305.719,74.618h3.521v1.76h-3.521V74.618z"/>
	<path fill="#FFFFFF" d="M312.038,69.758v6.62h-1.8v-8.34h5.779c0.453,0,0.681,0.246,0.681,0.74v6.398c0,0.12-0.037,0.25-0.11,0.391
		s-0.166,0.271-0.279,0.391c-0.112,0.119-0.239,0.22-0.38,0.3s-0.271,0.12-0.391,0.12h-3.08v-1.76h2.42v-4.86H312.038z"/>
	<path fill="#FFFFFF" d="M317.699,74.657h1.8v1.721h-1.8V74.657z"/>
	<path fill="#FFFFFF" d="M326.939,68.038v8.398l-6.44-6.1v-2.34l4.66,4.18v-4.141h1.78V68.038z M322.298,76.378h-1.8v-5.38l1.8,1.64
		V76.378z"/>
	<path fill="#FFFFFF" d="M327.939,68.038h5.739v1.76h-3.939v4.859h3.939v1.721h-5.739V68.038z M330.178,71.358h2.8v1.739h-2.8
		V71.358z"/>
	<path fill="#FFFFFF" d="M334.677,68.038h1.62v1.779h-1.62V68.038z M336.698,68.038h3.74v1.779h-1.939v6.561h-1.801V68.038z"/>
</g>
<g>
	<path fill="#FFFFFF" d="M29.083,42.503h-9.196v12.464h-6.84V23.275h6.84v12.616h9.196V42.503z M37.519,23.275v31.692h-6.84V23.275
		H37.519z"/>
	<path fill="#FFFFFF" d="M48.235,23.275v31.692h-4.028c-1.875,0-2.812-0.912-2.812-2.736V23.275H48.235z M45.65,13.471h6.84v6.536
		h-6.84V13.471z M49.83,48.431h9.196V23.275h6.84V52.23c0,1.824-0.836,2.736-2.508,2.736H49.83V48.431z M54.846,13.471h6.84v6.536
		h-6.84V13.471z"/>
	<path fill="#FFFFFF" d="M69.666,23.275h21.66c1.925,0,2.888,0.988,2.888,2.964v13.452c0,1.875-0.963,2.812-2.888,2.812h-6.46
		l9.728,12.464h-8.436l-8.132-10.412v-8.664h9.272v-5.852H76.43v24.928h-6.764V23.275z"/>
	<path fill="#FFFFFF" d="M104.778,29.811v25.156h-6.84V23.275h21.964c1.722,0,2.584,0.938,2.584,2.812v24.319
		c0,0.457-0.14,0.951-0.418,1.482c-0.279,0.532-0.634,1.026-1.064,1.482c-0.431,0.455-0.912,0.836-1.444,1.14
		c-0.532,0.304-1.026,0.456-1.482,0.456h-11.704v-6.688h9.196V29.811H104.778z"/>
	<path fill="#FFFFFF" d="M126.284,23.275h21.812v6.688h-14.972v18.468h14.972v6.536h-21.812V23.275z M134.797,35.891h10.64v6.612
		h-10.64V35.891z"/>
	<path fill="#FFFFFF" d="M176.368,23.275v31.92l-24.472-23.181v-8.892l17.708,15.884V23.275H176.368z M158.736,54.967h-6.84V34.523
		l6.84,6.232V54.967z"/>
	<path fill="#FFFFFF" d="M187.008,23.275v31.692h-6.84V23.275H187.008z M188.604,35.891h9.195V23.275h6.84v31.692h-6.84V42.503
		h-9.195V35.891z"/>
	<path fill="#FFFFFF" d="M208.44,26.163c0-1.925,0.937-2.888,2.812-2.888h18.847c1.926,0,2.889,0.988,2.889,2.964v28.728h-6.916
		V42.503h-9.195v-6.612h9.195v-5.928H215.28v25.004h-6.84V26.163z"/>
	<path fill="#FFFFFF" d="M239.598,54.967c-1.875,0-2.813-0.938-2.813-2.813V26.163c0-1.925,0.938-2.888,2.813-2.888h19v6.536
		h-14.973v25.156H239.598z M245.221,48.279h13.377v6.688h-13.377V48.279z"/>
	<path fill="#FFFFFF" d="M269.237,54.967h-6.84V23.275h6.84V54.967z M280.03,42.503h-9.197v-8.664l8.057-10.564h8.436l-9.729,12.616
		h6.309c2.025,0,3.041,0.963,3.041,2.888v16.188h-6.916V42.503z"/>
	<path fill="#FFFFFF" d="M291.124,23.275h21.813v6.688h-14.973v18.468h14.973v6.536h-21.813V23.275z M299.635,35.891h10.641v6.612
		h-10.641V35.891z"/>
	<path fill="#FFFFFF" d="M316.735,23.275h21.66c1.926,0,2.889,0.988,2.889,2.964v13.452c0,1.875-0.963,2.812-2.889,2.812h-6.461
		l9.729,12.464h-8.436l-8.133-10.412v-8.664h9.273v-5.852h-10.869v24.928h-6.764V23.275z"/>
</g>
</svg>
