<?xml version="1.0" encoding="utf-8"?>
<!-- Generator: Adobe Illustrator 16.0.0, SVG Export Plug-In . SVG Version: 6.00 Build 0)  -->
<!DOCTYPE svg PUBLIC "-//W3C//DTD SVG 1.1//EN" "http://www.w3.org/Graphics/SVG/1.1/DTD/svg11.dtd">
<svg version="1.1" id="Ebene_1" xmlns="http://www.w3.org/2000/svg" xmlns:xlink="http://www.w3.org/1999/xlink" x="0px" y="0px"
	 width="425.2px" height="85.04px" viewBox="0 0 425.2 85.04" enable-background="new 0 0 425.2 85.04" xml:space="preserve">
<rect x="0.001" y="0" width="425.198" height="85.039"/>
<g>
	<path fill="#FFFFFF" d="M19.747,46.581v9.13h-4.95V32.776h4.895v9.02l7.04-9.02h6.105l-10.89,13.805H19.747z M23.652,46.581
		l3.74-4.785h3.08c1.393,0,2.09,0.642,2.09,1.925v11.99h-5.005v-9.13H23.652z"/>
	<path fill="#FFFFFF" d="M40.042,55.656h-2.915c-1.357,0-2.035-0.678-2.035-2.035v-18.92c0-1.32,0.678-1.98,2.035-1.98h13.86
		c1.246,0,1.87,0.66,1.87,1.98v18.811c0,1.43-0.697,2.145-2.09,2.145h-9.515v-4.84h6.6V37.451h-7.81V55.656z"/>
	<path fill="#FFFFFF" d="M55.606,32.721h15.785v4.84H60.556v18.095h-4.95V32.721z M61.766,41.851h7.7v4.786h-7.7V41.851z"/>
	<path fill="#FFFFFF" d="M74.14,32.721h15.785v4.84H79.09v18.095h-4.95V32.721z M80.3,41.851H88v4.786h-7.7V41.851z"/>
	<path fill="#FFFFFF" d="M92.675,32.721h15.786v4.84H97.625v13.365h10.836v4.73H92.675V32.721z M98.835,41.851h7.699v4.786h-7.699
		V41.851z"/>
	<path fill="#FFFFFF" d="M111.209,55.656V32.721h4.95v22.935H111.209z"/>
	<path fill="#FFFFFF" d="M136.619,32.721v23.1l-17.71-16.775v-6.435l12.815,11.495V32.721H136.619z M123.859,55.656h-4.95V40.861
		l4.95,4.51V55.656z"/>
	<path fill="#FFFFFF" d="M153.173,55.656V32.721h4.95v22.935H153.173z"/>
	<path fill="#FFFFFF" d="M165.824,37.561v9.076h-2.915c-1.357,0-2.035-0.642-2.035-1.926v-9.955c0-1.356,0.678-2.035,2.035-2.035
		h15.675v4.84H165.824z M176.659,41.851c0.623,0,1.1,0.202,1.43,0.605c0.33,0.404,0.495,0.917,0.495,1.54v9.68
		c0,1.32-0.604,1.98-1.815,1.98h-15.895v-4.73h12.76v-4.289h-6.654v-4.786H176.659z"/>
	<path fill="#FFFFFF" d="M181.333,32.721h4.455v4.895h-4.455V32.721z M186.888,32.721h10.285v4.895h-5.335v18.04h-4.95V32.721z"/>
	<path fill="#FFFFFF" d="M218.678,55.656h-4.951V32.721h4.951V55.656z M226.486,46.637h-6.654v-6.271l5.83-7.645h6.105l-7.041,9.13
		h4.566c1.465,0,2.199,0.697,2.199,2.09v11.715h-5.006V46.637z"/>
	<path fill="#FFFFFF" d="M234.518,32.721h15.785v4.84h-10.836v13.365h10.836v4.73h-15.785V32.721z M240.678,41.851h7.699v4.786
		h-7.699V41.851z"/>
	<path fill="#FFFFFF" d="M253.051,55.656V32.721h4.951v22.935H253.051z"/>
	<path fill="#FFFFFF" d="M278.461,32.721v23.1l-17.709-16.775v-6.435l12.814,11.495V32.721H278.461z M265.701,55.656h-4.949V40.861
		l4.949,4.51V55.656z"/>
	<path fill="#FFFFFF" d="M299.965,32.721v18.095h7.811V37.451h-6.654v-4.73h9.789c1.246,0,1.869,0.679,1.869,2.035v17.6
		c0,0.329-0.1,0.688-0.301,1.072c-0.203,0.386-0.459,0.743-0.771,1.073c-0.311,0.329-0.66,0.604-1.045,0.824
		c-0.385,0.221-0.742,0.33-1.072,0.33h-14.574V32.721H299.965z"/>
	<path fill="#FFFFFF" d="M320.48,55.656h-2.916c-1.357,0-2.035-0.678-2.035-2.035v-18.92c0-1.32,0.678-1.98,2.035-1.98h13.859
		c1.246,0,1.871,0.66,1.871,1.98v18.811c0,1.43-0.697,2.145-2.09,2.145h-9.516v-4.84h6.6V37.451h-7.809V55.656z"/>
	<path fill="#FFFFFF" d="M336.045,32.721h15.785c1.355,0,2.035,0.715,2.035,2.145v9.735c0,1.356-0.68,2.035-2.035,2.035h-9.68
		v-4.786h6.709v-4.29h-7.865v18.095h-4.949V32.721z"/>
	<path fill="#FFFFFF" d="M356.613,55.656V32.721h4.951v22.935H356.613z"/>
	<path fill="#FFFFFF" d="M382.023,32.721v23.1l-17.709-16.775v-6.435l12.814,11.495V32.721H382.023z M369.264,55.656h-4.949V40.861
		l4.949,4.51V55.656z"/>
	<path fill="#FFFFFF" d="M386.809,55.656c-1.357,0-2.035-0.66-2.035-1.98V34.756c0-1.356,0.678-2.035,2.035-2.035h15.674v4.84
		h-12.76v18.095H386.809z M392.639,41.851h9.844v11.825c0,1.32-0.604,1.98-1.814,1.98h-9.789v-4.73h6.654v-4.289h-4.895V41.851z"/>
	<path fill="#FFFFFF" d="M405.232,50.926h4.951v4.73h-4.951V50.926z"/>
</g>
<g>
	<path fill="#FFFFFF" d="M349.778,70.859v-2.2l3.64,3.18l3.62-3.16v8.36h-1.8v-4.54l-1.82,1.74L349.778,70.859z M351.578,77.039
		h-1.8v-5.54l1.8,1.66V77.039z"/>
	<path fill="#FFFFFF" d="M358.038,68.699h5.7c0.506,0,0.76,0.26,0.76,0.78v3.54c0,0.493-0.254,0.739-0.76,0.739h-1.7l2.56,3.28
		h-2.22l-2.14-2.74V72.02h2.439v-1.54h-2.859v6.56h-1.78V68.699z"/>
	<path fill="#FFFFFF" d="M365.479,70.859v-2.2l3.639,3.18l3.621-3.16v8.36h-1.801v-4.54l-1.82,1.74L365.479,70.859z M367.277,77.039
		h-1.799v-5.54l1.799,1.66V77.039z"/>
	<path fill="#FFFFFF" d="M374.479,77.039c-0.494,0-0.74-0.246-0.74-0.74v-6.84c0-0.507,0.246-0.76,0.74-0.76h5v1.72h-3.94v6.62
		H374.479z M375.958,75.279h3.521v1.76h-3.521V75.279z"/>
	<path fill="#FFFFFF" d="M382.277,70.419v6.62h-1.8v-8.34h5.78c0.453,0,0.68,0.247,0.68,0.74v6.399c0,0.12-0.037,0.25-0.11,0.391
		c-0.073,0.14-0.166,0.27-0.279,0.39s-0.24,0.22-0.38,0.3c-0.141,0.08-0.271,0.12-0.391,0.12h-3.08v-1.76h2.42v-4.86H382.277z"/>
	<path fill="#FFFFFF" d="M387.938,75.319h1.8v1.72h-1.8V75.319z"/>
	<path fill="#FFFFFF" d="M397.178,68.699v8.399l-6.44-6.1v-2.34l4.66,4.18v-4.14H397.178z M392.537,77.039h-1.8v-5.38l1.8,1.64
		V77.039z"/>
	<path fill="#FFFFFF" d="M398.178,68.699h5.74v1.76h-3.94v4.86h3.94v1.72h-5.74V68.699z M400.418,72.02h2.8v1.739h-2.8V72.02z"/>
	<path fill="#FFFFFF" d="M404.917,68.699h1.62v1.78h-1.62V68.699z M406.937,68.699h3.74v1.78h-1.939v6.56h-1.801V68.699z"/>
</g>
<g>
</g>
<g>
</g>
<g>
</g>
<g>
</g>
<g>
</g>
<g>
</g>
</svg>
