<?xml version="1.0" encoding="utf-8"?>
<!-- Generator: Adobe Illustrator 16.0.0, SVG Export Plug-In . SVG Version: 6.00 Build 0)  -->
<!DOCTYPE svg PUBLIC "-//W3C//DTD SVG 1.1//EN" "http://www.w3.org/Graphics/SVG/1.1/DTD/svg11.dtd">
<svg version="1.1" id="Ebene_1" xmlns="http://www.w3.org/2000/svg" xmlns:xlink="http://www.w3.org/1999/xlink" x="0px" y="0px"
	 width="425.197px" height="85.039px" viewBox="0 0 425.197 85.039" enable-background="new 0 0 425.197 85.039"
	 xml:space="preserve">
<rect x="0" width="425.197" height="85.039"/>
<g>
	<path fill="#FFFFFF" d="M345.539,70.198v-2.2l3.64,3.18l3.62-3.159v8.359h-1.8v-4.54l-1.82,1.739L345.539,70.198z M347.339,76.378
		h-1.8v-5.54l1.8,1.66V76.378z"/>
	<path fill="#FFFFFF" d="M353.799,68.038h5.7c0.506,0,0.76,0.26,0.76,0.779v3.541c0,0.492-0.254,0.738-0.76,0.738h-1.7l2.561,3.28
		h-2.221l-2.14-2.74v-2.278h2.438v-1.539h-2.858v6.56h-1.78V68.038L353.799,68.038z"/>
	<path fill="#FFFFFF" d="M361.24,70.198v-2.2l3.639,3.18l3.621-3.159v8.359h-1.801v-4.54l-1.82,1.739L361.24,70.198z
		 M363.038,76.378h-1.799v-5.54l1.799,1.66V76.378z"/>
	<path fill="#FFFFFF" d="M370.24,76.378c-0.494,0-0.74-0.246-0.74-0.74v-6.84c0-0.507,0.246-0.76,0.74-0.76h5v1.72h-3.94v6.62
		H370.24z M371.719,74.618h3.521v1.76h-3.521V74.618z"/>
	<path fill="#FFFFFF" d="M378.038,69.758v6.62h-1.8v-8.34h5.779c0.453,0,0.681,0.246,0.681,0.74v6.398c0,0.12-0.037,0.25-0.11,0.391
		s-0.166,0.271-0.279,0.391c-0.112,0.119-0.239,0.22-0.38,0.3s-0.271,0.12-0.391,0.12h-3.08v-1.76h2.42v-4.86H378.038z"/>
	<path fill="#FFFFFF" d="M383.699,74.657h1.8v1.721h-1.8V74.657z"/>
	<path fill="#FFFFFF" d="M392.939,68.038v8.398l-6.44-6.1v-2.34l4.66,4.18v-4.141h1.78V68.038z M388.298,76.378h-1.8v-5.38l1.8,1.64
		V76.378z"/>
	<path fill="#FFFFFF" d="M393.939,68.038h5.739v1.76h-3.939v4.859h3.939v1.721h-5.739V68.038z M396.178,71.358h2.8v1.739h-2.8
		V71.358z"/>
	<path fill="#FFFFFF" d="M400.677,68.038h1.62v1.779h-1.62V68.038z M402.698,68.038h3.74v1.779h-1.939v6.561h-1.801V68.038z"/>
</g>
<g>
	<path fill="#FFFFFF" d="M20.209,55.043c-1.875,0-2.812-0.962-2.812-2.889V23.275h6.84v31.692L20.209,55.043z M25.833,48.431h12.008
		v6.536H25.833V48.431z"/>
	<path fill="#FFFFFF" d="M41.64,23.275h21.812v6.688H48.48v18.468h14.972v6.536H41.64V23.275z M50.152,35.891h10.64v6.612h-10.64
		V35.891z"/>
	<path fill="#FFFFFF" d="M67.251,54.967V23.275h6.84v31.692H67.251z"/>
	<path fill="#FFFFFF" d="M80.703,54.967c-1.875,0-2.812-0.938-2.812-2.813V26.163c0-1.925,0.937-2.888,2.812-2.888h19v6.536H84.732
		v25.156H80.703z M86.327,48.279h13.376v6.688H86.327V48.279z"/>
	<path fill="#FFFFFF" d="M110.343,23.275v31.692h-6.84V23.275H110.343z M111.939,35.891h9.196V23.275h6.84v31.692h-6.84V42.503
		h-9.196V35.891z"/>
	<path fill="#FFFFFF" d="M131.774,23.275h6.156v6.764h-6.156V23.275z M139.45,23.275h14.212v6.764h-7.372v24.928h-6.84V23.275z"/>
	<path fill="#FFFFFF" d="M164.302,23.275v31.692h-6.84V23.275H164.302z M165.898,35.891h9.196V23.275h6.84v31.692h-6.84V42.503
		h-9.196V35.891z"/>
	<path fill="#FFFFFF" d="M185.734,26.163c0-1.925,0.937-2.888,2.812-2.888h18.848c1.926,0,2.889,0.988,2.889,2.964v28.728h-6.916
		V42.503h-9.197v-6.612h9.197v-5.928h-10.793v25.004h-6.84V26.163z"/>
	<path fill="#FFFFFF" d="M216.893,54.967c-1.875,0-2.813-0.938-2.813-2.813V26.163c0-1.925,0.938-2.888,2.813-2.888h19v6.536
		h-14.973v25.156H216.893z M222.516,48.279h13.377v6.688h-13.377V48.279z"/>
	<path fill="#FFFFFF" d="M246.532,54.967h-6.84V23.275h6.84V54.967z M257.325,42.503h-9.197v-8.664l8.057-10.564h8.436
		l-9.729,12.616h6.309c2.025,0,3.041,0.963,3.041,2.888v16.188h-6.916V42.503z"/>
	<path fill="#FFFFFF" d="M268.419,23.275h6.84v31.692h-6.84V23.275z M276.854,48.431h12.008v6.536h-12.008V48.431z"/>
	<path fill="#FFFFFF" d="M292.663,23.275h21.811v6.688h-14.971v18.468h14.971v6.536h-21.811V23.275z M301.175,35.891h10.639v6.612
		h-10.639V35.891z"/>
	<path fill="#FFFFFF" d="M318.274,23.275h6.154v6.764h-6.154V23.275z M325.95,23.275h14.211v6.764h-7.371v24.928h-6.84V23.275z"/>
	<path fill="#FFFFFF" d="M350.802,23.275v31.692h-6.84V23.275H350.802z M352.397,35.891h9.195V23.275h6.84v31.692h-6.84V42.503
		h-9.195V35.891z"/>
	<path fill="#FFFFFF" d="M372.233,54.967V23.275h6.84v31.692H372.233z"/>
	<path fill="#FFFFFF" d="M389.714,54.967h-6.84V23.275h6.84V54.967z M400.505,42.503h-9.195v-8.664l8.055-10.564h8.438
		l-9.729,12.616h6.309c2.025,0,3.039,0.963,3.039,2.888v16.188h-6.916V42.503z"/>
</g>
</svg>
