<?xml version="1.0" encoding="utf-8"?>
<!-- Generator: Adobe Illustrator 16.0.0, SVG Export Plug-In . SVG Version: 6.00 Build 0)  -->
<!DOCTYPE svg PUBLIC "-//W3C//DTD SVG 1.1//EN" "http://www.w3.org/Graphics/SVG/1.1/DTD/svg11.dtd">
<svg version="1.1" id="Ebene_1" xmlns="http://www.w3.org/2000/svg" xmlns:xlink="http://www.w3.org/1999/xlink" x="0px" y="0px"
	 width="368.504px" height="85.04px" viewBox="0 0 368.504 85.04" enable-background="new 0 0 368.504 85.04" xml:space="preserve">
<rect x="0.001" y="0" width="368.504" height="85.039"/>
<g>
	<path fill="#FFFFFF" d="M26.053,45.856l-6.37-6.09v15.89h-6.3v-29.26l12.67,11.06l12.74-11.13v7.7L26.053,45.856z M32.493,42.076
		l6.3-5.81v19.39h-6.3V42.076z"/>
	<path fill="#FFFFFF" d="M42.293,29.126c0-1.773,0.863-2.66,2.59-2.66h17.36c1.773,0,2.66,0.91,2.66,2.73v26.46h-6.37v-11.48h-8.47
		v-6.089h8.47v-5.46h-9.94v23.03h-6.3V29.126z"/>
	<path fill="#FFFFFF" d="M68.402,26.466h19.95c1.773,0,2.66,0.91,2.66,2.73v12.39c0,1.727-0.887,2.589-2.66,2.589h-5.95l8.96,11.48
		h-7.77l-7.49-9.59v-7.98h8.54v-5.39h-10.01v22.96h-6.23V26.466z"/>
	<path fill="#FFFFFF" d="M94.441,29.126c0-1.773,0.864-2.66,2.59-2.66h17.359c1.773,0,2.66,0.91,2.66,2.73v26.46h-6.369v-11.48
		h-8.471v-6.089h8.471v-5.46h-9.941v23.03h-6.299V29.126z"/>
	<path fill="#FFFFFF" d="M120.55,26.466h5.67v6.23h-5.67V26.466z M127.621,26.466h13.09v6.23h-6.79v22.96h-6.3V26.466z"/>
	<path fill="#FFFFFF" d="M150.51,26.466v29.19h-6.3v-29.19H150.51z M151.98,38.086h8.471v-11.62h6.3v29.19h-6.3v-11.48h-8.471
		V38.086z"/>
	<path fill="#FFFFFF" d="M176.549,55.656h-3.71c-1.727,0-2.59-0.863-2.59-2.59v-24.08c0-1.68,0.863-2.52,2.59-2.52h17.641
		c1.586,0,2.38,0.84,2.38,2.52v23.939c0,1.82-0.888,2.73-2.66,2.73h-12.11v-6.16h8.4v-17.01h-9.94V55.656z"/>
	<path fill="#FFFFFF" d="M218.898,26.466v29.4l-22.54-21.35v-8.19l16.31,14.63v-14.49H218.898z M202.659,55.656h-6.3v-18.83
		l6.3,5.74V55.656z"/>
	<path fill="#FFFFFF" d="M224.988,55.656c-1.727,0-2.59-0.863-2.59-2.59v-23.94c0-1.773,0.863-2.66,2.59-2.66h17.5v6.02h-13.789
		v23.17H224.988z M230.168,49.496h12.32v6.16h-12.32V49.496z"/>
	<path fill="#FFFFFF" d="M252.287,55.656h-3.709c-1.727,0-2.59-0.863-2.59-2.59v-24.08c0-1.68,0.863-2.52,2.59-2.52h17.641
		c1.586,0,2.379,0.84,2.379,2.52v23.939c0,1.82-0.887,2.73-2.66,2.73h-12.109v-6.16h8.4v-17.01h-9.941V55.656z"/>
	<path fill="#FFFFFF" d="M278.396,32.486v23.17h-6.299v-29.19h20.23c1.586,0,2.379,0.864,2.379,2.59v22.4
		c0,0.421-0.129,0.875-0.385,1.365c-0.258,0.489-0.584,0.944-0.98,1.364c-0.396,0.421-0.84,0.771-1.33,1.051
		c-0.49,0.279-0.945,0.42-1.365,0.42h-10.779v-6.16h8.471v-17.01H278.396z"/>
	<path fill="#FFFFFF" d="M298.205,26.466h20.09v6.16h-13.789v17.01h13.789v6.02h-20.09V26.466z M306.045,38.086h9.801v6.089h-9.801
		V38.086z"/>
	<path fill="#FFFFFF" d="M321.795,26.466h19.951c1.771,0,2.66,0.91,2.66,2.73v12.39c0,1.727-0.889,2.589-2.66,2.589h-5.951
		l8.961,11.48h-7.77l-7.49-9.59v-7.98h8.539v-5.39h-10.01v22.96h-6.23V26.466z"/>
	<path fill="#FFFFFF" d="M347.834,49.637h6.301v6.02h-6.301V49.637z"/>
</g>
<g>
	<path fill="#FFFFFF" d="M293.278,70.859v-2.2l3.64,3.18l3.62-3.16v8.36h-1.8v-4.54l-1.82,1.74L293.278,70.859z M295.078,77.039
		h-1.8v-5.54l1.8,1.66V77.039z"/>
	<path fill="#FFFFFF" d="M301.538,68.699h5.7c0.506,0,0.76,0.26,0.76,0.78v3.54c0,0.493-0.254,0.739-0.76,0.739h-1.7l2.56,3.28
		h-2.22l-2.14-2.74V72.02h2.439v-1.54h-2.859v6.56h-1.78V68.699z"/>
	<path fill="#FFFFFF" d="M308.979,70.859v-2.2l3.639,3.18l3.621-3.16v8.36h-1.801v-4.54l-1.82,1.74L308.979,70.859z M310.777,77.039
		h-1.799v-5.54l1.799,1.66V77.039z"/>
	<path fill="#FFFFFF" d="M317.979,77.039c-0.494,0-0.74-0.246-0.74-0.74v-6.84c0-0.507,0.246-0.76,0.74-0.76h5v1.72h-3.94v6.62
		H317.979z M319.458,75.279h3.521v1.76h-3.521V75.279z"/>
	<path fill="#FFFFFF" d="M325.777,70.419v6.62h-1.8v-8.34h5.78c0.453,0,0.68,0.247,0.68,0.74v6.399c0,0.12-0.037,0.25-0.11,0.391
		c-0.073,0.14-0.166,0.27-0.279,0.39s-0.24,0.22-0.38,0.3c-0.141,0.08-0.271,0.12-0.391,0.12h-3.08v-1.76h2.42v-4.86H325.777z"/>
	<path fill="#FFFFFF" d="M331.438,75.319h1.8v1.72h-1.8V75.319z"/>
	<path fill="#FFFFFF" d="M340.678,68.699v8.399l-6.44-6.1v-2.34l4.66,4.18v-4.14H340.678z M336.037,77.039h-1.8v-5.38l1.8,1.64
		V77.039z"/>
	<path fill="#FFFFFF" d="M341.678,68.699h5.74v1.76h-3.94v4.86h3.94v1.72h-5.74V68.699z M343.918,72.02h2.8v1.739h-2.8V72.02z"/>
	<path fill="#FFFFFF" d="M348.417,68.699h1.62v1.78h-1.62V68.699z M350.437,68.699h3.74v1.78h-1.939v6.56h-1.801V68.699z"/>
</g>
<g>
</g>
<g>
</g>
<g>
</g>
<g>
</g>
<g>
</g>
<g>
</g>
</svg>
