<?xml version="1.0" encoding="utf-8"?>
<!-- Generator: Adobe Illustrator 16.0.0, SVG Export Plug-In . SVG Version: 6.00 Build 0)  -->
<!DOCTYPE svg PUBLIC "-//W3C//DTD SVG 1.1//EN" "http://www.w3.org/Graphics/SVG/1.1/DTD/svg11.dtd">
<svg version="1.1" id="Ebene_1" xmlns="http://www.w3.org/2000/svg" xmlns:xlink="http://www.w3.org/1999/xlink" x="0px" y="0px"
	 width="425.2px" height="85.04px" viewBox="0 0 425.2 85.04" enable-background="new 0 0 425.2 85.04" xml:space="preserve">
<rect x="0.001" y="0" width="425.198" height="85.039"/>
<g>
	<path fill="#FFFFFF" d="M20.433,55.656h-5.785V31.021c0-1.646,0.801-2.47,2.405-2.47h16.12c1.646,0,2.47,0.845,2.47,2.535v11.505
		c0,1.604-0.824,2.405-2.47,2.405h-5.525l8.32,10.66h-7.215l-6.955-8.904v-7.411h7.93v-5.005h-9.295V55.656z"/>
	<path fill="#FFFFFF" d="M44.742,55.656h-3.445c-1.604,0-2.405-0.801-2.405-2.404V30.891c0-1.56,0.801-2.34,2.405-2.34h16.38
		c1.473,0,2.21,0.78,2.21,2.34v22.23c0,1.689-0.824,2.535-2.47,2.535H46.172v-5.721h7.8V34.141h-9.23V55.656z"/>
	<path fill="#FFFFFF" d="M68.986,55.656h-3.445c-1.604,0-2.405-0.801-2.405-2.404V30.891c0-1.56,0.801-2.34,2.405-2.34h16.38
		c1.473,0,2.21,0.78,2.21,2.34v22.23c0,1.689-0.824,2.535-2.47,2.535H70.416v-5.721h7.8V34.141h-9.23V55.656z"/>
	<path fill="#FFFFFF" d="M87.38,28.551h5.265v5.785H87.38V28.551z M93.945,28.551H106.1v5.785h-6.305v21.32h-5.85V28.551z"/>
	<path fill="#FFFFFF" d="M131.514,34.271v10.725h-3.444c-1.604,0-2.405-0.758-2.405-2.275V30.956c0-1.603,0.802-2.405,2.405-2.405
		h18.524v5.72H131.514z M144.32,39.341c0.736,0,1.3,0.239,1.689,0.715c0.391,0.478,0.585,1.084,0.585,1.82v11.44
		c0,1.561-0.715,2.34-2.145,2.34h-18.785v-5.59h15.08v-5.07h-7.865v-5.655H144.32z"/>
	<path fill="#FFFFFF" d="M149.844,28.551H168.5v5.72h-12.806v15.795H168.5v5.59h-18.655V28.551z M157.125,39.341h9.1v5.655h-9.1
		V39.341z"/>
	<path fill="#FFFFFF" d="M171.749,55.656V28.551h5.85v27.105H171.749z"/>
	<path fill="#FFFFFF" d="M201.778,28.551v27.3l-20.93-19.825v-7.605l15.145,13.585V28.551H201.778z M186.698,55.656h-5.85V38.171
		l5.85,5.33V55.656z"/>
	<path fill="#FFFFFF" d="M221.342,55.656V28.551h5.85v27.105H221.342z"/>
	<path fill="#FFFFFF" d="M236.293,34.271v10.725h-3.445c-1.604,0-2.404-0.758-2.404-2.275V30.956c0-1.603,0.801-2.405,2.404-2.405
		h18.525v5.72H236.293z M249.098,39.341c0.736,0,1.301,0.239,1.689,0.715c0.391,0.478,0.586,1.084,0.586,1.82v11.44
		c0,1.561-0.715,2.34-2.145,2.34h-18.785v-5.59h15.08v-5.07h-7.865v-5.655H249.098z"/>
	<path fill="#FFFFFF" d="M254.623,28.551h5.264v5.785h-5.264V28.551z M261.188,28.551h12.154v5.785h-6.305v21.32h-5.85V28.551z"/>
	<path fill="#FFFFFF" d="M292.906,31.021c0-1.646,0.803-2.47,2.406-2.47h16.119c1.646,0,2.471,0.845,2.471,2.535v24.57h-5.916
		v-10.66h-7.865v-5.655h7.865v-5.07h-9.23v21.385h-5.85V31.021z"/>
	<path fill="#FFFFFF" d="M317.15,28.551H323v27.105h-5.85V28.551z M324.365,50.066h10.271v5.59h-10.271V50.066z"/>
	<path fill="#FFFFFF" d="M337.885,28.551h5.85v27.105h-5.85V28.551z M345.1,50.066h10.27v5.59H345.1V50.066z"/>
	<path fill="#FFFFFF" d="M358.619,28.551h18.654v5.72h-12.805v15.795h12.805v5.59h-18.654V28.551z M365.898,39.341h9.1v5.655h-9.1
		V39.341z"/>
	<path fill="#FFFFFF" d="M386.373,34.271v10.725h-3.445c-1.604,0-2.404-0.758-2.404-2.275V30.956c0-1.603,0.801-2.405,2.404-2.405
		h18.525v5.72H386.373z M399.178,39.341c0.736,0,1.301,0.239,1.689,0.715c0.391,0.478,0.586,1.084,0.586,1.82v11.44
		c0,1.561-0.715,2.34-2.145,2.34h-18.785v-5.59h15.08v-5.07h-7.865v-5.655H399.178z"/>
	<path fill="#FFFFFF" d="M404.703,50.066h5.85v5.59h-5.85V50.066z"/>
</g>
<g>
	<path fill="#FFFFFF" d="M349.778,70.859v-2.2l3.64,3.18l3.62-3.16v8.36h-1.8v-4.54l-1.82,1.74L349.778,70.859z M351.578,77.039
		h-1.8v-5.54l1.8,1.66V77.039z"/>
	<path fill="#FFFFFF" d="M358.038,68.699h5.7c0.506,0,0.76,0.26,0.76,0.78v3.54c0,0.493-0.254,0.739-0.76,0.739h-1.7l2.56,3.28
		h-2.22l-2.14-2.74V72.02h2.439v-1.54h-2.859v6.56h-1.78V68.699z"/>
	<path fill="#FFFFFF" d="M365.479,70.859v-2.2l3.639,3.18l3.621-3.16v8.36h-1.801v-4.54l-1.82,1.74L365.479,70.859z M367.277,77.039
		h-1.799v-5.54l1.799,1.66V77.039z"/>
	<path fill="#FFFFFF" d="M374.479,77.039c-0.494,0-0.74-0.246-0.74-0.74v-6.84c0-0.507,0.246-0.76,0.74-0.76h5v1.72h-3.94v6.62
		H374.479z M375.958,75.279h3.521v1.76h-3.521V75.279z"/>
	<path fill="#FFFFFF" d="M382.277,70.419v6.62h-1.8v-8.34h5.78c0.453,0,0.68,0.247,0.68,0.74v6.399c0,0.12-0.037,0.25-0.11,0.391
		c-0.073,0.14-0.166,0.27-0.279,0.39s-0.24,0.22-0.38,0.3c-0.141,0.08-0.271,0.12-0.391,0.12h-3.08v-1.76h2.42v-4.86H382.277z"/>
	<path fill="#FFFFFF" d="M387.938,75.319h1.8v1.72h-1.8V75.319z"/>
	<path fill="#FFFFFF" d="M397.178,68.699v8.399l-6.44-6.1v-2.34l4.66,4.18v-4.14H397.178z M392.537,77.039h-1.8v-5.38l1.8,1.64
		V77.039z"/>
	<path fill="#FFFFFF" d="M398.178,68.699h5.74v1.76h-3.94v4.86h3.94v1.72h-5.74V68.699z M400.418,72.02h2.8v1.739h-2.8V72.02z"/>
	<path fill="#FFFFFF" d="M404.917,68.699h1.62v1.78h-1.62V68.699z M406.937,68.699h3.74v1.78h-1.939v6.56h-1.801V68.699z"/>
</g>
<g>
</g>
<g>
</g>
<g>
</g>
<g>
</g>
<g>
</g>
<g>
</g>
</svg>
