<?xml version="1.0" encoding="utf-8"?>
<!-- Generator: Adobe Illustrator 16.0.0, SVG Export Plug-In . SVG Version: 6.00 Build 0)  -->
<!DOCTYPE svg PUBLIC "-//W3C//DTD SVG 1.1//EN" "http://www.w3.org/Graphics/SVG/1.1/DTD/svg11.dtd">
<svg version="1.1" id="Ebene_1" xmlns="http://www.w3.org/2000/svg" xmlns:xlink="http://www.w3.org/1999/xlink" x="0px" y="0px"
	 width="425.197px" height="113.387px" viewBox="0 0 425.197 113.387" enable-background="new 0 0 425.197 113.387"
	 xml:space="preserve">
<rect y="0" width="425.197" height="113.387"/>
<g id="Ebene_2">
	<g>
		<path fill="#FFFFFF" d="M55.196,34.469v8.535H32.691v7.565h11.64v8.438h-16.78c-2.394,0-3.589-1.13-3.589-3.396V38.057
			c0-2.393,1.196-3.59,3.589-3.59h27.645V34.469z M46.466,66.575V50.57h5.335c1.099,0,1.94,0.355,2.522,1.067
			c0.582,0.712,0.873,1.616,0.873,2.716v17.071c0,2.328-1.067,3.492-3.201,3.492H23.961v-8.343L46.466,66.575L46.466,66.575z"/>
		<path fill="#FFFFFF" d="M60.045,34.469h27.839c2.392,0,3.589,1.261,3.589,3.782v17.169c0,2.394-1.197,3.59-3.589,3.59H70.812
			v-8.44h11.834v-7.565H68.775v31.913h-8.73V34.469z"/>
		<path fill="#FFFFFF" d="M105.052,74.918h-5.141c-2.394,0-3.589-1.194-3.589-3.589V37.961c0-2.328,1.196-3.491,3.589-3.491h24.444
			c2.198,0,3.298,1.163,3.298,3.491v33.175c0,2.521-1.229,3.782-3.686,3.782h-16.781v-8.536h11.64V42.81h-13.774V74.918z"/>
		<path fill="#FFFFFF" d="M132.502,34.469h27.645c2.457,0,3.686,1.261,3.686,3.782v17.169c0,2.394-1.229,3.59-3.686,3.59h-8.245
			l12.416,15.907h-10.767l-10.379-13.289V50.57h11.834v-7.469h-13.871v31.815h-8.633V34.469L132.502,34.469z"/>
		<path fill="#FFFFFF" d="M168.585,34.469h7.857v8.633h-7.857V34.469z M178.383,34.469h18.139v8.633h-9.409v31.815h-8.73V34.469
			L178.383,34.469z"/>
		<path fill="#FFFFFF" d="M210.101,34.469v40.448h-8.73V34.469H210.101z M212.138,50.57h11.736V34.469h8.73v40.448h-8.73V59.01
			h-11.736V50.57z"/>
		<path fill="#FFFFFF" d="M237.455,38.154c0-2.457,1.194-3.687,3.59-3.687h24.056c2.457,0,3.687,1.262,3.687,3.783v36.666h-8.826
			V59.01h-11.737v-8.44h11.737v-7.565h-13.774v31.913h-8.729V38.154H237.455z"/>
		<path fill="#FFFFFF" d="M277.224,74.918c-2.395,0-3.59-1.194-3.59-3.589V38.154c0-2.457,1.195-3.687,3.59-3.687h24.25v8.343
			h-19.108v32.106L277.224,74.918L277.224,74.918z M284.401,66.382h17.071v8.536h-17.071V66.382z"/>
		<path fill="#FFFFFF" d="M315.053,74.918h-8.729V34.469h8.729V74.918z M328.826,59.01H317.09v-11.06l10.281-13.481h10.769
			L325.723,50.57h8.052c2.586,0,3.882,1.229,3.882,3.687v20.661h-8.828V59.01H328.826z"/>
		<path fill="#FFFFFF" d="M342.988,34.469h27.838v8.535H351.72v23.57h19.106v8.343h-27.838V34.469z M353.852,50.57h13.58v8.438
			h-13.58V50.57z"/>
		<path fill="#FFFFFF" d="M375.675,34.469h27.646c2.455,0,3.686,1.261,3.686,3.782v17.169c0,2.394-1.229,3.59-3.686,3.59h-8.246
			l12.416,15.907h-10.769l-10.379-13.289V50.57h11.834v-7.469h-13.871v31.815h-8.633L375.675,34.469L375.675,34.469z"/>
	</g>
</g>
<text transform="matrix(1 0 0 1 345.6494 103.0388)" fill="#FFFFFF" font-family="'VikingSquadCondensed'" font-size="20">mrmcd.net</text>
</svg>
