<?xml version="1.0" encoding="utf-8"?>
<!-- Generator: Adobe Illustrator 16.0.0, SVG Export Plug-In . SVG Version: 6.00 Build 0)  -->
<!DOCTYPE svg PUBLIC "-//W3C//DTD SVG 1.1//EN" "http://www.w3.org/Graphics/SVG/1.1/DTD/svg11.dtd">
<svg version="1.1" id="Ebene_1" xmlns="http://www.w3.org/2000/svg" xmlns:xlink="http://www.w3.org/1999/xlink" x="0px" y="0px"
	 width="425.2px" height="85.04px" viewBox="0 0 425.2 85.04" enable-background="new 0 0 425.2 85.04" xml:space="preserve">
<rect x="0.001" y="0" width="425.198" height="85.039"/>
<g>
	<path fill="#FFFFFF" d="M24.715,55.656h-5.518V35.32h-6.014v-5.518h11.532V55.656z M31.039,35.32h-5.022v-5.518h5.022V35.32z"/>
	<path fill="#FFFFFF" d="M39.657,55.656h-5.518V32.158c0-1.57,0.765-2.356,2.294-2.356H51.81c1.57,0,2.356,0.806,2.356,2.418v10.974
		c0,1.53-0.786,2.294-2.356,2.294h-5.27l7.936,10.168h-6.882l-6.634-8.494v-7.068h7.564V35.32h-8.866V55.656z"/>
	<path fill="#FFFFFF" d="M59.559,45.551c-1.53,0-2.294-0.744-2.294-2.232V29.802h5.58v15.749H59.559z M71.648,29.802h5.58v13.516
		c0,1.488-0.682,2.232-2.046,2.232h-5.332v10.105h-5.58V40.218h7.378V29.802z"/>
	<path fill="#FFFFFF" d="M80.328,45.488v-5.394h2.728V29.306c0-1.446,0.765-2.17,2.294-2.17h8.06v5.456h-4.774v20.522h4.774v5.332
		h-8.06c-1.529,0-2.294-0.744-2.294-2.231V45.488H80.328z"/>
	<path fill="#FFFFFF" d="M106.864,45.488v10.727c0,1.487-0.786,2.231-2.356,2.231h-7.998v-5.332h4.774V32.592h-4.774v-5.456h8.061
		c1.528,0,2.294,0.724,2.294,2.17v10.788h2.728v5.394H106.864z"/>
	<path fill="#FFFFFF" d="M112.69,40.094h8.742v5.394h-8.742V40.094z"/>
	<path fill="#FFFFFF" d="M126.826,55.656c-1.529,0-2.294-0.764-2.294-2.294V32.158c0-1.57,0.765-2.356,2.294-2.356h15.5v5.332
		h-12.214v20.522H126.826z M131.414,50.2h10.912v5.456h-10.912V50.2z"/>
	<path fill="#FFFFFF" d="M145.425,32.158c0-1.57,0.765-2.356,2.294-2.356h15.376c1.57,0,2.356,0.806,2.356,2.418v23.436h-5.643
		V45.488h-7.502v-5.394h7.502v-4.836h-8.804v20.398h-5.58V32.158z"/>
	<path fill="#FFFFFF" d="M168.55,29.802h5.022v5.518h-5.022V29.802z M174.812,29.802h11.595v5.518h-6.015v20.336h-5.58V29.802z"/>
	<path fill="#FFFFFF" d="M191.8,55.656c-1.529,0-2.294-0.764-2.294-2.294V32.158c0-1.57,0.765-2.356,2.294-2.356h15.5v5.332h-12.214
		v20.522H191.8z M196.388,50.2H207.3v5.456h-10.912V50.2z"/>
	<path fill="#FFFFFF" d="M215.98,29.802v25.854H210.4V29.802H215.98z M217.281,40.094h7.502V29.802h5.58v25.854h-5.58V45.488h-7.502
		V40.094z"/>
	<path fill="#FFFFFF" d="M233.463,45.488v-5.394h2.729V29.306c0-1.446,0.764-2.17,2.295-2.17h8.059v5.456h-4.773v20.522h4.773v5.332
		h-8.059c-1.531,0-2.295-0.744-2.295-2.231V45.488H233.463z"/>
	<path fill="#FFFFFF" d="M259.998,45.488v10.727c0,1.487-0.785,2.231-2.355,2.231h-7.998v-5.332h4.773V32.592h-4.773v-5.456h8.061
		c1.527,0,2.293,0.724,2.293,2.17v10.788h2.729v5.394H259.998z"/>
	<path fill="#FFFFFF" d="M265.826,40.094h8.742v5.394h-8.742V40.094z"/>
	<path fill="#FFFFFF" d="M277.668,32.158c0-1.57,0.764-2.356,2.293-2.356h15.377c1.57,0,2.355,0.806,2.355,2.418v23.436h-5.643
		V45.488h-7.502v-5.394h7.502v-4.836h-8.803v20.398h-5.58V32.158z"/>
	<path fill="#FFFFFF" d="M300.793,29.802h5.021v5.518h-5.021V29.802z M307.055,29.802h11.594v5.518h-6.014v20.336h-5.58V29.802z"/>
	<path fill="#FFFFFF" d="M327.328,29.802v25.854h-5.58V29.802H327.328z M328.629,40.094h7.502V29.802h5.58v25.854h-5.58V45.488
		h-7.502V40.094z"/>
	<path fill="#FFFFFF" d="M344.813,29.802h5.58v25.854h-5.58V29.802z M351.693,50.324h9.797v5.332h-9.797V50.324z"/>
	<path fill="#FFFFFF" d="M364.588,29.802h17.795v5.456h-12.215v15.066h12.215v5.332h-17.795V29.802z M371.533,40.094h8.68v5.394
		h-8.68V40.094z"/>
	<path fill="#FFFFFF" d="M385.482,29.802h5.021v5.518h-5.021V29.802z M391.744,29.802h11.594v5.518h-6.014v20.336h-5.58V29.802z"/>
	<path fill="#FFFFFF" d="M406.438,50.324h5.58v5.332h-5.58V50.324z"/>
</g>
<g>
	<path fill="#FFFFFF" d="M351.278,70.859v-2.2l3.64,3.18l3.62-3.16v8.36h-1.8v-4.54l-1.82,1.74L351.278,70.859z M353.078,77.039
		h-1.8v-5.54l1.8,1.66V77.039z"/>
	<path fill="#FFFFFF" d="M359.538,68.699h5.7c0.506,0,0.76,0.26,0.76,0.78v3.54c0,0.493-0.254,0.739-0.76,0.739h-1.7l2.56,3.28
		h-2.22l-2.14-2.74V72.02h2.439v-1.54h-2.859v6.56h-1.78V68.699z"/>
	<path fill="#FFFFFF" d="M366.979,70.859v-2.2l3.639,3.18l3.621-3.16v8.36h-1.801v-4.54l-1.82,1.74L366.979,70.859z M368.777,77.039
		h-1.799v-5.54l1.799,1.66V77.039z"/>
	<path fill="#FFFFFF" d="M375.979,77.039c-0.494,0-0.74-0.246-0.74-0.74v-6.84c0-0.507,0.246-0.76,0.74-0.76h5v1.72h-3.94v6.62
		H375.979z M377.458,75.279h3.521v1.76h-3.521V75.279z"/>
	<path fill="#FFFFFF" d="M383.777,70.419v6.62h-1.8v-8.34h5.78c0.453,0,0.68,0.247,0.68,0.74v6.399c0,0.12-0.037,0.25-0.11,0.391
		c-0.073,0.14-0.166,0.27-0.279,0.39s-0.24,0.22-0.38,0.3c-0.141,0.08-0.271,0.12-0.391,0.12h-3.08v-1.76h2.42v-4.86H383.777z"/>
	<path fill="#FFFFFF" d="M389.438,75.319h1.8v1.72h-1.8V75.319z"/>
	<path fill="#FFFFFF" d="M398.678,68.699v8.399l-6.44-6.1v-2.34l4.66,4.18v-4.14H398.678z M394.037,77.039h-1.8v-5.38l1.8,1.64
		V77.039z"/>
	<path fill="#FFFFFF" d="M399.678,68.699h5.74v1.76h-3.94v4.86h3.94v1.72h-5.74V68.699z M401.918,72.02h2.8v1.739h-2.8V72.02z"/>
	<path fill="#FFFFFF" d="M406.417,68.699h1.62v1.78h-1.62V68.699z M408.437,68.699h3.74v1.78h-1.939v6.56h-1.801V68.699z"/>
</g>
<g>
</g>
<g>
</g>
<g>
</g>
<g>
</g>
<g>
</g>
<g>
</g>
</svg>
