<?xml version="1.0" encoding="UTF-8" standalone="no"?>
<svg
   xmlns:dc="http://purl.org/dc/elements/1.1/"
   xmlns:cc="http://creativecommons.org/ns#"
   xmlns:rdf="http://www.w3.org/1999/02/22-rdf-syntax-ns#"
   xmlns:svg="http://www.w3.org/2000/svg"
   xmlns="http://www.w3.org/2000/svg"
   xmlns:sodipodi="http://sodipodi.sourceforge.net/DTD/sodipodi-0.dtd"
   xmlns:inkscape="http://www.inkscape.org/namespaces/inkscape"
   height="80mm"
   width="80mm"
   version="1.1"
   viewBox="0 0 80.000004 79.996775"
   id="svg7058"
   inkscape:version="0.91 r13725"
   sodipodi:docname="youtube-icon.svg"
   inkscape:export-filename="/home/raphael/MRMCD/2015/mrmcd-design/2015/Logo/youtube-icon.png"
   inkscape:export-xdpi="127.07957"
   inkscape:export-ydpi="127.07957">
  <metadata
     id="metadata7202">
    <rdf:RDF>
      <cc:Work
         rdf:about="">
        <dc:format>image/svg+xml</dc:format>
        <dc:type
           rdf:resource="http://purl.org/dc/dcmitype/StillImage" />
        <dc:title></dc:title>
      </cc:Work>
    </rdf:RDF>
  </metadata>
  <defs
     id="defs7200" />
  <sodipodi:namedview
     pagecolor="#ffffff"
     bordercolor="#666666"
     borderopacity="1"
     objecttolerance="10"
     gridtolerance="10"
     guidetolerance="10"
     inkscape:pageopacity="1"
     inkscape:pageshadow="2"
     inkscape:window-width="1364"
     inkscape:window-height="747"
     id="namedview7198"
     showgrid="false"
     inkscape:zoom="0.46831249"
     inkscape:cx="392.00066"
     inkscape:cy="105.01833"
     inkscape:window-x="0"
     inkscape:window-y="0"
     inkscape:window-maximized="0"
     inkscape:current-layer="layer1"
     inkscape:document-units="mm"
     fit-margin-top="10"
     fit-margin-left="10"
     fit-margin-right="10"
     fit-margin-bottom="10" />
  <g
     inkscape:groupmode="layer"
     id="layer1"
     inkscape:label="Layer 1"
     transform="translate(9.9901822,10.847544)">
    <rect
       style="opacity:1;fill:#000000;fill-opacity:1;stroke:none;stroke-width:3;stroke-linecap:round;stroke-linejoin:round;stroke-miterlimit:4;stroke-dasharray:none;stroke-dashoffset:0;stroke-opacity:1"
       id="rect4149"
       width="80.000008"
       height="80"
       x="-9.9901819"
       y="-10.849131" />
    <path
       style="color:#000000;text-indent:0;text-decoration:none;text-decoration-line:none;text-decoration-style:solid;text-decoration-color:#000000;text-transform:none;block-progression:tb;white-space:normal;isolation:auto;mix-blend-mode:normal;solid-color:#000000;fill:#ffff00;fill-rule:evenodd;stroke-width:3.77952743;color-rendering:auto;image-rendering:auto;shape-rendering:auto"
       clip-path="none"
       d="m 7.5349652,-0.42435677 c -3.72,0 -6.76031114,3.04012967 -6.76031114,6.77012957 l 0,45.6101372 c 0,3.73 3.04031114,6.770129 6.76031114,6.770129 l 44.9398928,0 c 3.730001,0 6.770129,-3.040129 6.770129,-6.770129 l 0,-45.6101372 c 0,-3.7299999 -3.040128,-6.77012957 -6.770129,-6.77012957 l -44.9398928,0 z m 0,2.79001057 44.9398928,0 c 2.230001,0 3.980119,1.7501191 3.980119,3.980119 l 0,45.6101372 c 0,2.229998 -1.750118,3.969782 -3.980119,3.969784 l -44.9398928,0 c -2.22,0 -3.9703006,-1.739786 -3.9703006,-3.969784 l 0,-45.6101372 c 0,-2.2299999 1.7503006,-3.980119 3.9703006,-3.980119 z M 39.244659,12.825997 a 5.1617,5.1617 0 0 0 -5.159894,5.159892 5.1617,5.1617 0 0 0 5.159894,5.159892 5.1617,5.1617 0 0 0 5.160407,-5.159892 5.1617,5.1617 0 0 0 -5.160407,-5.159892 z M 29.474713,17.866 20.924846,17.89597 a 1.4751,1.4751 0 1 0 0.0098,2.949691 l 7.780404,-0.02997 1.075385,1.557528 -4.955768,3.15278 c 0.71,0.279999 1.210056,0.419612 1.620056,0.419612 0.63,0.01 1.359984,-0.239548 2.819984,-1.049548 0.577612,-0.319835 1.155451,-0.569655 1.736328,-0.756027 l 0.0036,0.0057 c 0.346932,-0.11179 0.694235,-0.202265 1.042313,-0.271302 0.291227,-0.05452 0.583779,-0.09461 0.877983,-0.118339 a 1.4749,1.4749 0 0 0 0.0052,-0.0078 c 0.263543,-0.02345 0.528373,-0.03545 0.794784,-0.03256 0.199999,0 0.390144,0.01016 0.590146,0.02015 l -3.630272,-5.239988 a 1.4749,1.4749 0 0 0 -1.220078,-0.629935 z m 4.260204,6.630086 c -1.510001,-0.01 -2.990193,0.369773 -4.460192,1.179773 -1.46,0.809999 -2.189984,1.060065 -2.819984,1.050066 -0.64,-0.01 -1.459998,-0.310094 -2.989998,-1.020094 -3.35,-1.549999 -5.739768,-1.020181 -8.469768,0.0098 -1.39,0.519999 -2.660257,1.070388 -3.830257,1.260388 -1.1800003,0.19 -2.2399896,0.09981 -3.5599898,-0.730189 C 7.3247283,26.06585 7.0346511,25.915595 6.754651,25.775595 l 0,2.750219 c 1.6499999,0.91 3.320405,1.060106 4.790405,0.820105 1.6,-0.260001 2.999661,-0.900096 4.289661,-1.390097 2.64,-0.989999 3.770268,-1.399762 6.620268,-0.06976 1.56,0.720001 2.679965,1.219719 3.959965,1.239719 1.289999,0.02 2.459728,-0.479788 4.029728,-1.349788 2.700002,-1.490001 4.770324,-1.24991 8.240324,0.650089 1.95,1.060001 3.669879,1.529705 5.359879,1.439704 1.680001,-0.09 3.230086,-0.699775 4.950087,-1.549776 1.360001,-0.669999 2.620047,-0.920411 3.870047,-0.860411 l 0,-2.359546 c -1.599999,-0.06 -3.250448,0.239702 -4.930447,1.069702 -1.620001,0.790001 -2.849912,1.240179 -4.01991,1.300178 -1.170001,0.06 -2.379855,-0.230317 -4.079854,-1.150316 -1.91,-1.040001 -3.709797,-1.659891 -5.449797,-1.799891 -0.220001,-0.01 -0.430091,-0.01964 -0.65009,-0.01964 z m 0.289904,6.559806 c -1.06,0 -1.849882,0.286563 -2.369881,0.859896 -0.519998,0.573334 -0.780314,1.583124 -0.780314,3.029789 0,0.586669 0.05038,1.123572 0.150379,1.610238 0.106666,0.479999 0.249949,0.859983 0.429948,1.139981 0.253333,0.393335 0.576632,0.68987 0.969967,0.889871 0.393333,0.206666 0.909775,0.310057 1.549776,0.310057 1.133332,0 1.933702,-0.320148 2.400369,-0.960149 0.466667,-0.639998 0.699701,-1.646637 0.699701,-3.01997 0,-0.613333 -0.06981,-1.203251 -0.209806,-1.769917 -0.07334,-0.293333 -0.169905,-0.549979 -0.289907,-0.76998 -0.119999,-0.226666 -0.283742,-0.439753 -0.490408,-0.639755 -0.206666,-0.206666 -0.473284,-0.369892 -0.799952,-0.489891 -0.326668,-0.126667 -0.746538,-0.19017 -1.259872,-0.19017 z m -14.430127,0.379823 c -1.059999,0 -1.849881,0.286562 -2.369881,0.859896 -0.52,0.573333 -0.779797,1.58364 -0.779797,3.030304 0,0.586669 0.04986,1.119902 0.149861,1.599904 0.1,0.486667 0.243282,0.869799 0.429948,1.1498 0.253334,0.393335 0.576634,0.690385 0.969967,0.890386 0.393333,0.206666 0.906625,0.310058 1.539958,0.310058 1.14,0 1.943522,-0.320149 2.410189,-0.960149 0.466666,-0.639998 0.699698,-1.646637 0.699698,-3.019971 1e-6,-0.613333 -0.07296,-1.20325 -0.219624,-1.769917 -0.07333,-0.293333 -0.170422,-0.549978 -0.290422,-0.769979 -0.113333,-0.226666 -0.272891,-0.44027 -0.479557,-0.640271 -0.206667,-0.206666 -0.473285,-0.369893 -0.799951,-0.489892 -0.333334,-0.126666 -0.753722,-0.190169 -1.260389,-0.190169 z m 7.590235,0.910021 c -0.22,0.473334 -0.530176,0.87326 -0.930176,1.199928 -0.393333,0.32 -0.950182,0.59659 -1.670182,0.829924 l 0,1.730126 c 0.486667,-0.146666 0.890262,-0.303072 1.210262,-0.469739 0.326667,-0.160001 0.663091,-0.369935 1.009757,-0.629935 l 0,5.049821 2.130103,0 0,-7.710125 -1.749764,0 z m 6.77013,0.110072 c 0.34,0 0.596646,0.173196 0.76998,0.519864 0.166666,0.346668 0.249597,1.023699 0.249597,2.030368 0,0.686665 -0.03622,1.189984 -0.109556,1.509985 -0.07333,0.326667 -0.190365,0.56652 -0.350367,0.719851 -0.153331,0.146667 -0.336502,0.220142 -0.549836,0.220142 -0.326667,0 -0.573341,-0.176866 -0.740007,-0.530199 -0.173332,-0.353332 -0.259932,-1.013574 -0.259932,-1.980242 0,-0.953334 0.07978,-1.606235 0.239778,-1.95957 0.153334,-0.353333 0.403675,-0.530199 0.750343,-0.530199 z m 8.219654,0.03979 c -1.066668,0 -1.859701,0.287078 -2.379702,0.860411 -0.513331,0.580002 -0.769977,1.589789 -0.769977,3.029789 0,0.586669 0.04986,1.123572 0.149862,1.610239 0.1,0.479999 0.240128,0.859983 0.42013,1.139981 0.253333,0.393335 0.576633,0.689869 0.969965,0.889868 0.393335,0.206668 0.909778,0.31006 1.549776,0.31006 1.133334,0 1.933188,-0.320149 2.399855,-0.96015 0.466667,-0.633333 0.700215,-1.639969 0.700215,-3.01997 0,-0.613333 -0.06981,-1.203251 -0.209807,-1.769917 -0.07333,-0.293333 -0.170421,-0.549979 -0.29042,-0.76998 -0.120002,-0.226665 -0.283228,-0.440269 -0.489894,-0.64027 -0.206667,-0.2 -0.473285,-0.363224 -0.79995,-0.489891 -0.326667,-0.126667 -0.743386,-0.190169 -1.250053,-0.190169 z m -29.419911,0.0801 c -0.226667,0.473334 -0.536843,0.87326 -0.930176,1.199928 -0.4,0.32 -0.956332,0.597106 -1.669666,0.83044 l 0,1.72961 c 0.486667,-0.153334 0.889746,-0.30974 1.209746,-0.469739 0.32,-0.160001 0.653272,-0.373605 0.999939,-0.64027 l 0,5.060156 2.130102,0 0,-7.710125 -1.739945,0 z m 6.770129,0.259932 c 0.34,0 0.592977,0.173715 0.759644,0.520382 0.173333,0.346668 0.260449,1.023184 0.260449,2.029852 0,0.686665 -0.03674,1.189985 -0.110071,1.509985 -0.07333,0.326665 -0.190366,0.566518 -0.350366,0.719852 -0.153333,0.146667 -0.336504,0.220141 -0.549837,0.220141 -0.326667,0 -0.576492,-0.176866 -0.749825,-0.530198 -0.166667,-0.353335 -0.250114,-1.013058 -0.250114,-1.979727 0,-0.953333 0.07663,-1.606753 0.22996,-1.960086 0.153333,-0.353332 0.406827,-0.530201 0.76016,-0.530201 z m 22.569682,1.060402 c 0.34,0 0.596646,0.173197 0.76998,0.519864 0.173334,0.346668 0.260448,1.023184 0.260448,2.029852 0,0.686665 -0.0404,1.193652 -0.120407,1.52032 -0.07333,0.32 -0.186695,0.556183 -0.340029,0.709517 -0.160001,0.146666 -0.346324,0.220141 -0.559657,0.220141 -0.32,0 -0.566671,-0.17635 -0.740005,-0.529682 -0.173334,-0.353336 -0.259932,-1.013574 -0.259932,-1.980243 0,-0.953333 0.07978,-1.606753 0.239778,-1.960086 0.153332,-0.353333 0.403159,-0.529683 0.749824,-0.529683 z m -7.399549,9.549805 c -0.226666,0.479999 -0.536842,0.879925 -0.930175,1.199925 -0.399999,0.326668 -0.956849,0.603258 -1.670182,0.829924 l 0,1.730127 c 0.486667,-0.146667 0.890262,-0.299919 1.210263,-0.45992 0.32,-0.166667 0.653272,-0.38027 0.999937,-0.640271 l 0,5.050338 2.130105,0 0,-7.710123 -1.739948,0 z m 13.609505,0.14986 c -0.226665,0.480002 -0.536323,0.879928 -0.929658,1.199928 -0.4,0.326665 -0.956847,0.606925 -1.670182,0.840259 l 0,1.719791 c 0.480001,-0.146666 0.883597,-0.299921 1.210262,-0.45992 0.32,-0.160001 0.653272,-0.373089 0.99994,-0.639754 l 0,5.05964 2.130102,0 0,-7.719944 -1.740464,0 z m -28.519705,0.54002 c -1.066667,0 -1.860217,0.286562 -2.380217,0.859896 -0.513333,0.573334 -0.769979,1.58364 -0.769979,3.030305 0,0.580001 0.05038,1.113237 0.150379,1.599904 0.1,0.486666 0.243281,0.869799 0.429948,1.149799 0.246666,0.393335 0.566298,0.690386 0.959631,0.890387 0.393333,0.206666 0.910293,0.310057 1.550293,0.310057 1.14,0 1.939854,-0.320148 2.399854,-0.960149 0.466666,-0.639998 0.700215,-1.646637 0.700215,-3.01997 0,-0.613333 -0.07032,-1.203251 -0.210323,-1.769917 C 22.541335,45.932696 22.44476,45.67238 22.32476,45.445714 22.20476,45.225713 22.041534,45.01578 21.834868,44.815778 21.628201,44.609112 21.361583,44.445886 21.034917,44.325886 20.70825,44.19922 20.29153,44.135717 19.784864,44.135717 Z m 21.709785,0.14986 c -0.219998,0.473335 -0.529658,0.873779 -0.929658,1.200444 -0.393332,0.32 -0.950182,0.59659 -1.670182,0.829924 l 0,1.730126 c 0.486666,-0.153331 0.890262,-0.310253 1.210262,-0.470254 0.326668,-0.159999 0.65994,-0.369936 0.99994,-0.629936 l 0,5.049821 2.139921,0 0,-7.710125 -1.750283,0 z m -13.610021,0.530201 c -0.220001,0.473335 -0.529659,0.87326 -0.929659,1.199928 -0.393333,0.320001 -0.950182,0.596591 -1.670183,0.829924 l 0,1.730126 c 0.486667,-0.146666 0.890263,-0.303072 1.210263,-0.469738 0.326666,-0.160002 0.66309,-0.369935 1.009756,-0.629936 l 0,5.049822 2.130103,0 0,-7.710126 -1.75028,0 z m -8.179863,0.719852 c 0.346667,0 0.603312,0.173715 0.769979,0.520383 0.173333,0.346667 0.259932,1.023183 0.259932,2.029851 1e-6,0.686666 -0.03989,1.189985 -0.119889,1.509986 -0.07333,0.326665 -0.186697,0.566517 -0.340031,0.719851 -0.16,0.146667 -0.346839,0.220142 -0.560172,0.220142 -0.32,0 -0.566673,-0.176866 -0.740007,-0.530199 -0.166666,-0.353335 -0.249597,-1.013058 -0.249597,-1.979726 0,-0.953334 0.07663,-1.606754 0.22996,-1.960087 0.153334,-0.353332 0.403158,-0.530201 0.749825,-0.530201 z"
       id="path7098"
       inkscape:connector-curvature="0" />
  </g>
</svg>
