<?xml version="1.0" encoding="utf-8"?>
<!-- Generator: Adobe Illustrator 14.0.0, SVG Export Plug-In . SVG Version: 6.00 Build 43363)  -->
<!DOCTYPE svg PUBLIC "-//W3C//DTD SVG 1.0//EN" "http://www.w3.org/TR/2001/REC-SVG-20010904/DTD/svg10.dtd">
<svg version="1.0" id="Ebene_1" xmlns="http://www.w3.org/2000/svg" xmlns:xlink="http://www.w3.org/1999/xlink" x="0px" y="0px"
	 width="856.06px" height="170.08px" viewBox="0 0 856.06 170.08" enable-background="new 0 0 856.06 170.08" xml:space="preserve">
<line fill="none" stroke="#000000" stroke-width="0.0945" x1="819.914" y1="32.55" x2="819.421" y2="8.576"/>
<line fill="none" stroke="#000000" stroke-width="0.0945" x1="846.467" y1="28.491" x2="819.066" y2="32.275"/>
<line fill="none" stroke="#000000" stroke-width="0.0945" x1="845.248" y1="5.103" x2="845.749" y2="29.314"/>
<line fill="none" stroke="#000000" stroke-width="0.0945" x1="818.633" y1="9.374" x2="845.99" y2="5.656"/>
<line fill="none" stroke="#000000" stroke-width="0.0945" x1="769.02" y1="39.539" x2="768.527" y2="15.565"/>
<line fill="none" stroke="#000000" stroke-width="0.0945" x1="795.571" y1="35.48" x2="768.334" y2="39.195"/>
<line fill="none" stroke="#000000" stroke-width="0.0945" x1="794.354" y1="12.093" x2="794.854" y2="36.304"/>
<line fill="none" stroke="#000000" stroke-width="0.0945" x1="767.806" y1="16.237" x2="795.164" y2="12.52"/>
<line fill="none" stroke="#000000" stroke-width="0.0945" x1="718.414" y1="46.451" x2="717.92" y2="22.477"/>
<line fill="none" stroke="#000000" stroke-width="0.0945" x1="744.964" y1="42.393" x2="717.727" y2="46.106"/>
<line fill="none" stroke="#000000" stroke-width="0.0945" x1="743.746" y1="19.005" x2="744.248" y2="43.217"/>
<line fill="none" stroke="#000000" stroke-width="0.0945" x1="717.199" y1="23.149" x2="744.557" y2="19.432"/>
<line fill="none" stroke="#000000" stroke-width="0.0945" x1="667.964" y1="53.316" x2="667.471" y2="29.342"/>
<line fill="none" stroke="#000000" stroke-width="0.0945" x1="694.516" y1="49.257" x2="667.277" y2="52.971"/>
<line fill="none" stroke="#000000" stroke-width="0.0945" x1="693.297" y1="25.87" x2="693.799" y2="50.081"/>
<line fill="none" stroke="#000000" stroke-width="0.0945" x1="666.75" y1="30.014" x2="694.107" y2="26.296"/>
<line fill="none" stroke="#000000" stroke-width="0.0945" x1="617.521" y1="60.175" x2="617.028" y2="36.202"/>
<line fill="none" stroke="#000000" stroke-width="0.0945" x1="644.074" y1="56.117" x2="616.834" y2="59.831"/>
<line fill="none" stroke="#000000" stroke-width="0.0945" x1="642.854" y1="32.729" x2="643.356" y2="56.94"/>
<line fill="none" stroke="#000000" stroke-width="0.0945" x1="616.308" y1="36.873" x2="643.664" y2="33.156"/>
<line fill="none" stroke="#000000" stroke-width="0.0945" x1="567.071" y1="67.041" x2="566.578" y2="43.068"/>
<line fill="none" stroke="#000000" stroke-width="0.0945" x1="593.623" y1="62.982" x2="566.386" y2="66.696"/>
<line fill="none" stroke="#000000" stroke-width="0.0945" x1="592.404" y1="39.595" x2="592.906" y2="63.807"/>
<line fill="none" stroke="#000000" stroke-width="0.0945" x1="565.857" y1="43.739" x2="593.215" y2="40.021"/>
<line fill="none" stroke="#000000" stroke-width="0.0945" x1="516.705" y1="73.88" x2="516.212" y2="49.907"/>
<line fill="none" stroke="#000000" stroke-width="0.0945" x1="543.258" y1="69.822" x2="516.02" y2="73.536"/>
<line fill="none" stroke="#000000" stroke-width="0.0945" x1="542.039" y1="46.434" x2="542.54" y2="70.646"/>
<line fill="none" stroke="#000000" stroke-width="0.0945" x1="515.492" y1="50.578" x2="542.849" y2="46.861"/>
<line fill="none" stroke="#000000" stroke-width="0.0945" x1="466.273" y1="80.708" x2="465.779" y2="56.735"/>
<line fill="none" stroke="#000000" stroke-width="0.0945" x1="492.782" y1="76.732" x2="465.478" y2="80.451"/>
<line fill="none" stroke="#000000" stroke-width="0.0945" x1="491.606" y1="53.262" x2="492.106" y2="77.474"/>
<line fill="none" stroke="#000000" stroke-width="0.0945" x1="464.94" y1="57.5" x2="492.46" y2="53.755"/>
<line fill="none" stroke="#000000" stroke-width="0.0945" x1="415.813" y1="87.605" x2="415.32" y2="63.632"/>
<line fill="none" stroke="#000000" stroke-width="0.0945" x1="442.366" y1="83.547" x2="415.127" y2="87.261"/>
<line fill="none" stroke="#000000" stroke-width="0.0945" x1="441.146" y1="60.159" x2="441.648" y2="84.371"/>
<line fill="none" stroke="#000000" stroke-width="0.0945" x1="414.541" y1="64.413" x2="442.055" y2="60.638"/>
<line fill="none" stroke="#000000" stroke-width="0.0945" x1="238.867" y1="67.01" x2="212.214" y2="63.295"/>
<polyline fill="none" stroke="#000000" stroke-width="0.0945" points="239.677,88.078 232.918,88.996 238.539,66.595 "/>
<line fill="none" stroke="#000000" stroke-width="0.0945" x1="239.895" y1="111.34" x2="239.4" y2="87.715"/>
<line fill="none" stroke="#000000" stroke-width="0.0945" x1="213.781" y1="114.628" x2="240.152" y2="111.041"/>
<line fill="none" stroke="#000000" stroke-width="0.0945" x1="213.561" y1="90.926" x2="214.056" y2="114.772"/>
<polyline fill="none" stroke="#000000" stroke-width="0.0945" points="206.359,87.072 227.146,89.966 212.809,91.895 "/>
<line fill="none" stroke="#000000" stroke-width="0.0945" x1="212.721" y1="63.013" x2="206.617" y2="87.367"/>
<line fill="none" stroke="#000000" stroke-width="0.0945" x1="289.646" y1="74.084" x2="262.029" y2="70.244"/>
<polyline fill="none" stroke="#000000" stroke-width="0.0945" points="290.545,81.165 286.948,81.645 289.094,73.104 "/>
<line fill="none" stroke="#000000" stroke-width="0.0945" x1="290.336" y1="104.93" x2="289.826" y2="80.164"/>
<line fill="none" stroke="#000000" stroke-width="0.0945" x1="263.998" y1="107.834" x2="290.845" y2="104.219"/>
<polyline fill="none" stroke="#000000" stroke-width="0.0945" points="258.744,85.779 264.04,85.019 264.502,108.146 "/>
<line fill="none" stroke="#000000" stroke-width="0.0945" x1="263.241" y1="69.592" x2="259.098" y2="86.166"/>
<line fill="none" stroke="#000000" stroke-width="0.0945" x1="52.825" y1="66.169" x2="59.067" y2="41.32"/>
<line fill="none" stroke="#000000" stroke-width="0.0945" x1="79.541" y1="69.34" x2="52.275" y2="65.53"/>
<line fill="none" stroke="#000000" stroke-width="0.0945" x1="84.896" y1="44.875" x2="78.641" y2="69.816"/>
<line fill="none" stroke="#000000" stroke-width="0.0945" x1="58.276" y1="41.838" x2="85.437" y2="45.626"/>
<line fill="none" stroke="#000000" stroke-width="0.0945" x1="104.168" y1="73.333" x2="110.41" y2="48.483"/>
<line fill="none" stroke="#000000" stroke-width="0.0945" x1="130.885" y1="76.503" x2="103.621" y2="72.694"/>
<line fill="none" stroke="#000000" stroke-width="0.0945" x1="136.24" y1="52.039" x2="129.983" y2="76.98"/>
<line fill="none" stroke="#000000" stroke-width="0.0945" x1="109.62" y1="49.002" x2="136.779" y2="52.79"/>
<line fill="none" stroke="#000000" stroke-width="0.0945" x1="155.643" y1="80.554" x2="161.885" y2="55.704"/>
<line fill="none" stroke="#000000" stroke-width="0.0945" x1="182.36" y1="83.725" x2="155.095" y2="79.915"/>
<line fill="none" stroke="#000000" stroke-width="0.0945" x1="187.717" y1="59.26" x2="181.457" y2="84.201"/>
<line fill="none" stroke="#000000" stroke-width="0.0945" x1="161.095" y1="56.223" x2="188.254" y2="60.011"/>
<polyline fill="none" stroke="#000000" stroke-width="0.0945" points="312.731,78.268 314.973,78.059 315.312,100.762 
	310.334,101.594 "/>
<line fill="none" stroke="#000000" stroke-width="0.0945" x1="313.589" y1="77.051" x2="313.056" y2="78.464"/>
<polyline fill="none" stroke="#000000" stroke-width="0.0945" points="340.996,74.36 315.74,77.877 313.205,77.366 "/>
<line fill="none" stroke="#000000" stroke-width="0.0945" x1="340.777" y1="97.676" x2="340.287" y2="73.887"/>
<polyline fill="none" stroke="#000000" stroke-width="0.0945" points="333.258,105.08 334.996,98.133 341.162,97.294 "/>
<line fill="none" stroke="#000000" stroke-width="0.0945" x1="310.382" y1="101.391" x2="334.005" y2="104.706"/>
<line fill="none" stroke="#000000" stroke-width="0.0945" x1="361.314" y1="94.171" x2="357.893" y2="108.34"/>
<polyline fill="none" stroke="#000000" stroke-width="0.0945" points="364.881,70.633 365.393,93.957 360.895,94.617 "/>
<line fill="none" stroke="#000000" stroke-width="0.0945" x1="391.216" y1="67.461" x2="364.523" y2="71.149"/>
<line fill="none" stroke="#000000" stroke-width="0.0945" x1="391.205" y1="90.869" x2="390.722" y2="67.101"/>
<polyline fill="none" stroke="#000000" stroke-width="0.0945" points="383.686,112.059 389.017,90.782 391.592,90.422 "/>
<line fill="none" stroke="#000000" stroke-width="0.0945" x1="357.515" y1="108.074" x2="384.271" y2="111.801"/>
<line fill="none" stroke="#000000" stroke-width="0.0945" x1="491.378" y1="102.197" x2="464.231" y2="98.417"/>
<polyline fill="none" stroke="#000000" stroke-width="0.0945" points="490.089,118.24 486.453,118.426 490.705,101.51 "/>
<line fill="none" stroke="#000000" stroke-width="0.0945" x1="488.161" y1="143.009" x2="489.589" y2="117.576"/>
<line fill="none" stroke="#000000" stroke-width="0.0945" x1="461.641" y1="144.029" x2="488.599" y2="142.654"/>
<polyline fill="none" stroke="#000000" stroke-width="0.0945" points="459.012,119.833 463.511,119.602 462.112,144.496 "/>
<line fill="none" stroke="#000000" stroke-width="0.0945" x1="464.831" y1="98.1" x2="459.309" y2="120.123"/>
<line fill="none" stroke="#000000" stroke-width="0.0945" x1="515.23" y1="105.229" x2="512.203" y2="117.285"/>
<line fill="none" stroke="#000000" stroke-width="0.0945" x1="541.443" y1="109.169" x2="514.896" y2="105.486"/>
<polyline fill="none" stroke="#000000" stroke-width="0.0945" points="540.871,115.61 539.303,115.711 541.084,108.679 "/>
<line fill="none" stroke="#000000" stroke-width="0.0945" x1="539.004" y1="140.359" x2="540.414" y2="115.369"/>
<line fill="none" stroke="#000000" stroke-width="0.0945" x1="512.6" y1="141.409" x2="539.354" y2="140.043"/>
<polyline fill="none" stroke="#000000" stroke-width="0.0945" points="511.863,117.074 514.354,116.948 512.954,141.846 "/>
<polyline fill="none" stroke="#000000" stroke-width="0.0945" points="591.522,112.943 575.13,113.788 565.173,112.403 "/>
<line fill="none" stroke="#000000" stroke-width="0.0945" x1="589.768" y1="137.637" x2="591.179" y2="112.646"/>
<polyline fill="none" stroke="#000000" stroke-width="0.0945" points="585.434,140.16 585.977,137.558 590.236,137.349 "/>
<polyline fill="none" stroke="#000000" stroke-width="0.0945" points="563.181,138.846 574.199,138.28 585.96,139.923 "/>
<polyline fill="none" stroke="#000000" stroke-width="0.0945" points="565.588,112.154 565.117,114.303 563.732,139.096 "/>
<line fill="none" stroke="#000000" stroke-width="0.0945" x1="642.768" y1="110.322" x2="615.552" y2="111.712"/>
<line fill="none" stroke="#000000" stroke-width="0.0945" x1="640.605" y1="135.219" x2="642.049" y2="109.561"/>
<polyline fill="none" stroke="#000000" stroke-width="0.0945" points="635.689,147.281 638.812,134.847 641.117,134.721 "/>
<line fill="none" stroke="#000000" stroke-width="0.0945" x1="609.326" y1="143.184" x2="636.562" y2="146.984"/>
<polyline fill="none" stroke="#000000" stroke-width="0.0945" points="615.999,111.146 615.406,121.618 609.858,143.727 "/>
<line fill="none" stroke="#000000" stroke-width="0.0945" x1="693.489" y1="107.711" x2="666.233" y2="109.113"/>
<polyline fill="none" stroke="#000000" stroke-width="0.0945" points="692.191,132.043 691.463,132.137 692.893,106.945 "/>
<line fill="none" stroke="#000000" stroke-width="0.0945" x1="686.117" y1="154.261" x2="691.797" y2="131.685"/>
<line fill="none" stroke="#000000" stroke-width="0.0945" x1="659.787" y1="150.227" x2="686.711" y2="153.985"/>
<line fill="none" stroke="#000000" stroke-width="0.0945" x1="664.704" y1="133.156" x2="660.301" y2="150.68"/>
<polyline fill="none" stroke="#000000" stroke-width="0.0945" points="666.843,108.465 665.427,133.479 664.273,133.529 "/>
<line fill="none" stroke="#000000" stroke-width="0.0945" x1="768.826" y1="103.78" x2="796.35" y2="102.338"/>
<line fill="none" stroke="#000000" stroke-width="0.0945" x1="768.186" y1="128.759" x2="769.623" y2="103.082"/>
<line fill="none" stroke="#000000" stroke-width="0.0945" x1="794.936" y1="126.824" x2="767.602" y2="128.219"/>
<line fill="none" stroke="#000000" stroke-width="0.0945" x1="795.647" y1="101.832" x2="794.207" y2="127.543"/>
<line fill="none" stroke="#000000" stroke-width="0.0945" x1="717.19" y1="106.492" x2="744.565" y2="105.086"/>
<line fill="none" stroke="#000000" stroke-width="0.0945" x1="716.449" y1="131.417" x2="717.888" y2="105.74"/>
<line fill="none" stroke="#000000" stroke-width="0.0945" x1="743.199" y1="129.482" x2="715.865" y2="130.876"/>
<line fill="none" stroke="#000000" stroke-width="0.0945" x1="743.91" y1="104.491" x2="742.473" y2="130.201"/>
<line fill="none" stroke="#000000" stroke-width="0.0945" x1="163.448" y1="121.961" x2="162.955" y2="97.986"/>
<line fill="none" stroke="#000000" stroke-width="0.0945" x1="190.058" y1="117.793" x2="162.767" y2="121.468"/>
<line fill="none" stroke="#000000" stroke-width="0.0945" x1="188.781" y1="94.514" x2="189.283" y2="118.725"/>
<line fill="none" stroke="#000000" stroke-width="0.0945" x1="162.294" y1="98.689" x2="189.642" y2="95.012"/>
<line fill="none" stroke="#000000" stroke-width="0.0945" x1="113.006" y1="128.822" x2="112.514" y2="104.849"/>
<line fill="none" stroke="#000000" stroke-width="0.0945" x1="139.535" y1="124.598" x2="112.383" y2="128.255"/>
<line fill="none" stroke="#000000" stroke-width="0.0945" x1="138.34" y1="101.375" x2="138.843" y2="125.588"/>
<line fill="none" stroke="#000000" stroke-width="0.0945" x1="111.64" y1="105.502" x2="139.149" y2="101.803"/>
<line fill="none" stroke="#000000" stroke-width="0.0945" x1="62.705" y1="135.486" x2="62.211" y2="111.513"/>
<line fill="none" stroke="#000000" stroke-width="0.0945" x1="89.168" y1="131.381" x2="61.985" y2="135.043"/>
<line fill="none" stroke="#000000" stroke-width="0.0945" x1="88.037" y1="108.039" x2="88.539" y2="132.252"/>
<line fill="none" stroke="#000000" stroke-width="0.0945" x1="61.455" y1="112.252" x2="88.893" y2="108.562"/>
<line fill="none" stroke="#000000" stroke-width="0.0945" x1="12.306" y1="142.268" x2="11.812" y2="118.293"/>
<line fill="none" stroke="#000000" stroke-width="0.0945" x1="38.605" y1="138.238" x2="11.619" y2="141.922"/>
<line fill="none" stroke="#000000" stroke-width="0.0945" x1="37.639" y1="114.82" x2="38.14" y2="139.032"/>
<line fill="none" stroke="#000000" stroke-width="0.0945" x1="11.092" y1="118.965" x2="38.449" y2="115.351"/>
<line fill="none" stroke="#000000" stroke-width="0.0945" x1="408.148" y1="115.723" x2="414.393" y2="90.873"/>
<line fill="none" stroke="#000000" stroke-width="0.0945" x1="434.865" y1="118.894" x2="407.6" y2="115.084"/>
<line fill="none" stroke="#000000" stroke-width="0.0945" x1="440.222" y1="94.43" x2="433.965" y2="119.37"/>
<line fill="none" stroke="#000000" stroke-width="0.0945" x1="413.6" y1="91.392" x2="440.762" y2="95.18"/>
<line fill="none" stroke="#000000" stroke-width="0.0945" x1="710.99" y1="157.884" x2="717.232" y2="133.035"/>
<line fill="none" stroke="#000000" stroke-width="0.0945" x1="737.707" y1="161.055" x2="710.442" y2="157.245"/>
<line fill="none" stroke="#000000" stroke-width="0.0945" x1="743.062" y1="136.59" x2="736.805" y2="161.531"/>
<line fill="none" stroke="#000000" stroke-width="0.0945" x1="716.442" y1="133.553" x2="743.602" y2="137.342"/>
<line fill="none" stroke="#000000" stroke-width="0.0945" x1="762.33" y1="165.055" x2="768.571" y2="140.205"/>
<line fill="none" stroke="#000000" stroke-width="0.0945" x1="789.047" y1="168.225" x2="761.781" y2="164.414"/>
<line fill="none" stroke="#000000" stroke-width="0.0945" x1="794.403" y1="143.76" x2="788.145" y2="168.702"/>
<line fill="none" stroke="#000000" stroke-width="0.0945" x1="767.781" y1="140.723" x2="794.941" y2="144.512"/>
<line fill="none" stroke="#000000" stroke-width="0.0945" x1="411.984" y1="122.272" x2="439.357" y2="120.866"/>
<line fill="none" stroke="#000000" stroke-width="0.0945" x1="411.241" y1="147.197" x2="412.68" y2="121.521"/>
<line fill="none" stroke="#000000" stroke-width="0.0945" x1="437.992" y1="145.264" x2="410.658" y2="146.657"/>
<line fill="none" stroke="#000000" stroke-width="0.0945" x1="438.705" y1="120.271" x2="437.265" y2="145.981"/>
<line fill="none" stroke="#000000" stroke-width="0.0945" x1="360.927" y1="124.896" x2="388.301" y2="123.49"/>
<line fill="none" stroke="#000000" stroke-width="0.0945" x1="360.185" y1="149.82" x2="361.623" y2="124.144"/>
<line fill="none" stroke="#000000" stroke-width="0.0945" x1="386.936" y1="147.887" x2="359.602" y2="149.28"/>
<line fill="none" stroke="#000000" stroke-width="0.0945" x1="387.645" y1="122.895" x2="386.208" y2="148.604"/>
<line fill="none" stroke="#000000" stroke-width="0.0945" x1="310.088" y1="127.504" x2="337.464" y2="126.099"/>
<line fill="none" stroke="#000000" stroke-width="0.0945" x1="309.346" y1="152.43" x2="310.784" y2="126.753"/>
<line fill="none" stroke="#000000" stroke-width="0.0945" x1="336.098" y1="150.495" x2="308.764" y2="151.889"/>
<line fill="none" stroke="#000000" stroke-width="0.0945" x1="336.809" y1="125.504" x2="335.37" y2="151.213"/>
<line fill="none" stroke="#000000" stroke-width="0.0945" x1="259.25" y1="130.114" x2="286.623" y2="128.708"/>
<line fill="none" stroke="#000000" stroke-width="0.0945" x1="258.507" y1="155.039" x2="259.945" y2="129.362"/>
<line fill="none" stroke="#000000" stroke-width="0.0945" x1="285.258" y1="153.105" x2="257.924" y2="154.498"/>
<line fill="none" stroke="#000000" stroke-width="0.0945" x1="285.969" y1="128.113" x2="284.53" y2="153.824"/>
<line fill="none" stroke="#000000" stroke-width="0.0945" x1="208.409" y1="132.729" x2="235.784" y2="131.322"/>
<line fill="none" stroke="#000000" stroke-width="0.0945" x1="207.666" y1="157.652" x2="209.105" y2="131.977"/>
<line fill="none" stroke="#000000" stroke-width="0.0945" x1="234.419" y1="155.719" x2="207.084" y2="157.112"/>
<line fill="none" stroke="#000000" stroke-width="0.0945" x1="235.129" y1="130.727" x2="233.69" y2="156.437"/>
<line fill="none" stroke="#000000" stroke-width="0.0945" x1="157.563" y1="135.34" x2="184.938" y2="133.934"/>
<line fill="none" stroke="#000000" stroke-width="0.0945" x1="156.82" y1="160.265" x2="158.259" y2="134.588"/>
<line fill="none" stroke="#000000" stroke-width="0.0945" x1="183.572" y1="158.33" x2="156.237" y2="159.724"/>
<line fill="none" stroke="#000000" stroke-width="0.0945" x1="184.283" y1="133.339" x2="182.844" y2="159.049"/>
<line fill="none" stroke="#000000" stroke-width="0.0945" x1="106.846" y1="137.951" x2="134.221" y2="136.546"/>
<line fill="none" stroke="#000000" stroke-width="0.0945" x1="106.102" y1="162.877" x2="107.542" y2="137.201"/>
<line fill="none" stroke="#000000" stroke-width="0.0945" x1="132.854" y1="160.943" x2="105.519" y2="162.336"/>
<line fill="none" stroke="#000000" stroke-width="0.0945" x1="133.565" y1="135.951" x2="132.127" y2="161.66"/>
<line fill="none" stroke="#000000" stroke-width="0.0945" x1="54.917" y1="140.579" x2="82.293" y2="139.174"/>
<line fill="none" stroke="#000000" stroke-width="0.0945" x1="54.176" y1="165.504" x2="55.615" y2="139.828"/>
<line fill="none" stroke="#000000" stroke-width="0.0945" x1="80.927" y1="163.57" x2="53.592" y2="164.965"/>
<line fill="none" stroke="#000000" stroke-width="0.0945" x1="81.639" y1="138.579" x2="80.198" y2="164.289"/>
<line fill="none" stroke="#000000" stroke-width="0.0945" x1="4.179" y1="143.227" x2="31.553" y2="141.82"/>
<line fill="none" stroke="#000000" stroke-width="0.0945" x1="3.436" y1="168.15" x2="4.875" y2="142.475"/>
<line fill="none" stroke="#000000" stroke-width="0.0945" x1="30.188" y1="166.218" x2="2.852" y2="167.611"/>
<line fill="none" stroke="#000000" stroke-width="0.0945" x1="30.898" y1="141.226" x2="29.459" y2="166.936"/>
</svg>
