<?xml version="1.0" encoding="utf-8"?>
<!-- Generator: Adobe Illustrator 14.0.0, SVG Export Plug-In . SVG Version: 6.00 Build 43363)  -->
<!DOCTYPE svg PUBLIC "-//W3C//DTD SVG 1.0//EN" "http://www.w3.org/TR/2001/REC-SVG-20010904/DTD/svg10.dtd">
<svg version="1.0" id="Ebene_1" xmlns="http://www.w3.org/2000/svg" xmlns:xlink="http://www.w3.org/1999/xlink" x="0px" y="0px"
	 width="856.06px" height="170.08px" viewBox="0 0 856.06 170.08" enable-background="new 0 0 856.06 170.08" xml:space="preserve">
<path fill="none" stroke="#000000" stroke-width="0.0945" d="M828.684,31.602L844.176,2 M613.619,67.714l-1.594,25.506
	l-12.368-0.772l11.97-32.413l220-30.021 M626.732,69.179l-13.999-0.862 M631.051,94.383l-6.527-0.381l1.588-25.417 M629.788,106.668
	l0.813-12.955 M793.303,102.287l-169.853,8.904l0.34-5.433l6.88,0.438 M777.719,128.459l14.364-27.349 M772.128,141.869
	l-73.372-10.223l80.729-4.26 M758.068,165.705l13.429-25.503 M6.82,167.205l563.379-28.925l190.111,26.536 M21.025,141.535
	L7.197,167.797 M21.119,140.057l285.977-38.566l135.428,19.043L20.157,142.18 M32.523,115.084l-11.017,25.537 M59.515,67.181
	l163.632,22.785L30.97,115.811 M72.625,43.545l-12.92,24.537 M259.881,7.908l-3.882,62.103L71.095,44.241 M272.597,9.364
	l-13.905-0.847 M304.354,10.601l-19.107,45.92l-0.242-0.02l-13.418-48.07 M316.99,12.147l-13.944-0.9 M327.967,12.22l-3.982,63.988
	l-11.836,1.617l-0.067-0.009l4.164-66.596 M380.172,15.446l-3.346,53.427l-17.998,2.513l-2.488-9.21
	c4.137-1.959,7.116-4.701,8.934-8.236c1.822-3.535,2.891-7.835,3.203-12.901c1.06-17.064-5.757-26.055-20.453-26.973l-21.203-1.315
	 M393.035,16.878l-13.668-0.856 M424.606,18.15l-19.072,45.858l-0.243-0.014l-13.385-48.078 M437.258,19.605l-13.772-0.845
	 M498.146,22.696l-1.888,29.997l-38.575,5.25l0.936-14.978c0.183-2.941,0.843-5.335,1.982-7.192
	c1.143-1.857,3.262-2.689,6.368-2.494c2.365,0.147,4.188,1.161,5.465,3.046c1.277,1.884,1.841,4.048,1.689,6.5l-0.263,4.163
	l12.492,0.779l0.308-4.899c0.189-3.021-0.151-5.852-1.007-8.485c-0.862-2.637-2.138-4.933-3.816-6.875
	c-1.683-1.952-3.719-3.514-6.101-4.688c-2.387-1.176-5.014-1.849-7.867-2.025c-3.023-0.192-5.811,0.149-8.364,1.013
	c-2.556,0.864-4.788,2.14-6.693,3.825c-1.913,1.685-3.433,3.722-4.562,6.113c-1.134,2.39-1.79,5.011-1.969,7.871l-1.245,20.044
	l-11.165,1.561l2.648-42.307 M550.338,35.26l-0.63,10.159l-12.574,1.713c0.177-6.473-1.351-11.69-4.638-15.611
	c-3.512-4.199-8.816-6.519-15.921-6.957l-19.197-1.171 M576.76,28.312l-13.393-0.838l-13.564,8.739 M609.28,29.684l-2.848,7.995
	l-31.424,4.288l0.93-14.821 M623.041,31.188l-14.751-0.892 M849.245,4.669l-228.657,31.08l2.022-5.455 M268.437,71.737l1.755-28.208
	l0.247,0.013l7.657,29.538L268.437,71.737z M289.6,74.685l11.707-29.219l0.248,0.013l-1.91,30.604L289.6,74.685z M339.696,25.354
	l6.489,0.404c2.285,0.143,4.106,0.541,5.459,1.201c1.354,0.659,2.381,1.602,3.083,2.835c0.705,1.234,1.125,2.694,1.265,4.382
	c0.138,1.69,0.145,3.635,0.003,5.842c-0.136,2.205-0.376,4.138-0.725,5.793c-0.353,1.663-0.909,3.041-1.673,4.141
	c-0.769,1.102-1.826,1.915-3.166,2.444c-1.345,0.532-3.119,0.729-5.327,0.592L338,52.549L339.696,25.354z M336.58,74.416
	l0.734-10.843l7.474,0.466l2.199,8.96L336.58,74.416z M389.473,67.22l1.009-16.201l0.244,0.014l4.013,15.473L389.473,67.22z
	 M421.84,52.973c0,0-0.271,4.41-0.619,9.973l-3.835,0.52l4.212-10.51L421.84,52.973z M395.495,89.428l5.009-0.685l0.137,0.538
	l6.248,0.387l0.763-1.896l12.13-1.688l-0.412,6.666L395.495,89.428z M562.543,40.702l-0.184,2.987l-5.656,0.773L562.543,40.702z
	 M515.598,36.305c3.677,0.23,6.148,1.329,7.42,3.291c1.271,1.965,1.797,4.663,1.585,8.091l-0.069,1.164l-11.646,1.589l-0.004-0.008
	l-3.981,0.542l0.938-15.027L515.598,36.305z M431.799,94.48l0.628-10.123l4.659-0.638l0.004,0.052l6.498-0.89l-0.293,4.752
	c-0.21,3.301,0.053,6.146,0.773,8.553L431.799,94.48z M479.846,101.17c0.684-0.945,1.304-1.952,1.836-3.031
	c1.176-2.385,1.846-4.928,2.014-7.623l0.336-5.39l-12.498-0.775l-0.265,4.288c-0.114,1.715-0.44,3.126-1.005,4.239
	c-0.563,1.116-1.25,1.974-2.062,2.577c-0.821,0.605-1.705,1.024-2.662,1.251c-0.959,0.23-1.845,0.313-2.661,0.262
	c-2.859-0.18-4.783-1.155-5.779-2.939c-0.993-1.789-1.417-3.941-1.26-6.473l0.399-6.394l38.569-5.249l-1.687,27.105L479.846,101.17z
	 M519.264,97.834c-1.576,1.672-4.121,2.387-7.631,2.166l-5.758-0.354l1.582-25.453l15.634-2.207l-1.104,17.718
	C521.757,93.458,520.849,96.174,519.264,97.834z M526.516,107.668c0.334-0.211,0.659-0.441,0.974-0.717
	c4.203-3.627,6.561-9.529,7.067-17.695l1.182-18.994l25.171-3.341l-2.81,45.146L526.516,107.668z M571.227,113.889l-0.691-0.097
	l3.036-48.688l24.212-3.189l-10.621,29.76l-0.729,11.757l24.862,1.548l-0.426,6.863L571.227,113.889z"/>
</svg>
