<?xml version="1.0" encoding="UTF-8" standalone="no"?>
<!-- Created with Inkscape (http://www.inkscape.org/) -->

<svg
   xmlns:dc="http://purl.org/dc/elements/1.1/"
   xmlns:cc="http://creativecommons.org/ns#"
   xmlns:rdf="http://www.w3.org/1999/02/22-rdf-syntax-ns#"
   xmlns:svg="http://www.w3.org/2000/svg"
   xmlns="http://www.w3.org/2000/svg"
   xmlns:sodipodi="http://sodipodi.sourceforge.net/DTD/sodipodi-0.dtd"
   xmlns:inkscape="http://www.inkscape.org/namespaces/inkscape"
   width="139.94341mm"
   height="119.15246mm"
   viewBox="0 0 139.94341 119.15245"
   id="svg37594"
   version="1.1"
   inkscape:version="0.91+devel r13766"
   sodipodi:docname="profi-final.svg"
   inkscape:export-filename="/home/alexander/rzl/mrmcds/d.png"
   inkscape:export-xdpi="20.369577"
   inkscape:export-ydpi="20.369577">
  <sodipodi:namedview
     id="base"
     pagecolor="#ffffff"
     bordercolor="#666666"
     borderopacity="1.0"
     inkscape:pageopacity="1"
     inkscape:pageshadow="2"
     inkscape:zoom="0.70710678"
     inkscape:cx="278.72756"
     inkscape:cy="192.28233"
     inkscape:document-units="mm"
     inkscape:current-layer="layer1"
     showgrid="false"
     inkscape:window-width="1436"
     inkscape:window-height="861"
     inkscape:window-x="0"
     inkscape:window-y="18"
     inkscape:window-maximized="0"
     fit-margin-top="0"
     fit-margin-left="0"
     fit-margin-right="0"
     fit-margin-bottom="0"
     showguides="true"
     inkscape:guide-bbox="true"
     inkscape:snap-global="true"
     showborder="true"
     borderlayer="true"
     inkscape:snap-bbox="true"
     inkscape:bbox-paths="true"
     inkscape:bbox-nodes="true"
     inkscape:snap-bbox-edge-midpoints="true"
     inkscape:snap-bbox-midpoints="true"
     inkscape:object-paths="true"
     inkscape:snap-intersection-paths="true"
     inkscape:object-nodes="true"
     inkscape:snap-smooth-nodes="true"
     inkscape:snap-midpoints="true"
     inkscape:snap-object-midpoints="true"
     inkscape:snap-center="true"
     inkscape:snap-text-baseline="true"
     inkscape:snap-page="true">
    <sodipodi:guide
       position="-1913.251,1430.6918"
       orientation="1,0"
       id="guide6736" />
    <sodipodi:guide
       position="-2114.079,1404.3824"
       orientation="1,0"
       id="guide7360" />
  </sodipodi:namedview>
  <defs
     id="defs37596" />
  <metadata
     id="metadata37599">
    <rdf:RDF>
      <cc:Work
         rdf:about="">
        <dc:format>image/svg+xml</dc:format>
        <dc:type
           rdf:resource="http://purl.org/dc/dcmitype/StillImage" />
        <dc:title></dc:title>
      </cc:Work>
    </rdf:RDF>
  </metadata>
  <g
     inkscape:label="Layer 1"
     inkscape:groupmode="layer"
     id="layer1"
     transform="translate(-2717.3217,-469.60942)"
     style="display:inline">
    <g
       transform="translate(0,0.56159703)"
       id="g4866">
      <path
         d="M 2736.4391,479.02989 L 2733.1833,475.9172 L 2733.1833,484.03882 L 2729.9633,484.03882 L 2729.9633,469.0836 L 2736.4391,474.73653 L 2742.9507,469.04782 L 2742.9507,472.9834 L 2736.4391,479.02989 Z M 2739.7307,477.09788 L 2742.9507,474.1283 L 2742.9507,484.03882 L 2739.7307,484.03882 L 2739.7307,477.09788 Z"
         style="font-style:normal;font-variant:normal;font-weight:normal;font-stretch:condensed;font-size:medium;line-height:125%;font-family:'Viking Squad Condensed';-inkscape-font-specification:'Viking Squad Condensed, Condensed';letter-spacing:0px;word-spacing:0px;fill:#000000;fill-opacity:1;stroke:none;stroke-width:0.26458332px;stroke-linecap:butt;stroke-linejoin:miter;stroke-opacity:1"
         id="path4788"
         inkscape:connector-curvature="0" />
      <path
         d="M 2747.9619,472.30362 L 2753.0781,472.30362 L 2753.0781,475.05853 L 2748.7132,475.05853 L 2748.7132,479.13723 L 2752.5415,484.03882 L 2756.5128,484.03882 L 2751.9332,478.17122 L 2754.9744,478.17122 Q 2756.3339,478.17122 2756.3339,476.84743 L 2756.3339,470.51472 Q 2756.3339,469.11937 2754.9744,469.11937 L 2746.1014,469.11937 Q 2744.7776,469.11937 2744.7776,470.47894 L 2744.7776,484.03882 L 2747.9619,484.03882 L 2747.9619,472.30362 Z"
         style="font-style:normal;font-variant:normal;font-weight:normal;font-stretch:condensed;font-size:medium;line-height:125%;font-family:'Viking Squad Condensed';-inkscape-font-specification:'Viking Squad Condensed, Condensed';letter-spacing:0px;word-spacing:0px;fill:#000000;fill-opacity:1;stroke:none;stroke-width:0.26458332px;stroke-linecap:butt;stroke-linejoin:miter;stroke-opacity:1"
         id="path4790"
         inkscape:connector-curvature="0" />
      <path
         d="M 2764.6003,479.02989 L 2761.3445,475.9172 L 2761.3445,484.03882 L 2758.1245,484.03882 L 2758.1245,469.0836 L 2764.6003,474.73653 L 2771.112,469.04782 L 2771.112,472.9834 L 2764.6003,479.02989 Z M 2767.8919,477.09788 L 2771.112,474.1283 L 2771.112,484.03882 L 2767.8919,484.03882 L 2767.8919,477.09788 Z"
         style="font-style:normal;font-variant:normal;font-weight:normal;font-stretch:condensed;font-size:medium;line-height:125%;font-family:'Viking Squad Condensed';-inkscape-font-specification:'Viking Squad Condensed, Condensed';letter-spacing:0px;word-spacing:0px;fill:#000000;fill-opacity:1;stroke:none;stroke-width:0.26458332px;stroke-linecap:butt;stroke-linejoin:miter;stroke-opacity:1"
         id="path4792"
         inkscape:connector-curvature="0" />
      <path
         d="M 2776.9102,469.11937 L 2783.2072,469.11937 L 2783.2072,472.26784 L 2776.9102,472.26784 L 2776.9102,469.11937 Z M 2776.1589,469.11937 L 2776.1589,480.96191 L 2783.2072,480.96191 L 2783.2072,484.03882 L 2774.2627,484.03882 Q 2772.9389,484.03882 2772.9389,482.67925 L 2772.9389,470.44316 Q 2772.9389,469.11937 2774.2627,469.11937 L 2776.1589,469.11937 Z"
         style="font-style:normal;font-variant:normal;font-weight:normal;font-stretch:condensed;font-size:medium;line-height:125%;font-family:'Viking Squad Condensed';-inkscape-font-specification:'Viking Squad Condensed, Condensed';letter-spacing:0px;word-spacing:0px;fill:#000000;fill-opacity:1;stroke:none;stroke-width:0.26458332px;stroke-linecap:butt;stroke-linejoin:miter;stroke-opacity:1"
         id="path4794"
         inkscape:connector-curvature="0" />
      <path
         d="M 2785.0279,469.11937 L 2785.0279,484.03882 L 2794.5091,484.03882 Q 2794.8311,484.03882 2795.1889,483.82415 Q 2795.5825,483.60948 2795.8687,483.28748 Q 2796.1907,482.96548 2796.3696,482.6077 Q 2796.5842,482.21414 2796.5842,481.89214 L 2796.5842,470.44316 Q 2796.5842,469.11937 2795.3678,469.11937 L 2788.9993,469.11937 L 2788.9993,472.19629 L 2793.3284,472.19629 L 2793.3284,480.89035 L 2788.248,480.89035 L 2788.248,469.11937 L 2785.0279,469.11937 Z"
         style="font-style:normal;font-variant:normal;font-weight:normal;font-stretch:condensed;font-size:medium;line-height:125%;font-family:'Viking Squad Condensed';-inkscape-font-specification:'Viking Squad Condensed, Condensed';letter-spacing:0px;word-spacing:0px;fill:#000000;fill-opacity:1;stroke:none;stroke-width:0.26458332px;stroke-linecap:butt;stroke-linejoin:miter;stroke-opacity:1"
         id="path4796"
         inkscape:connector-curvature="0" />
      <path
         d="M 2809.8596,480.96191 L 2809.8596,484.03882 L 2798.339,484.03882 L 2798.339,476.45387 Q 2798.339,475.84565 2798.661,475.45209 Q 2798.983,475.05853 2799.5913,475.05853 L 2801.5591,475.05853 L 2801.5591,480.96191 L 2809.8596,480.96191 Z M 2808.5716,469.11937 Q 2809.8596,469.11937 2809.8596,470.44316 L 2809.8596,476.91899 Q 2809.8596,478.17122 2808.5716,478.17122 L 2802.3462,478.17122 L 2802.3462,475.05853 L 2806.6395,475.05853 L 2806.6395,472.26784 L 2798.339,472.26784 L 2798.339,469.11937 L 2808.5716,469.11937 Z"
         style="font-style:normal;font-variant:normal;font-weight:normal;font-stretch:condensed;font-size:medium;line-height:125%;font-family:'Viking Squad Condensed';-inkscape-font-specification:'Viking Squad Condensed, Condensed';letter-spacing:0px;word-spacing:0px;fill:#000000;fill-opacity:1;stroke:none;stroke-width:0.26458332px;stroke-linecap:butt;stroke-linejoin:miter;stroke-opacity:1"
         id="path4798"
         inkscape:connector-curvature="0" />
      <path
         d="M 2819.9523,472.26784 L 2819.9523,480.96191 L 2814.8719,480.96191 L 2814.8719,472.26784 L 2819.9523,472.26784 Z M 2812.9756,469.11937 Q 2811.6518,469.11937 2811.6518,470.44316 L 2811.6518,482.75081 Q 2811.6518,484.03882 2812.9756,484.03882 L 2821.9917,484.03882 Q 2823.2081,484.03882 2823.2081,482.75081 L 2823.2081,470.51472 Q 2823.2081,469.11937 2821.8486,469.11937 L 2812.9756,469.11937 Z"
         style="font-style:normal;font-variant:normal;font-weight:normal;font-stretch:condensed;font-size:medium;line-height:125%;font-family:'Viking Squad Condensed';-inkscape-font-specification:'Viking Squad Condensed, Condensed';letter-spacing:0px;word-spacing:0px;fill:#000000;fill-opacity:1;stroke:none;stroke-width:0.26458332px;stroke-linecap:butt;stroke-linejoin:miter;stroke-opacity:1"
         id="path4800"
         inkscape:connector-curvature="0" />
      <path
         d="M 2828.0398,484.03882 L 2831.2599,484.03882 L 2831.2599,469.11937 L 2828.0398,469.11937 L 2828.0398,484.03882 Z M 2824.9987,472.30362 L 2827.3243,472.30362 L 2827.3243,469.11937 L 2824.9987,469.11937 L 2824.9987,472.30362 Z"
         style="font-style:normal;font-variant:normal;font-weight:normal;font-stretch:condensed;font-size:medium;line-height:125%;font-family:'Viking Squad Condensed';-inkscape-font-specification:'Viking Squad Condensed, Condensed';letter-spacing:0px;word-spacing:0px;fill:#000000;fill-opacity:1;stroke:none;stroke-width:0.26458332px;stroke-linecap:butt;stroke-linejoin:miter;stroke-opacity:1"
         id="path4802"
         inkscape:connector-curvature="0" />
      <path
         d="M 2833.1047,484.03882 L 2843.2299,484.03882 Q 2843.8381,484.03882 2844.2316,483.53793 Q 2844.6252,483.03703 2844.6252,482.42881 L 2844.6252,476.66854 Q 2844.6252,476.06032 2844.1959,475.55942 Q 2843.7665,475.05853 2843.1583,475.05853 L 2841.4052,475.05853 L 2841.4052,480.96191 L 2833.1047,480.96191 L 2833.1047,484.03882 Z M 2844.5894,469.11937 L 2833.1047,469.11937 L 2833.1047,478.17122 L 2840.6896,478.17122 L 2840.6896,475.05853 L 2836.3247,475.05853 L 2836.3247,472.26784 L 2844.5894,472.26784 L 2844.5894,469.11937 Z"
         style="font-style:normal;font-variant:normal;font-weight:normal;font-stretch:condensed;font-size:medium;line-height:125%;font-family:'Viking Squad Condensed';-inkscape-font-specification:'Viking Squad Condensed, Condensed';letter-spacing:0px;word-spacing:0px;fill:#000000;fill-opacity:1;stroke:none;stroke-width:0.26458332px;stroke-linecap:butt;stroke-linejoin:miter;stroke-opacity:1"
         id="path4804"
         inkscape:connector-curvature="0" />
    </g>
    <g
       id="g4882"
       transform="translate(0,-0.41914781)">
      <path
         inkscape:connector-curvature="0"
         id="path26810"
         d="M 2794.8813,535.34349 C 2792.1283,535.34349 2789.8795,537.59128 2789.8795,540.34422 L 2789.8795,574.03983 C 2789.8795,576.79277 2792.1283,579.04056 2794.8813,579.04056 L 2828.0772,579.04056 C 2830.8301,579.04056 2833.0795,576.79277 2833.0795,574.03983 L 2833.0795,540.34422 C 2833.0795,537.59126 2830.8301,535.34349 2828.0772,535.34349 L 2794.8813,535.34349 Z M 2794.8813,537.41002 L 2828.0772,537.41002 C 2829.7213,537.41002 2831.0129,538.7001 2831.0129,540.34422 L 2831.0129,574.03983 C 2831.0129,575.68395 2829.7213,576.97403 2828.0772,576.97403 L 2794.8813,576.97403 C 2793.2372,576.97403 2791.9455,575.68395 2791.9455,574.03983 L 2791.9455,540.34422 C 2791.9455,538.7001 2793.2372,537.41004 2794.8813,537.41002 Z M 2799.9828,541.09352 A 3.8055904,3.8055904 0 0 0 2796.1773,544.89897 A 3.8055904,3.8055904 0 0 0 2799.9828,548.70444 A 3.8055904,3.8055904 0 0 0 2803.7887,544.89897 A 3.8055904,3.8055904 0 0 0 2799.9828,541.09352 Z M 2802.6152,549.22326 A 1.0874202,1.0874202 0 0 0 2801.6349,550.81489 C 2803.16,553.82567 2804.5456,557.14037 2804.7794,560.59207 C 2804.7863,560.69478 2804.7889,560.79812 2804.7939,560.9011 A 1.0874202,1.0874202 0 0 0 2804.8099,561.27834 C 2804.889,564.52116 2803.9506,567.90224 2801.0215,571.5015 A 1.0874202,1.0874202 0 1 0 2802.7082,572.87402 C 2804.2971,570.92156 2805.3741,568.96094 2806.0527,567.0289 C 2806.1237,568.6772 2805.9475,570.33339 2805.4641,571.89372 A 1.0874202,1.0874202 0 1 0 2807.541,572.53811 C 2808.744,568.65561 2808.3302,564.45141 2806.9679,560.87009 C 2806.9618,560.72851 2806.9578,560.58656 2806.9482,560.44583 C 2806.7804,557.96772 2806.1087,555.63047 2805.2408,553.46279 L 2812.15,555.00171 A 1.0874202,1.0874202 0 0 0 2813.2181,554.6617 L 2818.9863,555.93035 C 2818.8576,556.58299 2818.8111,557.23493 2819.0483,557.85064 C 2819.3361,558.59766 2820.0601,559.16763 2821.2063,559.44383 C 2822.3525,559.72003 2823.6066,559.67931 2824.6696,559.35855 C 2825.7327,559.03782 2826.6687,558.41089 2826.9119,557.40156 C 2827.1551,556.39226 2826.6074,555.40819 2825.807,554.63844 C 2825.0067,553.86869 2823.9085,553.26149 2822.7623,552.9853 C 2821.616,552.7091 2820.7124,552.88698 2820.1159,553.42093 C 2819.6641,553.8254 2819.4084,554.36438 2819.2281,554.94538 L 2813.4548,553.6757 A 1.0874202,1.0874202 0 0 0 2812.6223,552.87885 L 2804.1474,550.99163 C 2803.9587,550.59865 2803.7674,550.21172 2803.5753,549.83252 A 1.0874202,1.0874202 0 0 0 2802.6152,549.22326 Z M 2821.643,553.8576 C 2821.8504,553.85154 2822.1022,553.88051 2822.401,553.94494 C 2822.2709,554.24257 2822.1497,554.54015 2822.0435,554.83738 L 2820.5252,554.50821 C 2820.6067,554.37634 2820.6943,554.26281 2820.7913,554.17592 C 2820.995,553.9936 2821.2485,553.86911 2821.643,553.8576 Z M 2823.1374,554.16147 C 2823.881,554.43852 2824.5914,554.87537 2825.1048,555.36914 C 2825.7582,555.99763 2826.0479,556.66234 2825.9269,557.16439 C 2825.806,557.66644 2825.2446,558.12671 2824.3766,558.38859 C 2823.6955,558.59409 2822.8659,558.65942 2822.0786,558.5679 C 2822.134,557.11441 2822.4742,555.64915 2823.1374,554.16147 Z M 2820.2089,555.21772 L 2821.8078,555.56448 C 2821.7077,555.90537 2821.6263,556.24599 2821.5566,556.58612 L 2819.9645,556.21303 C 2819.9899,556.06433 2820.0198,555.91156 2820.0585,555.75051 C 2820.1042,555.56101 2820.1545,555.38319 2820.2089,555.21772 Z M 2819.9015,556.97886 L 2821.4264,557.33542 C 2821.3753,557.69938 2821.3404,558.06257 2821.3231,558.42529 C 2820.4649,558.19674 2820.1435,557.87585 2819.9934,557.48633 C 2819.9376,557.34132 2819.909,557.17021 2819.9015,556.97886 Z M 2824.2376,560.10476 C 2823.7697,562.71701 2822.2125,565.12671 2820.056,566.69299 C 2817.6215,568.47871 2814.52,569.28704 2811.4286,569.44323 C 2812.2109,569.90222 2813.6723,570.18046 2815.4366,569.98634 C 2817.2255,569.78949 2819.1864,569.11893 2820.8998,567.85366 C 2822.4722,566.68251 2823.543,565.14068 2824.081,563.63477 C 2824.6152,562.13991 2824.5704,560.85041 2824.2376,560.10476 Z"
         style="color:#000000;font-style:normal;font-variant:normal;font-weight:normal;font-stretch:normal;font-size:medium;line-height:normal;font-family:sans-serif;text-indent:0;text-align:start;text-decoration:none;text-decoration-line:none;text-decoration-style:solid;text-decoration-color:#000000;letter-spacing:normal;word-spacing:normal;text-transform:none;direction:ltr;block-progression:tb;writing-mode:lr-tb;baseline-shift:baseline;text-anchor:start;white-space:normal;clip-rule:nonzero;display:inline;overflow:visible;visibility:visible;opacity:1;isolation:auto;mix-blend-mode:normal;color-interpolation:sRGB;color-interpolation-filters:linearRGB;solid-color:#000000;solid-opacity:1;fill:#000000;fill-opacity:1;fill-rule:evenodd;stroke:none;stroke-width:0.7667467;stroke-linecap:round;stroke-linejoin:miter;stroke-miterlimit:4;stroke-dasharray:none;stroke-dashoffset:0;stroke-opacity:1;color-rendering:auto;image-rendering:auto;shape-rendering:auto;text-rendering:auto;enable-background:accumulate" />
      <path
         inkscape:connector-curvature="0"
         id="path26846"
         d="M 2746.5085,535.2143 C 2743.7556,535.2143 2741.5083,537.46209 2741.5083,540.21503 L 2741.5083,573.91064 C 2741.5083,576.66358 2743.7556,578.91137 2746.5085,578.91137 L 2779.7049,578.91137 C 2782.4579,578.91137 2784.7067,576.66358 2784.7067,573.91064 L 2784.7067,540.21503 C 2784.7067,537.46209 2782.4579,535.2143 2779.7049,535.2143 L 2746.5085,535.2143 Z M 2746.5085,537.28085 L 2779.7049,537.28085 C 2781.3491,537.28085 2782.6407,538.57091 2782.6407,540.21503 L 2782.6407,573.91064 C 2782.6407,575.55476 2781.3491,576.84484 2779.7049,576.84484 L 2746.5085,576.84484 C 2744.8644,576.84484 2743.5743,575.55476 2743.5743,573.91064 L 2743.5743,540.21503 C 2743.5743,538.57091 2744.8644,537.28085 2746.5085,537.28085 Z M 2770.4058,545.00491 A 3.8130953,3.8130953 0 0 0 2766.5926,548.81811 A 3.8130953,3.8130953 0 0 0 2770.4058,552.63081 A 3.8130953,3.8130953 0 0 0 2774.2185,548.81811 A 3.8130953,3.8130953 0 0 0 2770.4058,545.00491 Z M 2763.186,548.72511 L 2756.8701,548.7494 A 1.089709,1.089709 0 1 0 2756.8784,550.92859 L 2762.6212,550.90689 L 2763.4201,552.05979 L 2759.7609,554.38574 C 2760.2853,554.59513 2760.6502,554.69327 2760.9542,554.69787 C 2761.4239,554.70525 2761.9623,554.52052 2763.0408,553.92325 C 2763.4743,553.68317 2763.9089,553.49629 2764.3457,553.35738 C 2764.4876,553.31196 2764.6296,553.27277 2764.772,553.2375 C 2764.8255,553.22438 2764.8791,553.213 2764.9327,553.20131 C 2765.0141,553.18334 2765.0956,553.16749 2765.1771,553.15273 C 2765.3101,553.1291 2765.4435,553.11003 2765.5771,553.09486 C 2765.6321,553.08854 2765.6869,553.08113 2765.742,553.07626 A 1.0895649,1.0895649 0 0 0 2765.742,553.07574 C 2765.9379,553.05838 2766.1345,553.04758 2766.3321,553.04835 C 2766.4771,553.04888 2766.6227,553.05565 2766.7688,553.06542 L 2764.0857,549.19432 A 1.0895649,1.0895649 0 0 0 2763.186,548.72511 Z M 2766.3321,553.62403 C 2765.214,553.61961 2764.1253,553.89912 2763.0414,554.49943 C 2761.9628,555.09673 2761.4239,555.28117 2760.9542,555.27405 C 2760.4844,555.2667 2759.8752,555.0413 2758.744,554.517 C 2756.273,553.37175 2754.5072,553.76273 2752.4865,554.52372 C 2751.4596,554.91057 2750.5248,555.31821 2749.6567,555.45905 C 2748.7886,555.59994 2748.0079,555.53202 2747.0305,554.918 C 2746.8215,554.78677 2746.6113,554.67361 2746.4005,554.57333 L 2746.4005,556.60319 C 2747.6245,557.27324 2748.8539,557.38678 2749.9409,557.21038 C 2751.121,557.01887 2752.1535,556.54527 2753.1122,556.18409 C 2755.0629,555.44923 2755.8926,555.15025 2757.9983,556.1262 C 2759.1554,556.66251 2759.9775,557.03324 2760.9262,557.04761 C 2761.875,557.06192 2762.742,556.69217 2763.9002,556.05076 C 2765.896,554.94547 2767.4273,555.12843 2769.9924,556.5267 C 2771.4308,557.31079 2772.7037,557.65705 2773.9461,557.59175 C 2775.1885,557.52645 2776.3327,557.07597 2777.6058,556.44917 C 2778.6119,555.9539 2779.5432,555.76856 2780.4666,555.812 L 2780.4666,554.07052 C 2779.2806,554.02413 2778.0626,554.24546 2776.8214,554.85651 C 2775.6274,555.44426 2774.7188,555.77528 2773.8526,555.82079 C 2772.9864,555.8663 2772.0953,555.65217 2770.8414,554.96864 C 2769.4316,554.20014 2768.1012,553.73997 2766.8132,553.64316 C 2766.6522,553.63104 2766.4919,553.62464 2766.3321,553.62403 Z M 2766.5492,558.46974 C 2765.7647,558.46974 2765.1804,558.68207 2764.7958,559.10742 C 2764.4137,559.53279 2764.2227,560.27828 2764.2227,561.34293 C 2764.2227,561.77595 2764.2594,562.17185 2764.3333,562.53099 C 2764.4097,562.88757 2764.5156,563.16906 2764.6506,563.37538 C 2764.8365,563.66574 2765.0744,563.88603 2765.3647,564.03631 C 2765.6551,564.18659 2766.0361,564.26163 2766.5073,564.26163 C 2767.3478,564.26163 2767.9401,564.02589 2768.2839,563.55469 C 2768.6278,563.08349 2768.7997,562.34009 2768.7997,561.32383 C 2768.7997,560.87044 2768.7475,560.43464 2768.6431,560.01692 C 2768.5896,559.79787 2768.5183,559.60684 2768.4292,559.44383 C 2768.3425,559.27828 2768.2228,559.12181 2768.07,558.97409 C 2767.9172,558.82381 2767.7198,558.7025 2767.4778,558.61082 C 2767.2358,558.51657 2766.9261,558.46974 2766.5492,558.46974 Z M 2755.8868,558.7498 C 2755.1023,558.7498 2754.518,558.96266 2754.1334,559.38803 C 2753.7513,559.81338 2753.5603,560.55836 2753.5603,561.62302 C 2753.5603,562.05601 2753.597,562.45193 2753.6709,562.81108 C 2753.7473,563.16766 2753.8532,563.44915 2753.9882,563.65547 C 2754.1741,563.94582 2754.412,564.16612 2754.7023,564.3164 C 2754.9927,564.46668 2755.3737,564.54172 2755.8449,564.54172 C 2756.6855,564.54172 2757.2777,564.30653 2757.6215,563.83528 C 2757.9654,563.36408 2758.1373,562.62018 2758.1373,561.60392 C 2758.1373,561.15053 2758.0851,560.71473 2757.9807,560.29701 C 2757.9272,560.07796 2757.8559,559.88693 2757.7667,559.72392 C 2757.6801,559.55837 2757.5604,559.4019 2757.4076,559.25418 C 2757.2548,559.1039 2757.0573,558.98311 2756.8154,558.89141 C 2756.5734,558.79716 2756.2637,558.7498 2755.8868,558.7498 Z M 2761.4968,559.42264 C 2761.3312,559.77414 2761.1024,560.06947 2760.8094,560.30889 C 2760.5166,560.54831 2760.1052,560.75371 2759.5754,560.92436 L 2759.5754,562.20026 C 2759.9346,562.09072 2760.2326,561.97632 2760.4694,561.85659 C 2760.7088,561.7369 2760.9558,561.57992 2761.2105,561.38635 L 2761.2105,565.11946 L 2762.7845,565.11946 L 2762.7845,559.42264 L 2761.4968,559.42264 Z M 2766.4959,559.50482 C 2766.7481,559.50482 2766.9365,559.63357 2767.0613,559.89082 C 2767.1886,560.14553 2767.2519,560.64467 2767.2519,561.38841 C 2767.2519,561.89528 2767.2243,562.26831 2767.1682,562.50773 C 2767.1148,562.74716 2767.0291,562.92326 2766.9119,563.03534 C 2766.7973,563.14488 2766.6611,563.19917 2766.5032,563.19917 C 2766.2638,563.19917 2766.0807,563.06931 2765.9533,562.80952 C 2765.8285,562.54718 2765.7657,562.05974 2765.7657,561.34656 C 2765.7657,560.64102 2765.8232,560.15839 2765.9378,559.89857 C 2766.0524,559.63624 2766.2387,559.50482 2766.4959,559.50482 Z M 2772.5643,559.53477 C 2771.7798,559.53477 2771.195,559.74763 2770.8104,560.173 C 2770.4283,560.59834 2770.2373,561.34333 2770.2373,562.40799 C 2770.2373,562.84098 2770.2745,563.2369 2770.3484,563.59604 C 2770.4248,563.95262 2770.5307,564.23411 2770.6657,564.44044 C 2770.8516,564.73079 2771.0895,564.95108 2771.3799,565.10137 C 2771.6703,565.25165 2772.0513,565.32668 2772.5224,565.32668 C 2773.363,565.32668 2773.9552,565.09147 2774.2991,564.62025 C 2774.6429,564.14905 2774.8148,563.40515 2774.8148,562.38888 C 2774.8148,561.93549 2774.7621,561.4997 2774.6577,561.08197 C 2774.6042,560.86293 2774.5329,560.6719 2774.4438,560.50889 C 2774.3572,560.34334 2774.2375,560.18686 2774.0846,560.03915 C 2773.9318,559.88886 2773.7349,559.76808 2773.4929,559.67637 C 2773.251,559.58213 2772.9413,559.53477 2772.5643,559.53477 Z M 2750.8344,559.5911 C 2750.6688,559.9426 2750.44,560.23793 2750.1471,560.47735 C 2749.8541,560.71677 2749.4428,560.92166 2748.913,561.09232 L 2748.913,562.36872 C 2749.2722,562.25918 2749.5702,562.14425 2749.807,562.02455 C 2750.0464,561.90483 2750.2934,561.74838 2750.5481,561.55481 L 2750.5481,565.28739 L 2752.1221,565.28739 L 2752.1221,559.5911 L 2750.8344,559.5911 Z M 2755.8335,559.78541 C 2756.0857,559.78541 2756.2741,559.91365 2756.3989,560.17091 C 2756.5262,560.42562 2756.5901,560.92476 2756.5901,561.6685 C 2756.5901,562.17536 2756.5619,562.5489 2756.5058,562.78832 C 2756.4524,563.02775 2756.3672,563.20335 2756.25,563.31543 C 2756.1354,563.42494 2755.9987,563.47976 2755.8408,563.47976 C 2755.6013,563.47976 2755.4183,563.34993 2755.2909,563.09011 C 2755.1661,562.82777 2755.1039,562.33983 2755.1039,561.62665 C 2755.1039,560.92111 2755.1608,560.43848 2755.2754,560.17866 C 2755.39,559.91633 2755.5763,559.78541 2755.8335,559.78541 Z M 2772.5105,560.56987 C 2772.7627,560.56987 2772.9516,560.69862 2773.0764,560.95587 C 2773.2038,561.21059 2773.2671,561.70972 2773.2671,562.45347 C 2773.2671,562.96033 2773.2394,563.33387 2773.1834,563.57329 C 2773.1299,563.81271 2773.0442,563.98832 2772.9271,564.10039 C 2772.8124,564.2099 2772.6762,564.26473 2772.5183,564.26473 C 2772.2789,564.26473 2772.0958,564.1349 2771.9685,563.87507 C 2771.8437,563.61274 2771.7809,563.1248 2771.7809,562.41161 C 2771.7809,561.70607 2771.8383,561.22345 2771.953,560.96363 C 2772.0676,560.70129 2772.2533,560.56987 2772.5105,560.56987 Z M 2767.0406,567.62575 C 2766.875,567.97725 2766.6457,568.27311 2766.3528,568.51253 C 2766.0599,568.75195 2765.6485,568.95682 2765.1187,569.12748 L 2765.1187,570.40338 C 2765.4779,570.29384 2765.7759,570.17943 2766.0127,570.05971 C 2766.2522,569.94001 2766.4991,569.78303 2766.7538,569.58947 L 2766.7538,573.32258 L 2768.3284,573.32258 L 2768.3284,567.62575 L 2767.0406,567.62575 Z M 2777.0937,567.73789 C 2776.9282,568.08941 2776.6988,568.38524 2776.4059,568.62466 C 2776.113,568.86408 2775.7017,569.06895 2775.1719,569.23961 L 2775.1719,570.51551 C 2775.531,570.40597 2775.829,570.29156 2776.0659,570.17187 C 2776.3053,570.05214 2776.5527,569.89519 2776.8075,569.7016 L 2776.8075,573.43471 L 2778.3815,573.43471 L 2778.3815,567.73789 L 2777.0937,567.73789 Z M 2756.0247,568.13116 C 2755.2402,568.13116 2754.6555,568.34399 2754.2708,568.76936 C 2753.8888,569.19471 2753.6977,569.93969 2753.6977,571.00438 C 2753.6977,571.43737 2753.735,571.83326 2753.8088,572.19241 C 2753.8853,572.54899 2753.9906,572.83048 2754.1256,573.0368 C 2754.3115,573.32716 2754.5499,573.54747 2754.8403,573.69773 C 2755.1307,573.84801 2755.5112,573.92305 2755.9824,573.92305 C 2756.8229,573.92305 2757.4151,573.68733 2757.759,573.21611 C 2758.1028,572.74491 2758.2747,572.00151 2758.2747,570.98525 C 2758.2747,570.53186 2758.2226,570.09606 2758.1181,569.67834 C 2758.0647,569.45929 2757.9934,569.26826 2757.9042,569.10525 C 2757.8176,568.9397 2757.6979,568.78325 2757.545,568.63551 C 2757.3922,568.48525 2757.1948,568.36392 2756.9529,568.27224 C 2756.7108,568.17799 2756.4017,568.13116 2756.0247,568.13116 Z M 2772.0672,568.24279 C 2771.9016,568.59426 2771.6723,568.88962 2771.3793,569.12904 C 2771.0864,569.36846 2770.6751,569.57333 2770.1453,569.74398 L 2770.1453,571.02039 C 2770.5044,570.91087 2770.8024,570.79594 2771.0393,570.67622 C 2771.2787,570.55652 2771.5262,570.40004 2771.7809,570.20647 L 2771.7809,573.93908 L 2773.3549,573.93908 L 2773.3549,568.24279 L 2772.0672,568.24279 Z M 2762.014,568.63501 C 2761.8485,568.98651 2761.6191,569.28234 2761.3262,569.52176 C 2761.0333,569.76118 2760.622,569.96607 2760.0922,570.13673 L 2760.0922,571.4126 C 2760.4513,571.30309 2760.7493,571.18866 2760.9862,571.06896 C 2761.2256,570.94924 2761.4725,570.79229 2761.7272,570.59872 L 2761.7272,574.3318 L 2763.3013,574.3318 L 2763.3013,568.63501 L 2762.014,568.63501 Z M 2755.971,569.16624 C 2756.2232,569.16624 2756.4115,569.29501 2756.5363,569.55227 C 2756.6637,569.80695 2756.7275,570.30609 2756.7275,571.04983 C 2756.7275,571.5567 2756.6993,571.92973 2756.6433,572.16915 C 2756.5898,572.40857 2756.5047,572.58471 2756.3875,572.69676 C 2756.2729,572.8063 2756.1366,572.86059 2755.9787,572.86059 C 2755.7393,572.86059 2755.5558,572.73073 2755.4284,572.47094 C 2755.3036,572.2086 2755.2413,571.72116 2755.2413,571.00798 C 2755.2413,570.30244 2755.2988,569.81981 2755.4134,569.56002 C 2755.528,569.29766 2755.7138,569.16624 2755.971,569.16624 Z"
         style="color:#000000;font-style:normal;font-variant:normal;font-weight:normal;font-stretch:normal;font-size:medium;line-height:normal;font-family:sans-serif;text-indent:0;text-align:start;text-decoration:none;text-decoration-line:none;text-decoration-style:solid;text-decoration-color:#000000;letter-spacing:normal;word-spacing:normal;text-transform:none;direction:ltr;block-progression:tb;writing-mode:lr-tb;baseline-shift:baseline;text-anchor:start;white-space:normal;clip-rule:nonzero;display:inline;overflow:visible;visibility:visible;opacity:1;isolation:auto;mix-blend-mode:normal;color-interpolation:sRGB;color-interpolation-filters:linearRGB;solid-color:#000000;solid-opacity:1;fill:#000000;fill-opacity:1;fill-rule:evenodd;stroke:none;stroke-width:2.90365601;stroke-linecap:round;stroke-linejoin:miter;stroke-miterlimit:4;stroke-dasharray:none;stroke-dashoffset:0;stroke-opacity:1;color-rendering:auto;image-rendering:auto;shape-rendering:auto;text-rendering:auto;enable-background:accumulate" />
    </g>
    <g
       id="g4877"
       transform="translate(0,0.07134746)">
      <path
         inkscape:connector-curvature="0"
         id="path26878"
         d="M 2819.0674,487.77789 C 2816.3145,487.77789 2814.0651,490.02568 2814.0651,492.77862 L 2814.0651,526.47423 C 2814.0651,529.22717 2816.3145,531.47496 2819.0674,531.47496 L 2852.2633,531.47496 C 2855.0162,531.47496 2857.2651,529.22717 2857.2651,526.47423 L 2857.2651,492.77862 C 2857.2651,490.02568 2855.0162,487.77789 2852.2633,487.77789 L 2819.0674,487.77789 Z M 2819.0674,489.84444 L 2852.2633,489.84444 C 2853.9074,489.84444 2855.1991,491.1345 2855.1991,492.77862 L 2855.1991,526.47423 C 2855.1991,528.11835 2853.9074,529.40844 2852.2633,529.40844 L 2819.0674,529.40844 C 2817.4233,529.40844 2816.1317,528.11835 2816.1317,526.47423 L 2816.1317,492.77862 C 2816.1317,491.1345 2817.4233,489.84444 2819.0674,489.84444 Z M 2832.0919,492.07065 A 0.63990174,0.63990174 0 0 0 2831.6883,492.19209 L 2830.599,492.98481 A 0.63990174,0.63990174 0 0 0 2830.4579,493.87881 L 2831.648,495.51489 L 2826.2768,499.42112 A 0.99517733,0.99517733 0 0 0 2825.9357,499.37407 A 0.99517733,0.99517733 0 0 0 2825.1337,499.84072 C 2824.9936,500.05752 2824.8799,500.28294 2824.7782,500.51096 L 2823.3798,501.52797 A 0.640443,0.640443 0 1 0 2824.1332,502.56355 L 2824.2764,502.45967 C 2824.2371,502.82816 2824.2202,503.18696 2824.2206,503.5201 C 2824.2213,504.07818 2824.2672,504.5679 2824.3348,504.95514 C 2824.3686,505.14876 2824.4042,505.3118 2824.4624,505.48225 C 2824.4915,505.56744 2824.5199,505.65129 2824.6009,505.783 C 2824.6381,505.84351 2824.6949,505.92212 2824.7947,506.01501 C 2825.3967,506.9469 2826.084,507.57663 2826.7589,508.05056 C 2827.3853,508.49037 2827.9855,508.85036 2828.6544,509.40758 C 2828.2316,510.76097 2827.8386,512.46476 2827.67,514.4326 A 0.99517733,0.99517733 0 0 0 2827.6503,514.46877 C 2827.6503,514.46877 2824.8332,519.81994 2824.9321,526.18899 A 0.99518347,0.99518347 0 1 0 2826.9222,526.15798 C 2826.8851,523.77189 2827.3079,521.5219 2827.8141,519.69635 C 2828.118,521.85392 2828.7481,524.17416 2829.8673,526.59155 A 0.99517733,0.99517733 0 1 0 2831.6734,525.75541 C 2826.7968,515.22206 2831.7932,506.98344 2831.7932,506.98344 A 0.99517733,0.99517733 0 0 0 2830.9716,505.46468 A 0.99517733,0.99517733 0 0 0 2830.0859,505.96024 C 2830.0859,505.96024 2829.7733,506.49663 2829.3722,507.4449 C 2828.8138,507.02768 2828.3124,506.70952 2827.9025,506.42173 C 2827.2669,505.97538 2826.823,505.60245 2826.3455,504.79237 L 2826.329,504.76393 C 2826.3189,504.72495 2826.31,504.69688 2826.2954,504.61304 C 2826.2515,504.36152 2826.2112,503.96211 2826.2106,503.5175 C 2826.2095,502.62829 2826.3946,501.55546 2826.8049,500.92025 A 0.99517733,0.99517733 0 0 0 2826.9615,500.50684 L 2832.401,496.55049 L 2833.5911,498.18657 A 0.63990174,0.63990174 0 0 0 2834.4851,498.32765 L 2835.5744,497.53543 A 0.63990174,0.63990174 0 0 0 2835.7155,496.64143 L 2832.5823,492.3337 A 0.63990174,0.63990174 0 0 0 2832.0919,492.07065 Z M 2833.3285,499.31724 A 2.8461287,2.8461287 0 0 0 2830.4822,502.16358 A 2.8461287,2.8461287 0 0 0 2833.3285,505.00991 A 2.8461287,2.8461287 0 0 0 2836.1744,502.16358 A 2.8461287,2.8461287 0 0 0 2833.3285,499.31724 Z M 2835.8085,513.16032 C 2835.0025,513.16059 2834.3491,513.81413 2834.3491,514.62019 L 2834.3491,522.11946 C 2834.3494,522.92527 2835.0027,523.57853 2835.8085,523.57882 L 2837.5929,523.57882 L 2837.5929,525.44641 L 2836.8715,525.44641 A 0.86774196,0.86774196 0 1 0 2836.8715,527.18168 L 2845.6994,527.18168 A 0.86774196,0.86774196 0 1 0 2845.6994,525.44641 L 2844.9775,525.44641 L 2844.9775,523.57882 L 2846.7618,523.57882 C 2847.5679,523.57885 2848.2214,522.92551 2848.2217,522.11946 L 2848.2217,514.62019 C 2848.2217,513.81392 2847.5681,513.16029 2846.7618,513.16032 L 2835.8085,513.16032 Z M 2841.295,513.95923 C 2843.1805,513.94261 2845.0674,514.05342 2846.9556,514.34166 L 2847.0827,514.36076 L 2847.1013,514.48789 C 2847.4867,517.08105 2847.3624,519.6668 2847.1024,522.244 L 2847.0884,522.37732 L 2846.9561,522.39801 C 2843.0135,523.00795 2839.2969,522.80139 2835.6447,522.39851 L 2835.5119,522.38457 L 2835.4922,522.25278 C 2835.0969,519.66648 2835.0512,517.0757 2835.4922,514.48377 L 2835.5144,514.3556 L 2835.6431,514.3406 C 2837.5255,514.11973 2839.4095,513.97587 2841.295,513.95923 Z M 2841.2981,514.30599 C 2839.4731,514.32208 2837.6469,514.46146 2835.8188,514.67239 C 2835.4155,517.13502 2835.4589,519.59938 2835.8245,522.06728 C 2839.3748,522.4537 2842.9694,522.63926 2846.766,522.06985 C 2847.0106,519.59576 2847.1205,517.1296 2846.7716,514.6703 C 2844.9484,514.40003 2843.1239,514.29041 2841.2981,514.3065 L 2841.2981,514.30599 Z M 2839.1468,523.57882 L 2843.423,523.57882 L 2843.423,525.29861 L 2839.1468,525.29861 L 2839.1468,523.57882 Z"
         style="color:#000000;font-style:normal;font-variant:normal;font-weight:normal;font-stretch:normal;font-size:medium;line-height:normal;font-family:sans-serif;text-indent:0;text-align:start;text-decoration:none;text-decoration-line:none;text-decoration-style:solid;text-decoration-color:#000000;letter-spacing:normal;word-spacing:normal;text-transform:none;direction:ltr;block-progression:tb;writing-mode:lr-tb;baseline-shift:baseline;text-anchor:start;white-space:normal;clip-rule:nonzero;display:inline;overflow:visible;visibility:visible;opacity:1;isolation:auto;mix-blend-mode:normal;color-interpolation:sRGB;color-interpolation-filters:linearRGB;solid-color:#000000;solid-opacity:1;fill:#000000;fill-opacity:1;fill-rule:nonzero;stroke:none;stroke-width:0.72844613;stroke-linecap:round;stroke-linejoin:round;stroke-miterlimit:4;stroke-dasharray:none;stroke-dashoffset:0;stroke-opacity:1;marker:none;paint-order:normal;color-rendering:auto;image-rendering:auto;shape-rendering:auto;text-rendering:auto;enable-background:accumulate" />
      <path
         inkscape:connector-curvature="0"
         id="path26902"
         d="M 2770.6951,487.77789 C 2767.9421,487.77789 2765.6933,490.02568 2765.6933,492.77862 L 2765.6933,526.47423 C 2765.6933,529.22717 2767.9421,531.47496 2770.6951,531.47496 L 2803.8915,531.47496 C 2806.6444,531.47496 2808.8932,529.22717 2808.8932,526.47423 L 2808.8932,492.77862 C 2808.8932,490.02568 2806.6444,487.77789 2803.8915,487.77789 L 2770.6951,487.77789 Z M 2770.6951,489.84444 L 2803.8915,489.84444 C 2805.5356,489.84444 2806.8272,491.1345 2806.8272,492.77862 L 2806.8272,526.47423 C 2806.8272,528.11835 2805.5356,529.40844 2803.8915,529.40844 L 2770.6951,529.40844 C 2769.0509,529.40844 2767.7598,528.11835 2767.7598,526.47423 L 2767.7598,492.77862 C 2767.7598,491.1345 2769.0509,489.84444 2770.6951,489.84444 Z M 2800.501,497.23571 C 2798.5873,497.25302 2796.6288,497.50194 2794.7649,497.98864 C 2793.2902,498.37371 2791.875,498.90833 2790.5879,499.59371 C 2790.4914,499.60212 2790.3935,499.60826 2790.298,499.61799 C 2789.3829,499.71131 2788.5091,499.86242 2787.6837,500.05622 C 2785.7043,500.52094 2784.0133,501.23092 2782.7114,501.97289 L 2778.9633,497.65531 A 1.0328243,1.0328243 0 0 0 2777.9386,497.3153 A 1.0328243,1.0328243 0 0 0 2777.4037,499.00924 L 2781.0402,503.19865 L 2778.0564,506.88731 C 2777.9732,506.79998 2777.8917,506.71116 2777.8063,506.62583 A 0.55455028,0.55455028 0 0 0 2777.4089,506.4579 A 0.55455028,0.55455028 0 0 0 2777.0234,507.41079 C 2777.1363,507.52343 2777.2451,507.63955 2777.3536,507.75599 L 2777.181,507.96891 A 1.0328243,1.0328243 0 0 0 2778.6584,509.40395 C 2781.7676,514.04242 2781.9043,520.53317 2777.6708,525.10793 A 0.5545804,0.5545804 0 1 0 2778.4848,525.86135 C 2783.1648,520.80397 2782.9456,513.57339 2779.3938,508.5177 L 2782.7677,504.34742 A 1.0331013,1.0331013 0 0 0 2782.9625,504.24251 C 2784.4607,503.22416 2787.2241,502.00803 2790.5078,501.67317 C 2793.7915,501.33831 2797.5953,501.8483 2801.3924,504.20531 A 1.0331013,1.0331013 0 1 0 2802.4818,502.44986 C 2800.2707,501.07733 2798.0331,500.26659 2795.876,499.85622 C 2797.9638,499.37918 2800.1842,499.20498 2802.244,499.35547 A 1.0329424,1.0329424 0 1 0 2802.3944,497.29514 C 2801.7717,497.24966 2801.1389,497.22994 2800.501,497.23571 Z M 2774.7155,499.37048 A 3.6145237,3.6145237 0 0 0 2773.9998,499.46297 A 3.6145237,3.6145237 0 0 0 2771.2961,503.80122 A 3.6145237,3.6145237 0 0 0 2775.6343,506.50441 A 3.6145237,3.6145237 0 0 0 2778.338,502.16617 A 3.6145237,3.6145237 0 0 0 2774.7155,499.37048 Z M 2784.7893,503.89268 C 2783.7816,504.90043 2783.1574,506.29155 2783.1574,507.82473 C 2783.1574,509.35799 2783.7815,510.74901 2784.7893,511.75679 L 2785.5686,510.97751 C 2784.7631,510.17204 2784.2663,509.05833 2784.2663,507.82473 C 2784.2663,506.59114 2784.7631,505.47743 2785.5686,504.67196 L 2784.7893,503.89268 Z M 2792.6534,503.89268 L 2791.8741,504.67196 C 2792.6795,505.47743 2793.1769,506.59114 2793.1769,507.82473 C 2793.1769,509.05833 2792.6795,510.17204 2791.8741,510.97751 L 2792.6534,511.75679 C 2793.6611,510.74901 2794.2859,509.35799 2794.2859,507.82473 C 2794.2859,506.29155 2793.661,504.90043 2792.6534,503.89268 Z M 2791.1186,505.42798 L 2790.3388,506.20675 L 2790.3388,506.20726 C 2790.7512,506.61977 2791.0054,507.19084 2791.0055,507.82473 C 2791.0055,508.45873 2790.7513,509.02967 2790.3388,509.44221 L 2791.1181,510.22149 L 2791.1186,510.22149 C 2791.7335,509.60665 2792.1149,508.7584 2792.1149,507.82473 C 2792.1149,506.89107 2791.7335,506.04282 2791.1186,505.42798 Z M 2786.3251,505.42848 C 2785.7104,506.04335 2785.3283,506.89118 2785.3283,507.82473 C 2785.3283,508.7584 2785.7103,509.60665 2786.3251,510.22149 L 2787.1039,509.44221 C 2786.6913,509.02967 2786.4372,508.45873 2786.4372,507.82473 C 2786.4372,507.19084 2786.6915,506.61977 2787.1039,506.20726 L 2787.1039,506.20675 L 2786.3251,505.42848 Z M 2788.7131,507.21651 A 0.55455028,0.55455028 0 0 0 2788.1674,507.77875 L 2788.1674,525.47429 A 0.55455028,0.55455028 0 1 0 2789.2763,525.47429 L 2789.2763,507.77875 A 0.55455028,0.55455028 0 0 0 2788.7131,507.21651 Z"
         style="color:#000000;font-style:normal;font-variant:normal;font-weight:normal;font-stretch:normal;font-size:medium;line-height:normal;font-family:sans-serif;text-indent:0;text-align:start;text-decoration:none;text-decoration-line:none;text-decoration-style:solid;text-decoration-color:#000000;letter-spacing:normal;word-spacing:normal;text-transform:none;direction:ltr;block-progression:tb;writing-mode:lr-tb;baseline-shift:baseline;text-anchor:start;white-space:normal;clip-rule:nonzero;display:inline;overflow:visible;visibility:visible;opacity:1;isolation:auto;mix-blend-mode:normal;color-interpolation:sRGB;color-interpolation-filters:linearRGB;solid-color:#000000;solid-opacity:1;fill:#000000;fill-opacity:1;fill-rule:evenodd;stroke:none;stroke-width:0.39101684;stroke-linecap:round;stroke-linejoin:miter;stroke-miterlimit:4;stroke-dasharray:none;stroke-dashoffset:0;stroke-opacity:1;color-rendering:auto;image-rendering:auto;shape-rendering:auto;text-rendering:auto;enable-background:accumulate" />
      <path
         style="color:#000000;font-style:normal;font-variant:normal;font-weight:normal;font-stretch:normal;font-size:medium;line-height:normal;font-family:sans-serif;text-indent:0;text-align:start;text-decoration:none;text-decoration-line:none;text-decoration-style:solid;text-decoration-color:#000000;letter-spacing:normal;word-spacing:normal;text-transform:none;direction:ltr;block-progression:tb;writing-mode:lr-tb;baseline-shift:baseline;text-anchor:start;white-space:normal;shape-padding:0;clip-rule:nonzero;display:inline;overflow:visible;visibility:visible;opacity:1;isolation:auto;mix-blend-mode:normal;color-interpolation:sRGB;color-interpolation-filters:linearRGB;solid-color:#000000;solid-opacity:1;fill:#000000;fill-opacity:1;fill-rule:nonzero;stroke:none;stroke-width:2.06623292;stroke-linecap:round;stroke-linejoin:round;stroke-miterlimit:4;stroke-dasharray:none;stroke-dashoffset:0;stroke-opacity:1;marker:none;paint-order:normal;color-rendering:auto;image-rendering:auto;shape-rendering:auto;text-rendering:auto;enable-background:accumulate"
         d="M 2722.3234,487.77753 C 2719.5704,487.77753 2717.3217,490.0262 2717.3217,492.77924 L 2717.3217,526.47364 C 2717.3217,529.22668 2719.5704,531.47534 2722.3234,531.47534 L 2755.52,531.47534 C 2758.273,531.47534 2760.5217,529.22668 2760.5217,526.47364 L 2760.5217,492.77924 C 2760.5217,490.0262 2758.273,487.77753 2755.52,487.77753 Z M 2722.3234,489.84356 L 2755.52,489.84356 C 2757.1641,489.84356 2758.4549,491.13516 2758.4549,492.77924 L 2758.4549,526.47364 C 2758.4549,528.11772 2757.1641,529.40931 2755.52,529.40931 L 2722.3234,529.40931 C 2720.6793,529.40931 2719.3877,528.11772 2719.3877,526.47364 L 2719.3877,492.77924 C 2719.3877,491.13516 2720.6793,489.84356 2722.3234,489.84356 Z M 2751.559,492.8239 C 2749.9376,492.8239 2748.6042,494.15726 2748.6042,495.77865 C 2748.6042,497.40001 2749.9376,498.7334 2751.559,498.73338 C 2753.1803,498.7334 2754.5137,497.40001 2754.5137,495.77865 C 2754.5137,494.15726 2753.1803,492.8239 2751.559,492.8239 Z M 2735.6022,498.68834 C 2735.3557,498.6869 2735.1099,498.6903 2734.865,498.69788 C 2733.559,498.73828 2732.2757,498.90587 2731.0177,499.1934 C 2730.3742,499.32353 2730.5953,500.29161 2731.2315,500.12944 C 2731.3044,500.11279 2731.3776,500.09793 2731.4506,500.0821 L 2731.4506,504.39588 L 2731.9671,504.39588 L 2731.9671,500.01569 C 2735.7784,499.25587 2739.6166,499.63701 2743.8671,501.43466 C 2742.6443,501.8326 2743.1029,503.66058 2744.3687,503.43425 L 2749.6487,502.48332 L 2749.2131,506.83642 L 2744.0881,506.58637 C 2743.4984,506.55769 2743.0046,507.02819 2743.0047,507.61862 L 2743.0047,514.7665 C 2742.9757,516.17253 2745.0997,516.17253 2745.0707,514.7665 L 2745.0707,508.70355 L 2750.093,508.94826 C 2750.6426,508.9751 2751.1167,508.56657 2751.1715,508.01909 L 2751.9163,500.57342 C 2751.9872,499.95384 2751.4973,499.41312 2750.8737,499.42283 C 2750.3523,499.43109 2749.9187,499.82663 2749.8628,500.34513 L 2745.5162,501.1281 C 2742.1083,499.48455 2738.7902,498.70685 2735.6022,498.68834 Z M 2731.632,505.0254 C 2731.1607,505.0254 2730.8094,505.15313 2730.5783,505.40867 C 2730.3488,505.66419 2730.234,506.11208 2730.234,506.75167 C 2730.234,507.01178 2730.2561,507.24942 2730.3004,507.46516 C 2730.3463,507.67938 2730.4098,507.84857 2730.4909,507.97251 C 2730.6026,508.14693 2730.746,508.27924 2730.9204,508.36952 C 2731.0948,508.4598 2731.3233,508.50505 2731.6064,508.50505 C 2732.1113,508.50505 2732.4672,508.36362 2732.6738,508.08054 C 2732.8803,507.79746 2732.9838,507.35035 2732.9838,506.73983 C 2732.9838,506.46748 2732.9522,506.2059 2732.8895,505.95495 C 2732.8573,505.82337 2732.8148,505.70854 2732.7612,505.61062 C 2732.7092,505.51115 2732.6369,505.41725 2732.5451,505.3285 C 2732.4533,505.23821 2732.3351,505.1656 2732.1897,505.11052 C 2732.0444,505.0539 2731.8584,505.0254 2731.632,505.0254 Z M 2731.5995,505.64764 C 2731.751,505.64764 2731.8643,505.72482 2731.9393,505.87937 C 2732.0158,506.03237 2732.0542,506.33236 2732.0542,506.77915 C 2732.0542,507.08365 2732.0375,507.30759 2732.0038,507.45142 C 2731.9717,507.59524 2731.9203,507.70094 2731.85,507.76828 C 2731.7811,507.83407 2731.699,507.86677 2731.6041,507.86677 C 2731.4603,507.86677 2731.3504,507.78882 2731.2739,507.63275 C 2731.1989,507.47515 2731.1613,507.1824 2731.1613,506.75396 C 2731.1613,506.33011 2731.1959,506.04001 2731.2647,505.88394 C 2731.3336,505.72635 2731.445,505.64764 2731.5995,505.64764 Z M 2746.2717,509.11698 C 2744.8881,509.11098 2744.8881,511.1894 2746.2717,511.1834 L 2755.0577,511.1834 C 2756.4413,511.1894 2756.4413,509.11098 2755.0577,509.11698 Z M 2731.7992,509.13455 C 2731.6997,509.3457 2731.5621,509.52326 2731.3861,509.66709 C 2731.2102,509.81093 2730.963,509.93411 2730.6448,510.03662 L 2730.6448,510.80318 C 2730.8605,510.73739 2731.0396,510.66857 2731.1819,510.59666 C 2731.3257,510.52473 2731.474,510.43084 2731.627,510.31454 L 2731.627,512.55695 L 2732.573,512.55695 L 2732.573,509.13455 Z M 2731.632,513.18646 C 2731.1607,513.18646 2730.8094,513.31419 2730.5783,513.56973 C 2730.3488,513.82527 2730.234,514.27274 2730.234,514.91233 C 2730.234,515.03084 2730.2401,515.14358 2730.2493,515.25286 C 2730.5768,515.29627 2730.8924,515.37525 2731.1945,515.48267 C 2731.1731,515.33106 2731.1613,515.1436 2731.1613,514.91464 C 2731.1613,514.49079 2731.1959,514.20107 2731.2647,514.045 C 2731.3336,513.8874 2731.445,513.80832 2731.5995,513.80832 C 2731.751,513.80832 2731.8643,513.88588 2731.9393,514.04042 C 2732.0158,514.19343 2732.0542,514.49302 2732.0542,514.93983 C 2732.0542,515.24432 2732.0375,515.46864 2732.0038,515.61248 C 2731.9858,515.69316 2731.961,515.76048 2731.9309,515.81708 C 2732.1773,515.95609 2732.4105,516.11605 2732.628,516.29505 C 2732.6433,516.27718 2732.6598,516.26037 2732.6738,516.24122 C 2732.8803,515.95814 2732.9838,515.51141 2732.9838,514.90088 C 2732.9838,514.62853 2732.9522,514.36695 2732.8895,514.11601 C 2732.8573,513.98443 2732.8148,513.86959 2732.7612,513.77167 C 2732.7092,513.6722 2732.6369,513.57831 2732.5451,513.48955 C 2732.4533,513.39929 2732.3351,513.32629 2732.1897,513.27119 C 2732.0444,513.21462 2731.8584,513.18646 2731.632,513.18646 Z M 2729.6305,515.44603 C 2727.1016,515.44603 2725.0464,517.50086 2725.0464,520.02971 C 2725.0464,520.05013 2725.0482,520.07456 2725.0487,520.10453 L 2725.0498,520.17667 L 2724.9861,520.20988 C 2723.9173,520.76867 2723.1758,521.86514 2723.1758,523.14708 C 2723.1758,524.98681 2724.6694,526.48433 2726.5127,526.48433 L 2737.1124,526.48433 C 2738.9527,526.48433 2740.4489,524.98389 2740.4489,523.14708 C 2740.4489,521.80652 2739.6486,520.66314 2738.5027,520.13316 L 2738.4523,520.11063 L 2738.4382,520.05643 C 2738.0301,518.48494 2736.6247,517.31623 2734.9299,517.31623 C 2734.4576,517.31623 2734.0122,517.42514 2733.5919,517.59223 L 2733.5029,517.62736 L 2733.4506,517.54718 C 2732.6317,516.2911 2731.2374,515.44603 2729.6305,515.44603 Z M 2729.6305,516.50845 C 2731.1673,516.50843 2732.4711,517.49189 2732.9528,518.86117 C 2733.0045,519.00773 2733.1779,519.05618 2733.2987,518.95851 C 2733.7438,518.59625 2734.3105,518.37902 2734.9299,518.37902 C 2736.2873,518.37902 2737.3967,519.42133 2737.5067,520.74854 C 2737.5146,520.84235 2737.58,520.9197 2737.6713,520.94284 C 2738.6541,521.19281 2739.3861,522.08327 2739.3861,523.14708 C 2739.3861,524.40214 2738.3691,525.42117 2737.1101,525.42117 L 2726.515,525.42117 C 2725.2597,525.42117 2724.239,524.40484 2724.239,523.14708 C 2724.239,522.06777 2724.9928,521.1637 2726.0019,520.93101 C 2726.1178,520.90428 2726.1905,520.79365 2726.1688,520.67676 C 2726.1298,520.46722 2726.1092,520.25096 2726.1092,520.02971 C 2726.1092,518.08275 2727.6835,516.50845 2729.6305,516.50845 Z"
         id="rect6574-3"
         inkscape:connector-curvature="0"
         sodipodi:nodetypes="sssssssssssssssssssscssccccccccccccccccccccccccscsccsscsccccsscsccscscscccccccccccccccscsccscscsccccsccccssscccsssscccscccscccsccssssccsc" />
    </g>
    <g
       transform="matrix(0.40829384,0,0,0.40829384,2687.6842,333.89038)"
       style="font-style:normal;font-weight:normal;font-size:40px;line-height:125%;font-family:sans-serif;letter-spacing:0px;word-spacing:0px;display:inline;fill:#000000;fill-opacity:1;stroke:none;stroke-width:0.64802188px;stroke-linecap:butt;stroke-linejoin:miter;stroke-opacity:1"
       id="flowRoot4903">
      <path
         d="M 189.94117,618.51547 L 186.30117,615.03547 L 186.30117,624.11547 L 182.70117,624.11547 L 182.70117,607.39547 L 189.94117,613.71547 L 197.22117,607.35547 L 197.22117,611.75547 L 189.94117,618.51547 Z M 193.62117,616.35547 L 197.22117,613.03547 L 197.22117,624.11547 L 193.62117,624.11547 L 193.62117,616.35547 Z"
         style="font-style:normal;font-variant:normal;font-weight:normal;font-stretch:condensed;font-family:'Viking Squad Condensed';-inkscape-font-specification:'Viking Squad Condensed, Condensed';fill:#000000;stroke-width:0.64802188px"
         id="path4948"
         inkscape:connector-curvature="0" />
      <path
         d="M 202.82367,610.99547 L 208.54367,610.99547 L 208.54367,614.07547 L 203.66367,614.07547 L 203.66367,618.63547 L 207.94367,624.11547 L 212.38367,624.11547 L 207.26367,617.55547 L 210.66367,617.55547 Q 212.18367,617.55547 212.18367,616.07547 L 212.18367,608.99547 Q 212.18367,607.43547 210.66367,607.43547 L 200.74367,607.43547 Q 199.26367,607.43547 199.26367,608.95547 L 199.26367,624.11547 L 202.82367,624.11547 L 202.82367,610.99547 Z"
         style="font-style:normal;font-variant:normal;font-weight:normal;font-stretch:condensed;font-family:'Viking Squad Condensed';-inkscape-font-specification:'Viking Squad Condensed, Condensed';fill:#000000;stroke-width:0.64802188px"
         id="path4950"
         inkscape:connector-curvature="0" />
      <path
         d="M 221.42555,618.51547 L 217.78555,615.03547 L 217.78555,624.11547 L 214.18555,624.11547 L 214.18555,607.39547 L 221.42555,613.71547 L 228.70555,607.35547 L 228.70555,611.75547 L 221.42555,618.51547 Z M 225.10555,616.35547 L 228.70555,613.03547 L 228.70555,624.11547 L 225.10555,624.11547 L 225.10555,616.35547 Z"
         style="font-style:normal;font-variant:normal;font-weight:normal;font-stretch:condensed;font-family:'Viking Squad Condensed';-inkscape-font-specification:'Viking Squad Condensed, Condensed';fill:#000000;stroke-width:0.64802188px"
         id="path4952"
         inkscape:connector-curvature="0" />
      <path
         d="M 235.18805,607.43547 L 242.22805,607.43547 L 242.22805,610.95547 L 235.18805,610.95547 L 235.18805,607.43547 Z M 234.34805,607.43547 L 234.34805,620.67547 L 242.22805,620.67547 L 242.22805,624.11547 L 232.22805,624.11547 Q 230.74805,624.11547 230.74805,622.59547 L 230.74805,608.91547 Q 230.74805,607.43547 232.22805,607.43547 L 234.34805,607.43547 Z"
         style="font-style:normal;font-variant:normal;font-weight:normal;font-stretch:condensed;font-family:'Viking Squad Condensed';-inkscape-font-specification:'Viking Squad Condensed, Condensed';fill:#000000;stroke-width:0.64802188px"
         id="path4954"
         inkscape:connector-curvature="0" />
      <path
         d="M 244.26367,607.43547 L 244.26367,624.11547 L 254.86367,624.11547 Q 255.22367,624.11547 255.62367,623.87547 Q 256.06367,623.63547 256.38367,623.27547 Q 256.74367,622.91547 256.94367,622.51547 Q 257.18367,622.07547 257.18367,621.71547 L 257.18367,608.91547 Q 257.18367,607.43547 255.82367,607.43547 L 248.70367,607.43547 L 248.70367,610.87547 L 253.54367,610.87547 L 253.54367,620.59547 L 247.86367,620.59547 L 247.86367,607.43547 L 244.26367,607.43547 Z"
         style="font-style:normal;font-variant:normal;font-weight:normal;font-stretch:condensed;font-family:'Viking Squad Condensed';-inkscape-font-specification:'Viking Squad Condensed, Condensed';fill:#000000;stroke-width:0.64802188px"
         id="path4956"
         inkscape:connector-curvature="0" />
      <path
         d="M 259.18555,624.11547 L 262.78555,624.11547 L 262.78555,620.67547 L 259.18555,620.67547 L 259.18555,624.11547 Z"
         style="font-style:normal;font-variant:normal;font-weight:normal;font-stretch:condensed;font-family:'Viking Squad Condensed';-inkscape-font-specification:'Viking Squad Condensed, Condensed';fill:#000000;stroke-width:0.64802188px"
         id="path4958"
         inkscape:connector-curvature="0" />
      <path
         d="M 264.81055,607.35547 L 277.69055,619.35547 L 277.69055,624.23547 L 268.41055,615.67547 L 268.41055,624.11547 L 264.81055,624.11547 L 264.81055,607.35547 Z M 274.13055,607.43547 L 277.69055,607.43547 L 277.69055,618.07547 L 274.13055,614.83547 L 274.13055,607.43547 Z"
         style="font-style:normal;font-variant:normal;font-weight:normal;font-stretch:condensed;font-family:'Viking Squad Condensed';-inkscape-font-specification:'Viking Squad Condensed, Condensed';fill:#000000;stroke-width:0.64802188px"
         id="path4960"
         inkscape:connector-curvature="0" />
      <path
         d="M 281.21242,624.11547 L 291.21242,624.11547 L 291.21242,620.59547 L 283.33242,620.59547 L 283.33242,610.87547 L 291.21242,610.87547 L 291.21242,607.43547 L 281.21242,607.43547 Q 279.73242,607.43547 279.73242,608.95547 L 279.73242,622.63547 Q 279.73242,624.11547 281.21242,624.11547 Z M 284.21242,614.07547 L 284.21242,617.55547 L 289.81242,617.55547 L 289.81242,614.07547 L 284.21242,614.07547 Z"
         style="font-style:normal;font-variant:normal;font-weight:normal;font-stretch:condensed;font-family:'Viking Squad Condensed';-inkscape-font-specification:'Viking Squad Condensed, Condensed';fill:#000000;stroke-width:0.64802188px"
         id="path4962"
         inkscape:connector-curvature="0" />
      <path
         d="M 300.68805,624.11547 L 297.12805,624.11547 L 297.12805,610.99547 L 293.24805,610.99547 L 293.24805,607.43547 L 300.68805,607.43547 L 300.68805,624.11547 Z M 304.76805,610.99547 L 301.52805,610.99547 L 301.52805,607.43547 L 304.76805,607.43547 L 304.76805,610.99547 Z"
         style="font-style:normal;font-variant:normal;font-weight:normal;font-stretch:condensed;font-family:'Viking Squad Condensed';-inkscape-font-specification:'Viking Squad Condensed, Condensed';fill:#000000;stroke-width:0.64802188px"
         id="path4964"
         inkscape:connector-curvature="0" />
    </g>
  </g>
</svg>
