<?xml version="1.0" encoding="utf-8"?>
<!-- Generator: Adobe Illustrator 14.0.0, SVG Export Plug-In . SVG Version: 6.00 Build 43363)  -->
<!DOCTYPE svg PUBLIC "-//W3C//DTD SVG 1.1//EN" "http://www.w3.org/Graphics/SVG/1.1/DTD/svg11.dtd">
<svg version="1.1" id="Ebene_1" xmlns="http://www.w3.org/2000/svg" xmlns:xlink="http://www.w3.org/1999/xlink" x="0px" y="0px"
	 width="113.39px" height="101.111px" viewBox="0 0 113.39 101.111" enable-background="new 0 0 113.39 101.111"
	 xml:space="preserve">
<g id="Ebene_1_1_">
	<g>
		<path fill="#FFFFFF" d="M1.316,92.194c0-0.293-0.166-0.453-0.453-0.453h-0.876v-1.226h1.456c0.869,0,1.264,0.371,1.264,1.161
			v0.476c0,0.416-0.041,0.749-0.041,0.749h0.041c0.52-1.409,2.16-2.636,3.782-2.636c1.926,0,2.924,0.893,3.235,2.612h0.042
			c0.561-1.409,2.075-2.612,3.84-2.612c2.532,0,3.467,1.476,3.467,4.043v4.965c0,0.312,0.167,0.454,0.457,0.454h0.874v1.228h-1.476
			c-0.894,0-1.269-0.374-1.269-1.266v-5.022c0-1.702-0.351-3.116-2.26-3.116c-1.576,0-2.888,1.414-3.302,2.951
			c-0.145,0.454-0.189,0.953-0.189,1.512v4.941H8.501v-6.288c0-1.58-0.23-3.116-2.201-3.116c-1.706,0-2.971,1.477-3.401,3.076
			c-0.127,0.432-0.168,0.91-0.168,1.387v4.941H1.316V92.194z"/>
		<path fill="#FFFFFF" d="M20.655,92.194c0-0.293-0.167-0.453-0.458-0.453h-0.872v-1.226h1.452c0.874,0,1.268,0.351,1.268,1.178
			v0.708c0,0.438-0.042,0.788-0.042,0.788h0.042c0.5-1.574,1.66-2.778,3.301-2.778c0.292,0,0.56,0.062,0.56,0.062v1.388
			c0,0-0.249-0.041-0.519-0.041c-1.474,0-2.572,1.161-3.028,2.702c-0.21,0.66-0.293,1.363-0.293,2.032v4.399h-1.41v-8.76H20.655z"/>
		<path fill="#FFFFFF" d="M28.317,92.194c0-0.293-0.165-0.453-0.455-0.453H26.99v-1.226h1.454c0.872,0,1.268,0.371,1.268,1.161
			v0.476c0,0.416-0.043,0.749-0.043,0.749h0.043c0.52-1.409,2.157-2.636,3.776-2.636c1.932,0,2.927,0.893,3.236,2.612h0.045
			c0.559-1.409,2.075-2.612,3.841-2.612c2.53,0,3.466,1.476,3.466,4.043v4.965c0,0.312,0.162,0.454,0.457,0.454h0.869v1.228h-1.475
			c-0.894,0-1.263-0.374-1.263-1.266v-5.022c0-1.702-0.355-3.116-2.265-3.116c-1.575,0-2.886,1.414-3.301,2.951
			c-0.143,0.454-0.185,0.953-0.185,1.512v4.941h-1.414v-6.288c0-1.58-0.229-3.116-2.198-3.116c-1.701,0-2.97,1.477-3.404,3.076
			c-0.126,0.432-0.167,0.91-0.167,1.387v4.941h-1.414L28.317,92.194L28.317,92.194z"/>
		<path fill="#FFFFFF" d="M52.181,90.266c1.182,0,3.714,0.495,3.714,2.215v0.938h-1.329v-0.6c0-0.873-1.512-1.287-2.385-1.287
			c-2.24,0-4.046,1.682-4.046,4.211c0,2.577,1.888,4.177,4.089,4.177c2.14,0,3.361-1.479,3.361-1.479l0.664,1.062
			c0,0-1.411,1.699-4.09,1.699c-3.11,0-5.48-2.221-5.48-5.459C46.679,92.551,49.069,90.266,52.181,90.266z"/>
		<path fill="#FFFFFF" d="M62.38,90.266c2.531,0,3.404,1.953,3.404,1.953h0.043c0,0-0.043-0.357-0.043-0.79v-3.383
			c0-0.292-0.166-0.459-0.455-0.459h-0.873v-1.227h1.473c0.895,0,1.27,0.373,1.27,1.268v11.646c0,0.312,0.164,0.454,0.454,0.454
			h0.872v1.228h-1.453c-0.871,0-1.244-0.394-1.244-1.161c0-0.396,0.043-0.669,0.043-0.669h-0.043c0,0-0.85,2.077-3.59,2.077
			c-2.806,0-4.552-2.238-4.552-5.478C57.686,92.423,59.638,90.266,62.38,90.266z M65.828,95.725c0-2.119-1.082-4.192-3.322-4.192
			c-1.851,0-3.363,1.555-3.363,4.192c0,2.572,1.348,4.212,3.298,4.212C64.187,99.937,65.828,98.689,65.828,95.725z"/>
		<path fill="#FFFFFF" d="M77.623,90.22c0-1.553-1.141-2.736-2.988-2.736c-1.451,0-2.596,0.745-2.596,1.575v0.687h-1.367v-1.077
			c0-1.851,2.512-2.555,4.007-2.555c2.78,0,4.438,1.828,4.438,4.09c0,5.127-7.723,5.005-7.723,9.054c0,0.288,0.168,0.415,0.48,0.415
			h6.099c0.292,0,0.459-0.149,0.459-0.46v-0.979h1.353v1.456c0,0.892-0.377,1.266-1.269,1.266H71.21
			c-0.998,0-1.309-0.415-1.309-1.434C69.903,94.104,77.623,94.541,77.623,90.22z"/>
		<path fill="#FFFFFF" d="M81.869,93.648c0-4.191,1.223-7.535,5.021-7.535c3.797,0,5.046,3.344,5.046,7.535
			c0,4.234-1.249,7.554-5.046,7.554C83.091,101.201,81.869,97.883,81.869,93.648z M90.44,93.648c0-3.468-0.79-6.187-3.552-6.187
			c-2.76,0-3.551,2.719-3.551,6.187c0,3.485,0.791,6.207,3.551,6.207C89.65,99.855,90.44,97.134,90.44,93.648z"/>
		<path fill="#FFFFFF" d="M94.158,99.671h3.258V88.957c0-0.415,0.023-0.809,0.023-0.809h-0.044c0,0-0.146,0.312-0.726,0.87
			l-1.555,1.554l-0.914-0.933l3.301-3.278h1.367v13.311h3.199v1.283h-7.91V99.671z"/>
		<path fill="#FFFFFF" d="M103.38,94.541c0-3.718,1.91-8.429,6.418-8.429c1.602,0,2.677,0.601,2.677,0.601l-0.541,1.266
			c0,0-0.913-0.517-2.115-0.517c-3.053,0-4.61,3.054-4.88,5.997h0.041c0.686-1.14,2.199-1.767,3.716-1.767
			c2.656,0,4.546,1.912,4.546,4.632c0,3.035-2.037,4.877-4.584,4.877C105.477,101.201,103.38,98.361,103.38,94.541z M108.637,99.855
			c1.968,0,3.131-1.494,3.131-3.509c0-2.038-1.306-3.365-3.297-3.365c-1.953,0-3.532,1.312-3.532,2.494
			C104.938,97.404,106.451,99.855,108.637,99.855z"/>
	</g>
</g>
<g id="Ebene_2">
	<path fill="#38A8DB" d="M80.113,38.98v-0.044c-0.027-0.365-0.209-0.692-0.476-0.911c-0.007-0.004-0.007-0.015-0.017-0.02
		l-0.187-0.117c-0.011-0.004-0.015-0.006-0.021-0.012l-13.592-8.838c-0.056-0.042-0.117-0.083-0.184-0.117
		c-0.176-0.097-0.381-0.151-0.598-0.151c-0.213,0-0.422,0.056-0.604,0.151c-0.066,0.034-0.129,0.076-0.188,0.117l-13.583,8.838
		c0,0.006-0.004,0.008-0.016,0.012l-0.19,0.117c-0.005,0.004-0.012,0.015-0.014,0.02c-0.275,0.219-0.449,0.546-0.48,0.911H49.96
		c0,0.018,0.009,0.032,0.009,0.044c0,0.016-0.009,0.029-0.009,0.044h0.009c0.031,0.368,0.205,0.693,0.48,0.913
		c0.002,0.006,0.009,0.008,0.014,0.018l0.19,0.121c0.012,0,0.016,0,0.016,0.005l13.583,8.842c0.06,0.044,0.121,0.084,0.188,0.115
		c0.183,0.098,0.392,0.155,0.604,0.155c0.217,0,0.42-0.059,0.597-0.155c0.065-0.031,0.128-0.071,0.185-0.115l13.59-8.842
		c0.006-0.005,0.012-0.005,0.021-0.005l0.188-0.121c0.008-0.01,0.008-0.012,0.016-0.018c0.268-0.22,0.447-0.545,0.477-0.913V38.98
		H80.113z"/>
	<g>
		<path fill="#F8B335" d="M41.313,80.598h13.913H69.14c4.583,0,8.292-6.188,8.292-13.824c0-7.631-3.709-13.815-8.292-13.815H55.227
			H41.313c-4.584,0-8.291,6.186-8.291,13.815C33.022,74.409,36.729,80.598,41.313,80.598"/>
		<rect x="54.612" y="54.659" fill="#F8DBE8" width="1.23" height="24.234"/>
	</g>
	<g>
		<path fill="#EC87B1" d="M-0.01,15.053v25.239v25.235c0,8.308,6.732,15.042,15.04,15.042c8.305,0,15.038-6.734,15.038-15.042
			V40.292V15.053c0-8.305-6.733-15.042-15.038-15.042C6.723,0.011-0.01,6.748-0.01,15.053"/>
		<rect x="1.845" y="39.625" fill="#F8DBE8" width="26.373" height="1.334"/>
	</g>
	<g>
		<path fill="#61B2A9" d="M41.057,0.062c-4.402,0-7.977,9.729-7.977,21.726h15.952C49.032,9.792,45.464,0.062,41.057,0.062"/>
		<path fill="#BBDAD4" d="M41.057,43.493c4.407,0,7.976-9.722,7.976-21.714H33.08C33.08,33.771,36.654,43.493,41.057,43.493"/>
	</g>
	<g>
		<path fill="#E1027A" d="M113.429,64.218c0,9.039-7.327,16.366-16.37,16.366c-9.038,0-16.365-7.327-16.365-16.366
			c0-9.041,7.327-16.372,16.365-16.372C106.102,47.846,113.429,55.177,113.429,64.218"/>
		<rect x="83.695" y="63.673" fill="#EC87B1" width="26.73" height="1.088"/>
	</g>
	<g>
		<path fill="#E1027A" d="M62.731,23.27c-6.423,0-11.633-5.208-11.633-11.633C51.099,5.209,56.309,0,62.731,0h19.526v23.27H62.731z"
			/>
		<path fill="#EC87B1" d="M101.781,0c6.428,0,11.631,5.208,11.631,11.637c0,6.424-5.203,11.633-11.631,11.633H82.257V0H101.781z"/>
	</g>
	<g>
		<path fill="#FDEA1A" d="M98.365,26.903c8.305,0,15.026,4.06,15.026,9.069s-6.722,9.068-15.026,9.068
			c-8.291,0-15.019-4.06-15.019-9.068S90.074,26.903,98.365,26.903"/>
		<rect x="97.938" y="28.561" fill="#B3A712" width="0.856" height="14.824"/>
	</g>
</g>
</svg>
