<?xml version="1.0" encoding="utf-8"?>
<!-- Generator: Adobe Illustrator 16.0.0, SVG Export Plug-In . SVG Version: 6.00 Build 0)  -->
<!DOCTYPE svg PUBLIC "-//W3C//DTD SVG 1.1//EN" "http://www.w3.org/Graphics/SVG/1.1/DTD/svg11.dtd">
<svg version="1.1" id="Ebene_1" xmlns="http://www.w3.org/2000/svg" xmlns:xlink="http://www.w3.org/1999/xlink" x="0px" y="0px"
	 width="340.157px" height="56.693px" viewBox="0 0 340.157 56.693" enable-background="new 0 0 340.157 56.693"
	 xml:space="preserve">
<rect width="340.157" height="56.693"/>
<g>
	<g id="g5568" transform="matrix(0.45564068,0,0,0.45564068,440.09946,-413.70432)">
		<path id="path6228" inkscape:connector-curvature="0" fill="#FFFFFF" d="M-545.788,949.421l-9.417-9.004v23.49h-9.314v-43.253
			l18.73,16.349l18.831-16.454v11.383L-545.788,949.421L-545.788,949.421z M-536.268,943.833l9.31-8.59v28.664h-9.31V943.833z"/>
		<path id="path6230" inkscape:connector-curvature="0" fill="#FFFFFF" d="M-512.46,929.966h14.797v7.969h-12.624v11.797
			l11.072,14.178h11.486l-13.248-16.973h8.798c2.621,0,3.933-1.275,3.933-3.828v-18.316c0-2.692-1.312-4.036-3.933-4.036h-25.666
			c-2.551,0-3.828,1.31-3.828,3.933v39.22h9.212V929.966L-512.46,929.966z"/>
		<path id="path6232" inkscape:connector-curvature="0" fill="#FFFFFF" d="M-464.337,949.421l-9.415-9.004v23.49h-9.315v-43.253
			l18.73,16.349l18.835-16.454v11.383L-464.337,949.421z M-454.817,943.833l9.315-8.59v28.664h-9.315V943.833z"/>
		<path id="path6234" inkscape:connector-curvature="0" fill="#FFFFFF" d="M-428.733,920.756h18.214v9.105h-18.214V920.756z
			 M-430.904,920.756v34.252h20.385v8.901h-25.869c-2.555,0-3.83-1.312-3.83-3.933v-35.392c0-2.553,1.275-3.828,3.83-3.828H-430.904
			z"/>
		<path id="path6236" inkscape:connector-curvature="0" fill="#FFFFFF" d="M-405.254,920.756v43.153h27.423
			c0.622,0,1.277-0.208,1.967-0.622c0.759-0.414,1.415-0.932,1.965-1.554c0.619-0.619,1.104-1.275,1.449-1.965
			c0.414-0.759,0.619-1.449,0.619-2.07v-33.114c0-2.553-1.172-3.828-3.517-3.828h-18.421v8.899h12.523V954.8h-14.694v-34.044
			H-405.254L-405.254,920.756z"/>
		<path id="path6238" inkscape:connector-curvature="0" fill="#FFFFFF" d="M-333.433,955.008v8.901h-33.321v-21.938
			c0-1.172,0.311-2.139,0.932-2.9c0.619-0.757,1.517-1.136,2.69-1.136h5.693v17.073H-333.433z M-337.158,920.756
			c2.484,0,3.725,1.275,3.725,3.828v18.73c0,2.415-1.241,3.622-3.725,3.622h-18.006v-9.002h12.416v-8.074h-24.007v-9.105H-337.158
			L-337.158,920.756z"/>
		<path id="path6240" inkscape:connector-curvature="0" fill="#FFFFFF" d="M-304.239,929.861v25.147h-14.696v-25.147H-304.239z
			 M-324.42,920.756c-2.553,0-3.828,1.275-3.828,3.828v35.598c0,2.484,1.275,3.725,3.828,3.725h26.077
			c2.347,0,3.519-1.241,3.519-3.725v-35.39c0-2.692-1.31-4.036-3.933-4.036H-324.42L-324.42,920.756z"/>
		<path id="path6242" inkscape:connector-curvature="0" fill="#FFFFFF" d="M-280.848,963.909h9.31v-43.153h-9.31V963.909z
			 M-289.644,929.966h6.726v-9.21h-6.726V929.966z"/>
		<path id="path6244" inkscape:connector-curvature="0" fill="#FFFFFF" d="M-266.2,963.909h29.286c1.174,0,2.139-0.484,2.9-1.451
			c0.757-0.964,1.136-2.034,1.136-3.206V942.59c0-1.172-0.414-2.242-1.241-3.206c-0.829-0.967-1.828-1.449-3.001-1.449h-5.071
			v17.073H-266.2v8.899V963.909z M-232.982,920.756H-266.2v26.18h21.941v-9.002h-12.626v-8.074h23.904V920.756L-232.982,920.756z"/>
	</g>
	<g id="g5973" transform="translate(8.4666665,1.78333)">
		<path id="path6142" inkscape:connector-curvature="0" fill="#FFFFFF" d="M180.53,29.542v1.671h-4.406v1.481h2.279v1.652h-3.285
			c-0.469,0-0.703-0.222-0.703-0.665v-3.438c0-0.468,0.234-0.702,0.703-0.702H180.53L180.53,29.542z M178.82,35.828v-3.134h1.045
			c0.215,0,0.379,0.069,0.494,0.209c0.114,0.139,0.171,0.316,0.171,0.531v3.343c0,0.456-0.208,0.684-0.627,0.684h-5.487v-1.633
			H178.82L178.82,35.828z"/>
		<path id="path6144" inkscape:connector-curvature="0" fill="#FFFFFF" d="M183.607,29.542h3.343v1.671h-3.343V29.542z
			 M183.208,29.542v6.286h3.741v1.633h-4.748c-0.468,0-0.702-0.24-0.702-0.722v-6.495c0-0.468,0.234-0.702,0.702-0.702H183.208
			L183.208,29.542z"/>
		<path id="path6146" inkscape:connector-curvature="0" fill="#FFFFFF" d="M191.904,34.347h-2.299v3.114h-1.709v-7.919h1.709v3.151
			h2.299V34.347L191.904,34.347z M194.012,29.542v7.919h-1.709v-7.919H194.012z"/>
		<path id="path6148" inkscape:connector-curvature="0" fill="#FFFFFF" d="M194.963,29.504l6.115,5.697v2.316l-4.406-4.063v4.007
			h-1.709V29.504L194.963,29.504z M199.388,29.542h1.69v5.051l-1.69-1.538V29.542z"/>
		<path id="path6150" inkscape:connector-curvature="0" fill="#FFFFFF" d="M202.75,37.461h4.747V35.79h-3.741v-4.615h3.741v-1.633
			h-4.747c-0.469,0-0.703,0.24-0.703,0.722v6.494C202.047,37.226,202.281,37.461,202.75,37.461z M204.174,32.694v1.652h2.659v-1.652
			H204.174z"/>
		<path id="path6152" inkscape:connector-curvature="0" fill="#FFFFFF" d="M210.173,37.461v-7.919h-1.709v7.216
			c0,0.481,0.234,0.722,0.702,0.722L210.173,37.461L210.173,37.461z M210.572,37.461h3v-1.633h-3V37.461z"/>
		<path id="path6154" inkscape:connector-curvature="0" fill="#FFFFFF" d="M216.256,37.461v-7.919h-1.709v7.216
			c-0.001,0.481,0.234,0.722,0.702,0.722L216.256,37.461z M216.655,37.461h2.999v-1.633h-2.999V37.461z"/>
		<path id="path6156" inkscape:connector-curvature="0" fill="#FFFFFF" d="M221.332,37.461h4.747V35.79h-3.741v-4.615h3.741v-1.633
			h-4.747c-0.468,0-0.702,0.24-0.702,0.722v6.494C220.63,37.226,220.864,37.461,221.332,37.461z M222.757,32.694v1.652h2.658v-1.652
			H222.757z"/>
		<path id="path6158" inkscape:connector-curvature="0" fill="#FFFFFF" d="M228.736,31.231h2.716v1.463h-2.317v2.165l2.032,2.602
			h2.107l-2.431-3.114h1.614c0.481,0,0.723-0.234,0.723-0.703v-3.361c0-0.494-0.241-0.74-0.723-0.74h-4.71
			c-0.468,0-0.702,0.24-0.702,0.722v7.197h1.69V31.231z"/>
		<path id="path6160" inkscape:connector-curvature="0" fill="#FFFFFF" d="M234.13,37.461h1.709v-1.633h-1.709V37.461z"/>
		<path id="path6162" inkscape:connector-curvature="0" fill="#FFFFFF" d="M245.574,34.347h-2.298v3.114h-1.71v-7.919h1.71v3.151
			h2.298V34.347L245.574,34.347z M247.682,29.542v7.919h-1.709v-7.919H247.682z"/>
		<path id="path6164" inkscape:connector-curvature="0" fill="#FFFFFF" d="M254.065,37.461h-1.007v-6.286h-2.697v4.615h2.28v1.671
			h-3.306c-0.468,0-0.702-0.234-0.702-0.703v-6.57c0-0.431,0.209-0.646,0.627-0.646h4.785c0.48,0,0.723,0.215,0.723,0.646v6.608
			C254.768,37.239,254.532,37.461,254.065,37.461L254.065,37.461z M253.703,28.724h-1.709v-1.633h1.709V28.724z M251.405,28.724
			h-1.709v-1.633h1.709V28.724z"/>
		<path id="path6166" inkscape:connector-curvature="0" fill="#FFFFFF" d="M259.706,34.347h-2.298v3.114h-1.71v-7.919h1.71v3.151
			h2.298V34.347L259.706,34.347z M261.814,29.542v7.919h-1.709v-7.919H261.814z"/>
		<path id="path6168" inkscape:connector-curvature="0" fill="#FFFFFF" d="M263.467,37.461h4.747V35.79h-3.741v-4.615h3.741v-1.633
			h-4.747c-0.468,0-0.703,0.24-0.703,0.722v6.494C262.764,37.226,262.999,37.461,263.467,37.461z M264.892,32.694v1.652h2.658
			v-1.652H264.892z"/>
		<path id="path6170" inkscape:connector-curvature="0" fill="#FFFFFF" d="M270.871,31.231h2.716v1.463h-2.317v2.165l2.032,2.602
			h2.108l-2.432-3.114h1.614c0.482,0,0.723-0.234,0.723-0.703v-3.361c0-0.494-0.24-0.74-0.723-0.74h-4.709
			c-0.469,0-0.702,0.24-0.702,0.722v7.197h1.689V31.231z"/>
		<path id="path6172" inkscape:connector-curvature="0" fill="#FFFFFF" d="M276.265,37.461h1.71v-1.633h-1.71V37.461z"/>
		<path id="path6174" inkscape:connector-curvature="0" fill="#FFFFFF" d="M288.905,33.225v-3.684h1.709v5.26L288.905,33.225
			L288.905,33.225z M283.721,29.542h1.709v4.311l1.728-1.633l3.457,3.19v2.089l-3.438-3.001l-3.456,3.001V29.542L283.721,29.542z"/>
		<path id="path6176" inkscape:connector-curvature="0" fill="#FFFFFF" d="M292.286,37.461h4.748V35.79h-3.741v-4.615h3.741v-1.633
			h-4.748c-0.468,0-0.702,0.24-0.702,0.722v6.494C291.584,37.226,291.818,37.461,292.286,37.461z M293.711,32.694v1.652h2.658
			v-1.652H293.711z"/>
		<path id="path6178" inkscape:connector-curvature="0" fill="#FFFFFF" d="M302.957,29.542v1.689h-1.576v4.539h1.576v1.69h-3.267
			v-6.229h-1.689v-1.689H302.957L302.957,29.542z M299.292,35.77v1.69h-1.291v-1.69H299.292z"/>
		<path id="path6180" inkscape:connector-curvature="0" fill="#FFFFFF" d="M307.43,37.461h-1.689v-6.229h-1.842v-1.689h3.531V37.461
			z M309.367,31.231h-1.538v-1.689h1.538V31.231z"/>
		<path id="path6182" inkscape:connector-curvature="0" fill="#FFFFFF" d="M311.018,37.461h4.747V35.79h-3.741v-4.615h3.741v-1.633
			h-4.747c-0.469,0-0.703,0.24-0.703,0.722v6.494C310.315,37.226,310.549,37.461,311.018,37.461z M312.442,32.694v1.652h2.659
			v-1.652H312.442z"/>
		<path id="path6184" inkscape:connector-curvature="0" fill="#FFFFFF" d="M318.421,31.231h2.716v1.463h-2.316v2.165l2.032,2.602
			h2.107l-2.431-3.114h1.614c0.48,0,0.722-0.234,0.722-0.703v-3.361c0-0.494-0.241-0.74-0.722-0.74h-4.71
			c-0.468,0-0.703,0.24-0.703,0.722v7.197h1.691L318.421,31.231L318.421,31.231z"/>
		<path id="path6186" inkscape:connector-curvature="0" fill="#FFFFFF" d="M323.816,37.461h1.709v-1.633h-1.709V37.461z"/>
	</g>
	<g id="g5530" transform="matrix(0.5021999,0,0,0.5021999,305.42875,-345.03296)">
		<path id="path6744-9" inkscape:connector-curvature="0" fill="#FFFFFF" d="M-453.105,736.375c-0.687,0.002-1.245,0.56-1.244,1.246
			c0,0.336,0.137,0.659,0.379,0.893c10.331,10.306,12.415,27.879,1.454,39.724c-0.473,0.5-0.451,1.287,0.048,1.76
			c0.499,0.474,1.286,0.453,1.76-0.047c0.007-0.008,0.014-0.014,0.019-0.021c11.903-12.861,9.694-31.986-1.523-43.177
			C-452.447,736.511-452.769,736.375-453.105,736.375L-453.105,736.375z"/>
		<path id="path6538-7" inkscape:connector-curvature="0" fill="#FFFFFF" d="M-451.915,715.854c-1.247,0.292-2.021,1.538-1.73,2.787
			c0.088,0.377,0.27,0.727,0.529,1.015l8.162,9.404l-8.662,10.707c-0.821,0.984-0.687,2.446,0.296,3.267
			c0.984,0.819,2.446,0.686,3.266-0.298c0.015-0.018,0.029-0.035,0.043-0.052l11.106-13.729l-10.711-12.338
			C-450.178,715.949-451.066,715.655-451.915,715.854z"/>
		<path id="path6540-7" inkscape:connector-curvature="0" fill="#FFFFFF" d="M-430.041,722.006
			c-5.559,1.305-10.127,3.469-13.206,5.561c-1.066,0.71-1.352,2.151-0.642,3.216c0.711,1.064,2.151,1.351,3.216,0.64
			c0.011-0.006,0.022-0.014,0.033-0.021c3.363-2.287,9.566-5.015,16.937-5.768c7.371-0.751,15.909,0.393,24.432,5.684
			c1.08,0.686,2.514,0.37,3.202-0.712c0.688-1.079,0.369-2.514-0.711-3.201c-0.015-0.01-0.03-0.019-0.045-0.029
			c-9.455-5.869-19.133-7.193-27.348-6.355C-426.225,721.23-428.187,721.571-430.041,722.006L-430.041,722.006z"/>
		<path id="path6542-3" inkscape:connector-curvature="0" fill="#FFFFFF" d="M-414.146,717.365c-3.347,0.873-6.558,2.09-9.473,3.654
			c-1.137,0.589-1.58,1.987-0.991,3.125c0.59,1.136,1.989,1.581,3.126,0.99c0.018-0.01,0.038-0.019,0.056-0.029
			c6.767-3.629,15.974-5.264,24.069-4.671c1.276,0.113,2.403-0.828,2.515-2.104c0.113-1.278-0.829-2.404-2.105-2.516
			c-0.023-0.002-0.048-0.004-0.072-0.006C-402.61,715.399-408.567,715.908-414.146,717.365z"/>
		<path id="circle6544-4" inkscape:connector-curvature="0" fill="#FFFFFF" d="M-451.02,726.741
			c1.014,4.366-1.703,8.725-6.068,9.738l0,0c-4.365,1.013-8.724-1.703-9.738-6.069l0,0c-1.013-4.364,1.703-8.723,6.069-9.736l0,0
			C-456.392,719.661-452.033,722.378-451.02,726.741L-451.02,726.741z"/>
		<path id="path6546-0" inkscape:connector-curvature="0" fill="#FFFFFF" d="M-427.729,738.076
			c-0.686,0.012-1.236,0.578-1.225,1.262v39.722c-0.013,0.688,0.536,1.254,1.223,1.266s1.254-0.537,1.265-1.223
			c0.001-0.016,0.001-0.029,0-0.043v-39.722c0.011-0.686-0.54-1.25-1.227-1.262C-427.705,738.076-427.717,738.076-427.729,738.076
			L-427.729,738.076z"/>
		<path id="circle6552-1" inkscape:connector-curvature="0" fill="#FFFFFF" d="M-422.33,734.063l-1.749,1.75c0,0-0.001,0,0,0
			c0.925,0.926,1.495,2.207,1.495,3.63c0,1.423-0.571,2.705-1.495,3.631l1.748,1.748h0.001c1.38-1.379,2.236-3.282,2.236-5.379
			C-420.094,737.347-420.951,735.443-422.33,734.063L-422.33,734.063z M-433.091,734.065c-1.38,1.379-2.236,3.284-2.236,5.379
			c0,2.096,0.857,4,2.236,5.379l1.749-1.748c-0.926-0.926-1.496-2.207-1.496-3.631c0-1.423,0.571-2.705,1.496-3.63l0,0
			L-433.091,734.065z"/>
		<path id="circle6554-5" inkscape:connector-curvature="0" fill="#FFFFFF" d="M-436.537,730.617
			c-2.262,2.262-3.664,5.385-3.664,8.826c0,3.442,1.402,6.563,3.664,8.826l1.749-1.75c-1.807-1.806-2.924-4.307-2.924-7.076
			c0-2.769,1.116-5.27,2.924-7.076L-436.537,730.617L-436.537,730.617z M-418.885,730.617l-1.749,1.748
			c1.807,1.808,2.924,4.309,2.924,7.078c0,2.769-1.116,5.268-2.924,7.076l1.749,1.75c2.262-2.263,3.664-5.385,3.664-8.826
			C-415.221,736.001-416.623,732.878-418.885,730.617L-418.885,730.617z"/>
		<path id="rect6556-0" inkscape:connector-curvature="0" fill="#FFFFFF" d="M-467.34,694.444c-6.18,0-11.228,5.046-11.228,11.226
			v75.634c0,6.182,5.048,11.226,11.228,11.226h74.514c6.179,0,11.228-5.044,11.228-11.226V705.67c0-6.18-5.049-11.226-11.228-11.226
			H-467.34z M-467.34,699.084h74.514c3.69,0,6.589,2.895,6.589,6.586v75.634c0,3.693-2.899,6.588-6.589,6.588h-74.514
			c-3.691,0-6.59-2.895-6.59-6.588V705.67C-473.93,701.979-471.032,699.084-467.34,699.084z"/>
		<path id="path6662" inkscape:connector-curvature="0" fill="#FFFFFF" d="M-544.566,730.65c-0.468,0.004-0.924,0.144-1.315,0.399
			l-10.113,6.429c1.177,0.471,1.996,0.69,2.679,0.7c1.055,0.017,2.263-0.397,4.684-1.738c2.003-1.108,4.015-1.721,6.062-1.902
			c0.797-1.089,0.56-2.619-0.531-3.417C-543.526,730.809-544.04,730.644-544.566,730.65L-544.566,730.65z"/>
		<path id="circle6566-8" inkscape:connector-curvature="0" fill="#FFFFFF" d="M-532.099,716.422
			c-4.727-0.002-8.56,3.831-8.56,8.558c0,0,0,0,0,0.002c0.001,4.725,3.833,8.558,8.56,8.558c4.726,0,8.558-3.833,8.559-8.558
			C-523.54,720.254-527.372,716.422-532.099,716.422z"/>
		<path id="path6270" inkscape:connector-curvature="0" fill="#FFFFFF" d="M-541.192,737.687c-2.176-0.008-4.278,0.572-6.474,1.787
			c-5.021,2.781-6.311,2.485-11.448,0.105c-5.137-2.382-8.049-1.606-12.506,0.072c-2.457,0.926-4.892,2.028-7.447,2.291l53.85,0.751
			c-2.072-0.072-4.244-0.731-6.859-2.156C-535.475,738.683-538.395,737.699-541.192,737.687L-541.192,737.687z M-525.216,742.693
			c0.07,0.002,0.14,0.002,0.21,0.004L-525.216,742.693z M-525.006,742.697l15.49,0.216v-4.185c-2.368-0.101-4.78,0.354-7.303,1.595
			C-519.878,741.829-522.371,742.737-525.006,742.697z M-579.066,741.944l-2.474-0.035
			C-580.701,742.028-579.878,742.028-579.066,741.944z M-581.541,741.909c-1.316-0.187-2.673-0.659-4.089-1.548
			c-0.118-0.076-0.235-0.142-0.354-0.212v1.698L-581.541,741.909L-581.541,741.909z"/>
		<path id="path6570-1" inkscape:connector-curvature="0" fill="#FFFFFF" d="M-541.244,735.77c-2.51-0.012-4.955,0.615-7.387,1.962
			c-2.421,1.342-3.63,1.756-4.684,1.738c-1.055-0.016-2.422-0.521-4.962-1.698c-5.546-2.571-9.509-1.694-14.046,0.016
			c-2.304,0.867-4.404,1.783-6.352,2.098c-1.948,0.317-3.701,0.163-5.895-1.215c-0.469-0.294-0.94-0.548-1.414-0.772v4.556
			c2.747,1.503,5.506,1.76,7.946,1.363c2.648-0.43,4.967-1.493,7.119-2.304c4.378-1.649,6.241-2.32,10.967-0.128
			c2.597,1.204,4.443,2.034,6.573,2.067c2.129,0.033,4.075-0.797,6.675-2.238c4.48-2.479,7.917-2.071,13.675,1.068
			c3.229,1.76,6.087,2.54,8.875,2.392c2.789-0.146,5.357-1.159,8.216-2.565c2.258-1.11,4.348-1.526,6.421-1.429v-3.909
			c-2.662-0.105-5.396,0.393-8.182,1.764c-2.681,1.318-4.72,2.061-6.664,2.164c-1.945,0.101-3.945-0.379-6.76-1.913
			c-3.164-1.725-6.151-2.757-9.041-2.975c-0.362-0.027-0.721-0.041-1.08-0.043V735.77z"/>
		<path id="rect6574-4" inkscape:connector-curvature="0" fill="#FFFFFF" d="M-584.679,694.444c-6.179,0-11.224,5.046-11.224,11.226
			v75.634c0,6.182,5.045,11.226,11.224,11.226h74.515c6.18,0,11.228-5.044,11.228-11.226V705.67c0-6.18-5.048-11.226-11.228-11.226
			H-584.679z M-584.679,699.084h74.515c3.691,0,6.59,2.895,6.59,6.586v75.634c0,3.693-2.899,6.588-6.59,6.588h-74.515
			c-3.69,0-6.586-2.895-6.586-6.588V705.67C-591.266,701.979-588.369,699.084-584.679,699.084z"/>
		<path id="path6195" inkscape:connector-curvature="0" fill="#FFFFFF" d="M-573.14,749.162v12.787h-3.533v-8.379
			c-0.573,0.434-1.127,0.786-1.665,1.054c-0.531,0.268-1.2,0.527-2.007,0.772v-2.864c1.189-0.383,2.113-0.844,2.771-1.381
			c0.657-0.537,1.172-1.2,1.543-1.989H-573.14L-573.14,749.162z"/>
		<path id="path6198" inkscape:connector-curvature="0" fill="#FFFFFF" d="M-569.912,753.722c0-2.39,0.429-4.06,1.286-5.017
			c0.863-0.955,2.175-1.431,3.937-1.431c0.846,0,1.54,0.107,2.084,0.317c0.544,0.206,0.986,0.478,1.329,0.815
			c0.343,0.333,0.612,0.683,0.806,1.056c0.2,0.366,0.36,0.793,0.48,1.285c0.234,0.939,0.352,1.915,0.352,2.932
			c0,2.283-0.386,3.951-1.158,5.009s-2.101,1.587-3.988,1.587c-1.057,0-1.912-0.169-2.564-0.506
			c-0.651-0.338-1.186-0.832-1.603-1.484c-0.303-0.463-0.541-1.095-0.712-1.896C-569.83,755.583-569.912,754.695-569.912,753.722
			L-569.912,753.722z M-566.448,753.732c0,1.6,0.141,2.695,0.42,3.284c0.287,0.583,0.698,0.875,1.236,0.875
			c0.354,0,0.66-0.124,0.917-0.37c0.263-0.253,0.455-0.646,0.575-1.184c0.126-0.537,0.19-1.375,0.19-2.512
			c0-1.668-0.144-2.79-0.43-3.362c-0.28-0.576-0.703-0.865-1.269-0.865c-0.578,0-0.995,0.296-1.252,0.883
			C-566.32,751.064-566.448,752.147-566.448,753.732L-566.448,753.732z"/>
		<path id="path6201" inkscape:connector-curvature="0" fill="#FFFFFF" d="M-545.98,753.094c0-2.39,0.43-4.062,1.286-5.017
			c0.864-0.955,2.176-1.433,3.937-1.433c0.846,0,1.541,0.107,2.085,0.319c0.543,0.204,0.986,0.476,1.329,0.815
			c0.343,0.331,0.612,0.682,0.805,1.054c0.2,0.366,0.361,0.795,0.481,1.287c0.234,0.937,0.351,1.915,0.351,2.932
			c0,2.281-0.386,3.949-1.158,5.009c-0.771,1.056-2.101,1.585-3.987,1.585c-1.058,0-1.912-0.167-2.564-0.506
			c-0.652-0.336-1.186-0.832-1.604-1.484c-0.302-0.463-0.54-1.095-0.712-1.894C-545.896,754.955-545.98,754.066-545.98,753.094
			L-545.98,753.094z M-542.514,753.102c0,1.6,0.14,2.695,0.42,3.286c0.286,0.581,0.697,0.873,1.235,0.873
			c0.355,0,0.66-0.122,0.918-0.368c0.263-0.253,0.455-0.648,0.575-1.184c0.125-0.537,0.189-1.375,0.189-2.512
			c0-1.67-0.143-2.79-0.429-3.362c-0.28-0.578-0.703-0.865-1.27-0.865c-0.577,0-0.995,0.294-1.251,0.883
			C-542.386,750.436-542.514,751.519-542.514,753.102L-542.514,753.102z"/>
		<path id="path6204" inkscape:connector-curvature="0" fill="#FFFFFF" d="M-549.207,748.785v12.786h-3.533v-8.379
			c-0.572,0.436-1.127,0.788-1.664,1.056c-0.532,0.268-1.201,0.525-2.007,0.772v-2.864c1.188-0.383,2.112-0.844,2.77-1.381
			c0.657-0.539,1.172-1.202,1.544-1.989H-549.207L-549.207,748.785z"/>
		<path id="path6207" inkscape:connector-curvature="0" fill="#FFFFFF" d="M-532.477,755.486c0-2.392,0.429-4.062,1.286-5.017
			c0.863-0.957,2.176-1.433,3.937-1.433c0.847,0,1.541,0.107,2.085,0.317c0.543,0.206,0.986,0.478,1.329,0.815
			c0.342,0.333,0.612,0.685,0.806,1.056c0.2,0.366,0.36,0.793,0.48,1.285c0.234,0.939,0.351,1.915,0.351,2.932
			c0,2.283-0.386,3.951-1.157,5.009c-0.772,1.058-2.101,1.587-3.988,1.587c-1.057,0-1.912-0.169-2.565-0.506
			c-0.651-0.336-1.186-0.832-1.603-1.484c-0.303-0.463-0.541-1.095-0.712-1.896C-532.395,757.347-532.477,756.458-532.477,755.486
			L-532.477,755.486z M-529.012,755.494c0,1.6,0.14,2.695,0.42,3.284c0.286,0.583,0.698,0.875,1.235,0.875
			c0.355,0,0.66-0.125,0.918-0.37c0.263-0.251,0.455-0.646,0.575-1.184c0.126-0.537,0.189-1.373,0.189-2.512
			c0-1.668-0.143-2.79-0.429-3.362c-0.28-0.576-0.703-0.865-1.269-0.865c-0.578,0-0.995,0.296-1.252,0.883
			C-528.884,752.826-529.012,753.909-529.012,755.494L-529.012,755.494z"/>
		<path id="path6210" inkscape:connector-curvature="0" fill="#FFFFFF" d="M-548.047,769.464v12.787h-3.533v-8.379
			c-0.572,0.434-1.126,0.786-1.664,1.054c-0.532,0.268-1.201,0.527-2.007,0.772v-2.864c1.189-0.383,2.113-0.842,2.77-1.381
			c0.657-0.537,1.173-1.2,1.544-1.989H-548.047z"/>
		<path id="path6213" inkscape:connector-curvature="0" fill="#FFFFFF" d="M-569.603,774.782c0-2.39,0.429-4.064,1.286-5.017
			c0.863-0.955,2.175-1.433,3.936-1.433c0.846,0,1.541,0.107,2.085,0.317c0.543,0.206,0.986,0.478,1.329,0.815
			c0.343,0.333,0.612,0.685,0.806,1.056c0.2,0.366,0.361,0.795,0.48,1.285c0.234,0.937,0.352,1.915,0.352,2.934
			c0,2.281-0.386,3.949-1.158,5.007c-0.772,1.058-2.101,1.587-3.988,1.587c-1.057,0-1.912-0.169-2.564-0.506
			c-0.652-0.338-1.186-0.832-1.604-1.484c-0.302-0.463-0.54-1.095-0.711-1.896C-569.521,776.643-569.603,775.752-569.603,774.782
			L-569.603,774.782z M-566.139,774.79c0,1.6,0.14,2.695,0.42,3.284c0.287,0.583,0.698,0.875,1.235,0.875
			c0.355,0,0.661-0.122,0.918-0.369c0.263-0.251,0.455-0.646,0.575-1.182c0.125-0.539,0.189-1.377,0.189-2.514
			c0-1.668-0.143-2.789-0.429-3.36c-0.28-0.578-0.703-0.867-1.27-0.867c-0.577,0-0.995,0.296-1.251,0.885
			C-566.01,772.122-566.139,773.205-566.139,774.79L-566.139,774.79z"/>
		<path id="path6216" inkscape:connector-curvature="0" fill="#FFFFFF" d="M-536.763,767.198v12.786h-3.533v-8.377
			c-0.572,0.434-1.126,0.786-1.664,1.054c-0.532,0.27-1.201,0.527-2.007,0.772v-2.864c1.189-0.383,2.113-0.844,2.77-1.381
			c0.657-0.537,1.172-1.2,1.543-1.989H-536.763L-536.763,767.198z"/>
		<path id="path6219" inkscape:connector-curvature="0" fill="#FFFFFF" d="M-525.48,768.583v12.787h-3.533v-8.379
			c-0.572,0.434-1.127,0.786-1.664,1.054c-0.533,0.268-1.201,0.527-2.008,0.772v-2.864c1.19-0.383,2.113-0.842,2.77-1.381
			c0.659-0.537,1.173-1.2,1.545-1.989H-525.48z"/>
		<path id="path6222" inkscape:connector-curvature="0" fill="#FFFFFF" d="M-514.197,767.451v12.786h-3.533v-8.379
			c-0.572,0.436-1.126,0.788-1.665,1.056c-0.531,0.268-1.2,0.525-2.006,0.772v-2.864c1.189-0.383,2.113-0.844,2.77-1.381
			c0.657-0.539,1.172-1.202,1.543-1.989H-514.197z"/>
		<path id="path6588-7" inkscape:connector-curvature="0" fill="#FFFFFF" d="M-325.313,749.685c-1.349-0.014-2.452,1.07-2.465,2.417
			c-0.004,0.325,0.058,0.648,0.182,0.947c2.848,7.234,3.699,15.844,1.346,23.438c-0.419,1.281,0.28,2.66,1.561,3.08
			c1.281,0.418,2.659-0.28,3.078-1.562c0.008-0.023,0.016-0.049,0.022-0.072c2.754-8.889,1.738-18.532-1.465-26.672
			C-323.409,750.321-324.307,749.695-325.313,749.685z"/>
		<path id="path6590-0" inkscape:connector-curvature="0" fill="#FFFFFF" d="M-332.645,725.6c-1.349-0.019-2.457,1.056-2.478,2.404
			c-0.006,0.406,0.089,0.809,0.278,1.169c3.424,6.757,6.534,14.199,7.059,21.946c0.524,7.749-1.395,15.839-8.436,24.488
			c-0.87,1.031-0.743,2.571,0.285,3.44c1.03,0.873,2.57,0.745,3.44-0.284c0.021-0.025,0.042-0.049,0.061-0.074
			c7.726-9.493,10.115-19.076,9.518-27.899c-0.597-8.821-4.039-16.848-7.571-23.821C-330.894,726.142-331.727,725.614-332.645,725.6
			L-332.645,725.6z"/>
		<path id="circle6592-9" inkscape:connector-curvature="0" fill="#FFFFFF" d="M-330.011,715.893c0,4.719-3.825,8.542-8.542,8.542
			s-8.542-3.823-8.542-8.542c0-4.718,3.824-8.541,8.542-8.541S-330.011,711.175-330.011,715.893z"/>
		<path id="path6594-6" inkscape:connector-curvature="0" fill="#FFFFFF" d="M-330.752,729.267
			c-1.348-0.043-2.474,1.013-2.518,2.361c-0.04,1.186,0.779,2.227,1.94,2.468l20.087,4.474c1.311,0.313,2.628-0.496,2.941-1.806
			c0.314-1.311-0.495-2.627-1.806-2.942c-0.025-0.006-0.049-0.012-0.074-0.016l-20.088-4.473
			C-330.427,729.295-330.589,729.273-330.752,729.267z"/>
		<path id="path6598-3" inkscape:connector-curvature="0" fill="#FFFFFF" d="M-295.701,739.719
			c-0.428,1.773-0.703,3.568-0.056,5.246c0.646,1.676,2.27,2.956,4.843,3.576c2.574,0.618,5.388,0.529,7.774-0.193
			c2.387-0.719,4.488-2.125,5.034-4.393c0.546-2.263-0.684-4.474-2.48-6.201c-1.797-1.729-4.261-3.092-6.834-3.712
			c-2.573-0.618-4.602-0.22-5.942,0.978C-294.701,736.221-295.273,737.946-295.701,739.719z M-293.49,740.25
			c0.39-1.618,0.914-2.878,1.644-3.533c0.732-0.655,1.748-0.976,3.891-0.461c2.145,0.515,4.325,1.729,5.792,3.139
			c1.467,1.41,2.118,2.903,1.845,4.031c-0.271,1.126-1.53,2.16-3.48,2.748c-1.947,0.587-4.442,0.673-6.584,0.156
			c-2.143-0.515-2.901-1.264-3.254-2.182C-293.989,743.231-293.881,741.87-293.49,740.25L-293.49,740.25z"/>
		<path id="path6600-7" inkscape:connector-curvature="0" fill="#FFFFFF" d="M-309.821,735.262l-0.489,2.223l15.728,3.457
			l0.489-2.221L-309.821,735.262z"/>
		<path id="path6602-7" inkscape:connector-curvature="0" fill="#FFFFFF" d="M-312.863,770.988
			c6.94-0.352,13.902-2.166,19.366-6.174c4.841-3.516,8.336-8.926,9.386-14.79c0.748,1.676,0.848,4.57-0.349,7.926
			c-1.209,3.38-3.613,6.841-7.143,9.47c-3.845,2.839-8.246,4.344-12.262,4.786C-307.824,772.641-311.106,772.019-312.863,770.988
			L-312.863,770.988z"/>
		<path id="path6604-8" inkscape:connector-curvature="0" fill="#FFFFFF" d="M-287.716,735.058
			c-1.992,4.124-2.95,8.239-2.974,12.311l1.706,0.012c0.022-3.813,0.912-7.66,2.805-11.58L-287.716,735.058L-287.716,735.058z"/>
		<path id="path6606-5" inkscape:connector-curvature="0" fill="#FFFFFF" d="M-294.583,741.084l-0.389,1.661l5.231,1.223l0.39-1.659
			L-294.583,741.084z"/>
		<path id="path6608-0" inkscape:connector-curvature="0" fill="#FFFFFF" d="M-293.604,737.211l-0.363,1.668l5.212,1.13l0.362-1.668
			L-293.604,737.211z"/>
		<path id="rect6610-6" inkscape:connector-curvature="0" fill="#FFFFFF" d="M-350.005,694.444c-6.18,0-11.227,5.046-11.227,11.226
			v75.634c0,6.182,5.047,11.226,11.227,11.226h74.515c6.18,0,11.227-5.044,11.227-11.226V705.67c0-6.18-5.047-11.226-11.227-11.226
			H-350.005z M-350.005,699.084h74.515c3.691,0,6.589,2.895,6.589,6.586v75.634c0,3.693-2.898,6.588-6.589,6.588h-74.515
			c-3.69,0-6.589-2.895-6.589-6.588V705.67C-356.594,701.979-353.695,699.084-350.005,699.084z"/>
		<path id="path6669" inkscape:connector-curvature="0" fill="#FFFFFF" d="M-548.305,724.773l-14.178,0.052
			c-1.351,0.002-2.444,1.097-2.444,2.448c0.001,1.349,1.097,2.444,2.448,2.444c0.005,0,0.01,0,0.015,0l12.892-0.049l3.821,5.515
			c1.487-0.482,2.986-0.716,4.508-0.708c0.326,0,0.652,0.016,0.98,0.037l-6.022-8.688
			C-546.745,725.162-547.5,724.77-548.305,724.773z"/>
	</g>
	<g id="text5969">
		<path id="path6001" fill="#FFFFFF" d="M257.14,47.497h-2.293v3.106h-1.705v-7.9h1.705v3.146h2.293V47.497z M259.241,42.703v7.9
			h-1.704v-7.9H259.241z"/>
		<path id="path6003" fill="#FFFFFF" d="M266.291,42.703v1.667h-4.396v1.479h2.274v1.648h-3.277c-0.468,0-0.701-0.222-0.701-0.663
			v-3.43c0-0.467,0.233-0.7,0.701-0.701H266.291L266.291,42.703z M264.587,48.975v-3.126h1.042c0.215,0,0.378,0.069,0.492,0.208
			c0.113,0.14,0.17,0.316,0.17,0.531v3.334c0,0.455-0.208,0.682-0.625,0.682h-5.475v-1.629H264.587L264.587,48.975z"/>
		<path id="path6005" fill="#FFFFFF" d="M271.995,42.703v7.9h5.021c0.113,0,0.234-0.038,0.36-0.113
			c0.139-0.076,0.259-0.171,0.359-0.284c0.114-0.114,0.202-0.234,0.266-0.36c0.076-0.139,0.113-0.266,0.113-0.379v-6.063
			c0-0.468-0.215-0.701-0.645-0.701h-3.372v1.63h2.293v4.604h-2.691v-6.233H271.995z"/>
		<path id="path6007" fill="#FFFFFF" d="M279.062,50.604h1.705v-3.106h2.69v3.106h1.724v-7.161c0-0.493-0.239-0.738-0.72-0.739
			h-3.297v1.667h2.293v1.479h-2.69v-3.146h-1.005c-0.467,0.001-0.7,0.24-0.7,0.721V50.604z"/>
		<path id="path6009" fill="#FFFFFF" d="M286.13,50.604h1.686V44.39h2.709v1.459h-2.311v2.16l2.027,2.595h2.103l-2.425-3.106h1.61
			c0.479,0,0.721-0.234,0.721-0.701v-3.354c0-0.493-0.241-0.738-0.721-0.739h-5.399V50.604L286.13,50.604z"/>
		<path id="path6011" fill="#FFFFFF" d="M296.608,47.951l1.725-1.647v4.3h1.704v-7.919l-3.429,2.993l-3.448-3.013v2.084
			L296.608,47.951L296.608,47.951z M294.865,46.929l-1.705-1.573v5.248h1.705V46.929z"/>
		<path id="path6013" fill="#FFFFFF" d="M302.674,44.37v3.127h-1.005c-0.467,0-0.701-0.222-0.701-0.663v-3.43
			c0-0.467,0.234-0.7,0.701-0.701h5.4v1.667H302.674L302.674,44.37z M306.405,45.849c0.215,0,0.38,0.069,0.493,0.208
			c0.113,0.14,0.171,0.316,0.171,0.531v3.334c0,0.455-0.209,0.682-0.626,0.682h-5.475v-1.629h4.395v-1.478h-2.292v-1.648H306.405
			L306.405,45.849z"/>
		<path id="path6015" fill="#FFFFFF" d="M309.912,50.604h1.705V44.39h1.838v-1.687h-3.543V50.604z M307.998,44.39h1.535v-1.687
			h-1.535V44.39z"/>
		<path id="path6017" fill="#FFFFFF" d="M314.4,43.424c0-0.48,0.233-0.72,0.701-0.721h4.698c0.479,0.001,0.72,0.246,0.72,0.739
			v7.161h-1.724v-3.106h-2.292v-1.648h2.292V44.37h-2.691v6.233H314.4V43.424L314.4,43.424z"/>
		<path id="path6019" fill="#FFFFFF" d="M325.863,44.333v4.604h-2.293v1.667h2.918c0.113,0,0.233-0.038,0.36-0.113
			c0.139-0.076,0.259-0.171,0.359-0.284c0.114-0.113,0.202-0.234,0.266-0.36c0.076-0.139,0.113-0.266,0.113-0.379v-6.063
			c0-0.467-0.215-0.7-0.645-0.701h-5.475v7.9h1.704v-6.271H325.863L325.863,44.333z"/>
		<path id="path6021" fill="#FFFFFF" d="M330.448,50.604h1.705V44.39h1.838v-1.687h-3.543V50.604z M328.535,44.39h1.534v-1.687
			h-1.534V44.39z"/>
	</g>
	<g id="text4654">
		<path id="path4678" fill="#FFFFFF" d="M186.489,45.837v-3.171h1.709v3.133h0.779v1.672h-0.798v3.133h-1.69v-3.133h-1.5v-1.634
			H186.489L186.489,45.837z M184.591,42.666v4.805h-1.082c-0.253,0-0.424-0.058-0.513-0.171c-0.077-0.127-0.114-0.298-0.114-0.513
			v-4.121H184.591L184.591,42.666z"/>
		<path id="path4680" fill="#FFFFFF" d="M189.929,50.604h1.709v-1.633h-1.709V50.604z"/>
		<path id="path4682" fill="#FFFFFF" d="M192.6,47.489h2.678v-1.652H192.6V47.489z"/>
		<path id="path4684" fill="#FFFFFF" d="M197.943,50.604h-1.007c-0.468,0-0.703-0.228-0.703-0.684v-6.532
			c0-0.469,0.235-0.703,0.703-0.703h5.412v1.671h-4.405v1.481h3.721c0.178,0,0.336,0.082,0.477,0.247
			c0.139,0.152,0.208,0.329,0.208,0.532v3.304c0,0.456-0.208,0.684-0.626,0.684h-3.381v-1.633h2.297v-1.481h-2.695V50.604z"/>
		<path id="path4686" fill="#FFFFFF" d="M203.281,50.604h1.709v-1.633h-1.709V50.604z"/>
		<path id="path4688" fill="#FFFFFF" d="M216.852,42.685v1.671h-4.406v1.481h2.279v1.652h-3.285c-0.469,0-0.703-0.222-0.703-0.665
			v-3.437c0-0.469,0.234-0.703,0.703-0.703H216.852z M215.143,48.971v-3.134h1.044c0.216,0,0.38,0.069,0.494,0.209
			c0.113,0.14,0.171,0.316,0.171,0.532v3.342c0,0.456-0.209,0.684-0.627,0.684h-5.488v-1.633H215.143L215.143,48.971z"/>
		<path id="path4690" fill="#FFFFFF" d="M219.911,45.837h2.657v1.652h-2.657V45.837z M217.784,42.685h5.449v1.671h-3.741v4.615
			h3.741v1.633h-5.449V42.685L217.784,42.685z"/>
		<path id="path4692" fill="#FFFFFF" d="M224.2,50.604h1.709v-6.248h2.716v1.481h-2.317v1.652h3.343
			c0.468,0,0.702-0.234,0.702-0.702v-3.361c0-0.494-0.234-0.741-0.702-0.741h-5.45V50.604L224.2,50.604z"/>
		<path id="path4694" fill="#FFFFFF" d="M231.284,50.604h1.709v-1.633h-1.709V50.604z"/>
	</g>
</g>
<g>
</g>
<g>
</g>
<g>
</g>
<g>
</g>
<g>
</g>
<g>
</g>
</svg>
