<?xml version="1.0" encoding="utf-8"?>
<!-- Generator: Adobe Illustrator 16.0.0, SVG Export Plug-In . SVG Version: 6.00 Build 0)  -->
<!DOCTYPE svg PUBLIC "-//W3C//DTD SVG 1.1//EN" "http://www.w3.org/Graphics/SVG/1.1/DTD/svg11.dtd">
<svg version="1.1" id="Ebene_1" xmlns="http://www.w3.org/2000/svg" xmlns:xlink="http://www.w3.org/1999/xlink" x="0px" y="0px"
	 width="226.771px" height="155.905px" viewBox="0 0 226.771 155.905" enable-background="new 0 0 226.771 155.905"
	 xml:space="preserve">
<rect width="226.771" height="155.905"/>
<g id="g5530" transform="matrix(0.5021999,0,0,0.5021999,305.42875,-345.03296)">
	<path id="path6744-9" inkscape:connector-curvature="0" fill="#FFFFFF" d="M-411.793,760.48c-0.877,0.002-1.589,0.715-1.587,1.591
		c0,0.43,0.175,0.842,0.484,1.14c13.184,13.156,15.846,35.588,1.855,50.707c-0.603,0.638-0.576,1.643,0.06,2.247
		c0.636,0.606,1.643,0.578,2.246-0.06c0.008-0.01,0.018-0.017,0.025-0.027c15.193-16.417,12.373-40.829-1.945-55.115
		C-410.953,760.653-411.363,760.48-411.793,760.48L-411.793,760.48z"/>
	<path id="path6538-7" inkscape:connector-curvature="0" fill="#FFFFFF" d="M-410.276,734.284c-1.589,0.372-2.577,1.963-2.205,3.557
		c0.113,0.481,0.346,0.929,0.675,1.296l10.417,12.004l-11.055,13.667c-1.046,1.256-0.877,3.123,0.377,4.17
		c1.256,1.045,3.123,0.877,4.169-0.379c0.017-0.022,0.035-0.045,0.054-0.067l14.176-17.525l-13.672-15.75
		C-408.055,734.406-409.191,734.031-410.276,734.284z"/>
	<path id="path6540-7" inkscape:connector-curvature="0" fill="#FFFFFF" d="M-382.35,742.137c-7.096,1.666-12.927,4.429-16.859,7.1
		c-1.361,0.906-1.725,2.746-0.819,4.106c0.908,1.357,2.746,1.725,4.105,0.817c0.016-0.008,0.029-0.018,0.045-0.027
		c4.292-2.92,12.21-6.403,21.621-7.363c9.408-0.958,20.305,0.502,31.187,7.256c1.377,0.876,3.209,0.472,4.087-0.909
		c0.879-1.377,0.471-3.21-0.91-4.086c-0.016-0.013-0.039-0.024-0.054-0.037c-12.072-7.491-24.424-9.182-34.909-8.112
		C-377.478,741.148-379.986,741.582-382.35,742.137L-382.35,742.137z"/>
	<path id="path6542-3" inkscape:connector-curvature="0" fill="#FFFFFF" d="M-362.061,736.212
		c-4.274,1.115-8.369,2.669-12.091,4.664c-1.451,0.753-2.015,2.538-1.268,3.989c0.754,1.45,2.543,2.018,3.994,1.264
		c0.023-0.013,0.047-0.025,0.07-0.038c8.638-4.632,20.391-6.719,30.724-5.962c1.63,0.144,3.069-1.058,3.212-2.685
		c0.144-1.632-1.058-3.069-2.687-3.212c-0.027-0.003-0.062-0.005-0.093-0.008C-347.333,733.704-354.94,734.353-362.061,736.212z"/>
	<path id="circle6544-4" inkscape:connector-curvature="0" fill="#FFFFFF" d="M-409.131,748.182
		c1.293,5.573-2.174,11.138-7.745,12.432l0,0c-5.571,1.293-11.137-2.175-12.432-7.747l0,0c-1.293-5.57,2.174-11.136,7.747-12.429
		l0,0C-415.989,739.144-410.424,742.612-409.131,748.182L-409.131,748.182z"/>
	<path id="path6546-0" inkscape:connector-curvature="0" fill="#FFFFFF" d="M-379.399,762.652c-0.879,0.015-1.579,0.737-1.567,1.611
		v50.704c-0.012,0.879,0.688,1.601,1.563,1.616c0.875,0.015,1.602-0.685,1.614-1.562c0-0.019,0-0.037,0-0.054v-50.704
		c0.016-0.877-0.688-1.596-1.567-1.611C-379.372,762.652-379.387,762.652-379.399,762.652L-379.399,762.652z"/>
	<path id="circle6552-1" inkscape:connector-curvature="0" fill="#FFFFFF" d="M-372.511,757.528l-2.229,2.234c0,0-0.004,0,0,0
		c1.178,1.181,1.906,2.818,1.906,4.634c0,1.817-0.727,3.454-1.906,4.635l2.229,2.231l0,0c1.766-1.76,2.855-4.19,2.855-6.866
		C-369.657,761.72-370.746,759.291-372.511,757.528L-372.511,757.528z M-386.245,757.531c-1.76,1.76-2.855,4.192-2.855,6.865
		c0,2.677,1.095,5.106,2.855,6.866l2.232-2.231c-1.182-1.181-1.91-2.818-1.91-4.635c0-1.816,0.727-3.453,1.91-4.634l0,0
		L-386.245,757.531z"/>
	<path id="circle6554-5" inkscape:connector-curvature="0" fill="#FFFFFF" d="M-390.646,753.129
		c-2.884,2.887-4.677,6.874-4.677,11.267c0,4.394,1.793,8.378,4.677,11.268l2.234-2.234c-2.308-2.306-3.734-5.498-3.734-9.033
		c0-3.534,1.425-6.726,3.734-9.033L-390.646,753.129L-390.646,753.129z M-368.113,753.129l-2.229,2.231
		c2.306,2.309,3.73,5.501,3.73,9.035c0,3.535-1.423,6.725-3.73,9.033l2.229,2.234c2.89-2.89,4.679-6.874,4.679-11.268
		C-363.434,760.003-365.223,756.016-368.113,753.129L-368.113,753.129z"/>
	<path id="rect6556-0" inkscape:connector-curvature="0" fill="#FFFFFF" d="M-429.963,706.955c-7.889,0-14.333,6.441-14.333,14.33
		v96.545c0,7.891,6.444,14.33,14.333,14.33h95.118c7.883,0,14.328-6.439,14.328-14.33v-96.545c0-7.889-6.444-14.33-14.328-14.33
		H-429.963z M-429.963,712.879h95.118c4.706,0,8.408,3.696,8.408,8.407v96.545c0,4.714-3.702,8.41-8.408,8.41h-95.118
		c-4.712,0-8.412-3.697-8.412-8.41v-96.545C-438.375,716.574-434.676,712.879-429.963,712.879z"/>
	<path id="path6662" inkscape:connector-curvature="0" fill="#FFFFFF" d="M-528.541,753.172c-0.597,0.005-1.179,0.184-1.679,0.508
		l-12.909,8.206c1.503,0.601,2.548,0.882,3.42,0.893c1.347,0.022,2.889-0.506,5.98-2.219c2.557-1.415,5.125-2.196,7.738-2.428
		c1.018-1.39,0.715-3.344-0.678-4.362C-527.213,753.375-527.869,753.164-528.541,753.172L-528.541,753.172z"/>
	<path id="circle6566-8" inkscape:connector-curvature="0" fill="#FFFFFF" d="M-512.628,735.009
		c-6.033-0.002-10.926,4.891-10.926,10.925c0,0,0,0,0,0.003c0.001,6.031,4.893,10.924,10.926,10.924
		c6.033,0,10.925-4.893,10.926-10.924C-501.703,739.901-506.593,735.009-512.628,735.009z"/>
	<path id="path6270" inkscape:connector-curvature="0" fill="#FFFFFF" d="M-524.234,762.155c-2.778-0.01-5.461,0.73-8.265,2.281
		c-6.409,3.55-8.056,3.173-14.612,0.134c-6.557-3.04-10.274-2.051-15.964,0.092c-3.137,1.181-6.243,2.588-9.505,2.924l68.739,0.959
		c-2.646-0.092-5.418-0.933-8.756-2.754C-516.937,763.426-520.663,762.169-524.234,762.155L-524.234,762.155z M-503.842,768.545
		c0.089,0.002,0.178,0.002,0.267,0.005L-503.842,768.545z M-503.574,768.55l19.774,0.275v-5.342
		c-3.022-0.129-6.102,0.452-9.322,2.035C-497.027,767.442-500.209,768.601-503.574,768.55z M-572.58,767.589l-3.158-0.045
		C-574.666,767.695-573.616,767.695-572.58,767.589z M-575.738,767.544c-1.679-0.238-3.412-0.842-5.219-1.977
		c-0.151-0.096-0.3-0.181-0.452-0.27v2.167L-575.738,767.544L-575.738,767.544z"/>
	<path id="path6570-1" inkscape:connector-curvature="0" fill="#FFFFFF" d="M-524.3,759.708c-3.205-0.016-6.325,0.784-9.43,2.505
		c-3.091,1.712-4.633,2.241-5.98,2.219c-1.347-0.019-3.092-0.665-6.333-2.167c-7.08-3.281-12.139-2.161-17.93,0.02
		c-2.941,1.106-5.62,2.276-8.107,2.678c-2.487,0.405-4.724,0.209-7.525-1.551c-0.598-0.375-1.2-0.7-1.805-0.986v5.816
		c3.506,1.919,7.029,2.247,10.144,1.74c3.381-0.548,6.34-1.907,9.087-2.942c5.589-2.105,7.967-2.961,14-0.163
		c3.315,1.536,5.671,2.596,8.39,2.639c2.719,0.042,5.202-1.018,8.52-2.858c5.719-3.165,10.107-2.644,17.455,1.363
		c4.122,2.246,7.77,3.242,11.329,3.053c3.561-0.186,6.839-1.48,10.488-3.274c2.882-1.418,5.55-1.949,8.196-1.825v-4.989
		c-3.398-0.134-6.889,0.501-10.444,2.251c-3.421,1.683-6.026,2.631-8.507,2.763c-2.482,0.128-5.035-0.484-8.63-2.443
		c-4.037-2.201-7.85-3.52-11.54-3.798c-0.462-0.034-0.921-0.052-1.379-0.054V759.708z"/>
	<path id="rect6574-4" inkscape:connector-curvature="0" fill="#FFFFFF" d="M-579.745,706.955c-7.887,0-14.328,6.441-14.328,14.33
		v96.545c0,7.891,6.44,14.33,14.328,14.33h95.117c7.889,0,14.333-6.439,14.333-14.33v-96.545c0-7.889-6.444-14.33-14.333-14.33
		H-579.745z M-579.745,712.879h95.117c4.712,0,8.413,3.696,8.413,8.407v96.545c0,4.714-3.702,8.41-8.413,8.41h-95.117
		c-4.71,0-8.407-3.697-8.407-8.41v-96.545C-588.152,716.574-584.455,712.879-579.745,712.879z"/>
	<path id="path6195" inkscape:connector-curvature="0" fill="#FFFFFF" d="M-565.016,776.802v16.323h-4.509V782.43
		c-0.731,0.554-1.439,1.003-2.124,1.346c-0.678,0.342-1.532,0.673-2.562,0.985v-3.656c1.518-0.489,2.697-1.077,3.537-1.763
		c0.839-0.684,1.495-1.531,1.97-2.54H-565.016L-565.016,776.802z"/>
	<path id="path6198" inkscape:connector-curvature="0" fill="#FFFFFF" d="M-560.895,782.623c0-3.05,0.546-5.182,1.641-6.404
		c1.103-1.218,2.777-1.827,5.026-1.827c1.08,0,1.966,0.137,2.66,0.405c0.693,0.263,1.258,0.611,1.697,1.039
		c0.438,0.425,0.78,0.871,1.029,1.349c0.256,0.467,0.459,1.012,0.613,1.64c0.299,1.199,0.449,2.445,0.449,3.743
		c0,2.914-0.492,5.043-1.478,6.393c-0.985,1.35-2.682,2.026-5.091,2.026c-1.349,0-2.44-0.216-3.273-0.646
		c-0.832-0.432-1.515-1.063-2.047-1.894c-0.388-0.591-0.69-1.397-0.909-2.419C-560.79,785-560.895,783.865-560.895,782.623
		L-560.895,782.623z M-556.474,782.636c0,2.043,0.18,3.441,0.536,4.192c0.367,0.745,0.892,1.117,1.578,1.117
		c0.451,0,0.842-0.159,1.17-0.472c0.336-0.323,0.581-0.824,0.734-1.511c0.161-0.685,0.242-1.755,0.242-3.207
		c0-2.13-0.184-3.562-0.548-4.293c-0.358-0.734-0.897-1.105-1.62-1.105c-0.738,0-1.27,0.377-1.598,1.127
		C-556.31,779.23-556.474,780.613-556.474,782.636L-556.474,782.636z"/>
	<path id="path6201" inkscape:connector-curvature="0" fill="#FFFFFF" d="M-530.345,781.822c0-3.051,0.548-5.186,1.642-6.404
		c1.104-1.219,2.778-1.83,5.025-1.83c1.08,0,1.968,0.137,2.661,0.407c0.693,0.261,1.259,0.608,1.697,1.04
		c0.438,0.422,0.781,0.871,1.028,1.345c0.256,0.467,0.461,1.016,0.615,1.644c0.299,1.196,0.448,2.444,0.448,3.743
		c0,2.911-0.493,5.039-1.478,6.393c-0.985,1.348-2.683,2.023-5.09,2.023c-1.351,0-2.441-0.214-3.274-0.646
		c-0.832-0.43-1.514-1.063-2.048-1.894c-0.386-0.591-0.688-1.396-0.908-2.417C-530.238,784.198-530.345,783.063-530.345,781.822
		L-530.345,781.822z M-525.922,781.832c0,2.043,0.179,3.44,0.537,4.195c0.365,0.741,0.89,1.113,1.576,1.113
		c0.453,0,0.843-0.157,1.172-0.47c0.336-0.322,0.581-0.826,0.734-1.51c0.159-0.685,0.24-1.755,0.24-3.208
		c0-2.132-0.182-3.562-0.547-4.292c-0.357-0.737-0.897-1.104-1.621-1.104c-0.736,0-1.27,0.374-1.597,1.127
		C-525.758,778.429-525.922,779.812-525.922,781.832L-525.922,781.832z"/>
	<path id="path6204" inkscape:connector-curvature="0" fill="#FFFFFF" d="M-534.465,776.321v16.32h-4.51v-10.695
		c-0.729,0.556-1.438,1.005-2.123,1.349c-0.679,0.342-1.532,0.67-2.561,0.985v-3.656c1.516-0.489,2.695-1.077,3.535-1.763
		c0.839-0.687,1.495-1.534,1.971-2.54H-534.465L-534.465,776.321z"/>
	<path id="path6207" inkscape:connector-curvature="0" fill="#FFFFFF" d="M-513.111,784.875c0-3.053,0.547-5.185,1.641-6.404
		c1.103-1.221,2.778-1.829,5.026-1.829c1.081,0,1.967,0.136,2.661,0.404c0.692,0.263,1.258,0.611,1.697,1.039
		c0.437,0.425,0.781,0.874,1.029,1.349c0.256,0.467,0.46,1.012,0.613,1.64c0.299,1.199,0.448,2.445,0.448,3.743
		c0,2.913-0.493,5.043-1.477,6.394c-0.986,1.349-2.683,2.025-5.092,2.025c-1.349,0-2.441-0.216-3.274-0.646
		c-0.831-0.43-1.515-1.063-2.047-1.894c-0.387-0.591-0.69-1.397-0.909-2.42C-513.006,787.25-513.111,786.116-513.111,784.875
		L-513.111,784.875z M-508.688,784.885c0,2.042,0.179,3.439,0.537,4.191c0.365,0.745,0.891,1.117,1.576,1.117
		c0.453,0,0.843-0.159,1.172-0.472c0.336-0.321,0.58-0.825,0.733-1.512c0.161-0.685,0.241-1.753,0.241-3.206
		c0-2.13-0.183-3.562-0.547-4.293c-0.358-0.734-0.897-1.105-1.62-1.105c-0.737,0-1.27,0.377-1.598,1.127
		C-508.523,781.479-508.688,782.862-508.688,784.885L-508.688,784.885z"/>
	<path id="path6210" inkscape:connector-curvature="0" fill="#FFFFFF" d="M-532.984,802.717v16.324h-4.51v-10.696
		c-0.729,0.553-1.437,1.002-2.123,1.345c-0.679,0.343-1.532,0.673-2.562,0.986v-3.657c1.519-0.489,2.697-1.074,3.536-1.762
		c0.839-0.685,1.497-1.532,1.971-2.54H-532.984z"/>
	<path id="path6213" inkscape:connector-curvature="0" fill="#FFFFFF" d="M-560.502,809.505c0-3.05,0.547-5.187,1.642-6.404
		c1.103-1.219,2.777-1.83,5.025-1.83c1.079,0,1.967,0.136,2.66,0.404c0.693,0.263,1.259,0.611,1.697,1.04
		c0.438,0.424,0.781,0.874,1.03,1.348c0.256,0.467,0.46,1.015,0.613,1.641c0.299,1.196,0.449,2.444,0.449,3.745
		c0,2.912-0.492,5.041-1.478,6.392c-0.985,1.351-2.682,2.026-5.091,2.026c-1.35,0-2.441-0.217-3.273-0.646
		c-0.833-0.432-1.515-1.063-2.049-1.894c-0.386-0.591-0.688-1.398-0.907-2.42C-560.396,811.881-560.502,810.744-560.502,809.505
		L-560.502,809.505z M-556.079,809.516c0,2.043,0.179,3.44,0.536,4.193c0.367,0.745,0.892,1.117,1.576,1.117
		c0.453,0,0.844-0.156,1.172-0.473c0.336-0.32,0.581-0.823,0.734-1.509c0.159-0.687,0.24-1.757,0.24-3.21
		c0-2.129-0.182-3.56-0.547-4.29c-0.357-0.737-0.896-1.106-1.621-1.106c-0.736,0-1.27,0.377-1.597,1.129
		C-555.914,806.11-556.079,807.492-556.079,809.516L-556.079,809.516z"/>
	<path id="path6216" inkscape:connector-curvature="0" fill="#FFFFFF" d="M-518.581,799.825v16.321h-4.51v-10.694
		c-0.729,0.554-1.437,1.003-2.123,1.346c-0.679,0.345-1.532,0.673-2.562,0.986v-3.657c1.519-0.489,2.697-1.077,3.536-1.763
		c0.839-0.685,1.495-1.531,1.97-2.539H-518.581L-518.581,799.825z"/>
	<path id="path6219" inkscape:connector-curvature="0" fill="#FFFFFF" d="M-504.178,801.592v16.324h-4.51v-10.696
		c-0.73,0.553-1.439,1.002-2.123,1.346c-0.681,0.342-1.533,0.673-2.563,0.985v-3.656c1.519-0.489,2.697-1.075,3.536-1.763
		c0.841-0.685,1.496-1.531,1.972-2.54H-504.178z"/>
	<path id="path6222" inkscape:connector-curvature="0" fill="#FFFFFF" d="M-489.775,800.147v16.322h-4.51v-10.696
		c-0.73,0.556-1.437,1.005-2.125,1.348c-0.678,0.342-1.531,0.67-2.56,0.985v-3.656c1.518-0.489,2.697-1.077,3.536-1.763
		c0.839-0.687,1.495-1.534,1.97-2.54H-489.775z"/>
	<path id="path6588-7" inkscape:connector-curvature="0" fill="#FFFFFF" d="M-248.666,777.47c-1.723-0.018-3.131,1.365-3.15,3.086
		c-0.004,0.414,0.078,0.826,0.233,1.209c3.636,9.233,4.721,20.224,1.719,29.917c-0.537,1.636,0.358,3.396,1.995,3.932
		c1.633,0.534,3.391-0.357,3.928-1.993c0.008-0.029,0.019-0.062,0.031-0.091c3.512-11.347,2.217-23.657-1.875-34.046
		C-246.235,778.282-247.382,777.483-248.666,777.47z"/>
	<path id="path6590-0" inkscape:connector-curvature="0" fill="#FFFFFF" d="M-258.027,746.725c-1.723-0.024-3.135,1.349-3.162,3.068
		c-0.008,0.519,0.113,1.033,0.354,1.492c4.371,8.626,8.338,18.126,9.011,28.015c0.669,9.89-1.781,20.217-10.769,31.258
		c-1.112,1.315-0.949,3.281,0.362,4.391c1.318,1.114,3.282,0.951,4.395-0.363c0.023-0.032,0.051-0.061,0.078-0.094
		c9.863-12.118,12.908-24.351,12.15-35.612c-0.766-11.259-5.157-21.506-9.665-30.407
		C-255.791,747.418-256.852,746.742-258.027,746.725L-258.027,746.725z"/>
	<path id="circle6592-9" inkscape:connector-curvature="0" fill="#FFFFFF" d="M-254.663,734.334c0,6.024-4.885,10.904-10.905,10.904
		c-6.024,0-10.905-4.88-10.905-10.904c0-6.021,4.881-10.901,10.905-10.901C-259.548,723.433-254.663,728.313-254.663,734.334z"/>
	<path id="path6594-6" inkscape:connector-curvature="0" fill="#FFFFFF" d="M-255.612,751.406c-1.719-0.054-3.158,1.294-3.212,3.014
		c-0.051,1.514,0.992,2.842,2.477,3.15l25.641,5.711c1.672,0.4,3.352-0.633,3.753-2.306c0.404-1.672-0.63-3.353-2.302-3.755
		c-0.035-0.008-0.066-0.016-0.093-0.02l-25.645-5.709C-255.196,751.441-255.406,751.414-255.612,751.406z"/>
	<path id="path6598-3" inkscape:connector-curvature="0" fill="#FFFFFF" d="M-210.871,764.749c-0.544,2.263-0.898,4.555-0.07,6.697
		c0.825,2.14,2.897,3.773,6.184,4.565c3.282,0.79,6.876,0.675,9.925-0.246c3.045-0.918,5.729-2.713,6.421-5.607
		c0.7-2.89-0.871-5.712-3.166-7.916c-2.295-2.206-5.437-3.946-8.723-4.738c-3.282-0.789-5.873-0.281-7.584,1.248
		C-209.595,760.283-210.323,762.485-210.871,764.749z M-208.048,765.427c0.498-2.065,1.167-3.674,2.096-4.51
		c0.937-0.836,2.236-1.246,4.97-0.588c2.738,0.658,5.523,2.207,7.393,4.007c1.871,1.8,2.703,3.705,2.357,5.145
		c-0.346,1.437-1.956,2.757-4.441,3.507c-2.489,0.75-5.674,0.859-8.404,0.199c-2.738-0.658-3.706-1.614-4.158-2.786
		C-208.685,769.232-208.545,767.495-208.048,765.427L-208.048,765.427z"/>
	<path id="path6600-7" inkscape:connector-curvature="0" fill="#FFFFFF" d="M-228.893,759.059l-0.622,2.838l20.072,4.413
		l0.626-2.835L-228.893,759.059z"/>
	<path id="path6602-7" inkscape:connector-curvature="0" fill="#FFFFFF" d="M-232.775,804.662c8.859-0.449,17.746-2.765,24.719-7.88
		c6.18-4.488,10.641-11.393,11.979-18.88c0.957,2.14,1.085,5.834-0.443,10.117c-1.54,4.315-4.613,8.733-9.116,12.089
		c-4.912,3.624-10.528,5.545-15.654,6.109C-226.342,806.772-230.531,805.979-232.775,804.662L-232.775,804.662z"/>
	<path id="path6604-8" inkscape:connector-curvature="0" fill="#FFFFFF" d="M-200.678,758.799
		c-2.54,5.265-3.761,10.518-3.796,15.716l2.178,0.015c0.031-4.868,1.167-9.777,3.582-14.782L-200.678,758.799L-200.678,758.799z"/>
	<path id="path6606-5" inkscape:connector-curvature="0" fill="#FFFFFF" d="M-209.444,766.491l-0.494,2.12l6.678,1.561l0.498-2.117
		L-209.444,766.491z"/>
	<path id="path6608-0" inkscape:connector-curvature="0" fill="#FFFFFF" d="M-208.195,761.547l-0.459,2.129l6.65,1.442l0.463-2.129
		L-208.195,761.547z"/>
	<path id="rect6610-6" inkscape:connector-curvature="0" fill="#FFFFFF" d="M-280.187,706.955c-7.887,0-14.331,6.441-14.331,14.33
		v96.545c0,7.891,6.444,14.33,14.331,14.33h95.117c7.891,0,14.331-6.439,14.331-14.33v-96.545c0-7.889-6.44-14.33-14.331-14.33
		H-280.187z M-280.187,712.879h95.117c4.714,0,8.412,3.696,8.412,8.407v96.545c0,4.714-3.699,8.41-8.412,8.41h-95.117
		c-4.71,0-8.408-3.697-8.408-8.41v-96.545C-288.595,716.574-284.897,712.879-280.187,712.879z"/>
	<path id="path6669" inkscape:connector-curvature="0" fill="#FFFFFF" d="M-533.314,745.67l-18.099,0.067
		c-1.724,0.003-3.12,1.4-3.12,3.126c0.002,1.722,1.4,3.12,3.125,3.12c0.007,0,0.013,0,0.019,0l16.456-0.062l4.878,7.039
		c1.897-0.615,3.811-0.913,5.755-0.903c0.416,0,0.832,0.019,1.251,0.047l-7.688-11.09
		C-531.322,746.167-532.286,745.665-533.314,745.67z"/>
</g>
<g>
	<g id="g5568" transform="matrix(0.45564068,0,0,0.45564068,440.09946,-413.70432)">
		<path id="path6228" inkscape:connector-curvature="0" fill="#FFFFFF" d="M-923.989,1132.357l-13.248-12.669v33.049h-13.104
			v-60.854l26.352,23.002l26.493-23.149v16.014L-923.989,1132.357L-923.989,1132.357z M-910.594,1124.496l13.099-12.086v40.328
			h-13.099V1124.496z"/>
		<path id="path6230" inkscape:connector-curvature="0" fill="#FFFFFF" d="M-877.099,1104.986h20.819v11.211h-17.761v16.598
			l15.577,19.945h16.16l-18.638-23.878h12.377c3.689,0,5.534-1.794,5.534-5.386v-25.769c0-3.787-1.845-5.68-5.534-5.68h-36.109
			c-3.589,0-5.386,1.843-5.386,5.534v55.179h12.96V1104.986L-877.099,1104.986z"/>
		<path id="path6232" inkscape:connector-curvature="0" fill="#FFFFFF" d="M-809.395,1132.357l-13.245-12.669v33.049h-13.106
			v-60.854l26.352,23.002l26.499-23.149v16.014L-809.395,1132.357z M-795.999,1124.496l13.104-12.086v40.328h-13.104V1124.496z"/>
		<path id="path6234" inkscape:connector-curvature="0" fill="#FFFFFF" d="M-759.302,1092.027h25.625v12.81h-25.625V1092.027z
			 M-762.356,1092.027v48.189h28.679v12.523h-36.397c-3.594,0-5.388-1.845-5.388-5.532v-49.795c0-3.59,1.794-5.386,5.388-5.386
			H-762.356z"/>
		<path id="path6236" inkscape:connector-curvature="0" fill="#FFFFFF" d="M-726.268,1092.027v60.713h38.582
			c0.875,0,1.796-0.292,2.769-0.875c1.067-0.581,1.989-1.312,2.765-2.186c0.87-0.87,1.552-1.794,2.036-2.765
			c0.583-1.067,0.87-2.038,0.87-2.913v-46.588c0-3.59-1.646-5.386-4.947-5.386h-25.916v12.521h17.618v35.377h-20.674v-47.898
			H-726.268L-726.268,1092.027z"/>
		<path id="path6238" inkscape:connector-curvature="0" fill="#FFFFFF" d="M-625.222,1140.217v12.523h-46.882v-30.865
			c0-1.648,0.437-3.009,1.312-4.079c0.874-1.065,2.135-1.599,3.785-1.599h8.012v24.02H-625.222z M-630.465,1092.027
			c3.498,0,5.242,1.796,5.242,5.386v26.352c0,3.399-1.745,5.097-5.242,5.097h-25.329v-12.665h17.468v-11.359h-33.778v-12.81
			H-630.465L-630.465,1092.027z"/>
		<path id="path6240" inkscape:connector-curvature="0" fill="#FFFFFF" d="M-584.148,1104.838v35.379h-20.678v-35.379H-584.148z
			 M-612.542,1092.027c-3.592,0-5.384,1.796-5.384,5.386v50.084c0,3.494,1.792,5.24,5.384,5.24h36.688
			c3.301,0,4.951-1.747,4.951-5.24v-49.79c0-3.787-1.843-5.68-5.534-5.68H-612.542L-612.542,1092.027z"/>
		<path id="path6242" inkscape:connector-curvature="0" fill="#FFFFFF" d="M-551.241,1152.74h13.1v-60.713h-13.1V1152.74z
			 M-563.616,1104.986h9.465v-12.958h-9.465V1104.986z"/>
		<path id="path6244" inkscape:connector-curvature="0" fill="#FFFFFF" d="M-530.631,1152.74h41.202c1.65,0,3.009-0.682,4.081-2.04
			c1.063-1.357,1.595-2.861,1.595-4.512v-23.441c0-1.65-0.579-3.155-1.745-4.512c-1.166-1.361-2.572-2.038-4.222-2.038h-7.133v24.02
			h-33.778v12.521V1152.74z M-483.895,1092.027h-46.736v36.834h30.867v-12.665h-17.763v-11.359h33.632V1092.027L-483.895,1092.027z"
			/>
	</g>
	<g id="g5973" transform="translate(8.4666665,1.78333)">
		<path id="path6142" inkscape:connector-curvature="0" fill="#FFFFFF" d="M7.222,117.955v2.351H1.023v2.084h3.206v2.325h-4.622
			c-0.66,0-0.989-0.312-0.989-0.936v-4.837c0-0.657,0.329-0.987,0.989-0.987H7.222L7.222,117.955z M4.817,126.799v-4.409h1.47
			c0.302,0,0.534,0.098,0.694,0.294c0.161,0.195,0.241,0.445,0.241,0.748v4.703c0,0.642-0.293,0.962-0.883,0.962h-7.72v-2.298H4.817
			L4.817,126.799z"/>
		<path id="path6144" inkscape:connector-curvature="0" fill="#FFFFFF" d="M11.55,117.955h4.703v2.351H11.55V117.955z
			 M10.99,117.955v8.844h5.264v2.298h-6.68c-0.658,0-0.987-0.339-0.987-1.016v-9.139c0-0.657,0.329-0.987,0.987-0.987H10.99
			L10.99,117.955z"/>
		<path id="path6146" inkscape:connector-curvature="0" fill="#FFFFFF" d="M23.225,124.715H19.99v4.382h-2.404v-11.142h2.404v4.434
			h3.234v2.324V124.715z M26.19,117.955v11.142h-2.404v-11.142H26.19z"/>
		<path id="path6148" inkscape:connector-curvature="0" fill="#FFFFFF" d="M27.528,117.901l8.604,8.016v3.259l-6.199-5.717v5.638
			h-2.404V117.901L27.528,117.901z M33.754,117.955h2.378v7.105l-2.378-2.163V117.955z"/>
		<path id="path6150" inkscape:connector-curvature="0" fill="#FFFFFF" d="M38.484,129.097h6.679v-2.352h-5.264v-6.493h5.264v-2.297
			h-6.679c-0.66,0-0.989,0.338-0.989,1.016v9.137C37.495,128.767,37.824,129.097,38.484,129.097z M40.487,122.39v2.325h3.741v-2.325
			H40.487z"/>
		<path id="path6152" inkscape:connector-curvature="0" fill="#FFFFFF" d="M48.927,129.097v-11.142h-2.404v10.152
			c0,0.677,0.329,1.015,0.987,1.015L48.927,129.097L48.927,129.097z M49.489,129.097h4.221v-2.298h-4.221V129.097z"/>
		<path id="path6154" inkscape:connector-curvature="0" fill="#FFFFFF" d="M57.485,129.097v-11.142h-2.404v10.152
			c-0.001,0.677,0.33,1.015,0.988,1.015L57.485,129.097z M58.047,129.097h4.219v-2.298h-4.219V129.097z"/>
		<path id="path6156" inkscape:connector-curvature="0" fill="#FFFFFF" d="M64.628,129.097h6.679v-2.352h-5.264v-6.493h5.264v-2.297
			h-6.679c-0.658,0-0.988,0.338-0.988,1.016v9.137C63.639,128.767,63.969,129.097,64.628,129.097z M66.631,122.39v2.325h3.74v-2.325
			H66.631z"/>
		<path id="path6158" inkscape:connector-curvature="0" fill="#FFFFFF" d="M75.045,120.332h3.82v2.058h-3.26v3.047l2.859,3.66h2.965
			l-3.42-4.382h2.271c0.677,0,1.017-0.33,1.017-0.989v-4.729c0-0.695-0.34-1.041-1.017-1.041h-6.627
			c-0.658,0-0.988,0.338-0.988,1.016v10.126h2.379V120.332z"/>
		<path id="path6160" inkscape:connector-curvature="0" fill="#FFFFFF" d="M82.632,129.097h2.404v-2.298h-2.404V129.097z"/>
		<path id="path6162" inkscape:connector-curvature="0" fill="#FFFFFF" d="M98.734,124.715h-3.233v4.382h-2.405v-11.142h2.405v4.434
			h3.233v2.324V124.715z M101.699,117.955v11.142h-2.404v-11.142H101.699z"/>
		<path id="path6164" inkscape:connector-curvature="0" fill="#FFFFFF" d="M110.68,129.097h-1.418v-8.845h-3.794v6.493h3.208v2.352
			h-4.651c-0.658,0-0.988-0.33-0.988-0.989v-9.244c0-0.606,0.294-0.908,0.883-0.908h6.731c0.678,0,1.018,0.302,1.018,0.908v9.297
			C111.668,128.784,111.336,129.097,110.68,129.097L110.68,129.097z M110.17,116.805h-2.404v-2.297h2.404V116.805z M106.938,116.805
			h-2.405v-2.297h2.405V116.805z"/>
		<path id="path6166" inkscape:connector-curvature="0" fill="#FFFFFF" d="M118.615,124.715h-3.232v4.382h-2.406v-11.142h2.406
			v4.434h3.232v2.324V124.715z M121.58,117.955v11.142h-2.404v-11.142H121.58z"/>
		<path id="path6168" inkscape:connector-curvature="0" fill="#FFFFFF" d="M123.906,129.097h6.68v-2.352h-5.264v-6.493h5.264v-2.297
			h-6.68c-0.658,0-0.988,0.338-0.988,1.016v9.137C122.918,128.767,123.248,129.097,123.906,129.097z M125.912,122.39v2.325h3.74
			v-2.325H125.912z"/>
		<path id="path6170" inkscape:connector-curvature="0" fill="#FFFFFF" d="M134.324,120.332h3.82v2.058h-3.26v3.047l2.859,3.66
			h2.967l-3.422-4.382h2.271c0.678,0,1.018-0.33,1.018-0.989v-4.729c0-0.695-0.34-1.041-1.018-1.041h-6.625
			c-0.66,0-0.988,0.338-0.988,1.016v10.126h2.377V120.332z"/>
		<path id="path6172" inkscape:connector-curvature="0" fill="#FFFFFF" d="M141.912,129.097h2.406v-2.298h-2.406V129.097z"/>
		<path id="path6174" inkscape:connector-curvature="0" fill="#FFFFFF" d="M159.697,123.138v-5.183h2.404v7.4L159.697,123.138
			L159.697,123.138z M152.402,117.955h2.404v6.064l2.432-2.297l4.863,4.488v2.938l-4.836-4.222l-4.863,4.222V117.955
			L152.402,117.955z"/>
		<path id="path6176" inkscape:connector-curvature="0" fill="#FFFFFF" d="M164.453,129.097h6.68v-2.352h-5.264v-6.493h5.264v-2.297
			h-6.68c-0.658,0-0.988,0.338-0.988,1.016v9.137C163.465,128.767,163.795,129.097,164.453,129.097z M166.459,122.39v2.325h3.738
			v-2.325H166.459z"/>
		<path id="path6178" inkscape:connector-curvature="0" fill="#FFFFFF" d="M179.467,117.955v2.377h-2.217v6.386h2.217v2.379h-4.596
			v-8.765h-2.377v-2.377H179.467L179.467,117.955z M174.311,126.718v2.379h-1.816v-2.379H174.311z"/>
		<path id="path6180" inkscape:connector-curvature="0" fill="#FFFFFF" d="M185.76,129.097h-2.377v-8.765h-2.592v-2.377h4.969
			V129.097z M188.484,120.332h-2.164v-2.377h2.164V120.332z"/>
		<path id="path6182" inkscape:connector-curvature="0" fill="#FFFFFF" d="M190.807,129.097h6.68v-2.352h-5.264v-6.493h5.264v-2.297
			h-6.68c-0.658,0-0.988,0.338-0.988,1.016v9.137C189.818,128.767,190.149,129.097,190.807,129.097z M192.811,122.39v2.325h3.74
			v-2.325H192.811z"/>
		<path id="path6184" inkscape:connector-curvature="0" fill="#FFFFFF" d="M201.223,120.332h3.82v2.058h-3.258v3.047l2.859,3.66
			h2.965l-3.42-4.382h2.271c0.676,0,1.016-0.33,1.016-0.989v-4.729c0-0.695-0.34-1.041-1.016-1.041h-6.627
			c-0.658,0-0.99,0.338-0.99,1.016v10.126h2.381v-8.765H201.223z"/>
		<path id="path6186" inkscape:connector-curvature="0" fill="#FFFFFF" d="M208.813,129.097h2.404v-2.298h-2.404V129.097z"/>
	</g>
	<g id="text5969">
		<path id="path6001" fill="#FFFFFF" d="M111.56,142.49h-3.226v4.371h-2.399v-11.115h2.399v4.426h3.226V142.49z M114.518,135.746
			v11.115h-2.398v-11.115H114.518z"/>
		<path id="path6003" fill="#FFFFFF" d="M124.436,135.746v2.345h-6.184v2.081h3.199v2.318h-4.611c-0.658,0-0.986-0.312-0.986-0.933
			v-4.825c0-0.656,0.328-0.985,0.986-0.986H124.436L124.436,135.746z M122.037,144.569v-4.397h1.467
			c0.303,0,0.531,0.097,0.691,0.292c0.16,0.196,0.24,0.445,0.24,0.748v4.69c0,0.64-0.293,0.959-0.879,0.959h-7.703v-2.292H122.037
			L122.037,144.569z"/>
		<path id="path6005" fill="#FFFFFF" d="M132.461,135.746v11.115h7.063c0.16,0,0.33-0.054,0.508-0.159
			c0.195-0.107,0.363-0.241,0.506-0.4c0.16-0.16,0.283-0.329,0.373-0.507c0.107-0.195,0.16-0.374,0.16-0.533v-8.529
			c0-0.658-0.303-0.986-0.908-0.986h-4.744v2.293h3.227v6.477h-3.787v-8.77H132.461z"/>
		<path id="path6007" fill="#FFFFFF" d="M142.404,146.861h2.398v-4.371h3.785v4.371h2.426v-10.075c0-0.694-0.338-1.039-1.014-1.04
			h-4.639v2.345h3.227v2.081h-3.785v-4.426h-1.414c-0.656,0.001-0.984,0.338-0.984,1.014V146.861z"/>
		<path id="path6009" fill="#FFFFFF" d="M152.348,146.861h2.371v-8.742h3.811v2.053h-3.25v3.039l2.852,3.65h2.959l-3.412-4.371
			h2.266c0.674,0,1.014-0.329,1.014-0.986v-4.718c0-0.694-0.34-1.039-1.014-1.04h-7.596V146.861L152.348,146.861z"/>
		<path id="path6011" fill="#FFFFFF" d="M167.09,143.13l2.426-2.318v6.05h2.398V135.72l-4.824,4.211l-4.852-4.238v2.932
			L167.09,143.13L167.09,143.13z M164.637,141.691l-2.398-2.214v7.384h2.398V141.691z"/>
		<path id="path6013" fill="#FFFFFF" d="M175.623,138.091v4.399h-1.414c-0.656,0-0.986-0.312-0.986-0.933v-4.825
			c0-0.656,0.33-0.985,0.986-0.986h7.598v2.345H175.623L175.623,138.091z M180.873,140.172c0.303,0,0.533,0.097,0.693,0.292
			c0.16,0.196,0.24,0.445,0.24,0.748v4.69c0,0.64-0.293,0.959-0.881,0.959h-7.701v-2.292h6.182v-2.079h-3.225v-2.318H180.873
			L180.873,140.172z"/>
		<path id="path6015" fill="#FFFFFF" d="M185.807,146.861h2.398v-8.742h2.586v-2.373h-4.984V146.861z M183.113,138.119h2.16v-2.373
			h-2.16V138.119z"/>
		<path id="path6017" fill="#FFFFFF" d="M192.121,136.76c0-0.676,0.328-1.013,0.986-1.014h6.609c0.676,0.001,1.014,0.346,1.014,1.04
			v10.075h-2.426v-4.371h-3.225v-2.318h3.225v-2.081h-3.785v8.771h-2.398V136.76L192.121,136.76z"/>
		<path id="path6019" fill="#FFFFFF" d="M208.248,138.039v6.477h-3.225v2.346h4.104c0.16,0,0.33-0.054,0.508-0.159
			c0.195-0.107,0.363-0.241,0.506-0.4c0.16-0.159,0.285-0.329,0.373-0.507c0.107-0.195,0.16-0.374,0.16-0.533v-8.529
			c0-0.656-0.303-0.985-0.906-0.986h-7.703v11.115h2.398v-8.822H208.248L208.248,138.039z"/>
		<path id="path6021" fill="#FFFFFF" d="M214.699,146.861h2.398v-8.742h2.586v-2.373h-4.984V146.861z M212.008,138.119h2.158v-2.373
			h-2.158V138.119z"/>
	</g>
	<g id="text4654">
		<path id="path4678" fill="#FFFFFF" d="M12.161,140.155v-4.462h2.405v4.408h1.096v2.352h-1.123v4.408h-2.378v-4.408h-2.11v-2.298
			H12.161L12.161,140.155z M9.49,135.693v6.76H7.967c-0.356,0-0.597-0.081-0.721-0.24c-0.108-0.179-0.161-0.419-0.161-0.721v-5.799
			H9.49L9.49,135.693z"/>
		<path id="path4680" fill="#FFFFFF" d="M17,146.861h2.404v-2.298H17V146.861z"/>
		<path id="path4682" fill="#FFFFFF" d="M20.757,142.48h3.768v-2.324h-3.768V142.48z"/>
		<path id="path4684" fill="#FFFFFF" d="M28.276,146.861h-1.417c-0.658,0-0.989-0.32-0.989-0.962v-9.19
			c0-0.659,0.331-0.989,0.989-0.989h7.614v2.351h-6.198v2.085h5.234c0.25,0,0.473,0.115,0.671,0.348
			c0.195,0.214,0.292,0.463,0.292,0.748v4.648c0,0.642-0.292,0.962-0.881,0.962h-4.756v-2.298h3.231v-2.084h-3.792V146.861z"/>
		<path id="path4686" fill="#FFFFFF" d="M35.786,146.861h2.404v-2.298h-2.404V146.861z"/>
		<path id="path4688" fill="#FFFFFF" d="M54.878,135.72v2.351h-6.199v2.085h3.206v2.324h-4.622c-0.659,0-0.988-0.312-0.988-0.936
			v-4.835c0-0.659,0.329-0.989,0.988-0.989H54.878z M52.474,144.564v-4.408h1.469c0.303,0,0.534,0.098,0.694,0.294
			s0.241,0.445,0.241,0.749v4.701c0,0.642-0.294,0.962-0.883,0.962h-7.721v-2.298H52.474L52.474,144.564z"/>
		<path id="path4690" fill="#FFFFFF" d="M59.182,140.155h3.739v2.324h-3.739V140.155z M56.19,135.72h7.667v2.351h-5.264v6.493h5.264
			v2.298H56.19v-11.14V135.72z"/>
		<path id="path4692" fill="#FFFFFF" d="M65.217,146.861h2.404v-8.791h3.82v2.085h-3.26v2.324h4.703c0.658,0,0.987-0.33,0.987-0.987
			v-4.729c0-0.695-0.329-1.043-0.987-1.043h-7.668V146.861L65.217,146.861z"/>
		<path id="path4694" fill="#FFFFFF" d="M75.183,146.861h2.405v-2.298h-2.405V146.861z"/>
	</g>
</g>
<g>
</g>
<g>
</g>
<g>
</g>
<g>
</g>
<g>
</g>
<g>
</g>
</svg>
