<?xml version="1.0" encoding="utf-8"?>
<!-- Generator: Adobe Illustrator 16.0.0, SVG Export Plug-In . SVG Version: 6.00 Build 0)  -->
<!DOCTYPE svg PUBLIC "-//W3C//DTD SVG 1.1//EN" "http://www.w3.org/Graphics/SVG/1.1/DTD/svg11.dtd">
<svg version="1.1" id="Ebene_1" xmlns="http://www.w3.org/2000/svg" xmlns:xlink="http://www.w3.org/1999/xlink" x="0px" y="0px"
	 width="538.583px" height="141.732px" viewBox="0 0 538.583 141.732" enable-background="new 0 0 538.583 141.732"
	 xml:space="preserve">
<rect y="0" width="538.583" height="141.732"/>
<g>
	<g>
		<path fill="#FFFFFF" d="M248.095,47.428c-1.067,0.001-1.593,1.3-0.825,2.044c9.869,9.846,11.861,26.631,1.389,37.947
			c-0.456,0.48-0.432,1.24,0.056,1.689c0.485,0.451,1.246,0.416,1.689-0.077c11.369-12.284,9.26-30.556-1.454-41.246
			C248.726,47.559,248.418,47.428,248.095,47.428z"/>
		<path fill="#FFFFFF" d="M249.232,27.826c-1.637,0.381-2.266,2.377-1.145,3.63l7.796,8.985l-8.274,10.227
			c-0.793,0.949-0.654,2.363,0.307,3.14c0.962,0.777,2.374,0.619,3.138-0.356l10.609-13.113l-10.231-11.787
			C250.893,27.917,250.043,27.635,249.232,27.826z"/>
		<path fill="#FFFFFF" d="M270.127,33.701c-5.308,1.248-9.672,3.314-12.612,5.313c-1.025,0.684-1.298,2.071-0.605,3.091
			c0.692,1.018,2.082,1.275,3.097,0.572c3.211-2.183,9.137-4.791,16.177-5.509s15.199,0.375,23.337,5.43
			c1.041,0.662,2.422,0.348,3.072-0.7s0.32-2.425-0.734-3.063c-9.031-5.606-18.276-6.872-26.125-6.072
			C273.774,32.964,271.897,33.288,270.127,33.701z"/>
		<path fill="#FFFFFF" d="M285.313,29.268c-3.199,0.834-6.266,1.997-9.05,3.49c-1.096,0.569-1.516,1.923-0.928,3.012
			c0.584,1.088,1.942,1.49,3.024,0.891c6.463-3.465,15.256-5.026,22.991-4.463c1.234,0.112,2.314-0.81,2.406-2.043
			c0.09-1.232-0.848-2.302-2.082-2.373C296.332,27.392,290.643,27.877,285.313,29.268z"/>
		<path fill="#FFFFFF" d="M250.089,38.227c0.464,2.001,0.115,4.108-0.97,5.852c-1.089,1.744-2.825,2.985-4.827,3.45
			c-2.001,0.466-4.107,0.116-5.852-0.971c-1.745-1.086-2.987-2.822-3.451-4.826c-0.463-2-0.115-4.106,0.971-5.853
			c1.088-1.744,2.825-2.985,4.827-3.449c2-0.464,4.106-0.116,5.851,0.971C248.382,34.487,249.624,36.225,250.089,38.227z"/>
		<path fill="#FFFFFF" d="M272.334,49.054c-0.656,0.012-1.178,0.55-1.17,1.208v37.941c-0.011,0.667,0.523,1.209,1.188,1.209
			c0.666,0,1.204-0.542,1.191-1.209V50.261C273.553,49.591,273.008,49.044,272.334,49.054z"/>
		<path fill="#FFFFFF" d="M267.214,45.22c-1.317,1.319-2.134,3.139-2.134,5.14s0.817,3.821,2.134,5.14l1.672-1.672
			c-0.884-0.885-1.431-2.108-1.431-3.466c0-1.361,0.547-2.584,1.431-3.468v-0.002L267.214,45.22z M277.494,45.22l-1.671,1.67v0.001
			c0.884,0.884,1.428,2.109,1.428,3.468c0,1.358-0.544,2.583-1.428,3.467l1.67,1.671h0.001c1.319-1.318,2.136-3.137,2.136-5.139
			S278.812,46.539,277.494,45.22z"/>
		<path fill="#FFFFFF" d="M280.786,41.928l-1.673,1.671c1.726,1.726,2.793,4.115,2.793,6.759c0,2.646-1.067,5.032-2.793,6.761
			l1.673,1.672c2.16-2.161,3.5-5.146,3.5-8.433C284.285,47.071,282.946,44.089,280.786,41.928z M263.923,41.928
			c-2.163,2.161-3.502,5.143-3.502,8.431c0,3.287,1.338,6.272,3.502,8.433l1.67-1.672c-1.726-1.729-2.793-4.116-2.793-6.761
			c0-2.643,1.067-5.033,2.793-6.759L263.923,41.928z"/>
		<path fill="#FFFFFF" d="M233.702,11.805h71.179c3.527,0,6.297,2.766,6.297,6.292v72.253c0,3.525-2.77,6.29-6.297,6.29h-71.179
			c-3.526,0-6.296-2.765-6.296-6.29V18.096C227.406,14.57,230.176,11.805,233.702,11.805z M233.702,7.375
			c-5.902,0-10.726,4.82-10.726,10.722v72.253c0,5.904,4.823,10.724,10.726,10.724h71.179c5.906,0,10.727-4.819,10.727-10.724
			V18.096c0-5.902-4.82-10.722-10.727-10.722H233.702z"/>
	</g>
	<g>
		<path fill="#009A42" d="M362.363,60.144c-1.668-0.016-2.813,1.671-2.182,3.215c2.721,6.909,3.535,15.136,1.287,22.389
			c-0.404,1.237,0.279,2.566,1.523,2.952c1.244,0.388,2.564-0.322,2.93-1.569c2.631-8.491,1.662-17.704-1.402-25.479
			C364.182,60.751,363.322,60.153,362.363,60.144z"/>
		<path fill="#009A42" d="M355.359,37.136c-1.768-0.026-2.92,1.846-2.102,3.411c3.27,6.458,6.24,13.564,6.742,20.965
			c0.502,7.402-1.332,15.13-8.059,23.393c-0.844,0.998-0.705,2.492,0.309,3.316c1.012,0.823,2.506,0.656,3.311-0.371
			c7.379-9.071,9.662-18.226,9.09-26.653s-3.861-16.094-7.232-22.755C357.031,37.653,356.236,37.151,355.359,37.136z"/>
		<path fill="#009A42" d="M357.875,27.864c0,2.165-0.859,4.239-2.393,5.77c-1.529,1.53-3.605,2.389-5.77,2.389
			s-4.238-0.859-5.768-2.389c-1.529-1.531-2.391-3.604-2.391-5.77c0-4.508,3.652-8.16,8.158-8.16
			C354.221,19.704,357.875,23.356,357.875,27.864z"/>
		<path fill="#009A42" d="M357.166,40.64c-2.85-0.094-3.344,4.031-0.553,4.613l19.189,4.274c1.27,0.302,2.537-0.491,2.818-1.761
			c0.283-1.27-0.529-2.527-1.805-2.791l-19.189-4.274C357.477,40.664,357.322,40.645,357.166,40.64z"/>
		<path fill="#009A42" d="M392.76,51.131c0.375-1.545,0.875-2.752,1.572-3.374c0.701-0.627,1.67-0.936,3.719-0.441
			c2.045,0.494,4.129,1.651,5.529,2.997c1.402,1.349,2.023,2.774,1.764,3.851c-0.258,1.077-1.463,2.064-3.322,2.626
			c-1.863,0.562-4.242,0.645-6.291,0.149c-2.047-0.495-2.771-1.21-3.111-2.084C392.285,53.979,392.389,52.678,392.76,51.131z
			 M390.65,50.622c-0.41,1.696-0.674,3.411-0.057,5.014c0.615,1.603,2.17,2.823,4.627,3.415s5.148,0.507,7.426-0.182
			c2.279-0.688,4.287-2.032,4.811-4.197c0.521-2.164-0.654-4.275-2.369-5.924c-1.719-1.651-4.07-2.954-6.531-3.545
			c-2.455-0.593-4.395-0.21-5.676,0.934C391.605,47.281,391.061,48.928,390.65,50.622z"/>
		
			<rect x="383.368" y="41.382" transform="matrix(-0.2148 0.9767 -0.9767 -0.2148 514.9766 -315.8606)" fill="#009A42" width="2.173" height="15.384"/>
		<path fill="#009A42" d="M374.256,80.494c6.629-0.336,13.279-2.068,18.5-5.898c4.623-3.359,7.963-8.526,8.967-14.127
			c0.713,1.6,0.809,4.365-0.336,7.569c-1.154,3.23-3.451,6.536-6.82,9.048c-3.678,2.712-7.881,4.147-11.715,4.57
			C379.068,82.073,375.934,81.478,374.256,80.494z"/>
		<path fill="#009A42" d="M398.277,46.169c-1.902,3.941-2.82,7.87-2.84,11.764l1.629,0.011c0.021-3.644,0.871-7.319,2.68-11.064
			l-1.469-0.708V46.169z"/>
		
			<rect x="393.196" y="50.754" transform="matrix(-0.2288 0.9735 -0.9735 -0.2288 536.0804 -318.0342)" fill="#009A42" width="1.63" height="5.131"/>
		
			<rect x="394.155" y="47.007" transform="matrix(-0.2143 0.9768 -0.9768 -0.2143 528.0284 -325.616)" fill="#009A42" width="1.631" height="5.096"/>
		<path fill="#009A42" d="M338.777,11.805h71.178c3.527,0,6.297,2.766,6.297,6.292v72.253c0,3.525-2.77,6.29-6.297,6.29h-71.178
			c-3.527,0-6.297-2.765-6.297-6.29V18.096C332.48,14.57,335.25,11.805,338.777,11.805z M338.777,7.375
			c-5.902,0-10.727,4.82-10.727,10.722v72.253c0,5.904,4.824,10.724,10.727,10.724h71.178c5.904,0,10.727-4.819,10.727-10.724
			V18.096c0-5.902-4.822-10.722-10.727-10.722H338.777z"/>
	</g>
	<g>
		<path fill="#F8AB08" d="M167.957,41.96c-0.447,0.004-0.882,0.138-1.255,0.382l-9.662,6.139c1.126,0.448,1.909,0.661,2.56,0.67
			c1.007,0.015,2.162-0.38,4.473-1.662c1.915-1.059,3.835-1.646,5.792-1.815C171,44.123,169.88,41.942,167.957,41.96z"/>
		<path fill="#F8AB08" d="M179.866,28.368c-2.169-0.001-4.249,0.859-5.781,2.394s-2.395,3.614-2.395,5.782
			c0,4.515,3.661,8.176,8.176,8.176c4.515,0,8.174-3.661,8.174-8.176C188.041,32.028,184.382,28.368,179.866,28.368z"/>
		<path fill="#F8AB08" d="M171.133,46.851c-2.397-0.01-4.733,0.589-7.06,1.875c-2.312,1.281-3.466,1.675-4.473,1.662
			c-1.009-0.017-2.313-0.499-4.74-1.624c-5.298-2.454-9.084-1.618-13.417,0.015c-2.202,0.83-4.208,1.702-6.069,2.007
			c-1.861,0.302-3.534,0.155-5.63-1.162c-0.449-0.28-0.899-0.523-1.351-0.739v4.353c2.624,1.436,5.258,1.682,7.59,1.303
			c2.531-0.411,4.745-1.427,6.8-2.203c4.183-1.575,5.96-2.216,10.477-0.122c2.481,1.149,4.244,1.942,6.277,1.976
			c2.035,0.029,3.896-0.762,6.378-2.138c4.279-2.372,7.563-1.979,13.062,1.02c3.085,1.681,5.815,2.424,8.479,2.284
			c2.665-0.142,5.117-1.107,7.849-2.45c2.157-1.063,4.153-1.46,6.134-1.367v-3.734c-2.545-0.101-5.156,0.374-7.817,1.683
			c-2.56,1.261-4.508,1.971-6.367,2.068c-1.856,0.097-3.767-0.361-6.457-1.827c-3.022-1.648-5.877-2.634-8.636-2.842
			C171.819,46.865,171.474,46.851,171.133,46.851z"/>
		<path fill="#F8AB08" d="M128.625,11.805h71.181c3.525,0,6.295,2.766,6.295,6.292v72.253c0,3.525-2.77,6.29-6.295,6.29h-71.181
			c-3.525,0-6.292-2.765-6.292-6.29V18.096C122.333,14.57,125.1,11.805,128.625,11.805z M128.625,7.375
			c-5.901,0-10.722,4.82-10.722,10.722v72.253c0,5.904,4.821,10.724,10.722,10.724h71.181c5.904,0,10.725-4.819,10.725-10.724
			V18.096c0-5.902-4.821-10.722-10.725-10.722H128.625z"/>
		<path fill="#F8AB08" d="M140.663,59.643v12.216h-3.376v-8.007c-0.546,0.416-1.075,0.752-1.589,1.008
			c-0.508,0.258-1.148,0.504-1.918,0.739v-2.737c1.136-0.367,2.02-0.804,2.647-1.319c0.626-0.513,1.12-1.146,1.475-1.899H140.663
			L140.663,59.643z"/>
		<path fill="#F8AB08" d="M147.055,64.009c0,1.529,0.134,2.575,0.401,3.139c0.273,0.558,0.667,0.837,1.179,0.837
			c0.34,0,0.63-0.119,0.877-0.354c0.252-0.241,0.434-0.617,0.548-1.129c0.121-0.513,0.182-1.313,0.182-2.402
			c0-1.593-0.138-2.663-0.412-3.211c-0.267-0.551-0.669-0.825-1.21-0.825c-0.551,0-0.952,0.282-1.196,0.844
			C147.177,61.46,147.055,62.496,147.055,64.009z M143.745,64.001c0-2.284,0.409-3.88,1.229-4.792
			c0.825-0.913,2.079-1.369,3.761-1.369c0.808,0,1.471,0.101,1.991,0.304c0.518,0.196,0.94,0.457,1.271,0.78
			c0.326,0.313,0.583,0.65,0.77,1.006c0.191,0.35,0.343,0.758,0.458,1.229c0.224,0.894,0.336,1.829,0.336,2.8
			c0,2.181-0.368,3.776-1.106,4.785c-0.736,1.011-2.007,1.515-3.809,1.515c-1.009,0-1.827-0.159-2.449-0.483
			c-0.624-0.32-1.133-0.793-1.532-1.416c-0.289-0.443-0.516-1.045-0.681-1.812C143.824,65.777,143.745,64.93,143.745,64.001z"/>
		<path fill="#F8AB08" d="M169.918,63.408c0,1.528,0.134,2.573,0.401,3.138c0.272,0.558,0.666,0.835,1.18,0.835
			c0.337,0,0.629-0.117,0.877-0.351c0.251-0.24,0.434-0.617,0.548-1.13c0.121-0.516,0.179-1.313,0.179-2.402
			c0-1.595-0.135-2.664-0.409-3.211c-0.268-0.552-0.673-0.827-1.212-0.827c-0.552,0-0.95,0.281-1.197,0.847
			C170.04,60.859,169.918,61.894,169.918,63.408z M166.608,63.399c0-2.281,0.41-3.881,1.228-4.792
			c0.826-0.911,2.078-1.366,3.76-1.366c0.808,0,1.473,0.099,1.991,0.302c0.52,0.196,0.944,0.455,1.271,0.778
			c0.329,0.314,0.584,0.654,0.771,1.006c0.191,0.352,0.343,0.761,0.458,1.23c0.226,0.896,0.336,1.83,0.336,2.801
			c0,2.18-0.369,3.775-1.106,4.785c-0.736,1.01-2.005,1.515-3.809,1.515c-1.01,0-1.826-0.16-2.448-0.483
			c-0.622-0.321-1.133-0.793-1.532-1.416c-0.291-0.443-0.516-1.045-0.681-1.81C166.688,65.177,166.608,64.329,166.608,63.399z"/>
		<path fill="#F8AB08" d="M163.523,59.282v12.215h-3.375v-8.004c-0.545,0.414-1.077,0.75-1.59,1.011
			c-0.505,0.254-1.146,0.499-1.916,0.734v-2.736c1.136-0.363,2.017-0.806,2.645-1.316c0.628-0.516,1.12-1.149,1.476-1.903H163.523z"
			/>
		<path fill="#F8AB08" d="M182.815,65.693c0,1.528,0.134,2.576,0.402,3.139c0.272,0.556,0.665,0.836,1.18,0.836
			c0.337,0,0.63-0.118,0.876-0.354c0.25-0.239,0.433-0.615,0.547-1.13c0.12-0.512,0.179-1.313,0.179-2.399
			c0-1.594-0.135-2.665-0.409-3.211c-0.267-0.552-0.671-0.825-1.212-0.825c-0.553,0-0.95,0.278-1.196,0.841
			C182.938,63.143,182.815,64.177,182.815,65.693z M179.505,65.685c0-2.285,0.411-3.882,1.23-4.794
			c0.824-0.911,2.078-1.368,3.759-1.368c0.809,0,1.474,0.102,1.991,0.304c0.52,0.195,0.942,0.455,1.27,0.779
			c0.33,0.314,0.585,0.651,0.771,1.008c0.19,0.347,0.343,0.759,0.458,1.228c0.225,0.896,0.337,1.829,0.337,2.801
			c0,2.182-0.369,3.776-1.106,4.783c-0.737,1.013-2.005,1.518-3.809,1.518c-1.01,0-1.827-0.161-2.449-0.484
			c-0.623-0.323-1.132-0.795-1.532-1.417c-0.291-0.439-0.516-1.045-0.68-1.81C179.585,67.46,179.505,66.612,179.505,65.685z"/>
		<path fill="#F8AB08" d="M164.634,79.037v12.214h-3.375v-8.003c-0.547,0.414-1.075,0.748-1.591,1.009
			c-0.507,0.256-1.147,0.501-1.918,0.736v-2.738c1.137-0.365,2.02-0.804,2.646-1.316c0.628-0.513,1.122-1.149,1.475-1.902
			L164.634,79.037L164.634,79.037z"/>
		<path fill="#F8AB08" d="M147.35,84.125c0,1.529,0.134,2.576,0.401,3.139c0.272,0.556,0.667,0.836,1.18,0.836
			c0.338,0,0.631-0.117,0.877-0.354c0.25-0.236,0.433-0.613,0.547-1.128c0.121-0.514,0.18-1.314,0.18-2.402
			c0-1.593-0.136-2.663-0.409-3.209c-0.268-0.553-0.672-0.828-1.213-0.828c-0.552,0-0.949,0.281-1.196,0.845
			C147.472,81.577,147.35,82.612,147.35,84.125z M144.042,84.116c0-2.281,0.409-3.878,1.229-4.791
			c0.825-0.913,2.078-1.369,3.759-1.369c0.809,0,1.473,0.102,1.99,0.304c0.521,0.195,0.944,0.455,1.271,0.777
			c0.329,0.317,0.584,0.654,0.771,1.008c0.19,0.349,0.343,0.762,0.458,1.23c0.225,0.896,0.336,1.83,0.336,2.799
			c0,2.18-0.369,3.777-1.106,4.786c-0.737,1.011-2.005,1.514-3.809,1.514c-1.009,0-1.826-0.158-2.448-0.482
			c-0.623-0.32-1.132-0.795-1.533-1.416c-0.29-0.441-0.516-1.047-0.68-1.811C144.12,85.896,144.042,85.046,144.042,84.116z"/>
		<path fill="#F8AB08" d="M175.412,76.875v12.213h-3.376v-8.004c-0.545,0.415-1.076,0.75-1.589,1.006
			c-0.508,0.257-1.146,0.506-1.916,0.74v-2.735c1.135-0.367,2.016-0.807,2.646-1.321c0.629-0.514,1.12-1.148,1.475-1.898H175.412z"
			/>
		<path fill="#F8AB08" d="M186.191,78.195V90.41h-3.376v-8.006c-0.546,0.418-1.077,0.754-1.589,1.01
			c-0.508,0.257-1.148,0.502-1.919,0.736v-2.734c1.137-0.365,2.02-0.808,2.647-1.32s1.119-1.146,1.475-1.901L186.191,78.195
			L186.191,78.195z"/>
		<path fill="#F8AB08" d="M196.967,77.113v12.215h-3.375v-8.004c-0.545,0.415-1.075,0.75-1.589,1.009
			c-0.508,0.256-1.146,0.502-1.916,0.736v-2.736c1.134-0.366,2.017-0.807,2.645-1.318c0.629-0.514,1.121-1.149,1.475-1.901H196.967
			L196.967,77.113z"/>
		<path fill="#F8AB08" d="M164.386,36.346l-13.542,0.052c-1.295,0-2.343,1.05-2.339,2.346c0.006,1.294,1.06,2.336,2.355,2.327
			l12.313-0.047l3.651,5.267c1.421-0.458,2.852-0.683,4.309-0.676c0.309,0.003,0.622,0.018,0.936,0.038l-5.755-8.302
			C165.876,36.718,165.155,36.342,164.386,36.346z"/>
	</g>
	<g>
		<path fill="#E51848" d="M443.852,11.805h71.178c3.527,0,6.297,2.766,6.297,6.292v72.253c0,3.525-2.77,6.29-6.297,6.29h-71.178
			c-3.527,0-6.297-2.765-6.297-6.29V18.096C437.555,14.57,440.324,11.805,443.852,11.805z M443.852,7.375
			c-5.902,0-10.727,4.82-10.727,10.722v72.253c0,5.904,4.824,10.724,10.727,10.724h71.178c5.906,0,10.727-4.819,10.727-10.724
			V18.096c0-5.902-4.82-10.722-10.727-10.722H443.852z"/>
		<path fill="#E51848" d="M469.375,45.299c-0.777-0.019-1.506,0.387-1.898,1.062c0,0-11.758,19.85-0.469,44.239
			c0.484,1.092,1.766,1.576,2.848,1.076c1.088-0.499,1.545-1.796,1.023-2.868c-10.455-22.587,0.258-40.253,0.258-40.253
			C472.006,47.153,471.023,45.341,469.375,45.299z"/>
		<path fill="#E51848" d="M464.088,63.433c-0.779,0.025-1.48,0.475-1.834,1.171c0,0-6.039,11.475-5.828,25.132
			c0.02,1.178,0.988,2.121,2.164,2.102c1.182-0.02,2.121-0.988,2.104-2.166c-0.193-12.352,5.344-23.092,5.344-23.092
			C466.822,65.126,465.734,63.376,464.088,63.433z"/>
		<circle fill="#E51848" cx="474.43" cy="38.222" r="6.103"/>
		<path fill="#E51848" d="M458.578,32.24c-0.705,0.028-1.348,0.403-1.721,1c-1.631,2.523-1.961,5.496-1.959,7.889
			c0.002,1.197,0.104,2.247,0.248,3.078c0.072,0.414,0.148,0.764,0.271,1.13c0.063,0.182,0.123,0.363,0.299,0.646
			c0.078,0.129,0.201,0.296,0.414,0.496c1.291,1.999,2.764,3.349,4.215,4.365c1.57,1.104,3.064,1.967,4.809,3.559
			c0.871,0.819,2.24,0.771,3.045-0.112c0.805-0.886,0.73-2.256-0.17-3.043c-2.072-1.888-3.869-2.941-5.232-3.898
			s-2.314-1.755-3.338-3.493l-0.037-0.061c-0.021-0.082-0.041-0.142-0.074-0.323c-0.092-0.538-0.18-1.396-0.18-2.349
			c-0.002-1.906,0.396-4.207,1.277-5.569C461.41,34.103,460.32,32.169,458.578,32.24z"/>
		<path fill="#E51848" d="M471.828,23.587c-0.311-0.007-0.613,0.087-0.859,0.274L453.1,36.857c-0.623,0.443-0.768,1.309-0.318,1.928
			c0.451,0.617,1.32,0.751,1.932,0.293l17.871-12.996C473.662,25.321,473.148,23.623,471.828,23.587z"/>
		
			<rect x="468.214" y="21.972" transform="matrix(0.5883 0.8087 -0.8087 0.5883 214.0693 -373.6087)" fill="#E51848" width="11.425" height="2.888"/>
		<path fill="#E51848" d="M471.418,19.866l5.105,7.021l-0.117,0.083l-5.105-7.021L471.418,19.866z M472.828,17.142
			c-0.443-0.614-1.303-0.75-1.914-0.302l-2.338,1.698c-0.613,0.448-0.748,1.305-0.301,1.918l6.719,9.236
			c0.445,0.614,1.303,0.749,1.916,0.305l2.336-1.699c0.613-0.447,0.75-1.304,0.303-1.918L472.828,17.142z"/>
		<path fill="#E51848" d="M491.518,64.26c-3.91,0.032-7.828,0.332-11.748,0.784c-0.863,5.279-0.773,10.563,0.014,15.854
			c7.613,0.83,15.32,1.229,23.461,0.009c0.525-5.305,0.76-10.594,0.014-15.866C499.346,64.46,495.434,64.223,491.518,64.26z
			 M491.514,63.513c4.043-0.033,8.088,0.202,12.137,0.821l0.273,0.04l0.039,0.271c0.826,5.561,0.559,11.105,0.002,16.632
			l-0.029,0.286l-0.285,0.045c-8.451,1.309-16.422,0.867-24.254,0.002l-0.283-0.03l-0.043-0.283c-0.85-5.547-0.945-11.102,0-16.657
			l0.047-0.277l0.275-0.031c4.035-0.475,8.078-0.781,12.119-0.817L491.514,63.513L491.514,63.513z M479.748,61.8
			c-1.729,0.003-3.129,1.401-3.129,3.131v16.081c0,1.729,1.4,3.128,3.129,3.128h23.486c1.729,0,3.129-1.398,3.131-3.128V64.93
			c0-1.729-1.402-3.131-3.131-3.131H479.748z"/>
		<path fill="#E51848" d="M486.906,83.856h9.168v3.974h-9.168V83.856z M485.24,83.028c-0.918,0-1.668-0.508-1.668,0.413v6.053
			c0,0.922,0.75,1.666,1.668,1.666h12.5c0.92,0,1.668-0.744,1.668-1.666v-6.053c0-0.92-0.748-0.413-1.668-0.413H485.24z"/>
		<path fill="#E51848" d="M482.027,88.144c-1.039-0.016-1.891,0.82-1.891,1.86s0.852,1.877,1.891,1.858h18.93
			c1.039,0.019,1.891-0.818,1.891-1.858s-0.852-1.876-1.891-1.86H482.027z"/>
	</g>
	<g>
		<circle fill="#0083CB" cx="86.719" cy="24.149" r="4.548"/>
		<path fill="#0083CB" d="M23.551,11.805h71.182c3.526,0,6.294,2.766,6.294,6.292v72.253c0,3.525-2.768,6.29-6.294,6.29H23.551
			c-3.525,0-6.295-2.765-6.295-6.29V18.096C17.256,14.57,20.025,11.805,23.551,11.805z M23.551,7.375
			c-5.903,0-10.724,4.82-10.724,10.722v72.253c0,5.904,4.821,10.724,10.724,10.724h71.182c5.903,0,10.727-4.819,10.727-10.724
			V18.096c0-5.902-4.824-10.722-10.727-10.722H23.551z"/>
		<path fill="#0083CB" d="M75.05,53.585c-1.258,0-2.281,1.019-2.281,2.279c0,1.259,1.022,2.28,2.281,2.28h19.39
			c3.042,0,3.042-4.559,0-4.559H75.05z"/>
		<path fill="#0083CB" d="M85.207,32.188c-1.171,0.021-2.137,0.921-2.238,2.086l-1.427,14.277L70.232,48
			c-1.302-0.065-2.392,0.974-2.392,2.277v15.775c-0.021,1.273,1.007,2.315,2.281,2.315c1.274,0,2.299-1.042,2.277-2.315V52.67
			l11.085,0.54c1.212,0.06,2.259-0.842,2.379-2.051l1.646-16.432C87.663,33.362,86.581,32.169,85.207,32.188z"/>
		<path fill="#0083CB" d="M86.719,21.572c1.444,0,2.577,1.131,2.577,2.578c0,1.446-1.132,2.575-2.577,2.575
			c-1.446,0-2.577-1.128-2.577-2.575C84.142,22.703,85.273,21.572,86.719,21.572z M86.719,17.627c-3.578,0-6.522,2.944-6.522,6.523
			c0,3.578,2.945,6.519,6.522,6.519s6.519-2.941,6.519-6.519C93.238,20.571,90.297,17.627,86.719,17.627z"/>
		<path fill="#0083CB" d="M84.231,34.027c-0.127,0.004-0.255,0.017-0.383,0.042l-13.806,2.487c-1.268,0.194-2.125,1.396-1.899,2.657
			c0.228,1.262,1.451,2.087,2.707,1.828l13.807-2.486C87.452,38.093,87.064,33.962,84.231,34.027z"/>
		<path fill="#0083CB" d="M49.878,30.591c-2.882,0.087-5.716,0.457-8.49,1.091c-0.578,0.126-0.943,0.698-0.811,1.276
			c0.132,0.574,0.708,0.931,1.283,0.792c10.585-2.421,21.977-0.856,34.105,5.933c1.232,0.691,2.268-1.159,1.035-1.849
			C67.62,32.585,58.524,30.322,49.878,30.591z"/>
		<rect x="42.341" y="32.94" fill="#0083CB" width="0.699" height="10.227"/>
		<path fill="#0083CB" d="M42.743,62.563c-1.041,0-1.817,0.284-2.327,0.848c-0.373,0.417-0.608,1.063-0.705,1.942
			c0.749,0.428,1.423,0.972,2.005,1.605c-0.009-0.182-0.013-0.369-0.013-0.578c0-0.938,0.076-1.577,0.226-1.921
			c0.153-0.347,0.4-0.521,0.74-0.521c0.334,0,0.583,0.171,0.75,0.511c0.167,0.338,0.252,1,0.252,1.985
			c0,0.527-0.028,0.909-0.074,1.218c0.405-0.089,0.818-0.142,1.251-0.142c0.27,0,0.535,0.022,0.797,0.053
			c0.05-0.366,0.076-0.77,0.076-1.215c0-0.601-0.067-1.177-0.206-1.731c-0.071-0.29-0.166-0.544-0.285-0.761
			c-0.114-0.219-0.274-0.424-0.476-0.621c-0.203-0.197-0.464-0.36-0.785-0.481C43.653,62.627,43.242,62.563,42.743,62.563z"/>
		<path fill="#0083CB" d="M44.821,53.623v7.553h-2.09v-4.95c-0.336,0.255-0.663,0.463-0.98,0.622
			c-0.313,0.158-0.708,0.312-1.187,0.458v-1.693c0.703-0.227,1.249-0.498,1.637-0.817c0.388-0.317,0.691-0.707,0.912-1.172H44.821z"
			/>
		<path fill="#0083CB" d="M41.704,48.368c0,0.946,0.081,1.591,0.248,1.939c0.167,0.346,0.414,0.518,0.73,0.518
			c0.208,0,0.389-0.073,0.543-0.217c0.153-0.149,0.267-0.383,0.336-0.7c0.076-0.316,0.114-0.812,0.114-1.484
			c0-0.986-0.087-1.647-0.255-1.984c-0.167-0.342-0.415-0.512-0.749-0.512c-0.342,0-0.589,0.174-0.742,0.522
			C41.78,46.793,41.704,47.432,41.704,48.368z M39.658,48.363c0-1.412,0.252-2.399,0.761-2.963c0.51-0.563,1.284-0.846,2.324-0.846
			c0.498,0,0.91,0.062,1.23,0.187c0.321,0.121,0.582,0.284,0.785,0.481c0.203,0.196,0.362,0.403,0.476,0.623
			c0.118,0.217,0.214,0.47,0.284,0.76c0.139,0.554,0.206,1.131,0.206,1.733c0,1.347-0.227,2.333-0.684,2.957
			c-0.455,0.625-1.24,0.938-2.354,0.938c-0.626,0-1.13-0.099-1.515-0.3c-0.385-0.199-0.701-0.49-0.947-0.875
			c-0.18-0.273-0.319-0.648-0.42-1.119C39.707,49.463,39.658,48.938,39.658,48.363z"/>
		<path fill="#0083CB" d="M35.675,66.516c2.661,0,4.919,1.702,5.754,4.073c0.09,0.256,0.39,0.337,0.599,0.17
			c0.773-0.627,1.751-1.006,2.825-1.006c2.35,0,4.271,1.806,4.462,4.105c0.015,0.161,0.127,0.293,0.285,0.335
			c1.702,0.433,2.968,1.975,2.968,3.817c0,2.176-1.76,3.94-3.941,3.94H30.279c-2.174,0-3.939-1.763-3.939-3.94
			c0-1.869,1.305-3.436,3.053-3.836c0.202-0.048,0.326-0.238,0.291-0.442c-0.07-0.362-0.104-0.736-0.104-1.118
			C29.578,69.242,32.304,66.516,35.675,66.516z M35.675,64.676c-4.378,0-7.937,3.558-7.937,7.938c0,0.035,0.002,0.078,0.002,0.127
			l0.004,0.127l-0.114,0.056c-1.848,0.97-3.131,2.87-3.131,5.087c0,3.187,2.585,5.778,5.776,5.778h18.355
			c3.186,0,5.776-2.595,5.776-5.778c0-2.32-1.385-4.298-3.369-5.218l-0.088-0.04l-0.022-0.094c-0.707-2.72-3.142-4.743-6.076-4.743
			c-0.816,0-1.589,0.187-2.316,0.477l-0.155,0.063l-0.088-0.139C40.871,66.139,38.458,64.676,35.675,64.676z"/>
	</g>
</g>
<text transform="matrix(1 0 0 1 30.6958 129.1951)" fill="#FFFFFF" font-family="'VikingSquadCondensed'" font-size="46">MRMCD2015 - 4.-6. Sept. 2015 - HDA</text>
</svg>
