<?xml version="1.0" encoding="utf-8"?>
<!-- Generator: Adobe Illustrator 16.0.0, SVG Export Plug-In . SVG Version: 6.00 Build 0)  -->
<!DOCTYPE svg PUBLIC "-//W3C//DTD SVG 1.1//EN" "http://www.w3.org/Graphics/SVG/1.1/DTD/svg11.dtd">
<svg version="1.1" id="Ebene_1" xmlns="http://www.w3.org/2000/svg" xmlns:xlink="http://www.w3.org/1999/xlink" x="0px" y="0px"
	 width="141.73px" height="141.73px" viewBox="0 0 141.73 141.73" enable-background="new 0 0 141.73 141.73" xml:space="preserve">
<rect x="-0.001" y="-0.001" width="141.732" height="141.732"/>
<g>
	<path fill="#0083CB" d="M19.675,9.855h102.377c5.073,0,9.053,3.979,9.053,9.05v103.917c0,5.072-3.979,9.049-9.053,9.049H19.675
		c-5.069,0-9.053-3.979-9.053-9.049V18.906C10.622,13.833,14.605,9.855,19.675,9.855z M19.675,3.484
		c-8.489,0-15.424,6.933-15.424,15.422v103.916c0,8.492,6.936,15.424,15.424,15.424h102.377c8.489,0,15.428-6.934,15.428-15.424
		V18.906c0-8.49-6.938-15.422-15.428-15.422H19.675z"/>
	<path fill="#0083CB" d="M93.743,69.944c-1.812,0-3.28,1.467-3.28,3.276c0,1.813,1.47,3.28,3.28,3.28h27.889
		c4.375,0,4.375-6.558,0-6.558L93.743,69.944L93.743,69.944z"/>
	<path fill="#0083CB" d="M108.351,39.174c-1.685,0.027-3.075,1.324-3.218,3l-2.052,20.532l-16.269-0.791
		c-1.871-0.095-3.44,1.4-3.44,3.274v22.688c-0.029,1.834,1.447,3.332,3.281,3.332c1.832,0,3.308-1.498,3.278-3.332V68.631
		l15.943,0.778c1.741,0.085,3.246-1.212,3.42-2.951l2.365-23.634C111.886,40.86,110.33,39.143,108.351,39.174z"/>
	<path fill="#0083CB" d="M117.068,27.61c0,3.613-2.929,6.542-6.541,6.542s-6.542-2.93-6.542-6.542c0-3.616,2.931-6.545,6.542-6.545
		C114.14,21.064,117.068,23.994,117.068,27.61z"/>
	<path fill="#0083CB" d="M110.527,23.903c2.081,0,3.706,1.627,3.706,3.707c0,2.079-1.626,3.704-3.706,3.704
		s-3.707-1.625-3.707-3.704C106.82,25.53,108.447,23.903,110.527,23.903z M110.527,18.229c-5.146,0-9.381,4.233-9.381,9.38
		c0,5.146,4.234,9.377,9.381,9.377c5.146,0,9.376-4.231,9.376-9.377C119.903,22.463,115.674,18.229,110.527,18.229z"/>
	<path fill="#0083CB" d="M106.952,41.815c-0.186,0.007-0.369,0.024-0.554,0.062l-19.855,3.577c-1.823,0.281-3.059,2.009-2.729,3.822
		c0.326,1.815,2.085,3.003,3.894,2.629l19.855-3.574C111.583,47.666,111.025,41.723,106.952,41.815z"/>
	<path fill="#0083CB" d="M57.539,36.873c-4.145,0.127-8.22,0.659-12.212,1.572c-0.832,0.179-1.356,1.003-1.167,1.833
		c0.19,0.828,1.021,1.341,1.847,1.141c15.225-3.48,31.607-1.23,49.053,8.533c1.772,0.994,3.261-1.667,1.488-2.66
		C83.06,39.742,69.975,36.49,57.539,36.873z"/>
	<rect x="46.7" y="40.253" fill="#0083CB" width="1.006" height="14.707"/>
	<path fill="#0083CB" d="M47.279,82.861c-1.497,0-2.614,0.406-3.348,1.217c-0.535,0.601-0.874,1.531-1.015,2.791
		c1.077,0.619,2.046,1.402,2.885,2.312c-0.012-0.261-0.019-0.529-0.019-0.83c0-1.347,0.109-2.271,0.326-2.765
		c0.22-0.498,0.574-0.748,1.063-0.748c0.481,0,0.842,0.244,1.08,0.734c0.243,0.484,0.363,1.438,0.363,2.854
		c0,0.757-0.042,1.31-0.107,1.757c0.583-0.129,1.179-0.207,1.803-0.207c0.387,0,0.77,0.032,1.146,0.078
		c0.072-0.527,0.11-1.109,0.11-1.75c0-0.863-0.1-1.693-0.298-2.49c-0.101-0.418-0.239-0.783-0.409-1.094
		c-0.164-0.316-0.394-0.611-0.685-0.896c-0.291-0.283-0.667-0.516-1.13-0.691C48.586,82.951,47.994,82.861,47.279,82.861z"/>
	<path fill="#0083CB" d="M50.264,70v10.863h-3.002v-7.119c-0.483,0.369-0.957,0.668-1.413,0.896c-0.45,0.229-1.02,0.446-1.705,0.659
		v-2.438c1.011-0.324,1.795-0.713,2.354-1.172c0.559-0.457,0.995-1.021,1.313-1.689H50.264z"/>
	<path fill="#0083CB" d="M45.785,62.444c0,1.359,0.118,2.288,0.355,2.789c0.241,0.497,0.594,0.745,1.051,0.745
		c0.299,0,0.561-0.104,0.78-0.313c0.222-0.215,0.385-0.549,0.485-1.007c0.107-0.456,0.162-1.167,0.162-2.134
		c0-1.417-0.123-2.371-0.366-2.855c-0.238-0.491-0.596-0.735-1.078-0.735c-0.491,0-0.846,0.25-1.065,0.75
		C45.893,60.177,45.785,61.096,45.785,62.444z M42.841,62.435c0-2.031,0.363-3.451,1.094-4.263c0.732-0.81,1.846-1.215,3.344-1.215
		c0.715,0,1.307,0.09,1.768,0.269c0.463,0.176,0.838,0.406,1.13,0.691c0.291,0.283,0.52,0.58,0.685,0.896
		c0.17,0.311,0.308,0.676,0.409,1.093c0.198,0.797,0.298,1.626,0.298,2.492c0,1.938-0.327,3.354-0.985,4.252
		c-0.653,0.897-1.782,1.35-3.384,1.35c-0.901,0-1.627-0.142-2.178-0.43c-0.556-0.287-1.009-0.707-1.363-1.259
		c-0.258-0.394-0.459-0.933-0.604-1.61C42.911,64.019,42.841,63.263,42.841,62.435z"/>
	<path fill="#0083CB" d="M37.113,88.545c3.828,0,7.075,2.447,8.275,5.861c0.13,0.363,0.561,0.484,0.858,0.24
		c1.109-0.9,2.521-1.445,4.063-1.445c3.379,0,6.144,2.598,6.417,5.904c0.02,0.231,0.182,0.424,0.409,0.481
		c2.448,0.623,4.271,2.841,4.271,5.49c0,3.129-2.531,5.668-5.668,5.668H29.351c-3.126,0-5.667-2.535-5.667-5.668
		c0-2.688,1.879-4.94,4.393-5.52c0.288-0.068,0.467-0.345,0.415-0.634c-0.1-0.521-0.149-1.059-0.149-1.608
		C28.344,92.465,32.263,88.545,37.113,88.545z M37.113,85.898c-6.298,0-11.416,5.119-11.416,11.416c0,0.053,0.003,0.11,0.003,0.186
		l0.006,0.181l-0.163,0.082c-2.66,1.395-4.506,4.125-4.506,7.315c0,4.582,3.718,8.31,8.31,8.31h26.399
		c4.582,0,8.309-3.732,8.309-8.31c0-3.336-1.992-6.184-4.847-7.504l-0.127-0.059l-0.032-0.136c-1.017-3.911-4.517-6.823-8.736-6.823
		c-1.178,0-2.285,0.271-3.333,0.688l-0.224,0.09l-0.129-0.201C44.586,88.002,41.115,85.898,37.113,85.898z"/>
</g>
<g>
	<path fill="#0083CB" d="M32.803,119.64v-2.75l4.55,3.975l4.525-3.95v10.45h-2.25v-5.675l-2.275,2.175L32.803,119.64z
		 M35.053,127.365h-2.25v-6.925l2.25,2.075V127.365z"/>
	<path fill="#0083CB" d="M43.128,116.94h7.125c0.633,0,0.95,0.325,0.95,0.975v4.425c0,0.617-0.317,0.926-0.95,0.926h-2.125l3.2,4.1
		h-2.775l-2.675-3.425v-2.851h3.05v-1.925h-3.575v8.2h-2.225V116.94z"/>
	<path fill="#0083CB" d="M52.427,119.64v-2.75l4.55,3.975l4.525-3.95v10.45h-2.25v-5.675l-2.275,2.175L52.427,119.64z
		 M54.677,127.365h-2.25v-6.925l2.25,2.075V127.365z"/>
	<path fill="#0083CB" d="M63.677,127.365c-0.617,0-0.925-0.309-0.925-0.925v-8.55c0-0.634,0.308-0.95,0.925-0.95h6.25v2.149h-4.925
		v8.275H63.677z M65.528,125.165h4.4v2.2h-4.4V125.165z"/>
	<path fill="#0083CB" d="M73.427,119.09v8.275h-2.25V116.94h7.225c0.566,0,0.851,0.309,0.851,0.925v8
		c0,0.15-0.046,0.313-0.138,0.487s-0.209,0.338-0.35,0.487c-0.143,0.15-0.301,0.275-0.476,0.375c-0.175,0.101-0.337,0.15-0.487,0.15
		h-3.85v-2.2h3.024v-6.075H73.427z"/>
	<path fill="#0083CB" d="M80.502,125.215h2.25v2.15h-2.25V125.215z"/>
	<path fill="#0083CB" d="M92.052,116.94v10.5l-8.05-7.625v-2.925l5.825,5.225v-5.175H92.052z M86.252,127.365h-2.25v-6.725
		l2.25,2.05V127.365z"/>
	<path fill="#0083CB" d="M93.302,116.94h7.174v2.2h-4.924v6.074h4.924v2.15h-7.174V116.94z M96.101,121.09h3.5v2.176h-3.5V121.09z"
		/>
	<path fill="#0083CB" d="M101.726,116.94h2.025v2.225h-2.025V116.94z M104.252,116.94h4.675v2.225h-2.425v8.2h-2.25V116.94z"/>
</g>
</svg>
