<?xml version="1.0" encoding="utf-8"?>
<!-- Generator: Adobe Illustrator 16.0.0, SVG Export Plug-In . SVG Version: 6.00 Build 0)  -->
<!DOCTYPE svg PUBLIC "-//W3C//DTD SVG 1.1//EN" "http://www.w3.org/Graphics/SVG/1.1/DTD/svg11.dtd">
<svg version="1.1" id="Ebene_1" xmlns="http://www.w3.org/2000/svg" xmlns:xlink="http://www.w3.org/1999/xlink" x="0px" y="0px"
	 width="141.73px" height="141.73px" viewBox="0 0 141.73 141.73" enable-background="new 0 0 141.73 141.73" xml:space="preserve">
<rect x="-0.001" y="-0.001" width="141.732" height="141.732"/>
<g>
	<path fill="#F8AB08" d="M76.246,53.227c-0.645,0.005-1.271,0.198-1.807,0.549l-13.897,8.831c1.619,0.646,2.745,0.951,3.684,0.965
		c1.446,0.021,3.109-0.547,6.434-2.39c2.751-1.522,5.517-2.366,8.331-2.611C80.621,56.336,79.009,53.201,76.246,53.227z"/>
	<path fill="#F8AB08" d="M93.372,33.677c-3.117-0.004-6.108,1.235-8.313,3.441s-3.445,5.198-3.445,8.316
		c0,6.494,5.265,11.759,11.76,11.759c6.497,0,11.761-5.265,11.761-11.759C105.133,38.941,99.87,33.677,93.372,33.677z"/>
	<path fill="#F8AB08" d="M80.81,60.26c-3.449-0.016-6.81,0.846-10.152,2.697c-3.324,1.843-4.987,2.411-6.434,2.391
		c-1.451-0.024-3.328-0.717-6.817-2.335c-7.621-3.53-13.067-2.328-19.299,0.021c-3.167,1.193-6.05,2.449-8.729,2.885
		c-2.677,0.436-5.083,0.224-8.098-1.671c-0.646-0.401-1.293-0.751-1.942-1.062v6.262c3.772,2.066,7.564,2.417,10.917,1.874
		c3.641-0.59,6.825-2.052,9.781-3.168c6.018-2.267,8.574-3.188,15.07-0.175c3.568,1.652,6.104,2.793,9.029,2.841
		c2.925,0.043,5.603-1.098,9.172-3.075c6.153-3.41,10.877-2.847,18.788,1.468c4.438,2.417,8.363,3.486,12.193,3.285
		c3.833-0.204,7.361-1.594,11.29-3.523c3.103-1.529,5.974-2.101,8.822-1.964v-5.372c-3.659-0.144-7.415,0.54-11.243,2.423
		c-3.682,1.813-6.484,2.833-9.157,2.973c-2.672,0.14-5.417-0.519-9.287-2.626c-4.348-2.372-8.452-3.788-12.423-4.089
		C81.799,60.282,81.303,60.26,80.81,60.26z"/>
	<path fill="#F8AB08" d="M19.673,9.853h102.379c5.071,0,9.056,3.979,9.056,9.051v103.92c0,5.071-3.983,9.051-9.056,9.051H19.673
		c-5.071,0-9.049-3.979-9.049-9.051V18.904C10.623,13.832,14.6,9.853,19.673,9.853z M19.673,3.481
		c-8.488,0-15.422,6.933-15.422,15.423v103.92c0,8.493,6.935,15.425,15.422,15.425h102.379c8.492,0,15.429-6.933,15.429-15.425
		V18.904c0-8.49-6.937-15.423-15.429-15.423H19.673z"/>
	<path fill="#F8AB08" d="M36.984,78.663v17.568H32.13V84.719c-0.785,0.596-1.547,1.08-2.285,1.447
		c-0.732,0.371-1.652,0.725-2.76,1.061v-3.936c1.635-0.527,2.904-1.159,3.809-1.897c0.899-0.736,1.608-1.648,2.121-2.73
		L36.984,78.663L36.984,78.663z"/>
	<path fill="#F8AB08" d="M46.18,84.941c0,2.197,0.192,3.703,0.577,4.511c0.393,0.803,0.959,1.204,1.694,1.204
		c0.489,0,0.907-0.17,1.262-0.508c0.361-0.348,0.622-0.891,0.789-1.626c0.173-0.737,0.262-1.89,0.262-3.452
		c0-2.294-0.198-3.832-0.592-4.618c-0.384-0.794-0.964-1.188-1.739-1.188c-0.794,0-1.37,0.401-1.721,1.21
		C46.357,81.276,46.18,82.764,46.18,84.941z M41.419,84.927c0-3.283,0.588-5.58,1.768-6.894c1.187-1.312,2.988-1.969,5.41-1.969
		c1.161,0,2.115,0.146,2.862,0.437c0.745,0.283,1.354,0.658,1.828,1.12c0.47,0.454,0.84,0.94,1.107,1.448
		c0.274,0.503,0.495,1.093,0.66,1.768c0.32,1.289,0.481,2.633,0.481,4.031c0,3.135-0.53,5.429-1.591,6.883
		c-1.061,1.453-2.888,2.179-5.479,2.179c-1.453,0-2.629-0.23-3.524-0.695c-0.896-0.464-1.629-1.144-2.203-2.039
		c-0.415-0.637-0.741-1.502-0.979-2.604C41.531,87.485,41.419,86.265,41.419,84.927z"/>
	<path fill="#F8AB08" d="M79.062,84.076c0,2.2,0.192,3.703,0.578,4.515c0.393,0.8,0.959,1.2,1.697,1.2
		c0.485,0,0.907-0.168,1.262-0.505c0.358-0.347,0.623-0.888,0.788-1.628c0.173-0.738,0.259-1.889,0.259-3.452
		c0-2.296-0.196-3.833-0.588-4.618c-0.387-0.795-0.97-1.188-1.746-1.188c-0.791,0-1.363,0.403-1.721,1.215
		C79.24,80.41,79.062,81.9,79.062,84.076z M74.304,84.064c0-3.283,0.588-5.582,1.767-6.896c1.188-1.31,2.989-1.967,5.407-1.967
		c1.163,0,2.119,0.146,2.862,0.438c0.748,0.28,1.356,0.653,1.827,1.116c0.473,0.458,0.841,0.94,1.106,1.45
		c0.273,0.501,0.495,1.093,0.66,1.771c0.323,1.288,0.482,2.632,0.482,4.026c0,3.136-0.529,5.431-1.591,6.884
		c-1.06,1.452-2.885,2.18-5.479,2.18c-1.452,0-2.626-0.231-3.522-0.697c-0.896-0.461-1.628-1.142-2.203-2.039
		c-0.418-0.634-0.741-1.503-0.978-2.601C74.417,86.619,74.304,85.401,74.304,84.064z"/>
	<path fill="#F8AB08" d="M69.868,78.143V95.71h-4.854V84.2c-0.784,0.596-1.547,1.079-2.287,1.451
		c-0.729,0.368-1.648,0.722-2.756,1.058v-3.936c1.635-0.524,2.901-1.159,3.806-1.896c0.903-0.739,1.61-1.652,2.121-2.734
		L69.868,78.143L69.868,78.143z"/>
	<path fill="#F8AB08" d="M97.615,87.361c0,2.197,0.192,3.703,0.578,4.512c0.394,0.802,0.959,1.203,1.697,1.203
		c0.485,0,0.905-0.17,1.261-0.508c0.361-0.344,0.623-0.888,0.788-1.627c0.175-0.736,0.259-1.889,0.259-3.451
		c0-2.295-0.194-3.833-0.588-4.618c-0.384-0.793-0.967-1.188-1.743-1.188c-0.795,0-1.367,0.402-1.72,1.212
		C97.792,83.696,97.615,85.185,97.615,87.361z M92.852,87.351c0-3.287,0.591-5.583,1.771-6.896c1.186-1.312,2.988-1.967,5.408-1.967
		c1.161,0,2.118,0.142,2.861,0.435c0.747,0.282,1.357,0.656,1.828,1.12c0.473,0.453,0.84,0.938,1.106,1.448
		c0.273,0.504,0.494,1.094,0.659,1.767c0.324,1.289,0.483,2.633,0.483,4.031c0,3.136-0.53,5.431-1.591,6.883
		c-1.062,1.454-2.886,2.18-5.479,2.18c-1.454,0-2.626-0.231-3.522-0.696c-0.896-0.463-1.629-1.143-2.203-2.039
		c-0.418-0.635-0.74-1.502-0.979-2.604C92.969,89.905,92.852,88.685,92.852,87.351z"/>
	<path fill="#F8AB08" d="M71.465,106.555v17.566h-4.856v-11.511c-0.785,0.595-1.545,1.079-2.286,1.45
		c-0.73,0.369-1.65,0.723-2.759,1.059v-3.936c1.636-0.525,2.903-1.159,3.806-1.896c0.904-0.739,1.614-1.65,2.122-2.733
		L71.465,106.555L71.465,106.555z"/>
	<path fill="#F8AB08" d="M46.604,113.873c0,2.201,0.191,3.703,0.577,4.515c0.394,0.799,0.959,1.2,1.697,1.2
		c0.487,0,0.907-0.169,1.262-0.506c0.359-0.345,0.624-0.888,0.789-1.626c0.172-0.739,0.26-1.892,0.26-3.455
		c0-2.293-0.196-3.833-0.588-4.617c-0.386-0.794-0.968-1.189-1.745-1.189c-0.794,0-1.365,0.405-1.72,1.215
		C46.779,110.208,46.604,111.697,46.604,113.873z M41.844,113.861c0-3.284,0.589-5.58,1.767-6.896
		c1.188-1.31,2.99-1.967,5.408-1.967c1.161,0,2.118,0.146,2.861,0.438c0.748,0.279,1.358,0.653,1.828,1.118
		c0.474,0.456,0.84,0.938,1.107,1.447c0.274,0.503,0.495,1.096,0.66,1.771c0.323,1.287,0.483,2.631,0.483,4.024
		c0,3.137-0.529,5.431-1.592,6.885c-1.059,1.454-2.885,2.178-5.478,2.178c-1.453,0-2.626-0.231-3.522-0.694
		c-0.896-0.462-1.629-1.144-2.204-2.04c-0.418-0.634-0.741-1.502-0.978-2.601C41.958,116.419,41.844,115.196,41.844,113.861z"/>
	<path fill="#F8AB08" d="M86.965,103.443v17.567H82.11v-11.514c-0.785,0.599-1.546,1.079-2.285,1.45
		c-0.732,0.368-1.648,0.724-2.756,1.062v-3.937c1.632-0.525,2.9-1.158,3.805-1.897c0.903-0.738,1.61-1.65,2.122-2.732
		L86.965,103.443L86.965,103.443z"/>
	<path fill="#F8AB08" d="M102.469,105.344v17.566h-4.854v-11.513c-0.786,0.601-1.549,1.083-2.286,1.452
		c-0.731,0.366-1.652,0.723-2.759,1.059v-3.933c1.635-0.528,2.903-1.161,3.805-1.9c0.904-0.737,1.612-1.646,2.122-2.731H102.469
		L102.469,105.344z"/>
	<path fill="#F8AB08" d="M117.972,103.789v17.566h-4.857v-11.514c-0.783,0.598-1.544,1.08-2.285,1.453
		c-0.729,0.367-1.647,0.723-2.756,1.06v-3.937c1.632-0.524,2.902-1.16,3.805-1.896c0.905-0.738,1.612-1.651,2.123-2.733
		L117.972,103.789L117.972,103.789z"/>
	<path fill="#F8AB08" d="M71.106,45.152l-19.478,0.073c-1.862,0-3.369,1.511-3.362,3.375c0.008,1.858,1.524,3.359,3.387,3.347
		l17.709-0.066l5.252,7.575c2.044-0.66,4.1-0.979,6.195-0.973c0.445,0.003,0.896,0.023,1.347,0.055l-8.276-11.94
		C73.25,45.687,72.213,45.147,71.106,45.152z"/>
</g>
<g>
	<path fill="#F8AB08" d="M32.803,19.005v-2.75l4.55,3.975l4.525-3.95v10.45h-2.25v-5.675l-2.275,2.175L32.803,19.005z M35.053,26.73
		h-2.25v-6.925l2.25,2.075V26.73z"/>
	<path fill="#F8AB08" d="M43.128,16.305h7.125c0.633,0,0.95,0.325,0.95,0.975v4.425c0,0.617-0.317,0.925-0.95,0.925h-2.125l3.2,4.1
		h-2.775l-2.675-3.425v-2.85h3.05V18.53h-3.575v8.2h-2.225V16.305z"/>
	<path fill="#F8AB08" d="M52.428,19.005v-2.75l4.55,3.975l4.525-3.95v10.45h-2.25v-5.675l-2.275,2.175L52.428,19.005z M54.678,26.73
		h-2.25v-6.925l2.25,2.075V26.73z"/>
	<path fill="#F8AB08" d="M63.678,26.73c-0.617,0-0.925-0.308-0.925-0.925v-8.55c0-0.633,0.308-0.95,0.925-0.95h6.25v2.15h-4.925
		v8.275H63.678z M65.528,24.53h4.4v2.2h-4.4V24.53z"/>
	<path fill="#F8AB08" d="M73.427,18.455v8.275h-2.25V16.305h7.225c0.566,0,0.851,0.309,0.851,0.925v8
		c0,0.15-0.047,0.313-0.139,0.487c-0.092,0.175-0.208,0.338-0.35,0.488s-0.3,0.275-0.475,0.375c-0.176,0.1-0.338,0.15-0.488,0.15
		h-3.85v-2.2h3.025v-6.075H73.427z"/>
	<path fill="#F8AB08" d="M80.503,24.58h2.25v2.15h-2.25V24.58z"/>
	<path fill="#F8AB08" d="M92.052,16.305v10.5l-8.051-7.625v-2.925l5.826,5.225v-5.175H92.052z M86.252,26.73h-2.25v-6.725l2.25,2.05
		V26.73z"/>
	<path fill="#F8AB08" d="M93.302,16.305h7.175v2.2h-4.925v6.075h4.925v2.15h-7.175V16.305z M96.102,20.455h3.5v2.175h-3.5V20.455z"
		/>
	<path fill="#F8AB08" d="M101.726,16.305h2.025v2.225h-2.025V16.305z M104.252,16.305h4.676v2.225h-2.426v8.2h-2.25V16.305z"/>
</g>
</svg>
