<?xml version="1.0" encoding="utf-8"?>
<!-- Generator: Adobe Illustrator 16.0.0, SVG Export Plug-In . SVG Version: 6.00 Build 0)  -->
<!DOCTYPE svg PUBLIC "-//W3C//DTD SVG 1.1//EN" "http://www.w3.org/Graphics/SVG/1.1/DTD/svg11.dtd">
<svg version="1.1" id="Ebene_1" xmlns="http://www.w3.org/2000/svg" xmlns:xlink="http://www.w3.org/1999/xlink" x="0px" y="0px"
	 width="141.73px" height="141.73px" viewBox="0 0 141.73 141.73" enable-background="new 0 0 141.73 141.73" xml:space="preserve">
<rect x="-0.001" y="-0.001" width="141.732" height="141.732"/>
<path fill="#E51848" d="M19.677,9.856h102.375c5.071,0,9.057,3.979,9.057,9.05v103.916c0,5.071-3.984,9.049-9.057,9.049H19.677
	c-5.07,0-9.055-3.978-9.055-9.049V18.906C10.623,13.834,14.606,9.856,19.677,9.856z M19.677,3.484
	c-8.488,0-15.427,6.932-15.427,15.422v103.916c0,8.492,6.938,15.424,15.427,15.424h102.375c8.492,0,15.428-6.932,15.428-15.424
	V18.906c0-8.49-6.936-15.422-15.428-15.422H19.677z"/>
<g>
	<path fill="#E51848" d="M58.256,52.695c-0.976-0.024-1.887,0.485-2.378,1.331c0,0-14.729,24.862-0.586,55.412
		c0.601,1.366,2.21,1.976,3.567,1.349c1.36-0.629,1.936-2.249,1.283-3.594c-13.097-28.291,0.322-50.418,0.322-50.418
		C61.551,55.018,60.321,52.747,58.256,52.695z"/>
	<path fill="#E51848" d="M51.631,75.408c-0.975,0.034-1.854,0.596-2.294,1.47c0,0-7.566,14.372-7.299,31.479
		c0.023,1.477,1.236,2.656,2.712,2.631c1.477-0.023,2.657-1.238,2.632-2.713c-0.242-15.473,6.694-28.925,6.694-28.925
		C55.057,77.53,53.696,75.336,51.631,75.408z"/>
	<circle fill="#E51848" cx="64.587" cy="43.829" r="7.645"/>
	<path fill="#E51848" d="M44.733,36.339c-0.883,0.036-1.688,0.505-2.157,1.252c-2.041,3.161-2.454,6.883-2.451,9.881
		c0.002,1.5,0.127,2.814,0.308,3.854c0.091,0.52,0.187,0.958,0.343,1.416c0.079,0.229,0.153,0.455,0.371,0.81
		c0.101,0.162,0.253,0.373,0.521,0.621c1.618,2.503,3.464,4.194,5.277,5.467c1.969,1.383,3.84,2.465,6.025,4.457
		c1.088,1.027,2.807,0.965,3.813-0.141c1.008-1.107,0.912-2.825-0.212-3.811c-2.595-2.364-4.847-3.683-6.557-4.881
		c-1.705-1.198-2.896-2.199-4.18-4.376l-0.045-0.077c-0.026-0.103-0.05-0.18-0.09-0.404c-0.118-0.674-0.227-1.749-0.228-2.942
		c-0.002-2.387,0.495-5.269,1.598-6.975C48.279,38.673,46.915,36.249,44.733,36.339z"/>
	<path fill="#E51848" d="M61.329,25.5c-0.387-0.011-0.769,0.109-1.076,0.342L37.868,42.121c-0.782,0.556-0.961,1.639-0.397,2.414
		c0.564,0.774,1.651,0.94,2.418,0.368l22.384-16.278C63.626,27.67,62.982,25.546,61.329,25.5z"/>
	
		<rect x="56.781" y="23.477" transform="matrix(0.5883 0.8086 -0.8086 0.5883 46.7702 -41.2919)" fill="#E51848" width="14.311" height="3.618"/>
	<path fill="#E51848" d="M60.814,20.839l6.393,8.793l-0.146,0.105l-6.394-8.793L60.814,20.839z M62.582,17.427
		c-0.558-0.768-1.632-0.938-2.4-0.377l-2.927,2.126c-0.768,0.562-0.937,1.634-0.377,2.402l8.416,11.569
		c0.557,0.768,1.63,0.938,2.4,0.381l2.925-2.128c0.768-0.56,0.937-1.633,0.379-2.401L62.582,17.427z"/>
	<path fill="#E51848" d="M85.992,76.442c-4.902,0.044-9.807,0.417-14.717,0.984c-1.081,6.613-0.966,13.231,0.018,19.859
		c9.535,1.036,19.189,1.538,29.387,0.009c0.655-6.645,0.952-13.27,0.014-19.873C95.795,76.693,90.895,76.398,85.992,76.442z
		 M85.985,75.51c5.063-0.045,10.131,0.253,15.203,1.028l0.34,0.05l0.05,0.342c1.036,6.965,0.702,13.91,0.004,20.832l-0.035,0.358
		l-0.357,0.055c-10.588,1.639-20.572,1.084-30.381,0.003l-0.355-0.039l-0.053-0.353c-1.063-6.948-1.184-13.907,0-20.867l0.06-0.345
		l0.345-0.041C75.86,75.94,80.92,75.554,85.985,75.51L85.985,75.51z M71.249,73.362c-2.166,0.004-3.919,1.757-3.919,3.923v20.142
		c0,2.164,1.753,3.919,3.919,3.919h29.417c2.166,0,3.92-1.755,3.922-3.919V77.285c0-2.166-1.756-3.923-3.922-3.923H71.249z"/>
	<path fill="#E51848" d="M80.214,100.989h11.485v4.977H80.214V100.989z M78.128,99.952c-1.151,0-2.086-0.636-2.086,0.518v7.581
		c0,1.153,0.934,2.088,2.086,2.088h15.66c1.149,0,2.086-0.935,2.086-2.088v-7.581c0-1.15-0.937-0.518-2.086-0.518H78.128z"/>
	<path fill="#E51848" d="M74.104,106.363c-1.303-0.022-2.37,1.025-2.37,2.329c0,1.302,1.067,2.351,2.37,2.328h23.709
		c1.303,0.022,2.369-1.026,2.369-2.328c0-1.304-1.066-2.352-2.369-2.329H74.104z"/>
</g>
<g>
	<path fill="#E51848" d="M33.803,119.64v-2.75l4.55,3.975l4.525-3.95v10.45h-2.25v-5.675l-2.275,2.175L33.803,119.64z
		 M36.053,127.365h-2.25v-6.925l2.25,2.075V127.365z"/>
	<path fill="#E51848" d="M44.128,116.94h7.125c0.633,0,0.95,0.325,0.95,0.975v4.425c0,0.617-0.317,0.926-0.95,0.926h-2.125l3.2,4.1
		h-2.775l-2.675-3.425v-2.851h3.05v-1.925h-3.575v8.2h-2.225V116.94z"/>
	<path fill="#E51848" d="M53.428,119.64v-2.75l4.55,3.975l4.525-3.95v10.45h-2.25v-5.675l-2.275,2.175L53.428,119.64z
		 M55.678,127.365h-2.25v-6.925l2.25,2.075V127.365z"/>
	<path fill="#E51848" d="M64.678,127.365c-0.617,0-0.925-0.309-0.925-0.925v-8.55c0-0.634,0.308-0.95,0.925-0.95h6.25v2.149h-4.925
		v8.275H64.678z M66.528,125.165h4.4v2.2h-4.4V125.165z"/>
	<path fill="#E51848" d="M74.427,119.09v8.275h-2.25V116.94h7.226c0.566,0,0.851,0.309,0.851,0.925v8
		c0,0.15-0.047,0.313-0.139,0.487s-0.208,0.338-0.35,0.487c-0.142,0.15-0.3,0.275-0.475,0.375c-0.176,0.101-0.338,0.15-0.488,0.15
		h-3.85v-2.2h3.025v-6.075H74.427z"/>
	<path fill="#E51848" d="M81.503,125.215h2.25v2.15h-2.25V125.215z"/>
	<path fill="#E51848" d="M93.052,116.94v10.5l-8.051-7.625v-2.925l5.826,5.225v-5.175H93.052z M87.252,127.365h-2.25v-6.725
		l2.25,2.05V127.365z"/>
	<path fill="#E51848" d="M94.302,116.94h7.175v2.2h-4.925v6.074h4.925v2.15h-7.175V116.94z M97.102,121.09h3.5v2.176h-3.5V121.09z"
		/>
	<path fill="#E51848" d="M102.726,116.94h2.025v2.225h-2.025V116.94z M105.252,116.94h4.676v2.225h-2.426v8.2h-2.25V116.94z"/>
</g>
</svg>
