<?xml version="1.0" encoding="utf-8"?>
<!-- Generator: Adobe Illustrator 16.0.0, SVG Export Plug-In . SVG Version: 6.00 Build 0)  -->
<!DOCTYPE svg PUBLIC "-//W3C//DTD SVG 1.1//EN" "http://www.w3.org/Graphics/SVG/1.1/DTD/svg11.dtd">
<svg version="1.1" id="Ebene_1" xmlns="http://www.w3.org/2000/svg" xmlns:xlink="http://www.w3.org/1999/xlink" x="0px" y="0px"
	 width="141.73px" height="141.73px" viewBox="0 0 141.73 141.73" enable-background="new 0 0 141.73 141.73" xml:space="preserve">
<rect x="-0.001" y="-0.001" width="141.732" height="141.732"/>
<path fill="#BDBCBC" d="M19.678,9.859h102.375c5.071,0,9.055,3.978,9.055,9.047v103.918c0,5.07-3.982,9.051-9.055,9.051H19.678
	c-5.072,0-9.057-3.979-9.057-9.051V18.906C10.622,13.837,14.606,9.859,19.678,9.859z M19.678,3.485
	c-8.489,0-15.428,6.932-15.428,15.421v103.918c0,8.49,6.938,15.422,15.428,15.422h102.375c8.491,0,15.426-6.932,15.426-15.422
	V18.906c0-8.489-6.935-15.421-15.426-15.421H19.678z"/>
<g>
	<path fill="#BDBCBC" d="M82.884,18.554c-0.977-0.002-1.841,0.631-2.133,1.564L67.866,59.325c-0.416,1.179,0.216,2.471,1.405,2.861
		c1.189,0.39,2.465-0.272,2.83-1.47L84.987,21.51C85.487,20.065,84.413,18.559,82.884,18.554z"/>
	<path fill="#BDBCBC" d="M81.155,26.115c0,0-7.285-1.985-9.85-8.181c-6.468,4.167-8.035,10.015-5.266,16.022
		c6.345-4.586,12.807-2.635,12.807-2.635"/>
	<path fill="#BDBCBC" d="M72.136,15.277l-1.794,1.159c-3.499,2.251-5.836,5.091-6.833,8.286c-1.001,3.199-0.62,6.66,0.913,9.979
		l0.905,1.971l1.758-1.27c5.688-4.11,11.246-2.375,11.246-2.375l1.033-3.414c0,0-5.964-1.708-12.263,1.635
		c-0.545-1.924-0.718-3.768-0.189-5.462c0.572-1.826,1.814-3.584,3.812-5.199c3.469,5.558,9.965,7.249,9.965,7.249l0.936-3.44
		c0,0-6.513-1.925-8.67-7.143L72.136,15.277z"/>
	<path fill="#BDBCBC" d="M95.565,44.197c-1.364,0.01-2.535,0.978-2.8,2.315c0,0-9.174,40.912,12.021,65.977
		c1.016,1.241,2.851,1.412,4.077,0.376c1.227-1.037,1.366-2.877,0.308-4.085C90.565,86.781,98.382,47.705,98.382,47.705
		C98.792,45.902,97.415,44.187,95.565,44.197z"/>
	<path fill="#BDBCBC" d="M94.332,81.659c-1.257-0.038-2.394,0.747-2.801,1.938c0,0-1.813,5.052-3.417,10.916
		c-0.804,2.932-1.561,6.075-2.021,8.976c-0.462,2.903-0.739,5.469-0.094,7.885c0.398,1.542,1.977,2.464,3.52,2.053
		c1.538-0.41,2.449-1.998,2.026-3.533c-0.185-0.688-0.191-2.935,0.216-5.501c0.408-2.569,1.122-5.557,1.89-8.361
		c1.538-5.617,3.284-10.496,3.284-10.496C97.627,83.691,96.298,81.718,94.332,81.659z"/>
	<circle fill="#BDBCBC" cx="98.994" cy="31.789" r="9.236"/>
	<path fill="#BDBCBC" d="M72.216,43.791c-2.31-0.018-3.692,2.556-2.406,4.473C77.48,60.031,93.52,59.45,93.52,59.45
		c1.604,0,2.896-1.313,2.868-2.917c-0.024-1.602-1.356-2.874-2.96-2.824c0,0-13.285-0.106-18.809-8.581
		C74.099,44.302,73.193,43.799,72.216,43.791z"/>
	<path fill="#BDBCBC" d="M47.953,83.986c2.435,0,4.411,1.955,4.411,4.365c0,1.54-0.806,2.894-2.017,3.667
		c0,0,0.431,2.577,0.914,5.61c0,0.905-0.738,1.636-1.652,1.636h-3.31c-0.914,0-1.651-0.73-1.651-1.636l0.914-5.61
		c-1.211-0.773-2.017-2.127-2.017-3.667C43.544,85.941,45.518,83.986,47.953,83.986z M47.953,69.041
		c3.478,0,6.293,2.788,6.293,6.232v5.449H41.659v-5.45C41.659,71.829,44.475,69.041,47.953,69.041z M47.953,65.148
		c-5.649,0-10.228,4.532-10.228,10.125v5.449h-2.36c-1.739,0-3.146,1.394-3.146,3.115v15.576c0,1.722,1.406,3.114,3.146,3.114
		h25.176c1.738,0,3.148-1.394,3.148-3.114V83.838c0-1.723-1.411-3.115-3.148-3.115h-2.36v-5.45
		C58.181,69.68,53.602,65.148,47.953,65.148z"/>
	<path fill="#BDBCBC" d="M47.953,84.355c2.239,0,4.04,1.787,4.04,3.996c0,1.411-0.736,2.646-1.847,3.357l-0.205,0.131l0.041,0.242
		c0,0,0.429,2.559,0.906,5.555c-0.005,0.7-0.567,1.262-1.284,1.262H46.3c-0.717,0-1.277-0.562-1.281-1.262l0.944-5.796l-0.204-0.131
		c-1.11-0.711-1.846-1.946-1.846-3.357C43.913,86.142,45.715,84.355,47.953,84.355z M47.953,83.619
		c-2.631,0-4.778,2.121-4.778,4.732c0,1.567,0.815,2.913,1.996,3.772l-0.893,5.476v0.029c0,1.104,0.91,2.003,2.022,2.003h3.304
		c1.114,0,2.023-0.897,2.023-2.003v-0.029l-0.002-0.03c-0.472-2.943-0.864-5.296-0.89-5.444c1.184-0.86,1.995-2.206,1.995-3.772
		C52.732,85.739,50.587,83.619,47.953,83.619z M47.953,69.408c3.282,0,5.925,2.622,5.925,5.864v5.083H42.029v-5.083
		C42.029,72.03,44.674,69.408,47.953,69.408z M47.953,68.673c-3.675,0-6.662,2.954-6.662,6.599v5.82h13.323v-5.82
		C54.615,71.627,51.629,68.673,47.953,68.673z M47.953,65.514c5.453,0,9.861,4.367,9.861,9.759v5.82h2.728
		c1.542,0,2.781,1.225,2.781,2.745v15.575c0,1.521-1.24,2.744-2.781,2.744H35.365c-1.542,0-2.778-1.223-2.778-2.744V83.839
		c0-1.521,1.237-2.745,2.778-2.745h2.729v-5.82C38.094,69.882,42.503,65.514,47.953,65.514z M47.953,64.777
		c-5.846,0-10.597,4.702-10.597,10.497v5.083h-1.992c-1.935,0-3.517,1.562-3.517,3.482v15.575c0,1.924,1.582,3.483,3.517,3.483
		h25.176c1.935,0,3.517-1.56,3.517-3.483V83.839c0-1.921-1.582-3.482-3.517-3.482h-1.992v-5.084
		C58.55,69.479,53.799,64.777,47.953,64.777z"/>
</g>
<g>
	<path fill="#BDBCBC" d="M32.803,119.64v-2.75l4.55,3.975l4.525-3.95v10.45h-2.25v-5.675l-2.275,2.175L32.803,119.64z
		 M35.053,127.365h-2.25v-6.925l2.25,2.075V127.365z"/>
	<path fill="#BDBCBC" d="M43.128,116.94h7.125c0.633,0,0.95,0.325,0.95,0.975v4.425c0,0.617-0.317,0.926-0.95,0.926h-2.125l3.2,4.1
		h-2.775l-2.675-3.425v-2.851h3.05v-1.925h-3.575v8.2h-2.225V116.94z"/>
	<path fill="#BDBCBC" d="M52.428,119.64v-2.75l4.55,3.975l4.525-3.95v10.45h-2.25v-5.675l-2.275,2.175L52.428,119.64z
		 M54.678,127.365h-2.25v-6.925l2.25,2.075V127.365z"/>
	<path fill="#BDBCBC" d="M63.678,127.365c-0.617,0-0.925-0.309-0.925-0.925v-8.55c0-0.634,0.308-0.95,0.925-0.95h6.25v2.149h-4.925
		v8.275H63.678z M65.528,125.165h4.4v2.2h-4.4V125.165z"/>
	<path fill="#BDBCBC" d="M73.427,119.09v8.275h-2.25V116.94h7.225c0.566,0,0.851,0.309,0.851,0.925v8
		c0,0.15-0.047,0.313-0.139,0.487s-0.208,0.338-0.35,0.487c-0.142,0.15-0.3,0.275-0.475,0.375c-0.176,0.101-0.338,0.15-0.488,0.15
		h-3.85v-2.2h3.025v-6.075H73.427z"/>
	<path fill="#BDBCBC" d="M80.503,125.215h2.25v2.15h-2.25V125.215z"/>
	<path fill="#BDBCBC" d="M92.052,116.94v10.5l-8.051-7.625v-2.925l5.826,5.225v-5.175H92.052z M86.252,127.365h-2.25v-6.725
		l2.25,2.05V127.365z"/>
	<path fill="#BDBCBC" d="M93.302,116.94h7.175v2.2h-4.925v6.074h4.925v2.15h-7.175V116.94z M96.102,121.09h3.5v2.176h-3.5V121.09z"
		/>
	<path fill="#BDBCBC" d="M101.726,116.94h2.025v2.225h-2.025V116.94z M104.252,116.94h4.676v2.225h-2.426v8.2h-2.25V116.94z"/>
</g>
</svg>
