<?xml version="1.0" encoding="utf-8"?>
<!-- Generator: Adobe Illustrator 16.0.0, SVG Export Plug-In . SVG Version: 6.00 Build 0)  -->
<!DOCTYPE svg PUBLIC "-//W3C//DTD SVG 1.1//EN" "http://www.w3.org/Graphics/SVG/1.1/DTD/svg11.dtd">
<svg version="1.1" id="Ebene_1" xmlns="http://www.w3.org/2000/svg" xmlns:xlink="http://www.w3.org/1999/xlink" x="0px" y="0px"
	 width="141.73px" height="141.73px" viewBox="0 0 141.73 141.73" enable-background="new 0 0 141.73 141.73" xml:space="preserve">
<rect x="-0.001" y="-0.001" width="141.732" height="141.732"/>
<path fill="#009942" d="M53.599,73.38c-2.396-0.021-4.043,2.404-3.135,4.624c3.912,9.939,5.083,21.768,1.85,32.201
	c-0.583,1.778,0.403,3.693,2.192,4.248c1.789,0.556,3.688-0.463,4.211-2.261c3.786-12.211,2.392-25.461-2.014-36.646
	C56.215,74.253,54.982,73.392,53.599,73.38z"/>
<path fill="#009942" d="M43.528,40.29c-2.541-0.04-4.201,2.654-3.022,4.906c4.704,9.287,8.977,19.511,9.696,30.153
	c0.722,10.646-1.916,21.761-11.589,33.645c-1.214,1.436-1.014,3.583,0.442,4.771c1.456,1.183,3.604,0.939,4.761-0.537
	c10.614-13.045,13.896-26.211,13.075-38.329c-0.821-12.122-5.551-23.15-10.401-32.73C45.934,41.034,44.788,40.308,43.528,40.29z"/>
<path fill="#009942" d="M47.146,26.953c0,3.114-1.236,6.097-3.438,8.298c-2.201,2.2-5.188,3.438-8.3,3.438
	c-3.113,0-6.097-1.235-8.297-3.438c-2.201-2.201-3.438-5.185-3.438-8.298c0-6.483,5.255-11.736,11.734-11.736
	C41.892,15.217,47.146,20.469,47.146,26.953z"/>
<path fill="#009942" d="M46.129,45.328c-4.098-0.135-4.808,5.797-0.797,6.634l27.601,6.147c1.821,0.434,3.646-0.707,4.054-2.534
	c0.406-1.827-0.762-3.635-2.597-4.015l-27.598-6.146C46.574,45.364,46.352,45.336,46.129,45.328z"/>
<path fill="#009942" d="M97.323,60.417c0.535-2.223,1.255-3.956,2.261-4.854c1.006-0.901,2.401-1.343,5.347-0.632
	c2.94,0.709,5.938,2.375,7.952,4.311c2.02,1.94,2.909,3.99,2.537,5.539c-0.371,1.547-2.102,2.967-4.776,3.774
	c-2.68,0.81-6.104,0.928-9.049,0.216c-2.944-0.709-3.986-1.74-4.473-2.998C96.638,64.513,96.787,62.642,97.323,60.417z
	 M94.286,59.686c-0.588,2.438-0.967,4.908-0.079,7.21c0.889,2.305,3.121,4.061,6.655,4.912c3.535,0.852,7.404,0.729,10.683-0.262
	c3.276-0.988,6.165-2.924,6.915-6.035c0.749-3.113-0.939-6.148-3.408-8.522s-5.854-4.248-9.39-5.099
	c-3.535-0.852-6.323-0.303-8.163,1.343C95.66,54.881,94.874,57.249,94.286,59.686z"/>
<rect x="83.798" y="46.412" transform="matrix(0.2152 -0.9766 0.9766 0.2152 10.8596 128.4636)" fill="#009942" width="3.126" height="22.126"/>
<path fill="#009942" d="M70.708,102.648c9.533-0.481,19.099-2.978,26.605-8.485c6.651-4.829,11.453-12.261,12.896-20.314
	c1.028,2.298,1.166,6.275-0.479,10.887c-1.659,4.645-4.963,9.398-9.813,13.01c-5.286,3.903-11.334,5.971-16.85,6.577
	C77.63,104.92,73.12,104.063,70.708,102.648z"/>
<path fill="#009942" d="M105.257,53.281c-2.735,5.668-4.054,11.319-4.087,16.917l2.345,0.018c0.03-5.239,1.253-10.525,3.854-15.91
	l-2.11-1.021L105.257,53.281L105.257,53.281z"/>
<rect x="97.975" y="59.841" transform="matrix(0.229 -0.9734 0.9734 0.229 14.5988 145.4975)" fill="#009942" width="2.346" height="7.384"/>
<polygon fill="#009942" points="97.169,56.241 96.669,58.532 103.829,60.084 104.329,57.793 "/>
<path fill="#009942" d="M19.677,9.857h102.374c5.071,0,9.056,3.978,9.056,9.05v103.916c0,5.071-3.983,9.051-9.056,9.051H19.677
	c-5.071,0-9.055-3.979-9.055-9.051V18.906C10.622,13.834,14.605,9.857,19.677,9.857z M19.677,3.484
	c-8.489,0-15.427,6.933-15.427,15.422v103.916c0,8.493,6.938,15.424,15.427,15.424h102.374c8.492,0,15.429-6.932,15.429-15.424
	V18.906c0-8.489-6.937-15.422-15.429-15.422H19.677z"/>
<g>
	<path fill="#009A42" d="M32.803,119.64v-2.75l4.55,3.975l4.525-3.95v10.45h-2.25v-5.675l-2.275,2.175L32.803,119.64z
		 M35.053,127.365h-2.25v-6.925l2.25,2.075V127.365z"/>
	<path fill="#009A42" d="M43.128,116.94h7.125c0.633,0,0.95,0.325,0.95,0.975v4.425c0,0.617-0.317,0.926-0.95,0.926h-2.125l3.2,4.1
		h-2.775l-2.675-3.425v-2.851h3.05v-1.925h-3.575v8.2h-2.225V116.94z"/>
	<path fill="#009A42" d="M52.428,119.64v-2.75l4.55,3.975l4.525-3.95v10.45h-2.25v-5.675l-2.275,2.175L52.428,119.64z
		 M54.678,127.365h-2.25v-6.925l2.25,2.075V127.365z"/>
	<path fill="#009A42" d="M63.678,127.365c-0.617,0-0.925-0.309-0.925-0.925v-8.55c0-0.634,0.308-0.95,0.925-0.95h6.25v2.149h-4.925
		v8.275H63.678z M65.528,125.165h4.4v2.2h-4.4V125.165z"/>
	<path fill="#009A42" d="M73.427,119.09v8.275h-2.25V116.94h7.225c0.566,0,0.851,0.309,0.851,0.925v8
		c0,0.15-0.047,0.313-0.139,0.487s-0.208,0.338-0.35,0.487c-0.142,0.15-0.3,0.275-0.475,0.375c-0.176,0.101-0.338,0.15-0.488,0.15
		h-3.85v-2.2h3.025v-6.075H73.427z"/>
	<path fill="#009A42" d="M80.503,125.215h2.25v2.15h-2.25V125.215z"/>
	<path fill="#009A42" d="M92.052,116.94v10.5l-8.051-7.625v-2.925l5.826,5.225v-5.175H92.052z M86.252,127.365h-2.25v-6.725
		l2.25,2.05V127.365z"/>
	<path fill="#009A42" d="M93.302,116.94h7.175v2.2h-4.925v6.074h4.925v2.15h-7.175V116.94z M96.102,121.09h3.5v2.176h-3.5V121.09z"
		/>
	<path fill="#009A42" d="M101.726,116.94h2.025v2.225h-2.025V116.94z M104.252,116.94h4.676v2.225h-2.426v8.2h-2.25V116.94z"/>
</g>
</svg>
