<?xml version="1.0" encoding="utf-8"?>
<!-- Generator: Adobe Illustrator 16.0.0, SVG Export Plug-In . SVG Version: 6.00 Build 0)  -->
<!DOCTYPE svg PUBLIC "-//W3C//DTD SVG 1.1//EN" "http://www.w3.org/Graphics/SVG/1.1/DTD/svg11.dtd">
<svg version="1.1" id="Ebene_1" xmlns="http://www.w3.org/2000/svg" xmlns:xlink="http://www.w3.org/1999/xlink" x="0px" y="0px"
	 width="141.73px" height="141.73px" viewBox="0 0 141.73 141.73" enable-background="new 0 0 141.73 141.73" xml:space="preserve">
<rect x="-0.001" y="-0.001" width="141.732" height="141.732"/>
<path fill="#FFFFFF" d="M40.38,51.094c-1.535,0.002-2.292,1.869-1.186,2.938c14.193,14.16,17.058,38.301,1.997,54.578
	c-0.658,0.688-0.621,1.784,0.079,2.432c0.699,0.648,1.791,0.601,2.431-0.109c16.35-17.668,13.318-43.948-2.092-59.323
	C41.287,51.28,40.844,51.094,40.38,51.094z"/>
<path fill="#FFFFFF" d="M42.014,22.899c-2.354,0.549-3.259,3.42-1.648,5.222L51.58,41.043L39.68,55.753
	c-1.142,1.365-0.939,3.398,0.441,4.517s3.413,0.89,4.511-0.512l15.259-18.86L45.177,23.946
	C44.401,23.031,43.182,22.624,42.014,22.899z"/>
<path fill="#FFFFFF" d="M72.068,31.35c-7.635,1.793-13.912,4.767-18.143,7.641c-1.474,0.982-1.867,2.977-0.869,4.444
	c0.998,1.465,2.998,1.836,4.453,0.823c4.618-3.141,13.143-6.891,23.27-7.924c10.127-1.032,21.857,0.54,33.567,7.81
	c1.498,0.952,3.479,0.5,4.418-1.011c0.935-1.505,0.458-3.485-1.06-4.403c-12.989-8.063-26.285-9.884-37.574-8.733
	C77.31,30.287,74.615,30.754,72.068,31.35z"/>
<path fill="#FFFFFF" d="M93.909,24.973c-4.601,1.199-9.014,2.871-13.015,5.02c-1.578,0.818-2.183,2.766-1.343,4.332
	c0.843,1.565,2.798,2.144,4.354,1.281c9.297-4.984,21.943-7.229,33.068-6.418c1.771,0.16,3.33-1.164,3.459-2.939
	c0.129-1.771-1.218-3.311-2.995-3.412C109.755,22.275,101.573,22.973,93.909,24.973z"/>
<path fill="#FFFFFF" d="M43.248,37.858c0.667,2.879,0.165,5.908-1.397,8.416c-1.563,2.507-4.062,4.294-6.941,4.961
	c-2.878,0.671-5.905,0.167-8.417-1.396c-2.508-1.563-4.295-4.06-4.961-6.938c-0.668-2.88-0.167-5.907,1.398-8.418
	c1.563-2.509,4.06-4.295,6.938-4.961c2.88-0.669,5.908-0.165,8.417,1.397C40.793,32.483,42.577,34.979,43.248,37.858z"/>
<path fill="#FFFFFF" d="M75.245,53.431c-0.945,0.017-1.698,0.792-1.685,1.736v54.571c-0.018,0.957,0.753,1.739,1.709,1.739
	c0.955,0,1.729-0.782,1.711-1.739V55.168C76.995,54.202,76.21,53.418,75.245,53.431z"/>
<path fill="#FFFFFF" d="M67.878,47.917c-1.895,1.896-3.069,4.515-3.069,7.394c0,2.878,1.176,5.495,3.069,7.391l2.405-2.404
	c-1.271-1.272-2.057-3.033-2.057-4.986c0-1.958,0.786-3.718,2.057-4.99v-0.002L67.878,47.917z M82.663,47.917l-2.404,2.4v0.003
	c1.271,1.272,2.056,3.033,2.056,4.99c0,1.953-0.782,3.714-2.056,4.986l2.401,2.404h0.003c1.896-1.896,3.071-4.513,3.071-7.391
	C85.734,52.427,84.558,49.812,82.663,47.917z"/>
<path fill="#FFFFFF" d="M87.396,43.183l-2.404,2.401c2.484,2.483,4.018,5.921,4.018,9.724c0,3.805-1.532,7.239-4.018,9.723
	l2.404,2.403c3.106-3.105,5.034-7.398,5.034-12.126C92.43,50.58,90.504,46.289,87.396,43.183z M63.145,43.183
	c-3.11,3.106-5.036,7.396-5.036,12.125c0,4.728,1.926,9.02,5.036,12.126l2.4-2.403c-2.483-2.483-4.017-5.917-4.017-9.723
	c0-3.803,1.534-7.239,4.017-9.724L63.145,43.183z"/>
<path fill="#FFFFFF" d="M19.678,9.857h102.373c5.072,0,9.057,3.978,9.057,9.049v103.915c0,5.071-3.983,9.052-9.057,9.052H19.678
	c-5.072,0-9.056-3.979-9.056-9.052V18.906C10.623,13.835,14.606,9.857,19.678,9.857z M19.678,3.485
	c-8.489,0-15.428,6.933-15.428,15.422v103.915c0,8.493,6.938,15.424,15.428,15.424h102.373c8.492,0,15.429-6.932,15.429-15.424
	V18.906c0-8.489-6.936-15.422-15.429-15.422L19.678,3.485L19.678,3.485z"/>
<g>
	<path fill="#FFFFFF" d="M32.803,118.64v-2.75l4.55,3.975l4.525-3.95v10.45h-2.25v-5.675l-2.275,2.175L32.803,118.64z
		 M35.053,126.365h-2.25v-6.925l2.25,2.075V126.365z"/>
	<path fill="#FFFFFF" d="M43.128,115.94h7.125c0.633,0,0.95,0.325,0.95,0.975v4.425c0,0.617-0.317,0.926-0.95,0.926h-2.125l3.2,4.1
		h-2.775l-2.675-3.425v-2.851h3.05v-1.925h-3.575v8.2h-2.225V115.94z"/>
	<path fill="#FFFFFF" d="M52.427,118.64v-2.75l4.55,3.975l4.525-3.95v10.45h-2.25v-5.675l-2.275,2.175L52.427,118.64z
		 M54.677,126.365h-2.25v-6.925l2.25,2.075V126.365z"/>
	<path fill="#FFFFFF" d="M63.677,126.365c-0.617,0-0.925-0.309-0.925-0.925v-8.55c0-0.634,0.308-0.95,0.925-0.95h6.25v2.149h-4.925
		v8.275H63.677z M65.528,124.165h4.4v2.2h-4.4V124.165z"/>
	<path fill="#FFFFFF" d="M73.427,118.09v8.275h-2.25V115.94h7.225c0.566,0,0.851,0.309,0.851,0.925v8
		c0,0.15-0.046,0.313-0.138,0.487s-0.209,0.338-0.35,0.487c-0.143,0.15-0.301,0.275-0.476,0.375c-0.175,0.101-0.337,0.15-0.487,0.15
		h-3.85v-2.2h3.024v-6.075H73.427z"/>
	<path fill="#FFFFFF" d="M80.502,124.215h2.25v2.15h-2.25V124.215z"/>
	<path fill="#FFFFFF" d="M92.052,115.94v10.5l-8.05-7.625v-2.925l5.825,5.225v-5.175H92.052z M86.252,126.365h-2.25v-6.725
		l2.25,2.05V126.365z"/>
	<path fill="#FFFFFF" d="M93.302,115.94h7.174v2.2h-4.924v6.074h4.924v2.15h-7.174V115.94z M96.101,120.09h3.5v2.176h-3.5V120.09z"
		/>
	<path fill="#FFFFFF" d="M101.726,115.94h2.025v2.225h-2.025V115.94z M104.252,115.94h4.675v2.225h-2.425v8.2h-2.25V115.94z"/>
</g>
</svg>
