<?xml version="1.0" encoding="UTF-8" standalone="no"?>
<!DOCTYPE svg PUBLIC "-//W3C//DTD SVG 1.1//EN" "http://www.w3.org/Graphics/SVG/1.1/DTD/svg11.dtd">
<svg width="100%" height="100%" viewBox="0 0 4961 7016" version="1.1" xmlns="http://www.w3.org/2000/svg" xmlns:xlink="http://www.w3.org/1999/xlink" xml:space="preserve" xmlns:serif="http://www.serif.com/" style="fill-rule:evenodd;clip-rule:evenodd;stroke-linecap:round;stroke-linejoin:round;stroke-miterlimit:1.5;">
    <g transform="matrix(0.997463,0,0,1.00669,13.3478,-37.4237)">
        <g id="Background">
            <rect x="-37.064" y="13.71" width="5020.61" height="7016.05" style="fill:rgb(36,36,36);"/>
        </g>
    </g>
    <g id="Person" transform="matrix(0.847017,0,0,0.847017,121.023,375.813)">
        <g transform="matrix(0.995584,-0.0938769,0.0938769,0.995584,-1344.24,-4511.84)">
            <path d="M1826.02,4765.36C1908.53,4761.09 1950.68,4781.78 2009.13,4813.13C2048.83,4834.43 2047.36,4941.24 2038.85,4977.37C2013.05,4940.1 1923.78,4865.47 1834.47,4864.48C1795.31,4864.05 1809.7,4766.2 1826.02,4765.36Z" style="fill:rgb(148,146,144);stroke:rgb(148,146,144);stroke-width:19.68px;"/>
        </g>
        <g transform="matrix(1,0,0,1,-887.895,-4705.86)">
            <g transform="matrix(-0.812085,-0.58354,0.58354,-0.812085,-1127.19,10968.3)">
                <path d="M1242.17,5704.09C1245.91,5697.62 1247.88,5690.28 1247.88,5682.8C1247.88,5659.3 1228.79,5640.22 1205.29,5640.22C1181.79,5640.22 1162.71,5659.3 1162.71,5682.8C1162.71,5690.28 1164.67,5697.62 1168.41,5704.09L1242.17,5704.09Z" style="fill:rgb(0,130,244);stroke:rgb(0,130,244);stroke-width:39.35px;"/>
            </g>
            <g transform="matrix(0.799709,0,0,0.806023,325.665,529.695)">
                <circle cx="1752.51" cy="5465.01" r="241.035" style="fill:rgb(0,130,244);stroke:rgb(0,130,244);stroke-width:49.02px;"/>
            </g>
            <g transform="matrix(-0.942526,0.256614,-0.246264,-0.90451,5557.34,10381.7)">
                <path d="M2167.22,5779.73C2171.31,5772.97 2173.45,5765.29 2173.45,5757.48C2173.45,5732.93 2152.61,5712.99 2126.94,5712.99C2101.27,5712.99 2080.43,5732.93 2080.43,5757.48C2080.43,5765.29 2082.58,5772.97 2086.66,5779.73L2167.22,5779.73Z" style="fill:rgb(0,130,244);stroke:rgb(0,130,244);stroke-width:41.11px;"/>
            </g>
            <path d="M1576.67,5137.48C1728.8,5236.53 1861.84,5151.58 1861.84,5151.58C1861.84,5151.58 1954.25,5202.29 2046.75,5359.36C2095.07,5441.41 2142.8,5531.69 2146.03,5628.41C2146.89,5654.06 2052.04,5683.34 2021.79,5633.42C1967.31,5543.5 1881.85,5394.89 1881.85,5394.89C1881.85,5394.89 1952.17,5639.06 1915.27,5799.98C1910.15,5822.32 1824.96,5841.61 1680.12,5834.65C1536.58,5827.75 1461.06,5797.27 1458.69,5775.39C1437.5,5580.29 1539.6,5395.68 1539.6,5395.68C1539.6,5395.68 1387.19,5572.02 1334.13,5615.04C1302.5,5640.68 1199.39,5563.4 1219.77,5521.68C1301.86,5353.68 1412.75,5272.65 1576.67,5137.48Z" style="fill:rgb(227,47,103);stroke:rgb(227,47,103);stroke-width:39.35px;"/>
            <path d="M1446.71,5839.84C1446.71,5839.84 1531.01,5884.92 1668.12,5890.18C1833.88,5896.55 1911.77,5868.17 1911.77,5868.17C1911.77,5868.17 1947.65,6023.85 1949.26,6180.73C1950.14,6266.94 1952.3,6358.26 1936.11,6466.65C1928.08,6520.46 1736.16,6534.6 1727.27,6488.42C1699.04,6341.83 1663.46,6072.15 1663.46,6072.15C1663.46,6072.15 1592.52,6330.31 1524.64,6476.41C1503.97,6520.9 1355.23,6516.35 1349.37,6453.31C1337.91,6330.17 1345.83,6249.05 1368.49,6127.59C1402.08,5947.47 1446.71,5839.84 1446.71,5839.84Z" style="stroke:black;stroke-width:39.35px;"/>
        </g>
        <g transform="matrix(1.17793,0.07957,-0.07957,1.17793,-577.139,-5567.49)">
            <path d="M1283.89,6176.68C1323.31,6203.29 1377.89,6210.01 1439.1,6192.36C1454,6190.51 1541.84,6249.44 1501.11,6260.32C1435.59,6277.83 1339.03,6271.41 1300.66,6251.59C1277.57,6239.66 1274.91,6216.8 1283.89,6176.68Z" style="fill:rgb(227,47,103);stroke:rgb(227,47,103);stroke-width:12.5px;"/>
        </g>
        <g transform="matrix(1.28776,-0.302824,0.270255,1.14926,-2448.07,-4858.38)">
            <path d="M1283.89,6176.68C1323.31,6203.29 1377.89,6210.01 1439.1,6192.36C1454,6190.51 1541.84,6249.44 1501.11,6260.32C1435.59,6277.83 1339.03,6271.41 1300.66,6251.59C1277.57,6239.66 1274.91,6216.8 1283.89,6176.68Z" style="fill:rgb(227,47,103);stroke:rgb(227,47,103);stroke-width:11.77px;"/>
        </g>
        <g transform="matrix(1,0,0,1,-887.895,-4705.86)">
            <path d="M1688.7,5006.77C1688.7,5006.77 1701.59,5037.37 1718.08,5035.94C1765.48,5031.84 1784.99,5038.14 1838.06,5048.05" style="fill:none;stroke:black;stroke-width:14.76px;"/>
        </g>
        <g transform="matrix(1,0,0,1,-887.895,-4705.86)">
            <g transform="matrix(1,0,0,1,-2.80849,16.3533)">
                <path d="M1700.3,4837.23C1622.44,4844.21 1569.52,4851.35 1526.44,4870.4C1514.97,4875.48 1515.28,4931.72 1522.76,4928.04C1561.65,4908.88 1648.01,4879.95 1693.55,4887.8L1700.3,4837.23Z" style="fill:rgb(179,179,179);stroke:rgb(220,220,220);stroke-width:5.72px;"/>
            </g>
            <g transform="matrix(1,0,0,1,-15.7594,-14.6583)">
                <path d="M1703.48,4836.41C1734.58,4813.87 1771.57,4799.77 1821.07,4782.99C1804.48,4833.33 1816.68,4880.36 1837.75,4879.16C1905.12,4875.3 1992.39,4902.53 2055.7,4973.78C2023.71,4985.96 1984.38,4984.18 1951.64,4987.76C1921.31,4963.59 1799.71,4932.14 1730.68,4936.83C1697.64,4939.07 1686.4,4848.78 1703.48,4836.41Z" style="fill:rgb(179,179,179);stroke:rgb(220,220,220);stroke-width:19.68px;"/>
            </g>
            <g transform="matrix(1,0,0,1,-28.025,-4.20821)">
                <path d="M1796.1,4788.17C1785.08,4841.55 1802.79,4885.39 1827.6,4885.71C1869.98,4886.24 1966.14,4894.9 2039.23,4970.78" style="fill:none;stroke:rgb(220,220,220);stroke-width:9.84px;"/>
            </g>
            <g transform="matrix(1,0,0,1,-13.1502,-11.2067)">
                <path d="M1730.53,4819.56C1712.63,4835.08 1715.81,4917.96 1739.53,4914.03C1797.29,4904.47 1924.67,4929.33 1971.2,4978.69" style="fill:none;stroke:rgb(220,220,220);stroke-width:9.84px;"/>
            </g>
            <g transform="matrix(0.995584,-0.0938769,0.0938769,0.995584,-456.346,194.017)">
                <path d="M1826.02,4765.36C1908.53,4761.09 1950.68,4781.78 2009.13,4813.13C2048.83,4834.43 2047.36,4941.24 2038.85,4977.37C2013.05,4940.1 1923.78,4865.47 1834.47,4864.48C1795.31,4864.05 1809.7,4766.2 1826.02,4765.36Z" style="fill:rgb(148,146,144);fill-opacity:0.42;stroke:rgb(220,220,220);stroke-width:19.68px;"/>
            </g>
            <g transform="matrix(1.07193,0.116574,-0.11538,1.06095,420.702,-519.254)">
                <path d="M1896.34,4841.61C1905.79,4836.14 1952.24,4810.55 1952.24,4810.55" style="fill:none;stroke:rgb(220,220,220);stroke-width:4px;"/>
            </g>
            <g transform="matrix(1.006,0.166168,-0.188065,0.989957,893.595,-265.975)">
                <path d="M1895.34,4822.26L1921.45,4805.99" style="fill:none;stroke:rgb(220,220,220);stroke-width:4.47px;"/>
            </g>
        </g>
    </g>
    <g id="Person-Toilette-3" serif:id="Person Toilette 3" transform="matrix(0.847017,0,0,0.847017,2901.23,2394.27)">
        <g transform="matrix(0.995584,-0.0938769,0.0938769,0.995584,-1344.24,-4511.84)">
            <path d="M1826.02,4765.36C1908.53,4761.09 1950.68,4781.78 2009.13,4813.13C2048.83,4834.43 2047.36,4941.24 2038.85,4977.37C2013.05,4940.1 1923.78,4865.47 1834.47,4864.48C1795.31,4864.05 1809.7,4766.2 1826.02,4765.36Z" style="fill:rgb(148,146,144);stroke:rgb(148,146,144);stroke-width:19.68px;"/>
        </g>
        <g transform="matrix(1,0,0,1,-887.895,-4705.86)">
            <g transform="matrix(0.799709,0,0,0.806023,382.48,530.685)">
                <circle cx="1752.51" cy="5465.01" r="241.035" style="fill:rgb(0,130,244);stroke:rgb(0,130,244);stroke-width:49.02px;"/>
            </g>
            <g transform="matrix(-0.209786,0.954042,-0.967632,-0.212774,8404.5,4651.29)">
                <path d="M2167.22,5779.73C2171.31,5772.97 2173.45,5765.29 2173.45,5757.48C2173.45,5732.93 2152.61,5712.99 2126.94,5712.99C2101.27,5712.99 2080.43,5732.93 2080.43,5757.48C2080.43,5765.29 2082.58,5772.97 2086.66,5779.73L2167.22,5779.73Z" style="fill:rgb(0,130,244);stroke:rgb(0,130,244);stroke-width:40px;"/>
            </g>
            <g transform="matrix(0.566229,0,0,1,845.797,0)">
                <path d="M1279.42,5877.14C1279.42,5877.14 1561,5908 1698.11,5913.27C1863.88,5919.63 2021.36,5870.01 2021.36,5870.01C2021.36,5870.01 2028.47,6025.67 1999.05,6181.66C1980.96,6277.62 1952.3,6358.26 1936.11,6466.65C1928.08,6520.46 1693.45,6522.77 1706.24,6477.52C1749.06,6326.05 1760.28,6111.45 1716.91,6114.43C1716.91,6114.43 1659.24,6346.8 1591.35,6492.9C1570.68,6537.39 1366.33,6515.71 1349.37,6453.31C1316.05,6330.74 1303.77,6272.53 1301.11,6150.4C1297.21,5971.02 1279.42,5877.14 1279.42,5877.14Z" style="stroke:black;stroke-width:48.43px;"/>
            </g>
            <g transform="matrix(-0.987663,-0.156597,0.156597,-0.987663,2067.52,11757.4)">
                <path d="M1242.17,5704.09C1245.91,5697.62 1247.88,5690.28 1247.88,5682.8C1247.88,5659.3 1228.79,5640.22 1205.29,5640.22C1181.79,5640.22 1162.71,5659.3 1162.71,5682.8C1162.71,5690.28 1164.67,5697.62 1168.41,5704.09L1242.17,5704.09Z" style="fill:rgb(0,130,244);stroke:rgb(0,130,244);stroke-width:39.35px;"/>
            </g>
            <g transform="matrix(0.769415,0,0,1,494.844,0)">
                <path d="M1485.67,5147.53C1649.3,5210.78 1722.39,5198.67 1826.28,5167.68C1842.73,5197.98 2038.05,5346.35 2038.05,5346.35C2038.05,5346.35 2221.86,5370.74 2303.84,5382.09C2336.82,5386.66 2364.21,5502.94 2278.55,5483.81C2218.66,5470.44 2001.74,5438.88 2001.74,5438.88L1849.37,5333.96C1849.37,5333.96 1952.17,5639.06 1915.27,5799.98C1914.17,5804.8 1803.54,5824.27 1803.54,5824.27C1803.54,5824.27 1787.93,5424.3 1743.66,5435.1C1707.32,5443.97 1750.67,5745.98 1728.3,5856.66C1718.39,5905.68 1631.73,5874.25 1612.83,5873.34C1556.86,5870.65 1570.79,5380.12 1527.7,5373.03C1481.71,5365.47 1507.33,5831.14 1507.33,5831.14C1507.33,5831.14 1411.29,5847.44 1403.79,5810.73C1359.16,5592.24 1313.14,5285.09 1485.67,5147.53Z" style="fill:rgb(227,47,103);stroke:rgb(227,47,103);stroke-width:44.11px;"/>
            </g>
        </g>
        <g transform="matrix(1.17793,0.07957,-0.07957,1.17793,-302.202,-5558.95)">
            <path d="M1283.89,6176.68C1323.31,6203.29 1377.89,6210.01 1439.1,6192.36C1454,6190.51 1541.84,6249.44 1501.11,6260.32C1435.59,6277.83 1339.03,6271.41 1300.66,6251.59C1277.57,6239.66 1274.91,6216.8 1283.89,6176.68Z" style="fill:rgb(227,47,103);stroke:rgb(227,47,103);stroke-width:12.5px;"/>
        </g>
        <g transform="matrix(1.11679,-0.262619,0.270255,1.14926,-2186.05,-4927.9)">
            <path d="M1283.89,6176.68C1323.31,6203.29 1377.89,6210.01 1439.1,6192.36C1454,6190.51 1541.84,6249.44 1501.11,6260.32C1435.59,6277.83 1339.46,6267.4 1339.46,6267.4C1341.28,6250.43 1321.93,6201.46 1283.89,6176.68Z" style="fill:rgb(227,47,103);stroke:rgb(227,47,103);stroke-width:12.68px;"/>
        </g>
        <g transform="matrix(1,0,0,1,-831.081,-4704.87)">
            <path d="M1688.7,5006.77C1688.7,5006.77 1701.59,5037.37 1718.08,5035.94C1765.48,5031.84 1784.99,5038.14 1838.06,5048.05" style="fill:none;stroke:black;stroke-width:14.76px;"/>
        </g>
        <g transform="matrix(1,0,0,1,-831.081,-4704.87)">
            <g transform="matrix(1,0,0,1,-2.80849,16.3533)">
                <path d="M1700.3,4837.23C1622.44,4844.21 1569.52,4851.35 1526.44,4870.4C1514.97,4875.48 1515.28,4931.72 1522.76,4928.04C1561.65,4908.88 1648.01,4879.95 1693.55,4887.8L1700.3,4837.23Z" style="fill:rgb(179,179,179);stroke:rgb(220,220,220);stroke-width:5.72px;"/>
            </g>
            <g transform="matrix(1,0,0,1,-15.7594,-14.6583)">
                <path d="M1703.48,4836.41C1734.58,4813.87 1771.57,4799.77 1821.07,4782.99C1804.48,4833.33 1816.68,4880.36 1837.75,4879.16C1905.12,4875.3 1992.39,4902.53 2055.7,4973.78C2023.71,4985.96 1984.38,4984.18 1951.64,4987.76C1921.31,4963.59 1799.71,4932.14 1730.68,4936.83C1697.64,4939.07 1686.4,4848.78 1703.48,4836.41Z" style="fill:rgb(179,179,179);stroke:rgb(220,220,220);stroke-width:19.68px;"/>
            </g>
            <g transform="matrix(1,0,0,1,-28.025,-4.20821)">
                <path d="M1796.1,4788.17C1785.08,4841.55 1802.79,4885.39 1827.6,4885.71C1869.98,4886.24 1966.14,4894.9 2039.23,4970.78" style="fill:none;stroke:rgb(220,220,220);stroke-width:9.84px;"/>
            </g>
            <g transform="matrix(1,0,0,1,-13.1502,-11.2067)">
                <path d="M1730.53,4819.56C1712.63,4835.08 1715.81,4917.96 1739.53,4914.03C1797.29,4904.47 1924.67,4929.33 1971.2,4978.69" style="fill:none;stroke:rgb(220,220,220);stroke-width:9.84px;"/>
            </g>
            <g transform="matrix(0.995584,-0.0938769,0.0938769,0.995584,-456.346,194.017)">
                <path d="M1826.02,4765.36C1908.53,4761.09 1950.68,4781.78 2009.13,4813.13C2048.83,4834.43 2047.36,4941.24 2038.85,4977.37C2013.05,4940.1 1923.78,4865.47 1834.47,4864.48C1795.31,4864.05 1809.7,4766.2 1826.02,4765.36Z" style="fill:rgb(148,146,144);fill-opacity:0.42;stroke:rgb(220,220,220);stroke-width:19.68px;"/>
            </g>
            <g transform="matrix(1.07193,0.116574,-0.11538,1.06095,420.702,-519.254)">
                <path d="M1896.34,4841.61C1905.79,4836.14 1952.24,4810.55 1952.24,4810.55" style="fill:none;stroke:rgb(220,220,220);stroke-width:4px;"/>
            </g>
            <g transform="matrix(1.006,0.166168,-0.188065,0.989957,893.595,-265.975)">
                <path d="M1895.34,4822.26L1921.45,4805.99" style="fill:none;stroke:rgb(220,220,220);stroke-width:4.47px;"/>
            </g>
        </g>
        <g transform="matrix(0.901129,0,0,0.955494,-2337.27,-2106.22)">
            <path d="M4030.78,3534.68C4061.95,3467.79 4265.29,3550.82 4307.05,3456.78C4328.43,3408.61 4377.78,3011.52 4546.14,2994.33L4520.82,3795.25C4520.82,3795.25 4234.2,3866.12 4155.97,3815.81C4077.74,3765.51 3999.61,3601.58 4030.78,3534.68Z" style="fill:rgb(147,145,144);stroke:rgb(148,146,144);stroke-width:29.13px;"/>
        </g>
        <g transform="matrix(0.949656,0,0,0.94628,-2422.22,-2108.45)">
            <path d="M4313.59,3035.2C4263.14,3025.36 4237.71,3066.84 4269.31,3080.99C4275.32,3083.69 4285.42,3070.09 4293.33,3058.7C4301.3,3047.22 4315.28,3035.53 4313.59,3035.2Z" style="fill:rgb(242,13,13);stroke:rgb(242,13,13);stroke-width:28.54px;"/>
        </g>
    </g>
    <g id="Person-Toilette-2" serif:id="Person Toilette 2" transform="matrix(0.847017,0,0,0.847017,1417.59,2155.59)">
        <g transform="matrix(0.995584,-0.0938769,0.0938769,0.995584,-1160.96,-4264.08)">
            <path d="M1826.02,4765.36C1908.53,4761.09 1950.68,4781.78 2009.13,4813.13C2048.83,4834.43 2047.36,4941.24 2038.85,4977.37C2013.05,4940.1 1923.78,4865.47 1834.47,4864.48C1795.31,4864.05 1809.7,4766.2 1826.02,4765.36Z" style="fill:rgb(148,146,144);stroke:rgb(148,146,144);stroke-width:19.68px;"/>
        </g>
        <g transform="matrix(1,0,0,1,-704.61,-4458.1)">
            <g transform="matrix(0.799709,0,0,0.806023,325.665,529.695)">
                <circle cx="1752.51" cy="5465.01" r="241.035" style="fill:rgb(0,130,244);stroke:rgb(0,130,244);stroke-width:49.02px;"/>
            </g>
            <path d="M1563.41,5129.35C1715.54,5228.39 1805.02,5184.29 1805.02,5184.29C1824.3,5221.2 1834.76,5243.8 1834.76,5243.8C1893.01,5264.19 1939.34,5313.62 1977.15,5351.87C1960.44,5342.64 2145.65,5186.73 2209.88,5178.47C2236.15,5175.09 2229.76,5258.51 2229.76,5258.51C2225.08,5288.73 1970.43,5492.97 1966.52,5454.09C1966.52,5454.09 1837.98,5321.53 1827.9,5384.77C1821.68,5397.03 1953.5,5505.12 1953.5,5505.12C1953.5,5505.12 2066.47,5488.87 2127.87,5484.41C2170.68,5481.3 2147.3,5565.34 2134.64,5568.1C2101.57,5575.32 1934.17,5615.3 1934.17,5615.3C1934.17,5615.3 1726.19,5516.48 1676.19,5472.67C1689.54,5528.39 1798.4,5617.66 1878.04,5645.05C1880.08,5691.77 1883.86,5716.42 1873.44,5748.72C1866.41,5770.54 1808.72,5790.63 1663.89,5783.67C1520.34,5776.77 1410.99,5730.02 1409.19,5712.62C1395.31,5577.84 1406.74,5489.13 1436.62,5356.37C1465.64,5227.43 1537.15,5123.31 1563.41,5129.35Z" style="fill:rgb(227,47,103);stroke:rgb(227,47,103);stroke-width:39.35px;"/>
            <g transform="matrix(0.848136,0,0,1,214.723,0)">
                <path d="M1402.57,5775.49C1402.57,5775.49 1534.47,5836.3 1671.59,5841.57C1837.35,5847.93 1954.79,5817.61 1954.79,5817.61C1971.98,5863.08 1944.73,5941.03 1944.73,5941.03C1945.55,5944.32 2178.74,5941.77 2236.49,5996.73C2298.95,6056.17 2341.86,6298.65 2325.67,6407.04C2317.63,6460.86 2064.41,6457.17 2055.52,6410.99C2027.29,6264.4 2051.95,6308.32 2046.09,6245.28C2037.98,6158.17 2101.26,6126.4 1893.45,6127.78C1817.48,6128.29 1486.56,6104.15 1454.28,6051.39C1373.99,5920.15 1402.57,5775.49 1402.57,5775.49Z" style="stroke:black;stroke-width:42.44px;"/>
            </g>
        </g>
        <g transform="matrix(1.31266,-0.164159,0.146504,1.17149,-1302.87,-4982.99)">
            <path d="M1283.89,6176.68C1323.31,6203.29 1377.89,6210.01 1439.1,6192.36C1454,6190.51 1541.84,6249.44 1501.11,6260.32C1435.59,6277.83 1339.03,6271.41 1300.66,6251.59C1277.57,6239.66 1274.91,6216.8 1283.89,6176.68Z" style="fill:rgb(227,47,103);stroke:rgb(227,47,103);stroke-width:11.77px;"/>
        </g>
        <g transform="matrix(1,0,0,1,-704.61,-4458.1)">
            <path d="M1718.08,5035.94C1765.48,5031.84 1784.99,5038.14 1838.06,5048.05" style="fill:none;stroke:black;stroke-width:14.76px;"/>
        </g>
        <g transform="matrix(1,0,0,1,-704.61,-4458.1)">
            <g transform="matrix(1,0,0,1,-2.80849,16.3533)">
                <path d="M1700.3,4837.23C1622.44,4844.21 1569.52,4851.35 1526.44,4870.4C1514.97,4875.48 1515.28,4931.72 1522.76,4928.04C1561.65,4908.88 1648.01,4879.95 1693.55,4887.8L1700.3,4837.23Z" style="fill:rgb(179,179,179);stroke:rgb(220,220,220);stroke-width:5.72px;"/>
            </g>
            <g transform="matrix(1,0,0,1,-15.7594,-14.6583)">
                <path d="M1703.48,4836.41C1734.58,4813.87 1771.57,4799.77 1821.07,4782.99C1804.48,4833.33 1816.68,4880.36 1837.75,4879.16C1905.12,4875.3 1992.39,4902.53 2055.7,4973.78C2023.71,4985.96 1984.38,4984.18 1951.64,4987.76C1921.31,4963.59 1799.71,4932.14 1730.68,4936.83C1697.64,4939.07 1686.4,4848.78 1703.48,4836.41Z" style="fill:rgb(179,179,179);stroke:rgb(220,220,220);stroke-width:19.68px;"/>
            </g>
            <g transform="matrix(1,0,0,1,-28.025,-4.20821)">
                <path d="M1796.1,4788.17C1785.08,4841.55 1802.79,4885.39 1827.6,4885.71C1869.98,4886.24 1966.14,4894.9 2039.23,4970.78" style="fill:none;stroke:rgb(220,220,220);stroke-width:9.84px;"/>
            </g>
            <g transform="matrix(1,0,0,1,-13.1502,-11.2067)">
                <path d="M1730.53,4819.56C1712.63,4835.08 1715.81,4917.96 1739.53,4914.03C1797.29,4904.47 1924.67,4929.33 1971.2,4978.69" style="fill:none;stroke:rgb(220,220,220);stroke-width:9.84px;"/>
            </g>
            <g transform="matrix(0.995584,-0.0938769,0.0938769,0.995584,-456.346,194.017)">
                <path d="M1826.02,4765.36C1908.53,4761.09 1950.68,4781.78 2009.13,4813.13C2048.83,4834.43 2047.36,4941.24 2038.85,4977.37C2013.05,4940.1 1923.78,4865.47 1834.47,4864.48C1795.31,4864.05 1809.7,4766.2 1826.02,4765.36Z" style="fill:rgb(148,146,144);fill-opacity:0.42;stroke:rgb(220,220,220);stroke-width:19.68px;"/>
            </g>
            <g transform="matrix(1.07193,0.116574,-0.11538,1.06095,420.702,-519.254)">
                <path d="M1896.34,4841.61C1905.79,4836.14 1952.24,4810.55 1952.24,4810.55" style="fill:none;stroke:rgb(220,220,220);stroke-width:4px;"/>
            </g>
            <g transform="matrix(1.006,0.166168,-0.188065,0.989957,893.595,-265.975)">
                <path d="M1895.34,4822.26L1921.45,4805.99" style="fill:none;stroke:rgb(220,220,220);stroke-width:4.47px;"/>
            </g>
        </g>
        <g transform="matrix(1.18061,0,0,1.18061,-3282.1,-2626.49)">
            <path d="M3260.76,3615.03C3298.02,3576.29 3352.08,3648.09 3451.51,3664.97C3551.33,3681.91 3782.68,3681.38 3773.39,3713.89C3738.33,3836.65 3631.85,3855.12 3527.38,3878.84C3549.49,3919.06 3546.89,4017.68 3534.78,4051.95C3463.46,4069.36 3400.5,4054.18 3327.64,4031.32C3324.99,3998.42 3335.77,3923.76 3367.66,3865.53C3282.63,3860.7 3179.32,3699.68 3260.76,3615.03Z" style="fill:rgb(148,146,144);stroke:rgb(148,146,144);stroke-width:22.92px;"/>
        </g>
        <g transform="matrix(0.940364,0.181795,-0.204267,1.0566,-1797.39,-2769.95)">
            <path d="M3232.18,3573.55C3324.72,3586.37 3215.58,3260.25 3160.29,3082.23C3138.93,3013.47 3029.4,3146.28 3039.7,3262.93C3053.52,3419.43 3151.63,3562.39 3232.18,3573.55Z" style="fill:rgb(148,146,144);stroke:rgb(148,146,144);stroke-width:26.56px;"/>
        </g>
        <g transform="matrix(1.17492,0.11579,-0.109014,1.17559,-2945.3,-3229.61)">
            <path d="M4155.04,2815.54C4218.22,2877.95 4288.73,2925 4371.11,2947.21C4335.31,3060.51 4310.19,3205.34 4312.56,3341.07C4228.26,3309.49 4106.8,3399.37 4071.81,3405.83C4083.24,3324.8 4125.27,3181.39 4100.7,3099.28C4171.24,3054.12 4300.93,3002.37 4349.94,2972.06C4353.28,2928.26 4240.97,2994.84 4150.49,3036.1C4171.78,2961.1 4182.18,2886.92 4155.04,2815.54Z" style="fill:rgb(148,146,144);stroke:rgb(148,146,144);stroke-width:22.85px;"/>
        </g>
        <g transform="matrix(-0.0956948,0.897115,-0.810359,-0.0864406,6233.18,474.872)">
            <path d="M1242.17,5704.09C1245.91,5697.62 1247.88,5690.28 1247.88,5682.8C1247.88,5659.3 1228.79,5640.22 1205.29,5640.22C1181.79,5640.22 1162.71,5659.3 1162.71,5682.8C1162.71,5690.28 1164.67,5697.62 1168.41,5704.09L1242.17,5704.09Z" style="fill:rgb(0,130,244);stroke:rgb(0,130,244);stroke-width:45.78px;"/>
        </g>
        <g transform="matrix(0.190738,0.958032,-0.919391,0.183045,6475.71,-2359.18)">
            <path d="M2167.22,5779.73C2171.31,5772.97 2173.45,5765.29 2173.45,5757.48C2173.45,5732.93 2152.61,5712.99 2126.94,5712.99C2101.27,5712.99 2080.43,5732.93 2080.43,5757.48C2080.43,5765.29 2082.58,5772.97 2086.66,5779.73L2167.22,5779.73Z" style="fill:rgb(0,130,244);stroke:rgb(0,130,244);stroke-width:41.11px;"/>
        </g>
    </g>
    <g id="Person-talk" serif:id="Person talk" transform="matrix(0.847017,0,0,0.847017,166.443,4930.67)">
        <g transform="matrix(1.16632,0,0,1.06582,-647.644,-5575.19)">
            <path d="M3674.22,4756.05C3674.22,4552.29 3523.05,4386.87 3336.85,4386.87L1762.96,4386.87C1576.76,4386.87 1425.59,4552.29 1425.59,4756.05L1425.59,5494.42C1425.59,5698.18 1576.76,5863.6 1762.96,5863.6L3336.85,5863.6C3523.05,5863.6 3674.22,5698.18 3674.22,5494.42L3674.22,4756.05Z" style="fill:rgb(147,145,144);"/>
        </g>
        <g transform="matrix(0.995584,-0.0938769,0.0938769,0.995584,-1344.24,-4511.84)">
            <path d="M1826.02,4765.36C1908.53,4761.09 1950.68,4781.78 2009.13,4813.13C2048.83,4834.43 2047.36,4941.24 2038.85,4977.37C2013.05,4940.1 1923.78,4865.47 1834.47,4864.48C1795.31,4864.05 1809.7,4766.2 1826.02,4765.36Z" style="fill:rgb(148,146,144);stroke:rgb(148,146,144);stroke-width:19.68px;"/>
        </g>
        <g transform="matrix(1,0,0,1,-887.895,-4705.86)">
            <g transform="matrix(-0.812085,-0.58354,0.58354,-0.812085,-1127.19,10968.3)">
                <path d="M1242.17,5704.09C1245.91,5697.62 1247.88,5690.28 1247.88,5682.8C1247.88,5659.3 1228.79,5640.22 1205.29,5640.22C1181.79,5640.22 1162.71,5659.3 1162.71,5682.8C1162.71,5690.28 1164.67,5697.62 1168.41,5704.09L1242.17,5704.09Z" style="fill:rgb(0,130,244);stroke:rgb(0,130,244);stroke-width:39.35px;"/>
            </g>
            <g transform="matrix(0.799709,0,0,0.806023,325.665,529.695)">
                <circle cx="1752.51" cy="5465.01" r="241.035" style="fill:rgb(0,130,244);stroke:rgb(0,130,244);stroke-width:49.02px;"/>
            </g>
            <path d="M1576.67,5137.48C1728.8,5236.53 1861.84,5151.58 1861.84,5151.58L2046.75,5359.36C2046.75,5359.36 2091.15,5279.41 2175.23,5231.51C2204.78,5214.67 2262.59,5283.01 2231.35,5325.04C2156.65,5425.55 1992.92,5549.28 1992.92,5549.28L1885.88,5359.41C1885.88,5359.41 1952.17,5639.06 1915.27,5799.98C1910.15,5822.32 1824.96,5841.61 1680.12,5834.65C1536.58,5827.75 1461.06,5797.27 1458.69,5775.39C1437.5,5580.29 1539.6,5395.68 1539.6,5395.68C1539.6,5395.68 1387.19,5572.02 1334.13,5615.04C1302.5,5640.68 1199.39,5563.4 1219.77,5521.68C1301.86,5353.68 1412.75,5272.65 1576.67,5137.48Z" style="fill:rgb(227,47,103);stroke:rgb(227,47,103);stroke-width:39.35px;"/>
            <path d="M1446.71,5839.84C1446.71,5839.84 1531.01,5884.92 1668.12,5890.18C1833.88,5896.55 1911.77,5868.17 1911.77,5868.17C1911.77,5868.17 1947.65,6023.85 1949.26,6180.73C1950.14,6266.94 1952.3,6358.26 1936.11,6466.65C1928.08,6520.46 1736.16,6534.6 1727.27,6488.42C1699.04,6341.83 1663.46,6072.15 1663.46,6072.15C1663.46,6072.15 1592.52,6330.31 1524.64,6476.41C1503.97,6520.9 1355.23,6516.35 1349.37,6453.31C1337.91,6330.17 1345.83,6249.05 1368.49,6127.59C1402.08,5947.47 1446.71,5839.84 1446.71,5839.84Z" style="stroke:black;stroke-width:39.35px;"/>
        </g>
        <g transform="matrix(1.17793,0.07957,-0.07957,1.17793,-577.139,-5567.49)">
            <path d="M1283.89,6176.68C1323.31,6203.29 1377.89,6210.01 1439.1,6192.36C1454,6190.51 1541.84,6249.44 1501.11,6260.32C1435.59,6277.83 1339.03,6271.41 1300.66,6251.59C1277.57,6239.66 1274.91,6216.8 1283.89,6176.68Z" style="fill:rgb(227,47,103);stroke:rgb(227,47,103);stroke-width:12.5px;"/>
        </g>
        <g transform="matrix(1.28776,-0.302824,0.270255,1.14926,-2448.07,-4858.38)">
            <path d="M1283.89,6176.68C1323.31,6203.29 1377.89,6210.01 1439.1,6192.36C1454,6190.51 1541.84,6249.44 1501.11,6260.32C1435.59,6277.83 1339.03,6271.41 1300.66,6251.59C1277.57,6239.66 1274.91,6216.8 1283.89,6176.68Z" style="fill:rgb(227,47,103);stroke:rgb(227,47,103);stroke-width:11.77px;"/>
        </g>
        <g transform="matrix(1,0,0,1,-887.895,-4705.86)">
            <g transform="matrix(1,0,0,1,-2.80849,16.3533)">
                <path d="M1700.3,4837.23C1622.44,4844.21 1569.52,4851.35 1526.44,4870.4C1514.97,4875.48 1515.28,4931.72 1522.76,4928.04C1561.65,4908.88 1648.01,4879.95 1693.55,4887.8L1700.3,4837.23Z" style="fill:rgb(179,179,179);stroke:rgb(220,220,220);stroke-width:5.72px;"/>
            </g>
            <g transform="matrix(1,0,0,1,-15.7594,-14.6583)">
                <path d="M1703.48,4836.41C1734.58,4813.87 1771.57,4799.77 1821.07,4782.99C1804.48,4833.33 1816.68,4880.36 1837.75,4879.16C1905.12,4875.3 1992.39,4902.53 2055.7,4973.78C2023.71,4985.96 1984.38,4984.18 1951.64,4987.76C1921.31,4963.59 1799.71,4932.14 1730.68,4936.83C1697.64,4939.07 1686.4,4848.78 1703.48,4836.41Z" style="fill:rgb(179,179,179);stroke:rgb(220,220,220);stroke-width:19.68px;"/>
            </g>
            <g transform="matrix(1,0,0,1,-28.025,-4.20821)">
                <path d="M1796.1,4788.17C1785.08,4841.55 1802.79,4885.39 1827.6,4885.71C1869.98,4886.24 1966.14,4894.9 2039.23,4970.78" style="fill:none;stroke:rgb(220,220,220);stroke-width:9.84px;"/>
            </g>
            <g transform="matrix(1,0,0,1,-13.1502,-11.2067)">
                <path d="M1730.53,4819.56C1712.63,4835.08 1715.81,4917.96 1739.53,4914.03C1797.29,4904.47 1924.67,4929.33 1971.2,4978.69" style="fill:none;stroke:rgb(220,220,220);stroke-width:9.84px;"/>
            </g>
            <g transform="matrix(0.995584,-0.0938769,0.0938769,0.995584,-456.346,194.017)">
                <path d="M1826.02,4765.36C1908.53,4761.09 1950.68,4781.78 2009.13,4813.13C2048.83,4834.43 2047.36,4941.24 2038.85,4977.37C2013.05,4940.1 1923.78,4865.47 1834.47,4864.48C1795.31,4864.05 1809.7,4766.2 1826.02,4765.36Z" style="fill:rgb(148,146,144);fill-opacity:0.42;stroke:rgb(220,220,220);stroke-width:19.68px;"/>
            </g>
            <g transform="matrix(1.07193,0.116574,-0.11538,1.06095,420.702,-519.254)">
                <path d="M1896.34,4841.61C1905.79,4836.14 1952.24,4810.55 1952.24,4810.55" style="fill:none;stroke:rgb(220,220,220);stroke-width:4px;"/>
            </g>
            <g transform="matrix(1.006,0.166168,-0.188065,0.989957,893.595,-265.975)">
                <path d="M1895.34,4822.26L1921.45,4805.99" style="fill:none;stroke:rgb(220,220,220);stroke-width:4.47px;"/>
            </g>
        </g>
        <g transform="matrix(1.07462,0,0,1.07462,57.2232,18.8839)">
            <g transform="matrix(0.696128,0.0124175,-0.0125884,0.705709,1229.68,-1459.16)">
                <path d="M1315.06,1688.17C1382.36,1861.88 1417.32,2029.8 1411.19,2190.36L1522.59,2170.48C1527.43,2111.04 1519.49,2078.49 1513.63,2012.05C1582.48,2032.69 1624.66,2068.7 1671.34,2147.3L1786.12,2128.07C1709.78,2000.58 1660.05,1952.32 1548.32,1917.1C1629.29,1840.29 1649.75,1770.37 1666.73,1617.46L1542.07,1642.47C1553.8,1719.03 1519.75,1803.19 1478.76,1843.45C1462.55,1774.61 1444.25,1722.28 1410.94,1663.76L1315.06,1688.17Z" style="stroke:black;stroke-width:36.07px;"/>
            </g>
            <g transform="matrix(0.766526,0.0136733,-0.0130613,0.732217,1172.6,-1536.88)">
                <path d="M1315.06,1688.17C1382.36,1861.88 1417.32,2029.8 1411.19,2190.36L1522.59,2170.48C1527.43,2111.04 1519.49,2078.49 1513.63,2012.05C1604,2026.1 1652.68,2060.12 1671.34,2147.3L1807.7,2117C1728.53,1974.66 1661.6,1922.23 1553.48,1905.92C1567.94,1806.42 1644.59,1726.88 1727.71,1597.53L1569.4,1617.14C1529.98,1673.38 1470.32,1781.69 1467.48,1837.11C1451.27,1768.27 1444.25,1722.28 1410.94,1663.76L1315.06,1688.17Z" style="fill:rgb(227,47,103);stroke:rgb(10,10,10);stroke-width:33.73px;"/>
            </g>
            <g transform="matrix(0.698325,0.0124567,-0.0131166,0.735319,873.448,-1460.57)">
                <path d="M1609.44,1673.36C1678.5,1831.97 1704.3,1989.6 1693.64,2154.18C1793.78,2119.41 1894.33,2086.68 1981.34,2109.43L2005.43,1992.98C1898.64,1986.48 1861.89,1990.11 1799.99,2015.18C1802.63,1886.44 1782.76,1776.11 1750.81,1615.23L1609.44,1673.36Z" style="stroke:black;stroke-width:35.25px;"/>
            </g>
            <g transform="matrix(0.698325,0.0124567,-0.0131166,0.735319,902.262,-1522.86)">
                <path d="M1609.44,1673.36C1678.5,1831.97 1704.3,1989.6 1693.64,2154.18C1793.78,2119.41 1894.33,2086.68 1981.34,2109.43L2005.43,1992.98C1898.64,1986.48 1861.89,1990.11 1799.99,2015.18C1802.63,1886.44 1782.76,1776.11 1750.81,1615.23L1609.44,1673.36Z" style="fill:rgb(227,47,103);stroke:rgb(10,10,10);stroke-width:35.25px;"/>
            </g>
            <g transform="matrix(1.18061,0,0,1.18061,-850.123,-5792.47)">
                <path d="M2207.4,5049.87C2184.1,4949.49 2190.96,4844.27 2234.24,4733.22L2310.55,4719.11C2326.1,4776.44 2435.68,4935.8 2480.32,4989.47L2417.37,5007.79C2390.05,4983.82 2364.32,4955.28 2342.32,4915.98L2256.35,4931.59C2250,4972.43 2252.65,5007.65 2260.45,5039.64L2207.4,5049.87ZM2279.15,4793.36C2265.44,4821.34 2260.68,4853.63 2258.63,4882.92L2324.74,4873.05C2306.77,4849.98 2293.31,4817.24 2279.15,4793.36Z" style="stroke:black;stroke-width:21.33px;"/>
            </g>
            <g transform="matrix(1.18061,0,0,1.18061,-802.335,-5823.71)">
                <path d="M2207.4,5049.87C2184.1,4949.49 2190.96,4844.27 2234.24,4733.22L2310.55,4719.11C2326.1,4776.44 2435.68,4935.8 2480.32,4989.47L2417.37,5007.79C2390.05,4983.82 2364.32,4955.28 2342.32,4915.98L2256.35,4931.59C2250,4972.43 2252.65,5007.65 2260.45,5039.64L2207.4,5049.87ZM2279.15,4793.36C2265.44,4821.34 2260.68,4853.63 2258.63,4882.92L2324.74,4873.05C2306.77,4849.98 2293.31,4817.24 2279.15,4793.36Z" style="fill:rgb(227,47,103);stroke:rgb(12,14,15);stroke-width:21.33px;"/>
            </g>
            <g transform="matrix(0.813202,-0.171344,0.171344,0.813202,-1223,-101.15)">
                <path d="M3237.33,584.773C3317.83,602.96 3415.05,612.792 3560.12,584.773L3552.21,699.912C3478.36,707.763 3463.92,701.277 3419.24,695.483C3380.16,836.875 3397.87,983.189 3430.95,1053.78L3326.27,1033.65C3305.83,952.589 3303.16,860.966 3336.57,691.284C3291.73,695.213 3275.34,694.212 3231.33,678.759L3237.33,584.773Z" style="stroke:black;stroke-width:30.42px;"/>
            </g>
            <g transform="matrix(0.813202,-0.171344,0.171344,0.813202,-1180.96,-146.839)">
                <path d="M3237.33,584.773C3317.83,602.96 3415.05,612.792 3560.12,584.773L3552.21,699.912C3478.36,707.763 3463.92,701.277 3419.24,695.483C3380.16,836.875 3397.87,983.189 3430.95,1053.78L3326.27,1033.65C3305.83,952.589 3303.16,860.966 3336.57,691.284C3291.73,695.213 3275.34,694.212 3231.33,678.759L3237.33,584.773Z" style="fill:rgb(227,47,103);stroke:rgb(10,10,10);stroke-width:30.42px;"/>
            </g>
        </g>
        <g transform="matrix(1.18061,0,0,1.18061,-737.716,-5869.4)">
            <path d="M1671.28,5473.59L2186.61,5213.25" style="fill:none;stroke:black;stroke-width:22.92px;"/>
        </g>
        <g transform="matrix(0.598666,0.771884,-0.740751,0.57452,4384.58,-4456.47)">
            <path d="M2167.22,5779.73C2171.31,5772.97 2173.45,5765.29 2173.45,5757.48C2173.45,5732.93 2152.61,5712.99 2126.94,5712.99C2101.27,5712.99 2080.43,5732.93 2080.43,5757.48C2080.43,5765.29 2082.58,5772.97 2086.66,5779.73L2167.22,5779.73Z" style="fill:rgb(0,130,244);stroke:rgb(0,130,244);stroke-width:41.11px;"/>
        </g>
        <g transform="matrix(1.18061,0,0,1.18061,-737.716,-5869.4)">
            <path d="M1298.38,5234.81C1342.6,5292.06 1398.34,5304.33 1438.23,5253.17C1399.98,5217.22 1344.52,5213.16 1298.38,5234.81Z" style="fill:none;stroke:black;stroke-width:22.92px;"/>
        </g>
    </g>
    <g id="Person-Waffel" serif:id="Person Waffel" transform="matrix(0.847017,0,0,0.847017,3241.53,4993.37)">
        <g transform="matrix(0.995584,-0.0938769,0.0938769,0.995584,-1344.24,-4511.84)">
            <path d="M1826.02,4765.36C1908.53,4761.09 1950.68,4781.78 2009.13,4813.13C2048.83,4834.43 2047.36,4941.24 2038.85,4977.37C2013.05,4940.1 1923.78,4865.47 1834.47,4864.48C1795.31,4864.05 1809.7,4766.2 1826.02,4765.36Z" style="fill:rgb(148,146,144);stroke:rgb(148,146,144);stroke-width:19.68px;"/>
        </g>
        <g transform="matrix(1,0,0,1,-887.895,-4705.86)">
            <g transform="matrix(-0.812085,-0.58354,0.58354,-0.812085,-1127.19,10968.3)">
                <path d="M1242.17,5704.09C1245.91,5697.62 1247.88,5690.28 1247.88,5682.8C1247.88,5659.3 1228.79,5640.22 1205.29,5640.22C1181.79,5640.22 1162.71,5659.3 1162.71,5682.8C1162.71,5690.28 1164.67,5697.62 1168.41,5704.09L1242.17,5704.09Z" style="fill:rgb(0,130,244);stroke:rgb(0,130,244);stroke-width:39.35px;"/>
            </g>
            <g transform="matrix(0.799709,0,0,0.806023,325.665,529.695)">
                <circle cx="1752.51" cy="5465.01" r="241.035" style="fill:rgb(0,130,244);stroke:rgb(0,130,244);stroke-width:49.02px;"/>
            </g>
            <g transform="matrix(0.278444,0.936309,-0.898544,0.267214,6903.29,1806.6)">
                <path d="M2167.22,5779.73C2171.31,5772.97 2173.45,5765.29 2173.45,5757.48C2173.45,5732.93 2152.61,5712.99 2126.94,5712.99C2101.27,5712.99 2080.43,5732.93 2080.43,5757.48C2080.43,5765.29 2082.58,5772.97 2086.66,5779.73L2167.22,5779.73Z" style="fill:rgb(0,130,244);stroke:rgb(0,130,244);stroke-width:41.11px;"/>
            </g>
            <path d="M1576.67,5137.48C1728.8,5236.53 1861.84,5151.58 1861.84,5151.58C1861.84,5151.58 1897.34,5202.31 2030,5327.32C2075.9,5370.58 2135.9,5322.34 2214.93,5307.64C2240.16,5302.95 2274.49,5426.83 2237.56,5439.22C2186.62,5456.31 2006.49,5488.91 1981.98,5469.93C1908.74,5413.2 1881.85,5394.89 1881.85,5394.89C1881.85,5394.89 1952.17,5639.06 1915.27,5799.98C1910.15,5822.32 1824.96,5841.61 1680.12,5834.65C1536.58,5827.75 1461.06,5797.27 1458.69,5775.39C1437.5,5580.29 1539.6,5395.68 1539.6,5395.68C1539.6,5395.68 1387.19,5572.02 1334.13,5615.04C1302.5,5640.68 1199.39,5563.4 1219.77,5521.68C1301.86,5353.68 1412.75,5272.65 1576.67,5137.48Z" style="fill:rgb(227,47,103);stroke:rgb(227,47,103);stroke-width:39.35px;"/>
            <path d="M1446.71,5839.84C1446.71,5839.84 1531.01,5884.92 1668.12,5890.18C1833.88,5896.55 1911.77,5868.17 1911.77,5868.17C1911.77,5868.17 1947.65,6023.85 1949.26,6180.73C1950.14,6266.94 1952.3,6358.26 1936.11,6466.65C1928.08,6520.46 1736.16,6534.6 1727.27,6488.42C1699.04,6341.83 1663.46,6072.15 1663.46,6072.15C1663.46,6072.15 1592.52,6330.31 1524.64,6476.41C1503.97,6520.9 1355.23,6516.35 1349.37,6453.31C1337.91,6330.17 1345.83,6249.05 1368.49,6127.59C1402.08,5947.47 1446.71,5839.84 1446.71,5839.84Z" style="stroke:black;stroke-width:39.35px;"/>
        </g>
        <g transform="matrix(1.17793,0.07957,-0.07957,1.17793,-577.139,-5567.49)">
            <path d="M1283.89,6176.68C1323.31,6203.29 1377.89,6210.01 1439.1,6192.36C1454,6190.51 1541.84,6249.44 1501.11,6260.32C1435.59,6277.83 1339.03,6271.41 1300.66,6251.59C1277.57,6239.66 1274.91,6216.8 1283.89,6176.68Z" style="fill:rgb(227,47,103);stroke:rgb(227,47,103);stroke-width:12.5px;"/>
        </g>
        <g transform="matrix(1.28776,-0.302824,0.270255,1.14926,-2448.07,-4858.38)">
            <path d="M1283.89,6176.68C1323.31,6203.29 1377.89,6210.01 1439.1,6192.36C1454,6190.51 1541.84,6249.44 1501.11,6260.32C1435.59,6277.83 1339.03,6271.41 1300.66,6251.59C1277.57,6239.66 1274.91,6216.8 1283.89,6176.68Z" style="fill:rgb(227,47,103);stroke:rgb(227,47,103);stroke-width:11.77px;"/>
        </g>
        <g transform="matrix(1,0,0,1,-887.895,-4705.86)">
            <g transform="matrix(1,0,0,1,-2.80849,16.3533)">
                <path d="M1700.3,4837.23C1622.44,4844.21 1569.52,4851.35 1526.44,4870.4C1514.97,4875.48 1515.28,4931.72 1522.76,4928.04C1561.65,4908.88 1648.01,4879.95 1693.55,4887.8L1700.3,4837.23Z" style="fill:rgb(179,179,179);stroke:rgb(220,220,220);stroke-width:5.72px;"/>
            </g>
            <g transform="matrix(1,0,0,1,-15.7594,-14.6583)">
                <path d="M1703.48,4836.41C1734.58,4813.87 1771.57,4799.77 1821.07,4782.99C1804.48,4833.33 1816.68,4880.36 1837.75,4879.16C1905.12,4875.3 1992.39,4902.53 2055.7,4973.78C2023.71,4985.96 1984.38,4984.18 1951.64,4987.76C1921.31,4963.59 1799.71,4932.14 1730.68,4936.83C1697.64,4939.07 1686.4,4848.78 1703.48,4836.41Z" style="fill:rgb(179,179,179);stroke:rgb(220,220,220);stroke-width:19.68px;"/>
            </g>
            <g transform="matrix(1,0,0,1,-28.025,-4.20821)">
                <path d="M1796.1,4788.17C1785.08,4841.55 1802.79,4885.39 1827.6,4885.71C1869.98,4886.24 1966.14,4894.9 2039.23,4970.78" style="fill:none;stroke:rgb(220,220,220);stroke-width:9.84px;"/>
            </g>
            <g transform="matrix(1,0,0,1,-13.1502,-11.2067)">
                <path d="M1730.53,4819.56C1712.63,4835.08 1715.81,4917.96 1739.53,4914.03C1797.29,4904.47 1924.67,4929.33 1971.2,4978.69" style="fill:none;stroke:rgb(220,220,220);stroke-width:9.84px;"/>
            </g>
            <g transform="matrix(0.995584,-0.0938769,0.0938769,0.995584,-456.346,194.017)">
                <path d="M1826.02,4765.36C1908.53,4761.09 1950.68,4781.78 2009.13,4813.13C2048.83,4834.43 2047.36,4941.24 2038.85,4977.37C2013.05,4940.1 1923.78,4865.47 1834.47,4864.48C1795.31,4864.05 1809.7,4766.2 1826.02,4765.36Z" style="fill:rgb(148,146,144);fill-opacity:0.42;stroke:rgb(220,220,220);stroke-width:19.68px;"/>
            </g>
            <g transform="matrix(1.07193,0.116574,-0.11538,1.06095,420.702,-519.254)">
                <path d="M1896.34,4841.61C1905.79,4836.14 1952.24,4810.55 1952.24,4810.55" style="fill:none;stroke:rgb(220,220,220);stroke-width:4px;"/>
            </g>
            <g transform="matrix(1.006,0.166168,-0.188065,0.989957,893.595,-265.975)">
                <path d="M1895.34,4822.26L1921.45,4805.99" style="fill:none;stroke:rgb(220,220,220);stroke-width:4.47px;"/>
            </g>
        </g>
        <g transform="matrix(1.36752,0,0,1.42353,-2334.28,-3551.37)">
            <path d="M2808.08,2867.08C2808.08,2867.08 2772.8,2762.63 2738.94,2770.32C2705.08,2778 2729.51,2818.42 2729.51,2818.42C2729.51,2818.42 2675.74,2801.61 2685.5,2845.45C2691.5,2872.44 2808.08,2867.08 2808.08,2867.08Z" style="fill:rgb(144,97,72);stroke:rgb(77,46,23);stroke-width:7.05px;"/>
        </g>
        <g transform="matrix(1.36752,0,0,1.42353,-2334.28,-3551.37)">
            <path d="M2817.82,2863.89C2814.18,2845.55 2772.77,2786.34 2805.3,2771.21C2840.01,2755.08 2851.83,2799.77 2851.83,2799.77C2851.83,2799.77 2887.99,2772.84 2901.28,2807.13C2914.56,2841.42 2817.82,2863.89 2817.82,2863.89Z" style="fill:rgb(144,97,72);stroke:rgb(77,46,23);stroke-width:7.05px;"/>
        </g>
        <g transform="matrix(1.36752,0,0,1.42353,-2334.28,-3551.37)">
            <path d="M2819.68,2874.47C2843.65,2875.19 2903.24,2834.25 2917.55,2862.99C2927.25,2882.48 2886.17,2903.73 2886.17,2903.73C2886.17,2903.73 2907.91,2954.81 2873.82,2955.47C2832.58,2956.27 2825.08,2898.31 2819.68,2874.47Z" style="fill:rgb(144,97,72);stroke:rgb(77,46,23);stroke-width:7.05px;"/>
        </g>
        <g transform="matrix(1.36752,0,0,1.42353,-2338.38,-3551.08)">
            <path d="M2812.94,2877.36C2794.08,2880.77 2716.15,2865.97 2714.04,2900.19C2711.89,2935.24 2768.28,2929.74 2768.28,2929.74C2768.28,2929.74 2776.5,2995.71 2815.01,2980.2C2848.66,2966.66 2813.61,2902.38 2812.94,2877.36Z" style="fill:rgb(144,97,72);stroke:rgb(77,46,23);stroke-width:7.05px;"/>
        </g>
        <g transform="matrix(1,0,0,1,-889.413,-4706.06)">
            <path d="M1684.15,4991.29C1696.98,5011.42 1732.78,5044.07 1773.13,5052.16C1809.76,5059.5 1844.49,5043.33 1844.49,5043.33" style="fill:none;stroke:black;stroke-width:14.76px;"/>
        </g>
        <g transform="matrix(1.18061,0,0,1.18061,-201.122,-2810.67)">
            <path d="M870.789,2650.21C870.789,2650.21 834.853,2655.76 851.167,2675.04C866.065,2692.65 898.288,2668.12 898.288,2668.12" style="fill:none;stroke:black;stroke-width:12.5px;"/>
        </g>
        <g transform="matrix(1.18061,0,0,1.18061,-201.122,-2810.67)">
            <path d="M879.937,2659.98C879.937,2659.98 875.872,2661.92 867.328,2664.87" style="fill:none;stroke:black;stroke-width:8.33px;"/>
        </g>
    </g>
    <g id="Person-Fr端hst端ck" serif:id="Person Fr端hst端ck" transform="matrix(0.847017,0,0,0.847017,169.068,2380.52)">
        <g transform="matrix(0.995584,-0.0938769,0.0938769,0.995584,-1344.24,-4511.84)">
            <path d="M1826.02,4765.36C1908.53,4761.09 1950.68,4781.78 2009.13,4813.13C2048.83,4834.43 2047.36,4941.24 2038.85,4977.37C2013.05,4940.1 1923.78,4865.47 1834.47,4864.48C1795.31,4864.05 1809.7,4766.2 1826.02,4765.36Z" style="fill:rgb(148,146,144);stroke:rgb(148,146,144);stroke-width:19.68px;"/>
        </g>
        <g transform="matrix(1,0,0,1,-887.895,-4705.86)">
            <g transform="matrix(0.799709,0,0,0.806023,325.665,529.695)">
                <circle cx="1752.51" cy="5465.01" r="241.035" style="fill:rgb(0,130,244);stroke:rgb(0,130,244);stroke-width:49.02px;"/>
            </g>
            <g transform="matrix(0.646601,0.732197,-0.702665,0.620521,4934.31,69.3776)">
                <path d="M2167.22,5779.73C2171.31,5772.97 2173.45,5765.29 2173.45,5757.48C2173.45,5732.93 2152.61,5712.99 2126.94,5712.99C2101.27,5712.99 2080.43,5732.93 2080.43,5757.48C2080.43,5765.29 2082.58,5772.97 2086.66,5779.73L2167.22,5779.73Z" style="fill:rgb(0,130,244);stroke:rgb(0,130,244);stroke-width:41.11px;"/>
            </g>
            <path d="M1576.67,5137.48C1728.8,5236.53 1861.84,5151.58 1861.84,5151.58L2026.93,5425.39C2026.93,5425.39 2071.12,5276.04 2156.53,5230.54C2207.34,5203.46 2237.97,5282.39 2235.32,5336.07C2231.92,5404.9 2076.55,5599.71 2000.84,5613.32C1919.41,5551.68 1907.86,5485.01 1881.85,5394.89C1881.85,5394.89 1952.17,5639.06 1915.27,5799.98C1910.15,5822.32 1824.96,5841.61 1680.12,5834.65C1536.58,5827.75 1445.04,5792.65 1458.69,5775.39C1549.22,5660.89 1515.87,5558.34 1425.1,5492.74C1425.1,5492.74 1445.55,5423.22 1500.31,5361.27C1429.86,5341.56 1325.64,5474.87 1325.64,5474.87C1325.64,5474.87 1382.71,5542.3 1432.4,5571.65C1471.64,5594.83 1473.74,5722.28 1414.1,5705.35C1371.57,5693.27 1283.01,5605.29 1219.77,5521.68C1106.98,5372.54 1412.75,5272.65 1576.67,5137.48Z" style="fill:rgb(227,47,103);stroke:rgb(227,47,103);stroke-width:39.35px;"/>
            <path d="M1446.71,5839.84C1446.71,5839.84 1531.01,5884.92 1668.12,5890.18C1833.88,5896.55 1911.77,5868.17 1911.77,5868.17C1911.77,5868.17 1947.65,6023.85 1949.26,6180.73C1950.14,6266.94 1952.3,6358.26 1936.11,6466.65C1928.08,6520.46 1736.16,6534.6 1727.27,6488.42C1699.04,6341.83 1663.46,6072.15 1663.46,6072.15C1663.46,6072.15 1592.52,6330.31 1524.64,6476.41C1503.97,6520.9 1355.23,6516.35 1349.37,6453.31C1337.91,6330.17 1345.83,6249.05 1368.49,6127.59C1402.08,5947.47 1446.71,5839.84 1446.71,5839.84Z" style="stroke:black;stroke-width:39.35px;"/>
        </g>
        <g transform="matrix(1.17793,0.07957,-0.07957,1.17793,-577.139,-5567.49)">
            <path d="M1283.89,6176.68C1323.31,6203.29 1377.89,6210.01 1439.1,6192.36C1454,6190.51 1541.84,6249.44 1501.11,6260.32C1435.59,6277.83 1339.03,6271.41 1300.66,6251.59C1277.57,6239.66 1274.91,6216.8 1283.89,6176.68Z" style="fill:rgb(227,47,103);stroke:rgb(227,47,103);stroke-width:12.5px;"/>
        </g>
        <g transform="matrix(1.32289,1.11022e-16,5.55112e-17,1.18061,-815.126,-5476.05)">
            <path d="M1283.89,6176.68C1323.31,6203.29 1377.89,6210.01 1439.1,6192.36C1454,6190.51 1541.84,6249.44 1501.11,6260.32C1435.59,6277.83 1339.03,6271.41 1300.66,6251.59C1277.57,6239.66 1274.91,6216.8 1283.89,6176.68Z" style="fill:rgb(227,47,103);stroke:rgb(227,47,103);stroke-width:11.77px;"/>
        </g>
        <g transform="matrix(1,0,0,1,-887.895,-4705.86)">
            <path d="M1688.7,5006.77C1688.7,5006.77 1753.85,5047.93 1769.41,5053.56C1798.85,5064.22 1807.76,5054.68 1838.06,5048.05" style="fill:none;stroke:black;stroke-width:14.76px;"/>
        </g>
        <g transform="matrix(1,0,0,1,-887.895,-4705.86)">
            <g transform="matrix(1,0,0,1,-2.80849,16.3533)">
                <path d="M1700.3,4837.23C1622.44,4844.21 1569.52,4851.35 1526.44,4870.4C1514.97,4875.48 1515.28,4931.72 1522.76,4928.04C1561.65,4908.88 1648.01,4879.95 1693.55,4887.8L1700.3,4837.23Z" style="fill:rgb(179,179,179);stroke:rgb(220,220,220);stroke-width:5.72px;"/>
            </g>
            <g transform="matrix(1,0,0,1,-15.7594,-14.6583)">
                <path d="M1703.48,4836.41C1734.58,4813.87 1771.57,4799.77 1821.07,4782.99C1804.48,4833.33 1816.68,4880.36 1837.75,4879.16C1905.12,4875.3 1992.39,4902.53 2055.7,4973.78C2023.71,4985.96 1984.38,4984.18 1951.64,4987.76C1921.31,4963.59 1799.71,4932.14 1730.68,4936.83C1697.64,4939.07 1686.4,4848.78 1703.48,4836.41Z" style="fill:rgb(179,179,179);stroke:rgb(220,220,220);stroke-width:19.68px;"/>
            </g>
            <g transform="matrix(1,0,0,1,-28.025,-4.20821)">
                <path d="M1796.1,4788.17C1785.08,4841.55 1802.79,4885.39 1827.6,4885.71C1869.98,4886.24 1966.14,4894.9 2039.23,4970.78" style="fill:none;stroke:rgb(220,220,220);stroke-width:9.84px;"/>
            </g>
            <g transform="matrix(1,0,0,1,-13.1502,-11.2067)">
                <path d="M1730.53,4819.56C1712.63,4835.08 1715.81,4917.96 1739.53,4914.03C1797.29,4904.47 1924.67,4929.33 1971.2,4978.69" style="fill:none;stroke:rgb(220,220,220);stroke-width:9.84px;"/>
            </g>
            <g transform="matrix(0.995584,-0.0938769,0.0938769,0.995584,-456.346,194.017)">
                <path d="M1826.02,4765.36C1908.53,4761.09 1950.68,4781.78 2009.13,4813.13C2048.83,4834.43 2047.36,4941.24 2038.85,4977.37C2013.05,4940.1 1923.78,4865.47 1834.47,4864.48C1795.31,4864.05 1809.7,4766.2 1826.02,4765.36Z" style="fill:rgb(148,146,144);fill-opacity:0.42;stroke:rgb(220,220,220);stroke-width:19.68px;"/>
            </g>
            <g transform="matrix(1.07193,0.116574,-0.11538,1.06095,420.702,-519.254)">
                <path d="M1896.34,4841.61C1905.79,4836.14 1952.24,4810.55 1952.24,4810.55" style="fill:none;stroke:rgb(220,220,220);stroke-width:4px;"/>
            </g>
            <g transform="matrix(1.006,0.166168,-0.188065,0.989957,893.595,-265.975)">
                <path d="M1895.34,4822.26L1921.45,4805.99" style="fill:none;stroke:rgb(220,220,220);stroke-width:4.47px;"/>
            </g>
        </g>
        <g transform="matrix(1.18061,0,0,1.18061,-199.604,-2810.48)">
            <path d="M870.789,2650.21C870.789,2650.21 834.853,2655.76 851.167,2675.04C866.065,2692.65 898.288,2668.12 898.288,2668.12" style="fill:none;stroke:black;stroke-width:12.5px;"/>
        </g>
        <g transform="matrix(1.18061,0,0,1.18061,-199.604,-2810.48)">
            <path d="M879.937,2659.98C879.937,2659.98 875.872,2661.92 867.328,2664.87" style="fill:none;stroke:black;stroke-width:8.33px;"/>
        </g>
        <g transform="matrix(1.64535,-0.588925,0.659932,1.84373,-2673.18,-3881.85)">
            <path d="M1290.6,2736.91L1367.12,2862.69L1459.3,2784.41L1390.18,2698.28L1290.6,2736.91Z" style="fill:rgb(144,97,72);stroke:rgb(80,43,0);stroke-width:10.6px;"/>
        </g>
        <g transform="matrix(1.64535,-0.588925,0.659932,1.84373,-2682.25,-3869.69)">
            <path d="M1396.73,2711.52C1392.65,2709.54 1384.12,2721.72 1373.7,2724.49C1362.17,2727.56 1348.73,2721.51 1345.06,2724.74C1338.09,2730.91 1346.21,2753.32 1340.06,2760.65C1333.54,2768.41 1309.94,2781.92 1312.66,2788.62C1315.38,2795.32 1353.93,2791.69 1366.48,2798.92C1377.88,2805.47 1381.63,2833.49 1387.99,2831.97C1394.36,2830.45 1394.42,2799.58 1404.69,2789.77C1415.73,2779.2 1454.09,2771.46 1455.17,2765.94C1456.25,2760.42 1421.69,2764.03 1411.17,2756.66C1400.64,2749.3 1405.32,2715.7 1396.73,2711.52Z" style="fill:rgb(242,13,13);stroke:rgb(242,13,13);stroke-width:10.6px;"/>
        </g>
        <g transform="matrix(1.64535,-0.588925,0.659932,1.84373,-2673.18,-3881.85)">
            <path d="M1333.26,2782.6C1333.26,2782.6 1347.78,2777.06 1343.58,2778.04" style="fill:none;stroke:rgb(242,175,13);stroke-width:5.3px;"/>
        </g>
        <g transform="matrix(1.64535,-0.588925,0.659932,1.84373,-2673.18,-3881.85)">
            <path d="M1353.82,2731.05L1357.76,2738.07" style="fill:none;stroke:rgb(242,175,13);stroke-width:5.3px;"/>
        </g>
        <g transform="matrix(1.64535,-0.588925,0.659932,1.84373,-2673.18,-3881.85)">
            <path d="M1394.31,2722.05L1391.92,2729.53" style="fill:none;stroke:rgb(242,175,13);stroke-width:5.3px;"/>
        </g>
        <g transform="matrix(1.64535,-0.588925,0.659932,1.84373,-2673.18,-3881.85)">
            <path d="M1424.88,2768.71L1438.13,2768.71" style="fill:none;stroke:rgb(242,175,13);stroke-width:5.3px;"/>
        </g>
        <g transform="matrix(1.64535,-0.588925,0.659932,1.84373,-2673.18,-3881.85)">
            <path d="M1387,2804.3L1386.31,2818.3" style="fill:none;stroke:rgb(242,175,13);stroke-width:5.3px;"/>
        </g>
        <g transform="matrix(1.18061,0,0,1.18061,-199.604,-2810.48)">
            <path d="M776.578,3050.32C772.121,3039.69 837.966,3036.68 857.833,3038.55C904.976,3043 946.348,3061.56 950.804,3072.18C955.261,3082.81 889.666,3100.42 860.628,3096.78C831.591,3093.14 781.034,3060.94 776.578,3050.32Z" style="fill:rgb(144,97,72);stroke:black;stroke-width:8.33px;"/>
        </g>
        <g transform="matrix(1.18061,0,0,1.18061,-204.308,-2841.92)">
            <path d="M746.801,3144.15C730.474,3154.44 722.205,3185.49 721.167,3207.45C719.943,3233.32 724.774,3242.92 741.417,3248.86C765.453,3257.44 776.674,3248.99 776.674,3248.99C776.523,3262.74 782.017,3286.67 784.703,3316.94C812.125,3333.92 846.053,3339.29 888.116,3330.15C919.927,3284.28 952.474,3145.19 954.788,3104.01C919.734,3112.06 807.372,3098.54 780.03,3077.16C776.717,3102.68 775.705,3125.33 776.035,3150.09C776.035,3150.09 767.832,3130.89 746.801,3144.15ZM775.183,3173.59C774.217,3185.35 774.674,3206.38 775.477,3227.84C775.872,3227.48 737.253,3246.78 741.01,3208.58C747.298,3144.63 775.183,3173.59 775.183,3173.59Z" style="stroke:black;stroke-width:8.33px;"/>
        </g>
        <g transform="matrix(-0.165914,0.98614,-0.98614,-0.165914,6455.09,729.344)">
            <path d="M1242.17,5704.09C1245.91,5697.62 1247.88,5690.28 1247.88,5682.8C1247.88,5659.3 1228.79,5640.22 1205.29,5640.22C1181.79,5640.22 1162.71,5659.3 1162.71,5682.8C1162.71,5690.28 1164.67,5697.62 1168.41,5704.09L1242.17,5704.09Z" style="fill:rgb(0,130,244);stroke:rgb(0,130,244);stroke-width:39.35px;"/>
        </g>
    </g>
    <g id="Person-Toilette" serif:id="Person Toilette" transform="matrix(0.847017,0,0,0.847017,1546.05,317.006)">
        <g transform="matrix(0.995584,-0.0938769,0.0938769,0.995584,-1558.53,-4430.97)">
            <path d="M1826.02,4765.36C1908.53,4761.09 1950.68,4781.78 2009.13,4813.13C2048.83,4834.43 2047.36,4941.24 2038.85,4977.37C2013.05,4940.1 1923.78,4865.47 1834.47,4864.48C1795.31,4864.05 1809.7,4766.2 1826.02,4765.36Z" style="fill:rgb(148,146,144);stroke:rgb(148,146,144);stroke-width:19.68px;"/>
        </g>
        <g transform="matrix(1,0,0,1,-1102.18,-4624.99)">
            <g transform="matrix(0.799709,0,0,0.806023,325.665,529.695)">
                <circle cx="1752.51" cy="5465.01" r="241.035" style="fill:rgb(0,130,244);stroke:rgb(0,130,244);stroke-width:49.02px;"/>
            </g>
            <path d="M1446.71,5839.84C1446.71,5839.84 1531.01,5884.92 1668.12,5890.18C1833.88,5896.55 1911.77,5868.17 1911.77,5868.17C1869.91,5976.86 1817.43,6084.78 1723.22,6189.7C1723.22,6189.7 1952.3,6358.26 1936.11,6466.65C1928.08,6520.46 1736.16,6534.6 1727.27,6488.42C1699.04,6341.83 1640.94,6305.76 1640.94,6305.76C1640.94,6305.76 1592.52,6330.31 1524.64,6476.41C1503.97,6520.9 1355.23,6516.35 1349.37,6453.31C1337.91,6330.17 1568.12,6189.04 1568.12,6189.04C1477.18,6081.7 1451.14,5962.71 1446.71,5839.84Z" style="stroke:black;stroke-width:39.35px;"/>
            <g transform="matrix(-0.812085,-0.58354,0.58354,-0.812085,-638.048,11313)">
                <path d="M1242.17,5704.09C1245.91,5697.62 1247.88,5690.28 1247.88,5682.8C1247.88,5659.3 1228.79,5640.22 1205.29,5640.22C1181.79,5640.22 1162.71,5659.3 1162.71,5682.8C1162.71,5690.28 1164.67,5697.62 1168.41,5704.09L1242.17,5704.09Z" style="fill:rgb(0,130,244);stroke:rgb(0,130,244);stroke-width:39.35px;"/>
            </g>
            <g transform="matrix(-0.762569,0.42578,-0.461783,-0.827051,5933.08,9853.01)">
                <path d="M2167.22,5779.73C2171.31,5772.97 2173.45,5765.29 2173.45,5757.48C2173.45,5732.93 2152.61,5712.99 2126.94,5712.99C2101.27,5712.99 2080.43,5732.93 2080.43,5757.48C2080.43,5765.29 2082.58,5772.97 2086.66,5779.73L2167.22,5779.73Z" style="fill:rgb(0,130,244);stroke:rgb(0,130,244);stroke-width:43.2px;"/>
            </g>
            <path d="M1576.67,5137.48C1728.8,5236.53 1861.84,5151.58 1861.84,5151.58C1967.12,5235 2035.4,5393.73 1999.43,5429.3C1926.98,5500.95 1865.57,5629.02 1826.44,5724.31C1884.01,5684.82 1928.85,5595.8 1970.96,5553C1970.96,5553 1936.3,5708.27 1915.27,5799.98C1910.15,5822.32 1853.58,5829.65 1793.81,5833.58C1789.82,5833.84 1785.42,5895.31 1756.81,5908.33C1695.08,5936.43 1701.13,5861.76 1700.13,5842.85C1699.21,5825.36 1704.54,5736.22 1716.99,5714.94C1786.33,5596.39 1844.65,5358.74 1844.65,5358.74C1780.31,5439.1 1726.9,5555.19 1687.95,5663.56C1675.39,5559.89 1638.73,5440.48 1588.46,5354.77C1582.29,5352.34 1618.98,5589.85 1647.8,5703.2C1661.36,5756.56 1654.32,5872.74 1649.43,5881.94C1632.15,5914.46 1614.99,5935.03 1593.3,5923.08C1553.84,5901.36 1568.95,5823.04 1554.72,5820.14C1492.71,5807.49 1446.54,5771.19 1446.54,5771.19C1446.54,5771.19 1406.51,5613.27 1402.16,5499.06C1463.32,5607.19 1486.46,5650.99 1520.05,5721C1526.71,5627.94 1468.49,5467.24 1431.56,5421.24C1370.39,5345.06 1482.24,5180.24 1576.67,5137.48Z" style="fill:rgb(227,47,103);stroke:rgb(227,47,103);stroke-width:39.35px;"/>
        </g>
        <g transform="matrix(1.17793,0.07957,-0.07957,1.17793,-791.428,-5486.62)">
            <path d="M1283.89,6176.68C1323.31,6203.29 1377.89,6210.01 1439.1,6192.36C1454,6190.51 1541.84,6249.44 1501.11,6260.32C1435.59,6277.83 1339.03,6271.41 1300.66,6251.59C1277.57,6239.66 1274.91,6216.8 1283.89,6176.68Z" style="fill:rgb(227,47,103);stroke:rgb(227,47,103);stroke-width:12.5px;"/>
        </g>
        <g transform="matrix(-1.30728,0.202612,0.180821,1.16668,1415.62,-5576.31)">
            <path d="M1283.89,6176.68C1323.31,6203.29 1377.89,6210.01 1439.1,6192.36C1454,6190.51 1503.9,6252.36 1463.18,6263.24C1397.66,6280.75 1339.03,6271.41 1300.66,6251.59C1277.57,6239.66 1274.91,6216.8 1283.89,6176.68Z" style="fill:rgb(227,47,103);stroke:rgb(227,47,103);stroke-width:11.77px;"/>
        </g>
        <g transform="matrix(1,0,0,1,-1102.18,-4624.99)">
            <path d="M1679.89,5058.98C1692.45,5039.99 1718.08,5035.94 1718.08,5035.94L1732.46,5064.25L1772.42,5036.31L1784.79,5067.04L1823.05,5038.95C1823.05,5038.95 1847.85,5051.03 1853.16,5064.48" style="fill:none;stroke:black;stroke-width:14.76px;"/>
        </g>
        <g transform="matrix(1,0,0,1,-1102.18,-4624.99)">
            <g transform="matrix(1,0,0,1,-2.80849,16.3533)">
                <path d="M1700.3,4837.23C1622.44,4844.21 1569.52,4851.35 1526.44,4870.4C1514.97,4875.48 1515.28,4931.72 1522.76,4928.04C1561.65,4908.88 1648.01,4879.95 1693.55,4887.8L1700.3,4837.23Z" style="fill:rgb(179,179,179);stroke:rgb(220,220,220);stroke-width:5.72px;"/>
            </g>
            <g transform="matrix(1,0,0,1,-15.7594,-14.6583)">
                <path d="M1703.48,4836.41C1734.58,4813.87 1771.57,4799.77 1821.07,4782.99C1804.48,4833.33 1816.68,4880.36 1837.75,4879.16C1905.12,4875.3 1992.39,4902.53 2055.7,4973.78C2023.71,4985.96 1984.38,4984.18 1951.64,4987.76C1921.31,4963.59 1799.71,4932.14 1730.68,4936.83C1697.64,4939.07 1686.4,4848.78 1703.48,4836.41Z" style="fill:rgb(179,179,179);stroke:rgb(220,220,220);stroke-width:19.68px;"/>
            </g>
            <g transform="matrix(1,0,0,1,-28.025,-4.20821)">
                <path d="M1796.1,4788.17C1785.08,4841.55 1802.79,4885.39 1827.6,4885.71C1869.98,4886.24 1966.14,4894.9 2039.23,4970.78" style="fill:none;stroke:rgb(220,220,220);stroke-width:9.84px;"/>
            </g>
            <g transform="matrix(1,0,0,1,-13.1502,-11.2067)">
                <path d="M1730.53,4819.56C1712.63,4835.08 1715.81,4917.96 1739.53,4914.03C1797.29,4904.47 1924.67,4929.33 1971.2,4978.69" style="fill:none;stroke:rgb(220,220,220);stroke-width:9.84px;"/>
            </g>
            <g transform="matrix(0.995584,-0.0938769,0.0938769,0.995584,-456.346,194.017)">
                <path d="M1826.02,4765.36C1908.53,4761.09 1950.68,4781.78 2009.13,4813.13C2048.83,4834.43 2047.36,4941.24 2038.85,4977.37C2013.05,4940.1 1923.78,4865.47 1834.47,4864.48C1795.31,4864.05 1809.7,4766.2 1826.02,4765.36Z" style="fill:rgb(148,146,144);fill-opacity:0.42;stroke:rgb(220,220,220);stroke-width:19.68px;"/>
            </g>
            <g transform="matrix(1.07193,0.116574,-0.11538,1.06095,420.702,-519.254)">
                <path d="M1896.34,4841.61C1905.79,4836.14 1952.24,4810.55 1952.24,4810.55" style="fill:none;stroke:rgb(220,220,220);stroke-width:4px;"/>
            </g>
            <g transform="matrix(1.006,0.166168,-0.188065,0.989957,893.595,-265.975)">
                <path d="M1895.34,4822.26L1921.45,4805.99" style="fill:none;stroke:rgb(220,220,220);stroke-width:4.47px;"/>
            </g>
        </g>
    </g>
    <g id="Layer1" transform="matrix(1.74843,0,0,1.74843,-2246.93,-993.226)">
        <g transform="matrix(1.12395,0.154072,-0.135869,1.09127,1377.38,-952.729)">
            <path d="M2236.87,1438.61C2210.36,1413.34 2038.62,1459.15 1957.97,1570.18C1845.35,1725.23 1919.74,1911.12 1988.59,1967.07C2122.43,2075.82 2277.93,2019.96 2387.02,1971.89L2326.42,1838.06C2326.42,1838.06 2195.8,1924.03 2098.91,1849.79C2030.58,1797.44 2033.53,1699.76 2068.29,1648.51C2097.94,1604.82 2225.01,1564.31 2274.22,1568.35L2236.87,1438.61Z" style="stroke:black;stroke-width:11.71px;"/>
        </g>
        <g transform="matrix(1.12395,0.154072,-0.135869,1.09127,1441.93,-1040.71)">
            <path d="M2236.87,1438.61C2210.36,1413.34 2038.62,1459.15 1957.97,1570.18C1845.35,1725.23 1919.74,1911.12 1988.59,1967.07C2122.43,2075.82 2277.93,2019.96 2387.02,1971.89L2326.42,1838.06C2326.42,1838.06 2195.8,1924.03 2098.91,1849.79C2030.58,1797.44 2033.53,1699.76 2068.29,1648.51C2097.94,1604.82 2225.01,1564.31 2274.22,1568.35L2236.87,1438.61Z" style="fill:rgb(227,47,103);stroke:rgb(10,10,10);stroke-width:11.71px;"/>
        </g>
        <g transform="matrix(1.31561,0.182277,-0.185289,1.47152,2239.62,-184.51)">
            <path d="M506.162,765.24C512.747,934.413 564.796,1060.73 671.943,1192.61L771.502,1183.8C746.23,1141.99 741.246,1081.95 762.109,990.332C783.281,1057.09 825.542,1105.66 880.77,1154.61L976.535,1131.91C919.177,1011.24 901.508,869.357 996.234,627.36L851.054,665.076C826.89,775.142 841.751,927.975 866.613,1038.21C829.294,1005.61 807.793,920.224 787.695,868.128L718.598,877.607C705.933,939.002 683.847,1016.08 684.88,1069.05C620.676,995.122 632.009,828.212 629.302,729.135L506.162,765.24Z" style="stroke:black;stroke-width:9.29px;"/>
        </g>
        <g transform="matrix(1.31561,0.182277,-0.185289,1.47152,2303.27,-271.827)">
            <path d="M506.162,765.24C512.747,934.413 564.796,1060.73 671.943,1192.61L771.502,1183.8C746.23,1141.99 741.246,1081.95 762.109,990.332C783.281,1057.09 825.542,1105.66 880.77,1154.61L976.535,1131.91C919.177,1011.24 901.508,869.357 996.234,627.36L851.054,665.076C826.89,775.142 841.751,927.975 866.613,1038.21C829.294,1005.61 807.793,920.224 787.695,868.128L718.598,877.607C705.933,939.002 683.847,1016.08 684.88,1069.05C620.676,995.122 632.009,828.212 629.302,729.135L506.162,765.24Z" style="fill:rgb(227,47,103);stroke:rgb(10,10,10);stroke-width:9.29px;"/>
        </g>
    </g>
</svg>
