<?xml version="1.0" encoding="UTF-8" standalone="no"?>
<!DOCTYPE svg PUBLIC "-//W3C//DTD SVG 1.1//EN" "http://www.w3.org/Graphics/SVG/1.1/DTD/svg11.dtd">
<svg width="100%" height="100%" viewBox="0 0 4961 7016" version="1.1" xmlns="http://www.w3.org/2000/svg" xmlns:xlink="http://www.w3.org/1999/xlink" xml:space="preserve" xmlns:serif="http://www.serif.com/" style="fill-rule:evenodd;clip-rule:evenodd;stroke-linecap:round;stroke-linejoin:round;stroke-miterlimit:1.5;">
    <g transform="matrix(0.997463,0,0,1.00669,13.3478,-37.4237)">
        <g id="Background">
            <rect x="-37.064" y="13.71" width="5020.61" height="7016.05" style="fill:rgb(36,36,36);"/>
        </g>
    </g>
    <g id="Person-ticket" serif:id="Person ticket" transform="matrix(0.847017,0,0,0.847017,3081.59,4551.32)">
        <g transform="matrix(0.995584,-0.0938769,0.0938769,0.995584,-1144.1,-4052.06)">
            <path d="M1826.02,4765.36C1908.53,4761.09 1950.68,4781.78 2009.13,4813.13C2048.83,4834.43 2047.36,4941.24 2038.85,4977.37C2013.05,4940.1 1923.78,4865.47 1834.47,4864.48C1795.31,4864.05 1809.7,4766.2 1826.02,4765.36Z" style="fill:rgb(148,146,144);stroke:rgb(148,146,144);stroke-width:19.68px;"/>
        </g>
        <g transform="matrix(1,0,0,1,-687.759,-4246.07)">
            <g transform="matrix(-0.812085,-0.58354,0.58354,-0.812085,-1127.19,10968.3)">
                <path d="M1242.17,5704.09C1245.91,5697.62 1247.88,5690.28 1247.88,5682.8C1247.88,5659.3 1228.79,5640.22 1205.29,5640.22C1181.79,5640.22 1162.71,5659.3 1162.71,5682.8C1162.71,5690.28 1164.67,5697.62 1168.41,5704.09L1242.17,5704.09Z" style="fill:rgb(0,130,244);stroke:rgb(0,130,244);stroke-width:39.35px;"/>
            </g>
            <g transform="matrix(0.799709,0,0,0.806023,325.665,529.695)">
                <circle cx="1752.51" cy="5465.01" r="241.035" style="fill:rgb(0,130,244);stroke:rgb(0,130,244);stroke-width:49.02px;"/>
            </g>
            <g transform="matrix(0.644713,0.73386,-0.704261,0.61871,4910.23,149.885)">
                <path d="M2167.22,5779.73C2171.31,5772.97 2173.45,5765.29 2173.45,5757.48C2173.45,5732.93 2152.61,5712.99 2126.94,5712.99C2101.27,5712.99 2080.43,5732.93 2080.43,5757.48C2080.43,5765.29 2082.58,5772.97 2086.66,5779.73L2167.22,5779.73Z" style="fill:rgb(0,130,244);stroke:rgb(0,130,244);stroke-width:41.11px;"/>
            </g>
            <path d="M1576.67,5137.48C1728.8,5236.53 1861.84,5151.58 1861.84,5151.58C1955.88,5257.13 1958.27,5339.54 2000.19,5415.39C2035.98,5368.53 2066.96,5344.39 2126.69,5299.61C2147.44,5284.06 2196.67,5353.91 2193.61,5375.05C2186.94,5421.09 2035.76,5503.86 1995.52,5522.61L1881.85,5394.89C1881.85,5394.89 1952.17,5639.06 1915.27,5799.98C1910.15,5822.32 1824.96,5841.61 1680.12,5834.65C1536.58,5827.75 1461.06,5797.27 1458.69,5775.39C1437.5,5580.29 1539.6,5395.68 1539.6,5395.68C1539.6,5395.68 1387.19,5572.02 1334.13,5615.04C1302.5,5640.68 1199.39,5563.4 1219.77,5521.68C1301.86,5353.68 1412.75,5272.65 1576.67,5137.48Z" style="fill:rgb(227,47,103);stroke:rgb(227,47,103);stroke-width:39.35px;"/>
            <path d="M1446.71,5839.84C1446.71,5839.84 1531.01,5884.92 1668.12,5890.18C1833.88,5896.55 1911.77,5868.17 1911.77,5868.17C1911.77,5868.17 1947.65,6023.85 1949.26,6180.73C1950.14,6266.94 1952.3,6358.26 1936.11,6466.65C1928.08,6520.46 1736.16,6534.6 1727.27,6488.42C1699.04,6341.83 1663.46,6072.15 1663.46,6072.15C1663.46,6072.15 1592.52,6330.31 1524.64,6476.41C1503.97,6520.9 1355.23,6516.35 1349.37,6453.31C1337.91,6330.17 1345.83,6249.05 1368.49,6127.59C1402.08,5947.47 1446.71,5839.84 1446.71,5839.84Z" style="stroke:black;stroke-width:39.35px;"/>
        </g>
        <g transform="matrix(1.17793,0.07957,-0.07957,1.17793,-377.003,-5107.7)">
            <path d="M1283.89,6176.68C1323.31,6203.29 1377.89,6210.01 1439.1,6192.36C1454,6190.51 1541.84,6249.44 1501.11,6260.32C1435.59,6277.83 1339.03,6271.41 1300.66,6251.59C1277.57,6239.66 1274.91,6216.8 1283.89,6176.68Z" style="fill:rgb(227,47,103);stroke:rgb(227,47,103);stroke-width:12.5px;"/>
        </g>
        <g transform="matrix(1.28776,-0.302824,0.270255,1.14926,-2247.94,-4398.59)">
            <path d="M1283.89,6176.68C1323.31,6203.29 1377.89,6210.01 1439.1,6192.36C1454,6190.51 1541.84,6249.44 1501.11,6260.32C1435.59,6277.83 1339.03,6271.41 1300.66,6251.59C1277.57,6239.66 1274.91,6216.8 1283.89,6176.68Z" style="fill:rgb(227,47,103);stroke:rgb(227,47,103);stroke-width:11.77px;"/>
        </g>
        <g transform="matrix(0.959411,0,0,0.967926,-615.868,-4065.22)">
            <path d="M1688.7,5006.77C1688.7,5006.77 1732.07,5068.55 1767.4,5073.68C1825.56,5082.11 1847.09,5043.3 1861.33,5027.25C1795.72,5032.26 1743.85,5026.8 1688.7,5006.77" style="fill:none;stroke:black;stroke-width:15.31px;"/>
        </g>
        <g transform="matrix(1,0,0,1,-687.759,-4246.07)">
            <g transform="matrix(1,0,0,1,-2.80849,16.3533)">
                <path d="M1700.3,4837.23C1622.44,4844.21 1569.52,4851.35 1526.44,4870.4C1514.97,4875.48 1515.28,4931.72 1522.76,4928.04C1561.65,4908.88 1648.01,4879.95 1693.55,4887.8L1700.3,4837.23Z" style="fill:rgb(179,179,179);stroke:rgb(220,220,220);stroke-width:5.72px;"/>
            </g>
            <g transform="matrix(1,0,0,1,-15.7594,-14.6583)">
                <path d="M1703.48,4836.41C1734.58,4813.87 1771.57,4799.77 1821.07,4782.99C1804.48,4833.33 1816.68,4880.36 1837.75,4879.16C1905.12,4875.3 1992.39,4902.53 2055.7,4973.78C2023.71,4985.96 1984.38,4984.18 1951.64,4987.76C1921.31,4963.59 1799.71,4932.14 1730.68,4936.83C1697.64,4939.07 1686.4,4848.78 1703.48,4836.41Z" style="fill:rgb(179,179,179);stroke:rgb(220,220,220);stroke-width:19.68px;"/>
            </g>
            <g transform="matrix(1,0,0,1,-28.025,-4.20821)">
                <path d="M1796.1,4788.17C1785.08,4841.55 1802.79,4885.39 1827.6,4885.71C1869.98,4886.24 1966.14,4894.9 2039.23,4970.78" style="fill:none;stroke:rgb(220,220,220);stroke-width:9.84px;"/>
            </g>
            <g transform="matrix(1,0,0,1,-13.1502,-11.2067)">
                <path d="M1730.53,4819.56C1712.63,4835.08 1715.81,4917.96 1739.53,4914.03C1797.29,4904.47 1924.67,4929.33 1971.2,4978.69" style="fill:none;stroke:rgb(220,220,220);stroke-width:9.84px;"/>
            </g>
            <g transform="matrix(0.995584,-0.0938769,0.0938769,0.995584,-456.346,194.017)">
                <path d="M1826.02,4765.36C1908.53,4761.09 1950.68,4781.78 2009.13,4813.13C2048.83,4834.43 2047.36,4941.24 2038.85,4977.37C2013.05,4940.1 1923.78,4865.47 1834.47,4864.48C1795.31,4864.05 1809.7,4766.2 1826.02,4765.36Z" style="fill:rgb(148,146,144);fill-opacity:0.42;stroke:rgb(220,220,220);stroke-width:19.68px;"/>
            </g>
            <g transform="matrix(1.07193,0.116574,-0.11538,1.06095,420.702,-519.254)">
                <path d="M1896.34,4841.61C1905.79,4836.14 1952.24,4810.55 1952.24,4810.55" style="fill:none;stroke:rgb(220,220,220);stroke-width:4px;"/>
            </g>
            <g transform="matrix(1.006,0.166168,-0.188065,0.989957,893.595,-265.975)">
                <path d="M1895.34,4822.26L1921.45,4805.99" style="fill:none;stroke:rgb(220,220,220);stroke-width:4.47px;"/>
            </g>
        </g>
        <g transform="matrix(1.23474,0,0,1.23474,-3843.64,-5804.39)">
            <path d="M4319.31,5450.24L4420.41,5608.93L4444.46,5593.49C4444.46,5593.49 4436.19,5576.8 4452.48,5567.37C4466.81,5559.07 4479.57,5573.47 4479.57,5573.47L4501.81,5561.9L4392.91,5397.87L4375.15,5410.42C4375.15,5410.42 4380.96,5427.89 4363.94,5437.76C4351.79,5444.81 4337.94,5436.72 4337.94,5436.72L4319.31,5450.24Z" style="fill:rgb(228,82,255);stroke:rgb(228,82,255);stroke-width:15.94px;"/>
        </g>
        <g transform="matrix(-0.9719,-0.226981,-0.0260392,-1.06433,5958.1,7743.93)">
            <path d="M4418.7,5425.72L4400.27,5440.01" style="fill:none;stroke:rgb(147,145,144);stroke-width:12.79px;"/>
        </g>
        <g transform="matrix(-0.9719,-0.226981,-0.0260392,-1.06433,5993.92,7721.42)">
            <path d="M4418.7,5425.72L4400.27,5440.01" style="fill:none;stroke:rgb(147,145,144);stroke-width:12.79px;"/>
        </g>
        <g transform="matrix(-0.9719,-0.226981,-0.0260392,-1.06433,6029.75,7698.91)">
            <path d="M4418.7,5425.72L4400.27,5440.01" style="fill:none;stroke:rgb(147,145,144);stroke-width:12.79px;"/>
        </g>
    </g>
    <g id="Person-drinking" serif:id="Person drinking" transform="matrix(0.847017,0,0,0.847017,1649.84,4736.52)">
        <g transform="matrix(0.995584,-0.0938769,0.0938769,0.995584,-1160.96,-4264.08)">
            <path d="M1826.02,4765.36C1908.53,4761.09 1950.68,4781.78 2009.13,4813.13C2048.83,4834.43 2047.36,4941.24 2038.85,4977.37C2013.05,4940.1 1923.78,4865.47 1834.47,4864.48C1795.31,4864.05 1809.7,4766.2 1826.02,4765.36Z" style="fill:rgb(148,146,144);stroke:rgb(148,146,144);stroke-width:19.68px;"/>
        </g>
        <g transform="matrix(1,0,0,1,-704.61,-4458.1)">
            <g transform="matrix(-0.812085,-0.58354,0.58354,-0.812085,-1127.19,10968.3)">
                <path d="M1242.17,5704.09C1245.91,5697.62 1247.88,5690.28 1247.88,5682.8C1247.88,5659.3 1228.79,5640.22 1205.29,5640.22C1181.79,5640.22 1162.71,5659.3 1162.71,5682.8C1162.71,5690.28 1164.67,5697.62 1168.41,5704.09L1242.17,5704.09Z" style="fill:rgb(0,130,244);stroke:rgb(0,130,244);stroke-width:39.35px;"/>
            </g>
            <g transform="matrix(0.799709,0,0,0.806023,325.665,529.695)">
                <circle cx="1752.51" cy="5465.01" r="241.035" style="fill:rgb(0,130,244);stroke:rgb(0,130,244);stroke-width:49.02px;"/>
            </g>
            <path d="M1576.67,5137.48C1728.8,5236.53 1861.84,5151.58 1861.84,5151.58L1975.64,5383.92C1975.64,5383.92 1980.32,5319.29 1991.19,5219.55C1994.8,5186.46 2102.08,5202.22 2097.72,5241.46C2073.68,5458.03 2071.71,5449.57 1997.11,5539.68C1897.17,5480.76 1913.48,5470.96 1881.85,5394.89C1881.85,5394.89 1952.17,5639.06 1915.27,5799.98C1910.15,5822.32 1824.96,5841.61 1680.12,5834.65C1536.58,5827.75 1461.06,5797.27 1458.69,5775.39C1437.5,5580.29 1539.6,5395.68 1539.6,5395.68C1539.6,5395.68 1387.19,5572.02 1334.13,5615.04C1302.5,5640.68 1199.39,5563.4 1219.77,5521.68C1301.86,5353.68 1412.75,5272.65 1576.67,5137.48Z" style="fill:rgb(227,47,103);stroke:rgb(227,47,103);stroke-width:39.35px;"/>
            <path d="M1446.71,5839.84C1446.71,5839.84 1531.01,5884.92 1668.12,5890.18C1833.88,5896.55 1911.77,5868.17 1911.77,5868.17C1911.77,5868.17 1947.65,6023.85 1949.26,6180.73C1950.14,6266.94 1952.3,6358.26 1936.11,6466.65C1928.08,6520.46 1736.16,6534.6 1727.27,6488.42C1699.04,6341.83 1663.46,6072.15 1663.46,6072.15C1663.46,6072.15 1592.52,6330.31 1524.64,6476.41C1503.97,6520.9 1355.23,6516.35 1349.37,6453.31C1337.91,6330.17 1345.83,6249.05 1368.49,6127.59C1402.08,5947.47 1446.71,5839.84 1446.71,5839.84Z" style="stroke:black;stroke-width:39.35px;"/>
        </g>
        <g transform="matrix(1.17793,0.07957,-0.07957,1.17793,-393.855,-5319.72)">
            <path d="M1283.89,6176.68C1323.31,6203.29 1377.89,6210.01 1439.1,6192.36C1454,6190.51 1541.84,6249.44 1501.11,6260.32C1435.59,6277.83 1339.03,6271.41 1300.66,6251.59C1277.57,6239.66 1274.91,6216.8 1283.89,6176.68Z" style="fill:rgb(227,47,103);stroke:rgb(227,47,103);stroke-width:12.5px;"/>
        </g>
        <g transform="matrix(1.28776,-0.302824,0.270255,1.14926,-2264.79,-4610.62)">
            <path d="M1283.89,6176.68C1323.31,6203.29 1377.89,6210.01 1439.1,6192.36C1454,6190.51 1541.84,6249.44 1501.11,6260.32C1435.59,6277.83 1339.03,6271.41 1300.66,6251.59C1277.57,6239.66 1274.91,6216.8 1283.89,6176.68Z" style="fill:rgb(227,47,103);stroke:rgb(227,47,103);stroke-width:11.77px;"/>
        </g>
        <g transform="matrix(1,0,0,1,-704.61,-4458.1)">
            <path d="M1718.88,5026.37C1733.58,5028.49 1741.59,5025.85 1754.03,5037.71C1792.7,5074.58 1837.03,5065.02 1872.03,5052.34C1841.67,5009.03 1816.58,4999.66 1754.03,5037.71" style="fill:none;stroke:black;stroke-width:14.76px;"/>
        </g>
        <g transform="matrix(1,0,0,1,-704.61,-4458.1)">
            <g transform="matrix(1,0,0,1,-2.80849,16.3533)">
                <path d="M1700.3,4837.23C1622.44,4844.21 1569.52,4851.35 1526.44,4870.4C1514.97,4875.48 1515.28,4931.72 1522.76,4928.04C1561.65,4908.88 1648.01,4879.95 1693.55,4887.8L1700.3,4837.23Z" style="fill:rgb(179,179,179);stroke:rgb(220,220,220);stroke-width:5.72px;"/>
            </g>
            <g transform="matrix(1,0,0,1,-15.7594,-14.6583)">
                <path d="M1703.48,4836.41C1734.58,4813.87 1771.57,4799.77 1821.07,4782.99C1804.48,4833.33 1816.68,4880.36 1837.75,4879.16C1905.12,4875.3 1992.39,4902.53 2055.7,4973.78C2023.71,4985.96 1984.38,4984.18 1951.64,4987.76C1921.31,4963.59 1799.71,4932.14 1730.68,4936.83C1697.64,4939.07 1686.4,4848.78 1703.48,4836.41Z" style="fill:rgb(179,179,179);stroke:rgb(220,220,220);stroke-width:19.68px;"/>
            </g>
            <g transform="matrix(1,0,0,1,-28.025,-4.20821)">
                <path d="M1796.1,4788.17C1785.08,4841.55 1802.79,4885.39 1827.6,4885.71C1869.98,4886.24 1966.14,4894.9 2039.23,4970.78" style="fill:none;stroke:rgb(220,220,220);stroke-width:9.84px;"/>
            </g>
            <g transform="matrix(1,0,0,1,-13.1502,-11.2067)">
                <path d="M1730.53,4819.56C1712.63,4835.08 1715.81,4917.96 1739.53,4914.03C1797.29,4904.47 1924.67,4929.33 1971.2,4978.69" style="fill:none;stroke:rgb(220,220,220);stroke-width:9.84px;"/>
            </g>
            <g transform="matrix(0.995584,-0.0938769,0.0938769,0.995584,-456.346,194.017)">
                <path d="M1826.02,4765.36C1908.53,4761.09 1950.68,4781.78 2009.13,4813.13C2048.83,4834.43 2047.36,4941.24 2038.85,4977.37C2013.05,4940.1 1923.78,4865.47 1834.47,4864.48C1795.31,4864.05 1809.7,4766.2 1826.02,4765.36Z" style="fill:rgb(148,146,144);fill-opacity:0.42;stroke:rgb(220,220,220);stroke-width:19.68px;"/>
            </g>
            <g transform="matrix(1.07193,0.116574,-0.11538,1.06095,420.702,-519.254)">
                <path d="M1896.34,4841.61C1905.79,4836.14 1952.24,4810.55 1952.24,4810.55" style="fill:none;stroke:rgb(220,220,220);stroke-width:4px;"/>
            </g>
            <g transform="matrix(1.006,0.166168,-0.188065,0.989957,893.595,-265.975)">
                <path d="M1895.34,4822.26L1921.45,4805.99" style="fill:none;stroke:rgb(220,220,220);stroke-width:4.47px;"/>
            </g>
        </g>
        <g transform="matrix(1.22588,0.390131,-0.392282,1.24769,-117.626,-7081.46)">
            <path d="M2813.17,5222.97L2970.47,5184.01L2990.53,5267.92L2845.64,5308.63C2845.64,5308.63 2812.44,5310.68 2795.63,5294.15C2783.14,5281.86 2733.25,5297.59 2733.25,5297.59L2728.41,5277.72C2728.41,5277.72 2779.96,5273.17 2784.39,5259.36C2795.42,5225.04 2813.17,5222.97 2813.17,5222.97Z" style="fill:rgb(250,181,7);stroke:rgb(250,181,7);stroke-width:15.14px;"/>
        </g>
        <g transform="matrix(1.25807,0.267646,-0.246951,1.16218,-944.231,-6260.35)">
            <path d="M2836.57,5195.29L2841.37,5252.94L2923.25,5241.12L2917.85,5181.81L2836.57,5195.29Z" style="fill:rgb(228,82,62);stroke:rgb(228,82,62);stroke-width:15.89px;"/>
        </g>
        <g transform="matrix(0.930098,0.122698,-0.122603,0.929383,68.1483,-4935.08)">
            <path d="M2172.68,5774.56C2174.08,5772.24 2188.62,5745.09 2170.5,5745.86C2133.03,5747.45 2089.8,5706.17 2080.26,5700.65C2047.61,5681.76 2061.8,5773.02 2076.28,5781.21C2122.04,5767.78 2146.5,5771.88 2172.68,5774.56Z" style="fill:rgb(0,130,244);stroke:rgb(0,130,244);stroke-width:41.96px;"/>
        </g>
    </g>
    <g id="Person-shrug" serif:id="Person shrug" transform="matrix(0.847017,0,0,0.847017,92.4812,4820.31)">
        <g transform="matrix(0.995584,-0.0938769,0.0938769,0.995584,-1160.96,-4264.08)">
            <path d="M1826.02,4765.36C1908.53,4761.09 1950.68,4781.78 2009.13,4813.13C2048.83,4834.43 2047.36,4941.24 2038.85,4977.37C2013.05,4940.1 1923.78,4865.47 1834.47,4864.48C1795.31,4864.05 1809.7,4766.2 1826.02,4765.36Z" style="fill:rgb(148,146,144);stroke:rgb(148,146,144);stroke-width:19.68px;"/>
        </g>
        <g transform="matrix(1,0,0,1,-704.61,-4458.1)">
            <g transform="matrix(0.998139,0.546125,-0.758473,1.38624,4492.87,-4128.93)">
                <path d="M2163.56,5783.63C2167.65,5776.86 2195.85,5692.14 2170.17,5692.14C2144.5,5692.14 2157.59,5751.4 2080.43,5757.48C2069.65,5758.33 2082.58,5772.97 2086.66,5779.73L2163.56,5783.63Z" style="fill:rgb(0,130,244);stroke:rgb(0,130,244);stroke-width:28.58px;"/>
            </g>
            <g transform="matrix(-1.08804,0.397057,0.522722,1.43239,433.17,-4221.56)">
                <path d="M2164.46,5791.16C2168.54,5784.39 2204.28,5705.34 2178.61,5705.34C2152.94,5705.34 2174.11,5745.52 2096.95,5751.6C2086.17,5752.45 2081.6,5770.27 2085.68,5777.03L2164.46,5791.16Z" style="fill:rgb(0,130,244);stroke:rgb(0,130,244);stroke-width:29.07px;"/>
            </g>
            <path d="M1516.27,5039.51C1624,5205.66 1870.5,5111.87 1894.53,5076.68C1973.82,5067.04 1989.29,5233.39 2003.81,5310.07C2059.91,5181.72 2100.12,5132.31 2145.36,5088.16C2156.15,5077.63 2253.25,5110.25 2248.11,5153.69C2240.64,5216.82 2100.59,5402.64 2016.24,5464.99C1949.39,5497 1933.53,5330.63 1887.08,5316.16C1887.08,5316.16 1952.17,5639.06 1915.27,5799.98C1910.15,5822.32 1824.96,5841.61 1680.12,5834.65C1536.58,5827.75 1461.06,5797.27 1458.69,5775.39C1437.5,5580.29 1486.59,5256.55 1486.59,5256.55C1433.75,5295.27 1377.1,5380.29 1300.02,5386.44C1279.32,5397.77 1137.98,5053.9 1137.66,5012.17C1137.36,4971.46 1204.71,4909.98 1236.77,4943.56C1275.05,4983.66 1344.65,5250.22 1367.92,5218.21C1376.2,5189.76 1453.66,5053.41 1516.27,5039.51Z" style="fill:rgb(227,47,103);stroke:rgb(227,47,103);stroke-width:39.35px;"/>
            <g transform="matrix(0.799709,0,0,0.806023,325.665,529.695)">
                <circle cx="1752.51" cy="5465.01" r="241.035" style="fill:rgb(0,130,244);stroke:rgb(0,130,244);stroke-width:49.02px;"/>
            </g>
            <path d="M1446.71,5839.84C1446.71,5839.84 1531.01,5884.92 1668.12,5890.18C1833.88,5896.55 1911.77,5868.17 1911.77,5868.17C1911.77,5868.17 1947.65,6023.85 1949.26,6180.73C1950.14,6266.94 1952.3,6358.26 1936.11,6466.65C1928.08,6520.46 1736.16,6534.6 1727.27,6488.42C1699.04,6341.83 1663.46,6072.15 1663.46,6072.15C1663.46,6072.15 1592.52,6330.31 1524.64,6476.41C1503.97,6520.9 1355.23,6516.35 1349.37,6453.31C1337.91,6330.17 1345.83,6249.05 1368.49,6127.59C1402.08,5947.47 1446.71,5839.84 1446.71,5839.84Z" style="stroke:black;stroke-width:39.35px;"/>
        </g>
        <g transform="matrix(1.17793,0.07957,-0.07957,1.17793,-393.855,-5319.72)">
            <path d="M1283.89,6176.68C1323.31,6203.29 1377.89,6210.01 1439.1,6192.36C1454,6190.51 1541.84,6249.44 1501.11,6260.32C1435.59,6277.83 1339.03,6271.41 1300.66,6251.59C1277.57,6239.66 1274.91,6216.8 1283.89,6176.68Z" style="fill:rgb(227,47,103);stroke:rgb(227,47,103);stroke-width:12.5px;"/>
        </g>
        <g transform="matrix(1.28776,-0.302824,0.270255,1.14926,-2264.79,-4610.62)">
            <path d="M1283.89,6176.68C1323.31,6203.29 1377.89,6210.01 1439.1,6192.36C1454,6190.51 1541.84,6249.44 1501.11,6260.32C1435.59,6277.83 1339.03,6271.41 1300.66,6251.59C1277.57,6239.66 1274.91,6216.8 1283.89,6176.68Z" style="fill:rgb(227,47,103);stroke:rgb(227,47,103);stroke-width:11.77px;"/>
        </g>
        <g transform="matrix(1,0,0,1,-704.61,-4458.1)">
            <path d="M1667.22,5027.9C1724.34,5031.44 1741.96,5050.84 1773.71,5055.86C1794.29,5059.11 1812.39,5051.74 1840.9,5045.08" style="fill:none;stroke:black;stroke-width:14.76px;"/>
        </g>
        <g transform="matrix(1,0,0,1,-704.61,-4458.1)">
            <g transform="matrix(1,0,0,1,-2.80849,16.3533)">
                <path d="M1700.3,4837.23C1622.44,4844.21 1569.52,4851.35 1526.44,4870.4C1514.97,4875.48 1515.28,4931.72 1522.76,4928.04C1561.65,4908.88 1648.01,4879.95 1693.55,4887.8L1700.3,4837.23Z" style="fill:rgb(179,179,179);stroke:rgb(220,220,220);stroke-width:5.72px;"/>
            </g>
            <g transform="matrix(1,0,0,1,-15.7594,-14.6583)">
                <path d="M1703.48,4836.41C1734.58,4813.87 1771.57,4799.77 1821.07,4782.99C1804.48,4833.33 1816.68,4880.36 1837.75,4879.16C1905.12,4875.3 1992.39,4902.53 2055.7,4973.78C2023.71,4985.96 1984.38,4984.18 1951.64,4987.76C1921.31,4963.59 1799.71,4932.14 1730.68,4936.83C1697.64,4939.07 1686.4,4848.78 1703.48,4836.41Z" style="fill:rgb(179,179,179);stroke:rgb(220,220,220);stroke-width:19.68px;"/>
            </g>
            <g transform="matrix(1,0,0,1,-28.025,-4.20821)">
                <path d="M1796.1,4788.17C1785.08,4841.55 1802.79,4885.39 1827.6,4885.71C1869.98,4886.24 1966.14,4894.9 2039.23,4970.78" style="fill:none;stroke:rgb(220,220,220);stroke-width:9.84px;"/>
            </g>
            <g transform="matrix(1,0,0,1,-13.1502,-11.2067)">
                <path d="M1730.53,4819.56C1712.63,4835.08 1715.81,4917.96 1739.53,4914.03C1797.29,4904.47 1924.67,4929.33 1971.2,4978.69" style="fill:none;stroke:rgb(220,220,220);stroke-width:9.84px;"/>
            </g>
            <g transform="matrix(0.995584,-0.0938769,0.0938769,0.995584,-456.346,194.017)">
                <path d="M1826.02,4765.36C1908.53,4761.09 1950.68,4781.78 2009.13,4813.13C2048.83,4834.43 2047.36,4941.24 2038.85,4977.37C2013.05,4940.1 1923.78,4865.47 1834.47,4864.48C1795.31,4864.05 1809.7,4766.2 1826.02,4765.36Z" style="fill:rgb(148,146,144);fill-opacity:0.42;stroke:rgb(220,220,220);stroke-width:19.68px;"/>
            </g>
            <g transform="matrix(1.07193,0.116574,-0.11538,1.06095,420.702,-519.254)">
                <path d="M1896.34,4841.61C1905.79,4836.14 1952.24,4810.55 1952.24,4810.55" style="fill:none;stroke:rgb(220,220,220);stroke-width:4px;"/>
            </g>
            <g transform="matrix(1.006,0.166168,-0.188065,0.989957,893.595,-265.975)">
                <path d="M1895.34,4822.26L1921.45,4805.99" style="fill:none;stroke:rgb(220,220,220);stroke-width:4.47px;"/>
            </g>
        </g>
    </g>
    <g id="Person-coding" serif:id="Person coding" transform="matrix(0.847017,0,0,0.847017,1851.5,2596.09)">
        <g transform="matrix(0.995584,-0.0938769,0.0938769,0.995584,-1160.96,-4264.08)">
            <path d="M1826.02,4765.36C1908.53,4761.09 1950.68,4781.78 2009.13,4813.13C2048.83,4834.43 2047.36,4941.24 2038.85,4977.37C2013.05,4940.1 1923.78,4865.47 1834.47,4864.48C1795.31,4864.05 1809.7,4766.2 1826.02,4765.36Z" style="fill:rgb(148,146,144);stroke:rgb(148,146,144);stroke-width:19.68px;"/>
        </g>
        <g transform="matrix(1,0,0,1,-704.61,-4458.1)">
            <g transform="matrix(-0.447456,0.783425,-0.707664,-0.404185,6816.53,6951.2)">
                <path d="M1242.17,5704.09C1245.91,5697.62 1247.88,5690.28 1247.88,5682.8C1247.88,5659.3 1228.79,5640.22 1205.29,5640.22C1181.79,5640.22 1162.71,5659.3 1162.71,5682.8C1162.71,5690.28 1164.67,5697.62 1168.41,5704.09L1242.17,5704.09Z" style="fill:rgb(0,130,244);stroke:rgb(0,130,244);stroke-width:45.78px;"/>
            </g>
            <g transform="matrix(0.799709,0,0,0.806023,325.665,529.695)">
                <circle cx="1752.51" cy="5465.01" r="241.035" style="fill:rgb(0,130,244);stroke:rgb(0,130,244);stroke-width:49.02px;"/>
            </g>
            <g transform="matrix(0.142123,0.96644,-0.92746,0.136391,7367.45,2483.03)">
                <path d="M2167.22,5779.73C2171.31,5772.97 2173.45,5765.29 2173.45,5757.48C2173.45,5732.93 2152.61,5712.99 2126.94,5712.99C2101.27,5712.99 2080.43,5732.93 2080.43,5757.48C2080.43,5765.29 2082.58,5772.97 2086.66,5779.73L2167.22,5779.73Z" style="fill:rgb(0,130,244);stroke:rgb(0,130,244);stroke-width:41.11px;"/>
            </g>
            <path d="M1563.41,5129.35C1715.54,5228.39 1805.02,5184.29 1805.02,5184.29C1824.3,5221.2 1875.69,5306.54 1875.69,5306.54C1875.69,5306.54 2132.18,5263.46 2221.4,5287.3C2246.19,5293.92 2272.84,5361.81 2238.05,5396.38C2211.14,5423.13 2194.13,5403.29 2082.95,5423.67C2013.07,5411.04 1810.1,5298.05 1800.02,5361.28C1800.02,5361.28 2044.65,5481.4 2158.83,5499.77C2239.74,5512.79 2179.58,5579.84 2150.96,5614.05C2125.86,5644.07 1878.09,5560.51 1782.3,5505.49C1812.63,5549.89 1825.06,5589.12 1895.7,5613.72C1897.75,5660.44 1883.86,5716.42 1873.44,5748.72C1866.41,5770.54 1808.72,5790.63 1663.89,5783.67C1520.34,5776.77 1410.99,5730.02 1409.19,5712.62C1395.31,5577.84 1406.74,5489.13 1436.62,5356.37C1465.64,5227.43 1537.15,5123.31 1563.41,5129.35Z" style="fill:rgb(227,47,103);stroke:rgb(227,47,103);stroke-width:39.35px;"/>
            <g transform="matrix(0.848136,0,0,1,214.723,0)">
                <path d="M1402.57,5775.49C1402.57,5775.49 1534.47,5836.3 1671.59,5841.57C1837.35,5847.93 1954.79,5817.61 1954.79,5817.61C1971.98,5863.08 1944.73,5941.03 1944.73,5941.03C1945.55,5944.32 2178.74,5941.77 2236.49,5996.73C2298.95,6056.17 2341.86,6298.65 2325.67,6407.04C2317.63,6460.86 2064.41,6457.17 2055.52,6410.99C2027.29,6264.4 2051.95,6308.32 2046.09,6245.28C2037.98,6158.17 2101.26,6126.4 1893.45,6127.78C1817.48,6128.29 1486.56,6104.15 1454.28,6051.39C1373.99,5920.15 1402.57,5775.49 1402.57,5775.49Z" style="stroke:black;stroke-width:42.44px;"/>
            </g>
        </g>
        <g transform="matrix(1.31266,-0.164159,0.146504,1.17149,-1302.87,-4982.99)">
            <path d="M1283.89,6176.68C1323.31,6203.29 1377.89,6210.01 1439.1,6192.36C1454,6190.51 1541.84,6249.44 1501.11,6260.32C1435.59,6277.83 1339.03,6271.41 1300.66,6251.59C1277.57,6239.66 1274.91,6216.8 1283.89,6176.68Z" style="fill:rgb(227,47,103);stroke:rgb(227,47,103);stroke-width:11.77px;"/>
        </g>
        <g transform="matrix(1,0,0,1,-704.61,-4458.1)">
            <path d="M1688.7,5006.77C1688.7,5006.77 1701.59,5037.37 1718.08,5035.94C1765.48,5031.84 1784.99,5038.14 1838.06,5048.05" style="fill:none;stroke:black;stroke-width:14.76px;"/>
        </g>
        <g transform="matrix(1,0,0,1,-704.61,-4458.1)">
            <g transform="matrix(1,0,0,1,-2.80849,16.3533)">
                <path d="M1700.3,4837.23C1622.44,4844.21 1569.52,4851.35 1526.44,4870.4C1514.97,4875.48 1515.28,4931.72 1522.76,4928.04C1561.65,4908.88 1648.01,4879.95 1693.55,4887.8L1700.3,4837.23Z" style="fill:rgb(179,179,179);stroke:rgb(220,220,220);stroke-width:5.72px;"/>
            </g>
            <g transform="matrix(1,0,0,1,-15.7594,-14.6583)">
                <path d="M1703.48,4836.41C1734.58,4813.87 1771.57,4799.77 1821.07,4782.99C1804.48,4833.33 1816.68,4880.36 1837.75,4879.16C1905.12,4875.3 1992.39,4902.53 2055.7,4973.78C2023.71,4985.96 1984.38,4984.18 1951.64,4987.76C1921.31,4963.59 1799.71,4932.14 1730.68,4936.83C1697.64,4939.07 1686.4,4848.78 1703.48,4836.41Z" style="fill:rgb(179,179,179);stroke:rgb(220,220,220);stroke-width:19.68px;"/>
            </g>
            <g transform="matrix(1,0,0,1,-28.025,-4.20821)">
                <path d="M1796.1,4788.17C1785.08,4841.55 1802.79,4885.39 1827.6,4885.71C1869.98,4886.24 1966.14,4894.9 2039.23,4970.78" style="fill:none;stroke:rgb(220,220,220);stroke-width:9.84px;"/>
            </g>
            <g transform="matrix(1,0,0,1,-13.1502,-11.2067)">
                <path d="M1730.53,4819.56C1712.63,4835.08 1715.81,4917.96 1739.53,4914.03C1797.29,4904.47 1924.67,4929.33 1971.2,4978.69" style="fill:none;stroke:rgb(220,220,220);stroke-width:9.84px;"/>
            </g>
            <g transform="matrix(0.995584,-0.0938769,0.0938769,0.995584,-456.346,194.017)">
                <path d="M1826.02,4765.36C1908.53,4761.09 1950.68,4781.78 2009.13,4813.13C2048.83,4834.43 2047.36,4941.24 2038.85,4977.37C2013.05,4940.1 1923.78,4865.47 1834.47,4864.48C1795.31,4864.05 1809.7,4766.2 1826.02,4765.36Z" style="fill:rgb(148,146,144);fill-opacity:0.42;stroke:rgb(220,220,220);stroke-width:19.68px;"/>
            </g>
            <g transform="matrix(1.07193,0.116574,-0.11538,1.06095,420.702,-519.254)">
                <path d="M1896.34,4841.61C1905.79,4836.14 1952.24,4810.55 1952.24,4810.55" style="fill:none;stroke:rgb(220,220,220);stroke-width:4px;"/>
            </g>
            <g transform="matrix(1.006,0.166168,-0.188065,0.989957,893.595,-265.975)">
                <path d="M1895.34,4822.26L1921.45,4805.99" style="fill:none;stroke:rgb(220,220,220);stroke-width:4.47px;"/>
            </g>
        </g>
        <g transform="matrix(1.2339,0.199105,-0.193547,1.19945,-1560.34,-3826.14)">
            <path d="M2806.57,4210.7C2806.57,4185.98 2787.06,4165.9 2763.02,4165.9L2441.39,4165.9C2417.36,4165.9 2397.84,4185.98 2397.84,4210.7L2397.84,4436.15C2397.84,4460.88 2417.36,4480.96 2441.39,4480.96L2763.02,4480.96C2787.06,4480.96 2806.57,4460.88 2806.57,4436.15L2806.57,4210.7Z" style="fill:rgb(69,70,75);stroke:rgb(69,70,75);stroke-width:15.96px;"/>
        </g>
        <g transform="matrix(1.01338,-0.11144,0.264004,2.40071,-1824.62,-8396.19)">
            <path d="M2806.57,4190.57C2806.57,4176.95 2780.39,4165.9 2748.13,4165.9L2456.29,4165.9C2424.03,4165.9 2397.84,4176.95 2397.84,4190.57L2397.84,4456.29C2397.84,4469.9 2424.03,4480.96 2456.29,4480.96L2748.13,4480.96C2780.39,4480.96 2806.57,4469.9 2806.57,4456.29L2806.57,4190.57Z" style="fill:rgb(69,70,75);stroke:rgb(69,70,75);stroke-width:10.61px;"/>
        </g>
        <g transform="matrix(1.17398,-0.125005,0.125005,1.17398,-2680.53,-2789.98)">
            <path d="M3550.41,3789.39C3550.41,3780.18 3542.93,3772.69 3533.71,3772.69L3179.16,3772.69C3169.94,3772.69 3162.45,3780.18 3162.45,3789.39L3162.45,3822.8C3162.45,3832.02 3169.94,3839.5 3179.16,3839.5L3533.71,3839.5C3542.93,3839.5 3550.41,3832.02 3550.41,3822.8L3550.41,3789.39Z" style="fill:rgb(148,146,144);stroke:rgb(148,146,144);stroke-width:16.67px;"/>
        </g>
        <g transform="matrix(0.697765,0.0767164,-0.124717,1.13435,-72.8067,-3294.24)">
            <path d="M3638.61,3350.7C3638.61,3340.82 3625.56,3332.79 3609.49,3332.79L3551.27,3332.79C3535.2,3332.79 3522.16,3340.82 3522.16,3350.7L3522.16,3678.08C3522.16,3687.97 3535.2,3695.99 3551.27,3695.99L3609.49,3695.99C3625.56,3695.99 3638.61,3687.97 3638.61,3678.08L3638.61,3350.7Z" style="fill:rgb(148,146,144);stroke:rgb(148,146,144);stroke-width:20.77px;"/>
        </g>
    </g>
    <g id="Person-music" serif:id="Person music" transform="matrix(0.847017,0,0,0.847017,139.225,2670.48)">
        <g transform="matrix(4.1524,-0.877152,1.18216,5.5963,-12587.9,-38.1187)">
            <path d="M2970.78,664.731C2945.62,682.507 2934.92,705.485 2939.46,733.277" style="fill:none;stroke:rgb(131,139,255);stroke-width:2.93px;"/>
        </g>
        <g transform="matrix(-3.98863,2.16663,-1.57864,-4.06186,14216.8,-2050.82)">
            <path d="M2970.78,664.731C2945.62,682.507 2936.72,697.205 2934.2,730.953" style="fill:none;stroke:rgb(131,139,255);stroke-width:3.55px;"/>
        </g>
        <g transform="matrix(4.1524,-0.877152,1.18216,5.5963,-12593.6,-36.5833)">
            <path d="M2908.14,745.186C2906.83,731.005 2907.41,717.9 2909.93,705.891C2915.71,678.23 2931.74,656.387 2958.46,640.616" style="fill:none;stroke:rgb(131,139,255);stroke-width:2.93px;"/>
        </g>
        <g transform="matrix(-3.9329,1.69212,-1.78106,-5.40599,14212.7,343.64)">
            <path d="M2899.49,746.85C2898.13,695.484 2927.17,668.407 2969.46,648.927" style="fill:none;stroke:rgb(131,139,255);stroke-width:3.06px;"/>
        </g>
        <g transform="matrix(0.995584,-0.0938769,0.0938769,0.995584,-1160.96,-4264.08)">
            <path d="M1826.02,4765.36C1908.53,4761.09 1950.68,4781.78 2009.13,4813.13C2048.83,4834.43 2047.36,4941.24 2038.85,4977.37C2013.05,4940.1 1923.78,4865.47 1834.47,4864.48C1795.31,4864.05 1809.7,4766.2 1826.02,4765.36Z" style="fill:rgb(148,146,144);stroke:rgb(148,146,144);stroke-width:19.68px;"/>
        </g>
        <g transform="matrix(1,0,0,1,-704.61,-4458.1)">
            <g transform="matrix(0.875401,-0.483398,0.483398,0.875401,-2688.21,466.206)">
                <path d="M1242.17,5704.09C1245.91,5697.62 1247.88,5690.28 1247.88,5682.8C1247.88,5659.3 1228.79,5640.22 1205.29,5640.22C1181.79,5640.22 1162.71,5659.3 1162.71,5682.8C1162.71,5690.28 1164.67,5697.62 1168.41,5704.09L1242.17,5704.09Z" style="fill:rgb(0,130,244);stroke:rgb(0,130,244);stroke-width:39.35px;"/>
            </g>
            <g transform="matrix(0.799709,0,0,0.806023,325.665,529.695)">
                <circle cx="1752.51" cy="5465.01" r="241.035" style="fill:rgb(0,130,244);stroke:rgb(0,130,244);stroke-width:49.02px;"/>
            </g>
            <g transform="matrix(0.264604,0.940314,-0.902388,0.253932,6993.27,1805.03)">
                <path d="M2167.22,5779.73C2171.31,5772.97 2173.45,5765.29 2173.45,5757.48C2173.45,5732.93 2152.61,5712.99 2126.94,5712.99C2101.27,5712.99 2080.43,5732.93 2080.43,5757.48C2080.43,5765.29 2082.58,5772.97 2086.66,5779.73L2167.22,5779.73Z" style="fill:rgb(0,130,244);stroke:rgb(0,130,244);stroke-width:41.11px;"/>
            </g>
            <path d="M1576.67,5137.48C1728.8,5236.53 1822.83,5164.52 1822.83,5164.52C1872.83,5165.78 1929.36,5187.4 2013.37,5312.05C2049.62,5365.83 2136.3,5244.95 2231.86,5229.68C2261.58,5224.93 2278.49,5315.46 2281.68,5359.16C2285.19,5407.31 2050.13,5513.65 1958.46,5505.63C1903.76,5481.05 1890.09,5410.29 1881.85,5394.89C1883.46,5426.58 1911.91,5689.55 1876.49,5793.57C1869.11,5815.27 1824.96,5841.61 1680.12,5834.65C1536.58,5827.75 1459.72,5797.37 1458.69,5775.39C1450.12,5593.13 1507.83,5433.96 1508.18,5426.2C1508.18,5426.2 1404.83,5345.04 1308.69,5272.75C1279.43,5250.75 1181.36,5097.95 1137.54,5002.77C1118.14,4960.65 1186.05,4900.15 1215.58,4923.78C1332.67,5017.49 1461.27,5260.67 1576.67,5137.48Z" style="fill:rgb(227,47,103);stroke:rgb(227,47,103);stroke-width:39.35px;"/>
            <path d="M1446.71,5839.84C1446.71,5839.84 1531.01,5884.92 1668.12,5890.18C1833.88,5896.55 1874.65,5870.53 1874.65,5870.53C1861.33,6008.38 1808.07,6089.73 1764.97,6157.97C1734.85,6124.68 1696.68,6077.35 1623.68,6075.95C1652.45,6132.9 1715.83,6170.38 1744.77,6208.65C1794.02,6273.77 1903.99,6379.2 1924.61,6431.98C1944.41,6482.66 1771.52,6504.34 1727.27,6488.42C1689.8,6474.94 1618.42,6363.58 1618.42,6363.58C1618.42,6363.58 1532.45,6459.59 1524.64,6476.41C1503.97,6520.9 1355.23,6516.35 1349.37,6453.31C1341.64,6370.31 1441.33,6214.16 1441.33,6214.16C1500.46,6282.59 1546.75,6303.13 1578.15,6287.23L1473.05,6160.98C1386.8,6045.02 1437.4,5968.02 1446.71,5839.84Z" style="stroke:black;stroke-width:39.35px;"/>
        </g>
        <g transform="matrix(0.966403,0.225322,-0.287554,1.23331,1150.32,-5867.32)">
            <path d="M1283.89,6176.68C1323.31,6203.29 1377.89,6210.01 1439.1,6192.36C1454,6190.51 1533.4,6231.79 1511.53,6252.5C1505.74,6257.98 1449.43,6268.54 1430.99,6271.16C1411.55,6273.92 1329.12,6266.29 1300.66,6251.59C1277.57,6239.66 1274.91,6216.8 1283.89,6176.68Z" style="fill:rgb(227,47,103);stroke:rgb(227,47,103);stroke-width:12.97px;"/>
        </g>
        <g transform="matrix(1.28776,-0.302824,0.270255,1.14926,-2264.79,-4610.62)">
            <path d="M1280.4,6163.93C1333.2,6175.35 1410.93,6193.85 1441.59,6167.27C1456.5,6165.42 1534.56,6233.19 1493.83,6244.08C1428.32,6261.59 1373.38,6257.99 1332.31,6246.89C1297.17,6237.39 1271.42,6204.04 1280.4,6163.93Z" style="fill:rgb(227,47,103);stroke:rgb(227,47,103);stroke-width:11.77px;"/>
        </g>
        <g transform="matrix(0.849747,0,0,0.678913,-426.364,-2826.28)">
            <path d="M1851.85,5017.91C1834.65,5033 1737.01,5057.61 1633.89,5010.51C1740.2,5063.04 1756.88,5109.73 1805.61,5086.72C1822.78,5078.61 1835.98,5057.97 1851.85,5017.91Z" style="fill:none;stroke:black;stroke-width:19.19px;"/>
        </g>
        <g transform="matrix(1,0,0,1,-704.61,-4458.1)">
            <g transform="matrix(1,0,0,1,-2.80849,16.3533)">
                <path d="M1700.3,4837.23C1622.44,4844.21 1569.52,4851.35 1526.44,4870.4C1514.97,4875.48 1515.28,4931.72 1522.76,4928.04C1561.65,4908.88 1648.01,4879.95 1693.55,4887.8L1700.3,4837.23Z" style="fill:rgb(179,179,179);stroke:rgb(220,220,220);stroke-width:5.72px;"/>
            </g>
            <g transform="matrix(1,0,0,1,-15.7594,-14.6583)">
                <path d="M1703.48,4836.41C1734.58,4813.87 1771.57,4799.77 1821.07,4782.99C1804.48,4833.33 1816.68,4880.36 1837.75,4879.16C1905.12,4875.3 1992.39,4902.53 2055.7,4973.78C2023.71,4985.96 1984.38,4984.18 1951.64,4987.76C1921.31,4963.59 1799.71,4932.14 1730.68,4936.83C1697.64,4939.07 1686.4,4848.78 1703.48,4836.41Z" style="fill:rgb(179,179,179);stroke:rgb(220,220,220);stroke-width:19.68px;"/>
            </g>
            <g transform="matrix(1,0,0,1,-28.025,-4.20821)">
                <path d="M1796.1,4788.17C1785.08,4841.55 1802.79,4885.39 1827.6,4885.71C1869.98,4886.24 1966.14,4894.9 2039.23,4970.78" style="fill:none;stroke:rgb(220,220,220);stroke-width:9.84px;"/>
            </g>
            <g transform="matrix(1,0,0,1,-13.1502,-11.2067)">
                <path d="M1730.53,4819.56C1712.63,4835.08 1715.81,4917.96 1739.53,4914.03C1797.29,4904.47 1924.67,4929.33 1971.2,4978.69" style="fill:none;stroke:rgb(220,220,220);stroke-width:9.84px;"/>
            </g>
            <g transform="matrix(0.995584,-0.0938769,0.0938769,0.995584,-456.346,194.017)">
                <path d="M1826.02,4765.36C1908.53,4761.09 1950.68,4781.78 2009.13,4813.13C2048.83,4834.43 2047.36,4941.24 2038.85,4977.37C2013.05,4940.1 1923.78,4865.47 1834.47,4864.48C1795.31,4864.05 1809.7,4766.2 1826.02,4765.36Z" style="fill:rgb(148,146,144);fill-opacity:0.42;stroke:rgb(220,220,220);stroke-width:19.68px;"/>
            </g>
            <g transform="matrix(1.07193,0.116574,-0.11538,1.06095,420.702,-519.254)">
                <path d="M1896.34,4841.61C1905.79,4836.14 1952.24,4810.55 1952.24,4810.55" style="fill:none;stroke:rgb(220,220,220);stroke-width:4px;"/>
            </g>
            <g transform="matrix(1.006,0.166168,-0.188065,0.989957,893.595,-265.975)">
                <path d="M1895.34,4822.26L1921.45,4805.99" style="fill:none;stroke:rgb(220,220,220);stroke-width:4.47px;"/>
            </g>
        </g>
        <g transform="matrix(-0.95396,-0.299935,-0.299935,0.95396,3414.2,564.432)">
            <g transform="matrix(1.18061,-1.31074e-16,1.19175e-16,1.07344,-33.1938,-2611.85)">
                <path d="M1368.56,2893.72L1371.25,2665.8L1523.68,2672.3L1540.25,2889.57C1540.25,2889.57 1572.14,2875.36 1594.38,2883.2C1625.82,2894.29 1629.74,2916.35 1621.12,2930.22C1611.78,2945.23 1579.06,2957.85 1551.98,2956.17C1535.04,2955.12 1509.66,2958.78 1500.55,2933.04C1493.13,2912.1 1504.23,2901.59 1504.23,2901.59L1487.8,2754.62L1405.03,2749.07L1404.09,2904.18C1404.09,2904.18 1431.47,2898.8 1444.53,2902.86C1477.91,2913.22 1479.95,2949.91 1444.45,2964.78C1429,2971.26 1366.68,2969.1 1355.33,2936.8C1345.66,2909.28 1367.16,2904.15 1368.56,2893.72Z" style="stroke:black;stroke-width:23.98px;"/>
            </g>
            <g transform="matrix(1.18061,0,0,1.07344,-63.6019,-2637.13)">
                <path d="M1368.56,2893.72L1371.25,2665.8L1523.68,2672.3L1540.25,2889.57C1540.25,2889.57 1572.14,2875.36 1594.38,2883.2C1625.82,2894.29 1629.74,2916.35 1621.12,2930.22C1611.78,2945.23 1579.06,2957.85 1551.98,2956.17C1535.04,2955.12 1509.66,2958.78 1500.55,2933.04C1493.13,2912.1 1504.23,2901.59 1504.23,2901.59L1487.8,2754.62L1405.03,2749.07L1404.09,2904.18C1404.09,2904.18 1431.47,2898.8 1444.53,2902.86C1477.91,2913.22 1479.95,2949.91 1444.45,2964.78C1429,2971.26 1366.68,2969.1 1355.33,2936.8C1345.66,2909.28 1367.16,2904.15 1368.56,2893.72Z" style="fill:rgb(227,47,103);stroke:rgb(12,14,15);stroke-width:23.98px;"/>
            </g>
        </g>
        <g transform="matrix(-0.581433,-0.315722,-0.315722,0.581433,2830.02,840.958)">
            <g transform="matrix(1.18061,6.55372e-17,-6.55372e-17,1.18061,-105.985,-3249.95)">
                <path d="M1278.99,2621.26L1226.76,2834.34C1226.76,2834.34 1199.13,2840.38 1202.54,2871.35C1205.84,2901.2 1225.7,2910.87 1252.79,2915.13C1287.24,2920.56 1327.63,2917.62 1331.48,2887.81C1337.21,2843.48 1275.78,2838.32 1275.78,2838.32L1348.82,2562.22C1348.82,2562.22 1270.88,2545.92 1235.48,2565.36C1200.39,2584.63 1205.65,2621.69 1182.17,2639.49C1165.41,2652.19 1100.62,2671.05 1100.62,2671.05C1100.62,2671.05 1154.91,2695.22 1188.1,2688.34C1222.26,2681.25 1219,2655.66 1240.31,2638C1264.53,2617.92 1278.99,2621.26 1278.99,2621.26Z" style="stroke:black;stroke-width:34.64px;"/>
            </g>
            <g transform="matrix(1.18061,0,0,1.18061,-126.076,-3279.24)">
                <path d="M1278.99,2621.26L1226.76,2834.34C1226.76,2834.34 1199.13,2840.38 1202.54,2871.35C1205.84,2901.2 1225.7,2910.87 1252.79,2915.13C1287.24,2920.56 1327.63,2917.62 1331.48,2887.81C1337.21,2843.48 1275.78,2838.32 1275.78,2838.32L1348.82,2562.22C1348.82,2562.22 1270.88,2545.92 1235.48,2565.36C1200.39,2584.63 1205.65,2621.69 1182.17,2639.49C1165.41,2652.19 1100.62,2671.05 1100.62,2671.05C1100.62,2671.05 1154.91,2695.22 1188.1,2688.34C1222.26,2681.25 1219,2655.66 1240.31,2638C1264.53,2617.92 1278.99,2621.26 1278.99,2621.26Z" style="fill:rgb(227,47,103);stroke:rgb(12,14,15);stroke-width:25.19px;"/>
            </g>
        </g>
        <g transform="matrix(-0.766148,-0.304234,-0.304234,0.766148,2543.58,568.338)">
            <g transform="matrix(1.18061,6.55372e-17,-6.55372e-17,1.18061,-105.985,-3249.95)">
                <path d="M1278.99,2621.26L1226.76,2834.34C1226.76,2834.34 1199.13,2840.38 1202.54,2871.35C1205.84,2901.2 1225.7,2910.87 1252.79,2915.13C1287.24,2920.56 1327.63,2917.62 1331.48,2887.81C1337.21,2843.48 1275.78,2838.32 1275.78,2838.32L1348.82,2562.22C1348.82,2562.22 1270.88,2545.92 1235.48,2565.36C1200.39,2584.63 1205.65,2621.69 1182.17,2639.49C1165.41,2652.19 1100.62,2671.05 1100.62,2671.05C1100.62,2671.05 1154.91,2695.22 1188.1,2688.34C1222.26,2681.25 1219,2655.66 1240.31,2638C1264.53,2617.92 1278.99,2621.26 1278.99,2621.26Z" style="stroke:black;stroke-width:27.8px;"/>
            </g>
            <g transform="matrix(1.18061,0,0,1.18061,-126.076,-3279.24)">
                <path d="M1278.99,2621.26L1226.76,2834.34C1226.76,2834.34 1199.13,2840.38 1202.54,2871.35C1205.84,2901.2 1225.7,2910.87 1252.79,2915.13C1287.24,2920.56 1327.63,2917.62 1331.48,2887.81C1337.21,2843.48 1275.78,2838.32 1275.78,2838.32L1348.82,2562.22C1348.82,2562.22 1270.88,2545.92 1235.48,2565.36C1200.39,2584.63 1205.65,2621.69 1182.17,2639.49C1165.41,2652.19 1100.62,2671.05 1100.62,2671.05C1100.62,2671.05 1154.91,2695.22 1188.1,2688.34C1222.26,2681.25 1219,2655.66 1240.31,2638C1264.53,2617.92 1278.99,2621.26 1278.99,2621.26Z" style="fill:rgb(227,47,103);stroke:rgb(12,14,15);stroke-width:27.8px;"/>
            </g>
        </g>
    </g>
    <g id="Person--" serif:id="Person ?" transform="matrix(0.847017,0,0,0.847017,3054.75,422.544)">
        <g transform="matrix(0.995584,-0.0938769,0.0938769,0.995584,-1160.96,-4264.08)">
            <path d="M1826.02,4765.36C1908.53,4761.09 1950.68,4781.78 2009.13,4813.13C2048.83,4834.43 2047.36,4941.24 2038.85,4977.37C2013.05,4940.1 1923.78,4865.47 1834.47,4864.48C1795.31,4864.05 1809.7,4766.2 1826.02,4765.36Z" style="fill:rgb(148,146,144);stroke:rgb(148,146,144);stroke-width:19.68px;"/>
        </g>
        <g transform="matrix(1,0,0,1,-704.61,-4458.1)">
            <g transform="matrix(0.799709,0,0,0.806023,325.665,529.695)">
                <circle cx="1752.51" cy="5465.01" r="241.035" style="fill:rgb(0,130,244);stroke:rgb(0,130,244);stroke-width:49.02px;"/>
            </g>
            <g transform="matrix(-0.942526,0.256614,-0.246264,-0.90451,5557.34,10381.7)">
                <path d="M2167.22,5779.73C2171.31,5772.97 2173.45,5765.29 2173.45,5757.48C2173.45,5732.93 2152.61,5712.99 2126.94,5712.99C2101.27,5712.99 2080.43,5732.93 2080.43,5757.48C2080.43,5765.29 2082.58,5772.97 2086.66,5779.73L2167.22,5779.73Z" style="fill:rgb(0,130,244);stroke:rgb(0,130,244);stroke-width:41.11px;"/>
            </g>
            <path d="M1576.67,5137.48C1728.8,5236.53 1861.84,5151.58 1861.84,5151.58C1861.84,5151.58 1954.25,5202.29 2046.75,5359.36C2095.07,5441.41 2142.8,5531.69 2146.03,5628.41C2146.89,5654.06 2052.04,5683.34 2021.79,5633.42C1967.31,5543.5 1881.85,5394.89 1881.85,5394.89C1881.85,5394.89 1952.17,5639.06 1915.27,5799.98C1910.15,5822.32 1824.96,5841.61 1680.12,5834.65C1536.58,5827.75 1461.06,5797.27 1458.69,5775.39C1437.5,5580.29 1539.6,5395.68 1539.6,5395.68C1539.6,5395.68 1300.55,5466.62 1251.78,5438.34C1229.59,5425.48 1234.52,5275.72 1368.96,4989.36C1388.57,4947.6 1491.51,5019.16 1476.68,5070.52C1451.94,5156.24 1390.62,5319.25 1390.62,5319.25C1390.62,5319.25 1521.29,5183.15 1576.67,5137.48Z" style="fill:rgb(227,47,103);stroke:rgb(227,47,103);stroke-width:39.35px;"/>
            <path d="M1446.71,5839.84C1446.71,5839.84 1531.01,5884.92 1668.12,5890.18C1833.88,5896.55 1911.77,5868.17 1911.77,5868.17C1911.77,5868.17 1947.65,6023.85 1949.26,6180.73C1950.14,6266.94 1952.3,6358.26 1936.11,6466.65C1928.08,6520.46 1736.16,6534.6 1727.27,6488.42C1699.04,6341.83 1663.46,6072.15 1663.46,6072.15C1663.46,6072.15 1592.52,6330.31 1524.64,6476.41C1503.97,6520.9 1355.23,6516.35 1349.37,6453.31C1337.91,6330.17 1345.83,6249.05 1368.49,6127.59C1402.08,5947.47 1446.71,5839.84 1446.71,5839.84Z" style="stroke:black;stroke-width:39.35px;"/>
        </g>
        <g transform="matrix(1.17793,0.07957,-0.07957,1.17793,-393.855,-5319.72)">
            <path d="M1283.89,6176.68C1323.31,6203.29 1377.89,6210.01 1439.1,6192.36C1454,6190.51 1541.84,6249.44 1501.11,6260.32C1435.59,6277.83 1339.03,6271.41 1300.66,6251.59C1277.57,6239.66 1274.91,6216.8 1283.89,6176.68Z" style="fill:rgb(227,47,103);stroke:rgb(227,47,103);stroke-width:12.5px;"/>
        </g>
        <g transform="matrix(1.28776,-0.302824,0.270255,1.14926,-2264.79,-4610.62)">
            <path d="M1283.89,6176.68C1323.31,6203.29 1377.89,6210.01 1439.1,6192.36C1454,6190.51 1541.84,6249.44 1501.11,6260.32C1435.59,6277.83 1339.03,6271.41 1300.66,6251.59C1277.57,6239.66 1274.91,6216.8 1283.89,6176.68Z" style="fill:rgb(227,47,103);stroke:rgb(227,47,103);stroke-width:11.77px;"/>
        </g>
        <g transform="matrix(1,0,0,-1,-705.316,5619.41)">
            <path d="M1688.7,5006.77C1688.7,5006.77 1701.59,5037.37 1718.08,5035.94C1739.92,5034.06 1755.84,5034.37 1771.84,5036.23C1790.58,5038.41 1809.44,5042.7 1838.06,5048.05" style="fill:none;stroke:black;stroke-width:14.76px;"/>
        </g>
        <g transform="matrix(1,0,0,1,-704.61,-4458.1)">
            <g transform="matrix(1,0,0,1,-2.80849,16.3533)">
                <path d="M1700.3,4837.23C1622.44,4844.21 1569.52,4851.35 1526.44,4870.4C1514.97,4875.48 1515.28,4931.72 1522.76,4928.04C1561.65,4908.88 1648.01,4879.95 1693.55,4887.8L1700.3,4837.23Z" style="fill:rgb(179,179,179);stroke:rgb(220,220,220);stroke-width:5.72px;"/>
            </g>
            <g transform="matrix(1,0,0,1,-15.7594,-14.6583)">
                <path d="M1703.48,4836.41C1734.58,4813.87 1771.57,4799.77 1821.07,4782.99C1804.48,4833.33 1816.68,4880.36 1837.75,4879.16C1905.12,4875.3 1992.39,4902.53 2055.7,4973.78C2023.71,4985.96 1984.38,4984.18 1951.64,4987.76C1921.31,4963.59 1799.71,4932.14 1730.68,4936.83C1697.64,4939.07 1686.4,4848.78 1703.48,4836.41Z" style="fill:rgb(179,179,179);stroke:rgb(220,220,220);stroke-width:19.68px;"/>
            </g>
            <g transform="matrix(1,0,0,1,-28.025,-4.20821)">
                <path d="M1796.1,4788.17C1785.08,4841.55 1802.79,4885.39 1827.6,4885.71C1869.98,4886.24 1966.14,4894.9 2039.23,4970.78" style="fill:none;stroke:rgb(220,220,220);stroke-width:9.84px;"/>
            </g>
            <g transform="matrix(1,0,0,1,-13.1502,-11.2067)">
                <path d="M1730.53,4819.56C1712.63,4835.08 1715.81,4917.96 1739.53,4914.03C1797.29,4904.47 1924.67,4929.33 1971.2,4978.69" style="fill:none;stroke:rgb(220,220,220);stroke-width:9.84px;"/>
            </g>
            <g transform="matrix(0.995584,-0.0938769,0.0938769,0.995584,-456.346,194.017)">
                <path d="M1826.02,4765.36C1908.53,4761.09 1950.68,4781.78 2009.13,4813.13C2048.83,4834.43 2047.36,4941.24 2038.85,4977.37C2013.05,4940.1 1923.78,4865.47 1834.47,4864.48C1795.31,4864.05 1809.7,4766.2 1826.02,4765.36Z" style="fill:rgb(148,146,144);fill-opacity:0.42;stroke:rgb(220,220,220);stroke-width:19.68px;"/>
            </g>
            <g transform="matrix(1.07193,0.116574,-0.11538,1.06095,420.702,-519.254)">
                <path d="M1896.34,4841.61C1905.79,4836.14 1952.24,4810.55 1952.24,4810.55" style="fill:none;stroke:rgb(220,220,220);stroke-width:4px;"/>
            </g>
            <g transform="matrix(1.006,0.166168,-0.188065,0.989957,893.595,-265.975)">
                <path d="M1895.34,4822.26L1921.45,4805.99" style="fill:none;stroke:rgb(220,220,220);stroke-width:4.47px;"/>
            </g>
        </g>
        <g transform="matrix(0.730686,0.682713,-0.682713,0.730686,3775.67,-4490)">
            <path d="M1242.17,5704.09C1245.91,5697.62 1247.88,5690.28 1247.88,5682.8C1247.88,5659.3 1228.79,5640.22 1205.29,5640.22C1181.79,5640.22 1162.71,5659.3 1162.71,5682.8C1162.71,5690.28 1164.67,5697.62 1168.41,5704.09L1242.17,5704.09Z" style="fill:rgb(0,130,244);stroke:rgb(0,130,244);stroke-width:39.35px;"/>
        </g>
        <g transform="matrix(0.28339,0.212032,-0.212032,0.28339,776.006,-695.395)">
            <g transform="matrix(0.989631,0.143634,-0.143634,0.989631,-165.216,-419.241)">
                <g transform="matrix(0.995254,0.0973076,-0.0973076,0.995254,99.9844,-243.434)">
                    <path d="M4290.02,1566.52C4200.68,1570.17 4209.21,1696.91 4285.36,1690.64C4407.6,1680.57 4359.39,1563.67 4290.02,1566.52Z" style="stroke:black;stroke-width:76.77px;"/>
                </g>
                <g transform="matrix(0.86912,0.308452,-0.286859,0.808276,881.582,-1013.15)">
                    <path d="M3892.72,1261.3C3946.71,1170.25 4148.79,994.551 4273.29,1023.05C4345.51,1039.58 4380.42,1085.12 4404.07,1132.59C4424.03,1172.65 4437.55,1261.3 4410.57,1317.38C4367.13,1407.66 4301.82,1416.74 4262.41,1491.38C4241.84,1530.35 4279.8,1571.37 4336.06,1536.4C4401.96,1495.43 4490.6,1341.36 4490.6,1341.36L4608.78,1440.29C4608.78,1440.29 4358.49,1742.81 4209.11,1710.11C4106.47,1687.64 4090.13,1545.17 4117.3,1466.75C4129.88,1430.45 4187.5,1364.79 4230.76,1326.39C4310.18,1255.88 4260.4,1176.07 4232.98,1177.21C4121.25,1181.86 3948.43,1354.7 3973.47,1371.71L3892.72,1261.3Z" style="stroke:black;stroke-width:86.2px;"/>
                </g>
            </g>
            <g transform="matrix(0.989631,0.143634,-0.143634,0.989631,-87.7709,-478.521)">
                <g transform="matrix(0.995254,0.0973076,-0.0973076,0.995254,99.9844,-243.434)">
                    <path d="M4290.02,1566.52C4200.68,1570.17 4209.21,1696.91 4285.36,1690.64C4407.6,1680.57 4359.39,1563.67 4290.02,1566.52Z" style="fill:rgb(227,47,103);stroke:rgb(10,10,10);stroke-width:55.6px;"/>
                </g>
                <g transform="matrix(0.86912,0.308452,-0.286859,0.808276,881.582,-1013.15)">
                    <path d="M3892.72,1261.3C3946.71,1170.25 4148.79,994.551 4273.29,1023.05C4345.51,1039.58 4380.42,1085.12 4404.07,1132.59C4424.03,1172.65 4437.55,1261.3 4410.57,1317.38C4367.13,1407.66 4301.82,1416.74 4262.41,1491.38C4241.84,1530.35 4279.8,1571.37 4336.06,1536.4C4401.96,1495.43 4490.6,1341.36 4490.6,1341.36L4608.78,1440.29C4608.78,1440.29 4358.49,1742.81 4209.11,1710.11C4106.47,1687.64 4090.13,1545.17 4117.3,1466.75C4129.88,1430.45 4187.5,1364.79 4230.76,1326.39C4310.18,1255.88 4260.4,1176.07 4232.98,1177.21C4121.25,1181.86 3948.43,1354.7 3973.47,1371.71L3892.72,1261.3Z" style="fill:rgb(227,47,103);stroke:rgb(10,10,10);stroke-width:62.43px;"/>
                </g>
            </g>
        </g>
        <g transform="matrix(0.331673,0.123532,-0.138371,0.371515,423.216,-893.63)">
            <g transform="matrix(0.989631,0.143634,-0.143634,0.989631,-165.216,-419.241)">
                <g transform="matrix(0.995254,0.0973076,-0.0973076,0.995254,99.9844,-243.434)">
                    <path d="M4290.02,1566.52C4200.68,1570.17 4209.21,1696.91 4285.36,1690.64C4407.6,1680.57 4359.39,1563.67 4290.02,1566.52Z" style="stroke:black;stroke-width:70.48px;"/>
                </g>
                <g transform="matrix(0.86912,0.308452,-0.286859,0.808276,881.582,-1013.15)">
                    <path d="M3892.72,1261.3C3946.71,1170.25 4148.79,994.551 4273.29,1023.05C4345.51,1039.58 4380.42,1085.12 4404.07,1132.59C4424.03,1172.65 4437.55,1261.3 4410.57,1317.38C4367.13,1407.66 4301.82,1416.74 4262.41,1491.38C4241.84,1530.35 4279.8,1571.37 4336.06,1536.4C4401.96,1495.43 4490.6,1341.36 4490.6,1341.36L4608.78,1440.29C4608.78,1440.29 4358.49,1742.81 4209.11,1710.11C4106.47,1687.64 4090.13,1545.17 4117.3,1466.75C4129.88,1430.45 4187.5,1364.79 4230.76,1326.39C4310.18,1255.88 4260.4,1176.07 4232.98,1177.21C4121.25,1181.86 3948.43,1354.7 3973.47,1371.71L3892.72,1261.3Z" style="stroke:black;stroke-width:77.82px;"/>
                </g>
            </g>
            <g transform="matrix(0.989631,0.143634,-0.143634,0.989631,-87.7709,-478.521)">
                <g transform="matrix(0.995254,0.0973076,-0.0973076,0.995254,99.9844,-243.434)">
                    <path d="M4290.02,1566.52C4200.68,1570.17 4209.21,1696.91 4285.36,1690.64C4407.6,1680.57 4359.39,1563.67 4290.02,1566.52Z" style="fill:rgb(227,47,103);stroke:rgb(10,10,10);stroke-width:51.04px;"/>
                </g>
                <g transform="matrix(0.86912,0.308452,-0.286859,0.808276,881.582,-1013.15)">
                    <path d="M3892.72,1261.3C3946.71,1170.25 4148.79,994.551 4273.29,1023.05C4345.51,1039.58 4380.42,1085.12 4404.07,1132.59C4424.03,1172.65 4437.55,1261.3 4410.57,1317.38C4367.13,1407.66 4301.82,1416.74 4262.41,1491.38C4241.84,1530.35 4279.8,1571.37 4336.06,1536.4C4401.96,1495.43 4490.6,1341.36 4490.6,1341.36L4608.78,1440.29C4608.78,1440.29 4358.49,1742.81 4209.11,1710.11C4106.47,1687.64 4090.13,1545.17 4117.3,1466.75C4129.88,1430.45 4187.5,1364.79 4230.76,1326.39C4310.18,1255.88 4260.4,1176.07 4232.98,1177.21C4121.25,1181.86 3948.43,1354.7 3973.47,1371.71L3892.72,1261.3Z" style="fill:rgb(227,47,103);stroke:rgb(10,10,10);stroke-width:56.36px;"/>
                </g>
            </g>
        </g>
        <g transform="matrix(0.145044,0.131336,-0.172485,0.168438,1359.89,-455.781)">
            <g transform="matrix(0.989631,0.143634,-0.143634,0.989631,-165.216,-419.241)">
                <g transform="matrix(0.995254,0.0973076,-0.0973076,0.995254,99.9844,-243.434)">
                    <path d="M4290.02,1566.52C4200.68,1570.17 4209.21,1696.91 4285.36,1690.64C4407.6,1680.57 4359.39,1563.67 4290.02,1566.52Z" style="stroke:black;stroke-width:121.21px;"/>
                </g>
                <g transform="matrix(0.86912,0.308452,-0.286859,0.808276,881.582,-1013.15)">
                    <path d="M3892.72,1261.3C3946.71,1170.25 4148.79,994.551 4273.29,1023.05C4345.51,1039.58 4380.42,1085.12 4404.07,1132.59C4424.03,1172.65 4437.55,1261.3 4410.57,1317.38C4367.13,1407.66 4301.82,1416.74 4262.41,1491.38C4241.84,1530.35 4279.8,1571.37 4336.06,1536.4C4401.96,1495.43 4490.6,1341.36 4490.6,1341.36L4608.78,1440.29C4608.78,1440.29 4358.49,1742.81 4209.11,1710.11C4106.47,1687.64 4090.13,1545.17 4117.3,1466.75C4129.88,1430.45 4187.5,1364.79 4230.76,1326.39C4310.18,1255.88 4260.4,1176.07 4232.98,1177.21C4121.25,1181.86 3948.43,1354.7 3973.47,1371.71L3892.72,1261.3Z" style="stroke:black;stroke-width:131.11px;"/>
                </g>
            </g>
            <g transform="matrix(0.989631,0.143634,-0.143634,0.989631,-87.7709,-478.521)">
                <g transform="matrix(0.995254,0.0973076,-0.0973076,0.995254,99.9844,-243.434)">
                    <path d="M4290.02,1566.52C4200.68,1570.17 4209.21,1696.91 4285.36,1690.64C4407.6,1680.57 4359.39,1563.67 4290.02,1566.52Z" style="fill:rgb(227,47,103);stroke:rgb(10,10,10);stroke-width:65.83px;"/>
                </g>
                <g transform="matrix(0.86912,0.308452,-0.286859,0.808276,881.582,-1013.15)">
                    <path d="M3892.72,1261.3C3946.71,1170.25 4148.79,994.551 4273.29,1023.05C4345.51,1039.58 4380.42,1085.12 4404.07,1132.59C4424.03,1172.65 4437.55,1261.3 4410.57,1317.38C4367.13,1407.66 4301.82,1416.74 4262.41,1491.38C4241.84,1530.35 4279.8,1571.37 4336.06,1536.4C4401.96,1495.43 4490.6,1341.36 4490.6,1341.36L4608.78,1440.29C4608.78,1440.29 4358.49,1742.81 4209.11,1710.11C4106.47,1687.64 4090.13,1545.17 4117.3,1466.75C4129.88,1430.45 4187.5,1364.79 4230.76,1326.39C4310.18,1255.88 4260.4,1176.07 4232.98,1177.21C4121.25,1181.86 3948.43,1354.7 3973.47,1371.71L3892.72,1261.3Z" style="fill:rgb(227,47,103);stroke:rgb(10,10,10);stroke-width:71.21px;"/>
                </g>
            </g>
        </g>
    </g>
    <g id="Person-hi" serif:id="Person hi" transform="matrix(0.847017,0,0,0.847017,1184.07,434.577)">
        <g transform="matrix(0.995584,-0.0938769,0.0938769,0.995584,-710.589,-4307.87)">
            <path d="M1826.02,4765.36C1908.53,4761.09 1950.68,4781.78 2009.13,4813.13C2048.83,4834.43 2047.36,4941.24 2038.85,4977.37C2013.05,4940.1 1923.78,4865.47 1834.47,4864.48C1795.31,4864.05 1809.7,4766.2 1826.02,4765.36Z" style="fill:rgb(148,146,144);stroke:rgb(148,146,144);stroke-width:19.68px;"/>
        </g>
        <g transform="matrix(1,0,0,1,-254.244,-4501.89)">
            <g transform="matrix(-0.78692,-0.617056,0.617056,-0.78692,-1347.98,10865.7)">
                <path d="M1242.17,5704.09C1245.91,5697.62 1247.88,5690.28 1247.88,5682.8C1247.88,5659.3 1228.79,5640.22 1205.29,5640.22C1181.79,5640.22 1162.71,5659.3 1162.71,5682.8C1162.71,5690.28 1164.67,5697.62 1168.41,5704.09L1242.17,5704.09Z" style="fill:rgb(0,130,244);stroke:rgb(0,130,244);stroke-width:39.35px;"/>
            </g>
            <g transform="matrix(0.799709,0,0,0.806023,325.665,529.695)">
                <circle cx="1752.51" cy="5465.01" r="241.035" style="fill:rgb(0,130,244);stroke:rgb(0,130,244);stroke-width:49.02px;"/>
            </g>
            <g transform="matrix(1.18061,0,0,1.18061,-1143.69,3988.82)">
                <path d="M2442.12,885.687C2442.12,885.687 2454.57,888.935 2461.22,897.045C2468.94,906.45 2469.1,910.011 2477.01,913.632C2492.01,920.504 2504.55,902.499 2515.86,896.123" style="fill:none;stroke:black;stroke-width:12.5px;"/>
            </g>
            <g transform="matrix(0.93429,0.285144,-0.273643,0.896607,1770.78,-668.806)">
                <path d="M2167.22,5779.73C2171.31,5772.97 2173.45,5765.29 2173.45,5757.48C2173.45,5732.93 2152.61,5712.99 2126.94,5712.99C2101.27,5712.99 2080.43,5732.93 2080.43,5757.48C2080.43,5765.29 2082.58,5772.97 2086.66,5779.73L2167.22,5779.73Z" style="fill:rgb(0,130,244);stroke:rgb(0,130,244);stroke-width:41.11px;"/>
            </g>
            <path d="M1576.67,5137.48C1728.8,5236.53 1861.84,5151.58 1861.84,5151.58L2016.66,5361C2016.66,5361 2055.17,5196.81 2101.05,5165.56C2108.55,5160.45 2202.59,5177.01 2202.61,5200.29C2202.7,5304.3 2040.25,5515.98 2001.08,5496.91C1959.82,5476.82 1881.85,5394.89 1881.85,5394.89C1881.85,5394.89 1952.17,5639.06 1915.27,5799.98C1910.15,5822.32 1824.96,5841.61 1680.12,5834.65C1536.58,5827.75 1461.06,5797.27 1458.69,5775.39C1437.5,5580.29 1539.6,5395.68 1539.6,5395.68C1539.6,5395.68 1387.19,5572.02 1334.13,5615.04C1302.5,5640.68 1199.39,5563.4 1219.77,5521.68C1301.86,5353.68 1412.75,5272.65 1576.67,5137.48Z" style="fill:rgb(227,47,103);stroke:rgb(227,47,103);stroke-width:39.35px;"/>
            <path d="M1446.71,5839.84C1446.71,5839.84 1531.01,5884.92 1668.12,5890.18C1833.88,5896.55 1911.77,5868.17 1911.77,5868.17C1911.77,5868.17 1947.65,6023.85 1949.26,6180.73C1950.14,6266.94 1952.3,6358.26 1936.11,6466.65C1928.08,6520.46 1736.16,6534.6 1727.27,6488.42C1699.04,6341.83 1663.46,6072.15 1663.46,6072.15C1663.46,6072.15 1592.52,6330.31 1524.64,6476.41C1503.97,6520.9 1355.23,6516.35 1349.37,6453.31C1337.91,6330.17 1345.83,6249.05 1368.49,6127.59C1402.08,5947.47 1446.71,5839.84 1446.71,5839.84Z" style="stroke:black;stroke-width:39.35px;"/>
        </g>
        <g transform="matrix(1.17793,0.07957,-0.07957,1.17793,56.5122,-5363.51)">
            <path d="M1283.89,6176.68C1323.31,6203.29 1377.89,6210.01 1439.1,6192.36C1454,6190.51 1541.84,6249.44 1501.11,6260.32C1435.59,6277.83 1339.03,6271.41 1300.66,6251.59C1277.57,6239.66 1274.91,6216.8 1283.89,6176.68Z" style="fill:rgb(227,47,103);stroke:rgb(227,47,103);stroke-width:12.5px;"/>
        </g>
        <g transform="matrix(1.28776,-0.302824,0.270255,1.14926,-1814.42,-4654.4)">
            <path d="M1283.89,6176.68C1323.31,6203.29 1377.89,6210.01 1439.1,6192.36C1454,6190.51 1541.84,6249.44 1501.11,6260.32C1435.59,6277.83 1339.03,6271.41 1300.66,6251.59C1277.57,6239.66 1274.91,6216.8 1283.89,6176.68Z" style="fill:rgb(227,47,103);stroke:rgb(227,47,103);stroke-width:11.77px;"/>
        </g>
        <g transform="matrix(1,0,0,1,-254.244,-4501.89)">
            <path d="M1697.54,5015.43C1711.6,5029.81 1794.59,5055.39 1853.01,5042.38" style="fill:none;stroke:black;stroke-width:14.76px;"/>
        </g>
        <g transform="matrix(1,0,0,1,-254.244,-4501.89)">
            <g transform="matrix(1,0,0,1,-2.80849,16.3533)">
                <path d="M1700.3,4837.23C1622.44,4844.21 1569.52,4851.35 1526.44,4870.4C1514.97,4875.48 1515.28,4931.72 1522.76,4928.04C1561.65,4908.88 1648.01,4879.95 1693.55,4887.8L1700.3,4837.23Z" style="fill:rgb(179,179,179);stroke:rgb(220,220,220);stroke-width:5.72px;"/>
            </g>
            <g transform="matrix(1,0,0,1,-15.7594,-14.6583)">
                <path d="M1703.48,4836.41C1734.58,4813.87 1771.57,4799.77 1821.07,4782.99C1804.48,4833.33 1816.68,4880.36 1837.75,4879.16C1905.12,4875.3 1992.39,4902.53 2055.7,4973.78C2023.71,4985.96 1984.38,4984.18 1951.64,4987.76C1921.31,4963.59 1799.71,4932.14 1730.68,4936.83C1697.64,4939.07 1686.4,4848.78 1703.48,4836.41Z" style="fill:rgb(179,179,179);stroke:rgb(220,220,220);stroke-width:19.68px;"/>
            </g>
            <g transform="matrix(1,0,0,1,-28.025,-4.20821)">
                <path d="M1796.1,4788.17C1785.08,4841.55 1802.79,4885.39 1827.6,4885.71C1869.98,4886.24 1966.14,4894.9 2039.23,4970.78" style="fill:none;stroke:rgb(220,220,220);stroke-width:9.84px;"/>
            </g>
            <g transform="matrix(1,0,0,1,-13.1502,-11.2067)">
                <path d="M1730.53,4819.56C1712.63,4835.08 1715.81,4917.96 1739.53,4914.03C1797.29,4904.47 1924.67,4929.33 1971.2,4978.69" style="fill:none;stroke:rgb(220,220,220);stroke-width:9.84px;"/>
            </g>
            <g transform="matrix(0.995584,-0.0938769,0.0938769,0.995584,-456.346,194.017)">
                <path d="M1826.02,4765.36C1908.53,4761.09 1950.68,4781.78 2009.13,4813.13C2048.83,4834.43 2047.36,4941.24 2038.85,4977.37C2013.05,4940.1 1923.78,4865.47 1834.47,4864.48C1795.31,4864.05 1809.7,4766.2 1826.02,4765.36Z" style="fill:rgb(148,146,144);fill-opacity:0.42;stroke:rgb(220,220,220);stroke-width:19.68px;"/>
            </g>
            <g transform="matrix(1.07193,0.116574,-0.11538,1.06095,420.702,-519.254)">
                <path d="M1896.34,4841.61C1905.79,4836.14 1952.24,4810.55 1952.24,4810.55" style="fill:none;stroke:rgb(220,220,220);stroke-width:4px;"/>
            </g>
            <g transform="matrix(1.006,0.166168,-0.188065,0.989957,893.595,-265.975)">
                <path d="M1895.34,4822.26L1921.45,4805.99" style="fill:none;stroke:rgb(220,220,220);stroke-width:4.47px;"/>
            </g>
        </g>
        <g transform="matrix(1.18061,0,0,1.18061,-1648.56,-268.642)">
            <path d="M2970.78,664.731C2945.62,682.507 2934.92,705.485 2939.46,733.277" style="fill:none;stroke:rgb(131,139,255);stroke-width:12.5px;"/>
        </g>
        <g transform="matrix(-1.15281,0.254723,-0.254723,-1.15281,5612.46,666.218)">
            <path d="M2970.78,664.731C2945.62,682.507 2934.92,705.485 2939.46,733.277" style="fill:none;stroke:rgb(131,139,255);stroke-width:12.5px;"/>
        </g>
        <g transform="matrix(1.18061,0,0,1.18061,-1648.56,-268.642)">
            <path d="M2908.14,745.186C2906.83,731.005 2907.41,717.9 2909.93,705.891C2915.71,678.23 2931.74,656.387 2958.46,640.616" style="fill:none;stroke:rgb(131,139,255);stroke-width:12.5px;"/>
        </g>
        <g transform="matrix(-1.16773,0.173949,-0.173949,-1.16773,5604.37,932.146)">
            <path d="M2908.14,745.186C2903.81,698.341 2920.14,663.233 2958.46,640.616" style="fill:none;stroke:rgb(131,139,255);stroke-width:12.5px;"/>
        </g>
        <g transform="matrix(0.969973,-0.243214,0.243214,0.969973,-6.71804,407.298)">
            <g transform="matrix(0.749094,0.00337474,-0.00308349,0.684445,1492.79,-225.984)">
                <g transform="matrix(0.827174,-0.0802459,0.0802459,0.827174,-1579.11,65.9518)">
                    <g transform="matrix(0.995254,0.0973076,-0.0925012,0.946095,77.2286,-135.608)">
                        <path d="M2741.33,857.824C2764.18,1041.57 2778.08,1112.37 2823.89,1226.21L2908.46,1206.72C2885.76,1102.06 2848.62,1013.83 2841.82,835.459L2741.33,857.824Z" style="stroke:black;stroke-width:46.6px;"/>
                    </g>
                    <g transform="matrix(0.995254,0.0973076,-0.0973076,0.995254,92.6562,-180.91)">
                        <path d="M2768.64,717.96C2695.14,714.852 2683.05,826.373 2754.24,806.226C2825.44,786.078 2811.29,719.764 2768.64,717.96Z" style="stroke:black;stroke-width:45.57px;"/>
                    </g>
                </g>
                <g transform="matrix(0.827174,-0.0802459,0.0802459,0.827174,-1542.18,22.7891)">
                    <g transform="matrix(0.995254,0.0973076,-0.0925012,0.946095,77.2286,-135.608)">
                        <path d="M2741.33,857.824C2764.18,1041.57 2778.08,1112.37 2823.89,1226.21L2908.46,1206.72C2885.76,1102.06 2848.62,1013.83 2841.82,835.459L2741.33,857.824Z" style="fill:rgb(227,47,103);stroke:rgb(10,10,10);stroke-width:46.6px;"/>
                    </g>
                    <g transform="matrix(0.995254,0.0973076,-0.0973076,0.995254,92.6562,-180.91)">
                        <path d="M2768.64,717.96C2695.14,714.852 2683.05,826.373 2754.24,806.226C2825.44,786.078 2811.29,719.764 2768.64,717.96Z" style="fill:rgb(227,47,103);stroke:rgb(10,10,10);stroke-width:45.57px;"/>
                    </g>
                </g>
            </g>
            <g transform="matrix(0.749094,0.00337474,-0.00308349,0.684445,648.483,-369.373)">
                <g transform="matrix(0.755328,-0.159149,0.156675,0.743582,-292.389,785.479)">
                    <path d="M2417.26,589.187C2386.79,753.797 2372.37,910.977 2407.59,1062.49L2503.94,1062.49C2484.93,967.426 2470.18,962.444 2494.13,877.227L2603.45,877.227C2609.82,940.123 2622.28,1001.87 2640.78,1062.49L2750.96,1062.49C2681.09,919.674 2671.72,766.379 2760.7,569.785L2646.75,560.094C2620.2,627.077 2596.2,697.408 2593.12,774.713L2480.32,788.954C2497.6,701.041 2523.17,627.809 2543.92,557.562L2417.26,589.187Z" style="stroke:black;stroke-width:48.54px;"/>
                </g>
                <g transform="matrix(0.755328,-0.159149,0.156675,0.743582,-264.815,749.053)">
                    <path d="M2417.26,589.187C2386.79,753.797 2372.37,910.977 2407.59,1062.49L2503.94,1062.49C2484.93,967.426 2470.18,962.444 2494.13,877.227L2603.45,877.227C2609.82,940.123 2622.28,1001.87 2640.78,1062.49L2750.96,1062.49C2681.09,919.674 2671.72,766.379 2760.7,569.785L2646.75,560.094C2620.2,627.077 2596.2,697.408 2593.12,774.713L2480.32,788.954C2497.6,701.041 2523.17,627.809 2543.92,557.562L2417.26,589.187Z" style="fill:rgb(227,47,103);stroke:rgb(10,10,10);stroke-width:48.54px;"/>
                </g>
            </g>
        </g>
    </g>
    <g id="Person" transform="matrix(0.847017,0,0,0.847017,121.023,375.813)">
        <g transform="matrix(0.995584,-0.0938769,0.0938769,0.995584,-1160.96,-4264.08)">
            <path d="M1826.02,4765.36C1908.53,4761.09 1950.68,4781.78 2009.13,4813.13C2048.83,4834.43 2047.36,4941.24 2038.85,4977.37C2013.05,4940.1 1923.78,4865.47 1834.47,4864.48C1795.31,4864.05 1809.7,4766.2 1826.02,4765.36Z" style="fill:rgb(148,146,144);stroke:rgb(148,146,144);stroke-width:19.68px;"/>
        </g>
        <g transform="matrix(1,0,0,1,-704.61,-4458.1)">
            <g transform="matrix(-0.812085,-0.58354,0.58354,-0.812085,-1127.19,10968.3)">
                <path d="M1242.17,5704.09C1245.91,5697.62 1247.88,5690.28 1247.88,5682.8C1247.88,5659.3 1228.79,5640.22 1205.29,5640.22C1181.79,5640.22 1162.71,5659.3 1162.71,5682.8C1162.71,5690.28 1164.67,5697.62 1168.41,5704.09L1242.17,5704.09Z" style="fill:rgb(0,130,244);stroke:rgb(0,130,244);stroke-width:39.35px;"/>
            </g>
            <g transform="matrix(0.799709,0,0,0.806023,325.665,529.695)">
                <circle cx="1752.51" cy="5465.01" r="241.035" style="fill:rgb(0,130,244);stroke:rgb(0,130,244);stroke-width:49.02px;"/>
            </g>
            <g transform="matrix(-0.942526,0.256614,-0.246264,-0.90451,5557.34,10381.7)">
                <path d="M2167.22,5779.73C2171.31,5772.97 2173.45,5765.29 2173.45,5757.48C2173.45,5732.93 2152.61,5712.99 2126.94,5712.99C2101.27,5712.99 2080.43,5732.93 2080.43,5757.48C2080.43,5765.29 2082.58,5772.97 2086.66,5779.73L2167.22,5779.73Z" style="fill:rgb(0,130,244);stroke:rgb(0,130,244);stroke-width:41.11px;"/>
            </g>
            <path d="M1576.67,5137.48C1728.8,5236.53 1861.84,5151.58 1861.84,5151.58C1861.84,5151.58 1954.25,5202.29 2046.75,5359.36C2095.07,5441.41 2142.8,5531.69 2146.03,5628.41C2146.89,5654.06 2052.04,5683.34 2021.79,5633.42C1967.31,5543.5 1881.85,5394.89 1881.85,5394.89C1881.85,5394.89 1952.17,5639.06 1915.27,5799.98C1910.15,5822.32 1824.96,5841.61 1680.12,5834.65C1536.58,5827.75 1461.06,5797.27 1458.69,5775.39C1437.5,5580.29 1539.6,5395.68 1539.6,5395.68C1539.6,5395.68 1387.19,5572.02 1334.13,5615.04C1302.5,5640.68 1199.39,5563.4 1219.77,5521.68C1301.86,5353.68 1412.75,5272.65 1576.67,5137.48Z" style="fill:rgb(227,47,103);stroke:rgb(227,47,103);stroke-width:39.35px;"/>
            <path d="M1446.71,5839.84C1446.71,5839.84 1531.01,5884.92 1668.12,5890.18C1833.88,5896.55 1911.77,5868.17 1911.77,5868.17C1911.77,5868.17 1947.65,6023.85 1949.26,6180.73C1950.14,6266.94 1952.3,6358.26 1936.11,6466.65C1928.08,6520.46 1736.16,6534.6 1727.27,6488.42C1699.04,6341.83 1663.46,6072.15 1663.46,6072.15C1663.46,6072.15 1592.52,6330.31 1524.64,6476.41C1503.97,6520.9 1355.23,6516.35 1349.37,6453.31C1337.91,6330.17 1345.83,6249.05 1368.49,6127.59C1402.08,5947.47 1446.71,5839.84 1446.71,5839.84Z" style="stroke:black;stroke-width:39.35px;"/>
        </g>
        <g transform="matrix(1.17793,0.07957,-0.07957,1.17793,-393.855,-5319.72)">
            <path d="M1283.89,6176.68C1323.31,6203.29 1377.89,6210.01 1439.1,6192.36C1454,6190.51 1541.84,6249.44 1501.11,6260.32C1435.59,6277.83 1339.03,6271.41 1300.66,6251.59C1277.57,6239.66 1274.91,6216.8 1283.89,6176.68Z" style="fill:rgb(227,47,103);stroke:rgb(227,47,103);stroke-width:12.5px;"/>
        </g>
        <g transform="matrix(1.28776,-0.302824,0.270255,1.14926,-2264.79,-4610.62)">
            <path d="M1283.89,6176.68C1323.31,6203.29 1377.89,6210.01 1439.1,6192.36C1454,6190.51 1541.84,6249.44 1501.11,6260.32C1435.59,6277.83 1339.03,6271.41 1300.66,6251.59C1277.57,6239.66 1274.91,6216.8 1283.89,6176.68Z" style="fill:rgb(227,47,103);stroke:rgb(227,47,103);stroke-width:11.77px;"/>
        </g>
        <g transform="matrix(1,0,0,1,-704.61,-4458.1)">
            <path d="M1688.7,5006.77C1688.7,5006.77 1701.59,5037.37 1718.08,5035.94C1765.48,5031.84 1784.99,5038.14 1838.06,5048.05" style="fill:none;stroke:black;stroke-width:14.76px;"/>
        </g>
        <g transform="matrix(1,0,0,1,-704.61,-4458.1)">
            <g transform="matrix(1,0,0,1,-2.80849,16.3533)">
                <path d="M1700.3,4837.23C1622.44,4844.21 1569.52,4851.35 1526.44,4870.4C1514.97,4875.48 1515.28,4931.72 1522.76,4928.04C1561.65,4908.88 1648.01,4879.95 1693.55,4887.8L1700.3,4837.23Z" style="fill:rgb(179,179,179);stroke:rgb(220,220,220);stroke-width:5.72px;"/>
            </g>
            <g transform="matrix(1,0,0,1,-15.7594,-14.6583)">
                <path d="M1703.48,4836.41C1734.58,4813.87 1771.57,4799.77 1821.07,4782.99C1804.48,4833.33 1816.68,4880.36 1837.75,4879.16C1905.12,4875.3 1992.39,4902.53 2055.7,4973.78C2023.71,4985.96 1984.38,4984.18 1951.64,4987.76C1921.31,4963.59 1799.71,4932.14 1730.68,4936.83C1697.64,4939.07 1686.4,4848.78 1703.48,4836.41Z" style="fill:rgb(179,179,179);stroke:rgb(220,220,220);stroke-width:19.68px;"/>
            </g>
            <g transform="matrix(1,0,0,1,-28.025,-4.20821)">
                <path d="M1796.1,4788.17C1785.08,4841.55 1802.79,4885.39 1827.6,4885.71C1869.98,4886.24 1966.14,4894.9 2039.23,4970.78" style="fill:none;stroke:rgb(220,220,220);stroke-width:9.84px;"/>
            </g>
            <g transform="matrix(1,0,0,1,-13.1502,-11.2067)">
                <path d="M1730.53,4819.56C1712.63,4835.08 1715.81,4917.96 1739.53,4914.03C1797.29,4904.47 1924.67,4929.33 1971.2,4978.69" style="fill:none;stroke:rgb(220,220,220);stroke-width:9.84px;"/>
            </g>
            <g transform="matrix(0.995584,-0.0938769,0.0938769,0.995584,-456.346,194.017)">
                <path d="M1826.02,4765.36C1908.53,4761.09 1950.68,4781.78 2009.13,4813.13C2048.83,4834.43 2047.36,4941.24 2038.85,4977.37C2013.05,4940.1 1923.78,4865.47 1834.47,4864.48C1795.31,4864.05 1809.7,4766.2 1826.02,4765.36Z" style="fill:rgb(148,146,144);fill-opacity:0.42;stroke:rgb(220,220,220);stroke-width:19.68px;"/>
            </g>
            <g transform="matrix(1.07193,0.116574,-0.11538,1.06095,420.702,-519.254)">
                <path d="M1896.34,4841.61C1905.79,4836.14 1952.24,4810.55 1952.24,4810.55" style="fill:none;stroke:rgb(220,220,220);stroke-width:4px;"/>
            </g>
            <g transform="matrix(1.006,0.166168,-0.188065,0.989957,893.595,-265.975)">
                <path d="M1895.34,4822.26L1921.45,4805.99" style="fill:none;stroke:rgb(220,220,220);stroke-width:4.47px;"/>
            </g>
        </g>
    </g>
</svg>
