<?xml version="1.0" encoding="UTF-8" standalone="no"?>
<!-- Created with Inkscape (http://www.inkscape.org/) -->

<svg
   xmlns:dc="http://purl.org/dc/elements/1.1/"
   xmlns:cc="http://creativecommons.org/ns#"
   xmlns:rdf="http://www.w3.org/1999/02/22-rdf-syntax-ns#"
   xmlns:svg="http://www.w3.org/2000/svg"
   xmlns="http://www.w3.org/2000/svg"
   xmlns:sodipodi="http://sodipodi.sourceforge.net/DTD/sodipodi-0.dtd"
   xmlns:inkscape="http://www.inkscape.org/namespaces/inkscape"
   width="297mm"
   height="210mm"
   viewBox="0 0 1052.3622 744.09448"
   id="svg9118"
   version="1.1"
   inkscape:version="0.91 r13725"
   sodipodi:docname="hackcenter.svg">
  <defs
     id="defs9120" />
  <sodipodi:namedview
     id="base"
     pagecolor="#ffffff"
     bordercolor="#666666"
     borderopacity="1.0"
     inkscape:pageopacity="0.0"
     inkscape:pageshadow="2"
     inkscape:zoom="0.49497475"
     inkscape:cx="443.27811"
     inkscape:cy="388.45159"
     inkscape:document-units="px"
     inkscape:current-layer="layer1"
     showgrid="false"
     inkscape:window-width="1364"
     inkscape:window-height="712"
     inkscape:window-x="0"
     inkscape:window-y="36"
     inkscape:window-maximized="0" />
  <metadata
     id="metadata9123">
    <rdf:RDF>
      <cc:Work
         rdf:about="">
        <dc:format>image/svg+xml</dc:format>
        <dc:type
           rdf:resource="http://purl.org/dc/dcmitype/StillImage" />
        <dc:title></dc:title>
      </cc:Work>
    </rdf:RDF>
  </metadata>
  <g
     inkscape:label="Ebene 1"
     inkscape:groupmode="layer"
     id="layer1"
     transform="translate(0,-308.26772)">
    <g
       id="g15927"
       transform="translate(0,67.258808)">
      <text
         sodipodi:linespacing="125%"
         id="text10890"
         y="815.10504"
         x="525.65594"
         style="font-style:normal;font-variant:normal;font-weight:normal;font-stretch:normal;font-size:212.0425415px;line-height:125%;font-family:DIN;-inkscape-font-specification:DIN;letter-spacing:0px;word-spacing:0px;fill:#000000;fill-opacity:1;stroke:none;stroke-width:1px;stroke-linecap:butt;stroke-linejoin:miter;stroke-opacity:1"
         xml:space="preserve"><tspan
           style="font-style:normal;font-variant:normal;font-weight:normal;font-stretch:condensed;font-family:'Viking Squad Condensed';-inkscape-font-specification:'Viking Squad Condensed, Condensed';text-align:center;text-anchor:middle"
           y="815.10504"
           x="525.65594"
           id="tspan10892"
           sodipodi:role="line">HACKCENTER</tspan></text>
      <g
         transform="matrix(1.5186057,0,0,1.5186057,-879.07305,224.7867)"
         style="display:inline;opacity:1;fill:#000000;fill-opacity:1"
         id="g22179">
        <path
           inkscape:connector-curvature="0"
           id="path5532-3"
           d="m 861.63382,122.20718 c -10.5693,0 -19.20407,8.62919 -19.20407,19.19851 l 0,129.36684 c 0,10.56929 8.63477,19.1985 19.20407,19.1985 l 127.44865,0 c 10.56926,0 19.20403,-8.62921 19.20403,-19.1985 l 0,-129.36684 c 0,-10.56932 -8.63477,-19.19851 -19.20403,-19.19851 l -127.44865,0 z m 0,7.93331 127.44865,0 c 6.31224,0 11.27073,4.95296 11.27073,11.2652 l 0,129.36684 c 0,6.31224 -4.95849,11.2652 -11.27073,11.2652 l -127.44865,0 c -6.31221,0 -11.27074,-4.95296 -11.27074,-11.2652 l 0,-129.36684 c 0,-6.31224 4.95853,-11.2652 11.27074,-11.2652 z"
           style="color:#000000;font-style:normal;font-variant:normal;font-weight:normal;font-stretch:normal;font-size:medium;line-height:normal;font-family:sans-serif;text-indent:0;text-align:start;text-decoration:none;text-decoration-line:none;text-decoration-style:solid;text-decoration-color:#000000;letter-spacing:normal;word-spacing:normal;text-transform:none;direction:ltr;block-progression:tb;writing-mode:lr-tb;baseline-shift:baseline;text-anchor:start;white-space:normal;clip-rule:nonzero;display:inline;overflow:visible;visibility:visible;opacity:1;isolation:auto;mix-blend-mode:normal;color-interpolation:sRGB;color-interpolation-filters:linearRGB;solid-color:#000000;solid-opacity:1;fill:#000000;fill-opacity:1;fill-rule:nonzero;stroke:none;stroke-width:2.79670215;stroke-linecap:round;stroke-linejoin:round;stroke-miterlimit:4;stroke-dasharray:none;stroke-dashoffset:0;stroke-opacity:1;marker:none;paint-order:normal;color-rendering:auto;image-rendering:auto;shape-rendering:auto;text-rendering:auto;enable-background:accumulate" />
        <path
           style="color:#000000;font-style:normal;font-variant:normal;font-weight:normal;font-stretch:normal;font-size:medium;line-height:normal;font-family:sans-serif;text-indent:0;text-align:start;text-decoration:none;text-decoration-line:none;text-decoration-style:solid;text-decoration-color:#000000;letter-spacing:normal;word-spacing:normal;text-transform:none;direction:ltr;block-progression:tb;writing-mode:lr-tb;baseline-shift:baseline;text-anchor:start;white-space:normal;clip-rule:nonzero;display:inline;overflow:visible;visibility:visible;opacity:1;isolation:auto;mix-blend-mode:normal;color-interpolation:sRGB;color-interpolation-filters:linearRGB;solid-color:#000000;solid-opacity:1;fill:#000000;fill-opacity:1;fill-rule:evenodd;stroke:none;stroke-width:7.64074755;stroke-linecap:round;stroke-linejoin:miter;stroke-miterlimit:4;stroke-dasharray:none;stroke-dashoffset:0;stroke-opacity:1;color-rendering:auto;image-rendering:auto;shape-rendering:auto;text-rendering:auto;enable-background:accumulate"
           d="m 907.33789,190.11133 a 3.8207558,3.8207558 0 0 0 -3.40039,1.90234 c 0,0 -21.05701,35.5399 -0.83984,79.20899 a 3.8207558,3.8207558 0 1 0 6.93359,-3.20899 c -18.72242,-40.44043 0.46094,-72.07226 0.46094,-72.07226 a 3.8207558,3.8207558 0 0 0 -3.1543,-5.83008 z"
           id="path4143"
           inkscape:connector-curvature="0" />
        <path
           style="color:#000000;font-style:normal;font-variant:normal;font-weight:normal;font-stretch:normal;font-size:medium;line-height:normal;font-family:sans-serif;text-indent:0;text-align:start;text-decoration:none;text-decoration-line:none;text-decoration-style:solid;text-decoration-color:#000000;letter-spacing:normal;word-spacing:normal;text-transform:none;direction:ltr;block-progression:tb;writing-mode:lr-tb;baseline-shift:baseline;text-anchor:start;white-space:normal;clip-rule:nonzero;display:inline;overflow:visible;visibility:visible;opacity:1;isolation:auto;mix-blend-mode:normal;color-interpolation:sRGB;color-interpolation-filters:linearRGB;solid-color:#000000;solid-opacity:1;fill:#000000;fill-opacity:1;fill-rule:evenodd;stroke:none;stroke-width:7.64074755;stroke-linecap:round;stroke-linejoin:miter;stroke-miterlimit:4;stroke-dasharray:none;stroke-dashoffset:0;stroke-opacity:1;color-rendering:auto;image-rendering:auto;shape-rendering:auto;text-rendering:auto;enable-background:accumulate"
           d="m 897.86719,222.57812 a 3.8207558,3.8207558 0 0 0 -3.28125,2.10157 c 0,0 -10.81541,20.54549 -10.43555,44.99804 a 3.8207794,3.8207794 0 0 0 7.64063,-0.11914 c -0.3436,-22.1184 9.57031,-41.34765 9.57031,-41.34765 a 3.8207558,3.8207558 0 0 0 -3.49414,-5.63282 z"
           id="path4145"
           inkscape:connector-curvature="0" />
        <path
           inkscape:connector-curvature="0"
           style="opacity:1;fill:#000000;fill-opacity:1;stroke:none;stroke-width:0;stroke-linecap:round;stroke-miterlimit:4;stroke-dasharray:none;stroke-dashoffset:0;stroke-opacity:1"
           d="m 927.31335,177.4373 a 10.92706,10.92706 0 0 1 -10.92706,10.92706 10.92706,10.92706 0 0 1 -10.92706,-10.92706 10.92706,10.92706 0 0 1 10.92706,-10.92706 10.92706,10.92706 0 0 1 10.92706,10.92706 z"
           id="path16165" />
        <path
           style="color:#000000;font-style:normal;font-variant:normal;font-weight:normal;font-stretch:normal;font-size:medium;line-height:normal;font-family:sans-serif;text-indent:0;text-align:start;text-decoration:none;text-decoration-line:none;text-decoration-style:solid;text-decoration-color:#000000;letter-spacing:normal;word-spacing:normal;text-transform:none;direction:ltr;block-progression:tb;writing-mode:lr-tb;baseline-shift:baseline;text-anchor:start;white-space:normal;clip-rule:nonzero;display:inline;overflow:visible;visibility:visible;opacity:1;isolation:auto;mix-blend-mode:normal;color-interpolation:sRGB;color-interpolation-filters:linearRGB;solid-color:#000000;solid-opacity:1;fill:#000000;fill-opacity:1;fill-rule:evenodd;stroke:none;stroke-width:7.64074755;stroke-linecap:round;stroke-linejoin:miter;stroke-miterlimit:4;stroke-dasharray:none;stroke-dashoffset:0;stroke-opacity:1;color-rendering:auto;image-rendering:auto;shape-rendering:auto;text-rendering:auto;enable-background:accumulate"
           d="m 888.00391,166.72852 a 3.8207558,3.8207558 0 0 0 -3.08008,1.79101 c -2.91864,4.51823 -3.51128,9.83973 -3.50586,14.125 0.003,2.14264 0.17997,4.02305 0.43945,5.50977 0.12974,0.74336 0.26674,1.36912 0.49024,2.02343 0.11175,0.32716 0.22022,0.65054 0.53125,1.15625 0.14289,0.23234 0.36119,0.53393 0.74414,0.89063 2.31134,3.57776 4.94973,5.99494 7.54101,7.81445 2.81531,1.97681 5.49013,3.52444 8.61524,6.3711 a 3.8207558,3.8207558 0 1 0 5.14453,-5.64844 c -3.70828,-3.37787 -6.9287,-5.26297 -9.36914,-6.97656 -2.44044,-1.71359 -4.14344,-3.14575 -5.97657,-6.25586 l -0.0644,-0.10938 c -0.0386,-0.1497 -0.0727,-0.25624 -0.1289,-0.57812 -0.16854,-0.96566 -0.32402,-2.50007 -0.32618,-4.20703 -0.004,-3.41392 0.70781,-7.5319 2.28321,-9.97071 a 3.8207558,3.8207558 0 0 0 -3.33789,-5.93554 z"
           id="path16835"
           inkscape:connector-curvature="0" />
        <path
           style="color:#000000;font-style:normal;font-variant:normal;font-weight:normal;font-stretch:normal;font-size:medium;line-height:normal;font-family:sans-serif;text-indent:0;text-align:start;text-decoration:none;text-decoration-line:none;text-decoration-style:solid;text-decoration-color:#000000;letter-spacing:normal;word-spacing:normal;text-transform:none;direction:ltr;block-progression:tb;writing-mode:lr-tb;baseline-shift:baseline;text-anchor:start;white-space:normal;clip-rule:nonzero;display:inline;overflow:visible;visibility:visible;opacity:1;isolation:auto;mix-blend-mode:normal;color-interpolation:sRGB;color-interpolation-filters:linearRGB;solid-color:#000000;solid-opacity:1;fill:#000000;fill-opacity:1;fill-rule:evenodd;stroke:none;stroke-width:4.9171772;stroke-linecap:round;stroke-linejoin:miter;stroke-miterlimit:4;stroke-dasharray:none;stroke-dashoffset:0;stroke-opacity:1;color-rendering:auto;image-rendering:auto;shape-rendering:auto;text-rendering:auto;enable-background:accumulate"
           d="m 911.72852,151.23633 a 2.4588345,2.4588345 0 0 0 -1.54102,0.49023 l -31.99609,23.26953 a 2.4588345,2.4588345 0 1 0 2.89257,3.97657 l 31.9961,-23.26954 a 2.4588345,2.4588345 0 0 0 -1.35156,-4.46679 z"
           id="path17556"
           inkscape:connector-curvature="0" />
        <path
           inkscape:connector-curvature="0"
           transform="matrix(0.58817838,0.80873122,-0.80873122,0.58817838,0,0)"
           style="opacity:1;fill:#000000;fill-opacity:1;stroke:none;stroke-width:4.91302156;stroke-linecap:round;stroke-linejoin:round;stroke-miterlimit:4;stroke-dasharray:none;stroke-dashoffset:0;stroke-opacity:1"
           d="m 650.29047,-654.16986 20.45246,0 0,5.17189 -20.45246,0 z"
           id="rect19156" />
        <path
           style="color:#000000;font-style:normal;font-variant:normal;font-weight:normal;font-stretch:normal;font-size:medium;line-height:normal;font-family:sans-serif;text-indent:0;text-align:start;text-decoration:none;text-decoration-line:none;text-decoration-style:solid;text-decoration-color:#000000;letter-spacing:normal;word-spacing:normal;text-transform:none;direction:ltr;block-progression:tb;writing-mode:lr-tb;baseline-shift:baseline;text-anchor:start;white-space:normal;clip-rule:nonzero;display:inline;overflow:visible;visibility:visible;opacity:1;isolation:auto;mix-blend-mode:normal;color-interpolation:sRGB;color-interpolation-filters:linearRGB;solid-color:#000000;solid-opacity:1;fill:#000000;fill-opacity:1;fill-rule:nonzero;stroke:none;stroke-width:4.91302156;stroke-linecap:round;stroke-linejoin:round;stroke-miterlimit:4;stroke-dasharray:none;stroke-dashoffset:0;stroke-opacity:1;color-rendering:auto;image-rendering:auto;shape-rendering:auto;text-rendering:auto;enable-background:accumulate"
           d="m 913.52184,139.69687 a 2.4567564,2.4567564 0 0 0 -3.43226,-0.54191 l -4.18265,3.04198 a 2.4567564,2.4567564 0 0 0 -0.5419,3.43226 l 12.02894,16.5395 a 2.4567564,2.4567564 0 0 0 3.43224,0.5419 l 4.18266,-3.04198 a 2.4567564,2.4567564 0 0 0 0.5419,-3.43225 l -12.02893,-16.5395 z m -2.53014,4.87584 9.14089,12.56851 -0.2085,0.15164 -9.14089,-12.56851 0.2085,-0.15164 z"
           id="rect17558"
           inkscape:connector-curvature="0" />
        <path
           inkscape:connector-curvature="0"
           style="color:#000000;font-style:normal;font-variant:normal;font-weight:normal;font-stretch:normal;font-size:medium;line-height:normal;font-family:sans-serif;text-indent:0;text-align:start;text-decoration:none;text-decoration-line:none;text-decoration-style:solid;text-decoration-color:#000000;letter-spacing:normal;word-spacing:normal;text-transform:none;direction:ltr;block-progression:tb;writing-mode:lr-tb;baseline-shift:baseline;text-anchor:start;white-space:normal;clip-rule:nonzero;display:inline;overflow:visible;visibility:visible;opacity:1;isolation:auto;mix-blend-mode:normal;color-interpolation:sRGB;color-interpolation-filters:linearRGB;solid-color:#000000;solid-opacity:1;fill:#000000;fill-opacity:1;fill-rule:evenodd;stroke:none;stroke-width:9.99089336;stroke-linecap:round;stroke-linejoin:round;stroke-miterlimit:4;stroke-dasharray:none;stroke-dashoffset:0;stroke-opacity:1;color-rendering:auto;image-rendering:auto;shape-rendering:auto;text-rendering:auto;enable-background:accumulate"
           d="m 925.90776,219.6565 c -3.09459,0.001 -5.60264,2.51013 -5.60254,5.60473 l 0,28.79272 c 0.001,3.09374 2.50881,5.60144 5.60254,5.60255 l 42.05304,0 c 3.0946,1.1e-4 5.60362,-2.50795 5.60474,-5.60255 l 0,-28.79272 c 9e-5,-3.09546 -2.50928,-5.60483 -5.60474,-5.60473 l -42.05304,0 z m 21.06487,3.06748 c 7.23894,-0.0638 14.4839,0.36149 21.73314,1.468 l 0.48641,0.0745 0.0722,0.48641 c 1.47927,9.95579 1.00235,19.88408 0.004,29.77872 l -0.0526,0.51271 -0.50832,0.0789 c -15.13669,2.34175 -29.40711,1.54879 -43.42902,0.002 l -0.50833,-0.0547 -0.0767,-0.50613 c -1.51795,-9.92957 -1.6933,-19.87573 0,-29.82691 l 0.0855,-0.4908 0.49517,-0.0591 c 7.22677,-0.84809 14.45915,-1.3998 21.69808,-1.46363 z m 0.0112,1.33216 c -7.00676,0.0618 -14.01806,0.59698 -21.03637,1.40667 -1.54852,9.45475 -1.38182,18.91471 0.0219,28.38958 13.63052,1.48362 27.43095,2.19731 42.00702,0.0112 0.93919,-9.49879 1.36121,-18.96737 0.0219,-28.4093 -7.00016,-1.03764 -14.00446,-1.4597 -21.01448,-1.39789 z"
           id="path17462" />
        <path
           style="color:#000000;font-style:normal;font-variant:normal;font-weight:normal;font-stretch:normal;font-size:medium;line-height:normal;font-family:sans-serif;text-indent:0;text-align:start;text-decoration:none;text-decoration-line:none;text-decoration-style:solid;text-decoration-color:#000000;letter-spacing:normal;word-spacing:normal;text-transform:none;direction:ltr;block-progression:tb;writing-mode:lr-tb;baseline-shift:baseline;text-anchor:start;white-space:normal;clip-rule:nonzero;display:inline;overflow:visible;visibility:visible;opacity:1;isolation:auto;mix-blend-mode:normal;color-interpolation:sRGB;color-interpolation-filters:linearRGB;solid-color:#000000;solid-opacity:1;fill:#000000;fill-opacity:1;fill-rule:evenodd;stroke:none;stroke-width:5.31793737;stroke-linecap:round;stroke-linejoin:round;stroke-miterlimit:4;stroke-dasharray:none;stroke-dashoffset:0;stroke-opacity:1;color-rendering:auto;image-rendering:auto;shape-rendering:auto;text-rendering:auto;enable-background:accumulate"
           d="m 935.74344,257.6655 c -1.64752,-5.7e-4 -2.98358,-0.90913 -2.98422,0.73839 l 0,10.83918 c 6.4e-4,1.64752 1.3367,2.98261 2.98422,2.98203 l 22.38388,0 c 1.64667,-6.4e-4 2.9814,-1.33536 2.98204,-2.98203 l 0,-10.83918 c -6.4e-4,-1.64667 -1.33537,-0.73775 -2.98204,-0.73839 z m 2.98204,1.47896 16.41762,0 0,7.11438 -16.41762,0 z"
           id="path17464"
           inkscape:connector-curvature="0"
           sodipodi:nodetypes="cccccccccccccc" />
        <path
           style="color:#000000;font-style:normal;font-variant:normal;font-weight:normal;font-stretch:normal;font-size:medium;line-height:normal;font-family:sans-serif;text-indent:0;text-align:start;text-decoration:none;text-decoration-line:none;text-decoration-style:solid;text-decoration-color:#000000;letter-spacing:normal;word-spacing:normal;text-transform:none;direction:ltr;block-progression:tb;writing-mode:lr-tb;baseline-shift:baseline;text-anchor:start;white-space:normal;clip-rule:nonzero;display:inline;overflow:visible;visibility:visible;opacity:1;isolation:auto;mix-blend-mode:normal;color-interpolation:sRGB;color-interpolation-filters:linearRGB;solid-color:#000000;solid-opacity:1;fill:#000000;fill-opacity:1;fill-rule:evenodd;stroke:none;stroke-width:6.66232729;stroke-linecap:round;stroke-linejoin:miter;stroke-miterlimit:4;stroke-dasharray:none;stroke-dashoffset:0;stroke-opacity:1;color-rendering:auto;image-rendering:auto;shape-rendering:auto;text-rendering:auto;enable-background:accumulate"
           d="m 929.98828,266.82617 a 3.3314968,3.3314968 0 1 0 0,6.66211 l 33.89258,0 a 3.3314968,3.3314968 0 1 0 0,-6.66211 l -33.89258,0 z"
           id="path17466"
           inkscape:connector-curvature="0" />
      </g>
    </g>
  </g>
</svg>
