<?xml version="1.0" encoding="UTF-8" standalone="no"?>
<!-- Created with Inkscape (http://www.inkscape.org/) -->

<svg
   xmlns:dc="http://purl.org/dc/elements/1.1/"
   xmlns:cc="http://creativecommons.org/ns#"
   xmlns:rdf="http://www.w3.org/1999/02/22-rdf-syntax-ns#"
   xmlns:svg="http://www.w3.org/2000/svg"
   xmlns="http://www.w3.org/2000/svg"
   xmlns:sodipodi="http://sodipodi.sourceforge.net/DTD/sodipodi-0.dtd"
   xmlns:inkscape="http://www.inkscape.org/namespaces/inkscape"
   width="297mm"
   height="210mm"
   viewBox="0 0 1052.3622 744.09448"
   id="svg9118"
   version="1.1"
   inkscape:version="0.91 r13725"
   sodipodi:docname="info.svg">
  <defs
     id="defs9120" />
  <sodipodi:namedview
     id="base"
     pagecolor="#ffffff"
     bordercolor="#666666"
     borderopacity="1.0"
     inkscape:pageopacity="0.0"
     inkscape:pageshadow="2"
     inkscape:zoom="0.35"
     inkscape:cx="407.51244"
     inkscape:cy="193.39399"
     inkscape:document-units="px"
     inkscape:current-layer="g15927"
     showgrid="false"
     inkscape:window-width="1364"
     inkscape:window-height="676"
     inkscape:window-x="0"
     inkscape:window-y="72"
     inkscape:window-maximized="0" />
  <metadata
     id="metadata9123">
    <rdf:RDF>
      <cc:Work
         rdf:about="">
        <dc:format>image/svg+xml</dc:format>
        <dc:type
           rdf:resource="http://purl.org/dc/dcmitype/StillImage" />
        <dc:title />
      </cc:Work>
    </rdf:RDF>
  </metadata>
  <g
     inkscape:label="Ebene 1"
     inkscape:groupmode="layer"
     id="layer1"
     transform="translate(0,-308.26772)">
    <g
       id="g15927"
       transform="translate(0,67.258808)">
      <text
         sodipodi:linespacing="125%"
         id="text10890"
         y="815.10504"
         x="525.65594"
         style="font-style:normal;font-variant:normal;font-weight:normal;font-stretch:normal;font-size:212.0425415px;line-height:125%;font-family:DIN;-inkscape-font-specification:DIN;letter-spacing:0px;word-spacing:0px;fill:#000000;fill-opacity:1;stroke:none;stroke-width:1px;stroke-linecap:butt;stroke-linejoin:miter;stroke-opacity:1"
         xml:space="preserve"><tspan
           style="font-style:normal;font-variant:normal;font-weight:normal;font-stretch:condensed;font-family:'Viking Squad Condensed';-inkscape-font-specification:'Viking Squad Condensed, Condensed';text-align:center;text-anchor:middle"
           y="815.10504"
           x="525.65594"
           id="tspan10892"
           sodipodi:role="line">INFORMATION</tspan></text>
      <path
         style="color:#000000;font-style:normal;font-variant:normal;font-weight:normal;font-stretch:normal;font-size:medium;line-height:normal;font-family:sans-serif;text-indent:0;text-align:start;text-decoration:none;text-decoration-line:none;text-decoration-style:solid;text-decoration-color:#000000;letter-spacing:normal;word-spacing:normal;text-transform:none;direction:ltr;block-progression:tb;writing-mode:lr-tb;baseline-shift:baseline;text-anchor:start;white-space:normal;clip-rule:nonzero;display:inline;overflow:visible;visibility:visible;opacity:1;isolation:auto;mix-blend-mode:normal;color-interpolation:sRGB;color-interpolation-filters:linearRGB;solid-color:#000000;solid-opacity:1;fill:#000000;fill-opacity:1;fill-rule:nonzero;stroke:none;stroke-width:2.79670215;stroke-linecap:round;stroke-linejoin:round;stroke-miterlimit:4;stroke-dasharray:none;stroke-dashoffset:0;stroke-opacity:1;marker:none;paint-order:normal;color-rendering:auto;image-rendering:auto;shape-rendering:auto;text-rendering:auto;enable-background:accumulate"
         d="m 429.40898,410.37122 c -16.0506,0 -29.16341,13.10434 -29.16341,29.15497 l 0,196.45722 c 0,16.05058 13.11281,29.15495 29.16341,29.15495 l 193.54425,0 c 16.05054,0 29.16335,-13.10437 29.16335,-29.15495 l 0,-196.45722 c 0,-16.05063 -13.11281,-29.15497 -29.16335,-29.15497 l -193.54425,0 z m 0,12.04757 193.54425,0 c 9.5858,0 17.11579,7.52159 17.11579,17.1074 l 0,196.45722 c 0,9.5858 -7.52999,17.10739 -17.11579,17.10739 l -193.54425,0 c -9.58576,0 -17.11581,-7.52159 -17.11581,-17.10739 l 0,-196.45722 c 0,-9.58581 7.53005,-17.1074 17.11581,-17.1074 z"
         id="path5532-3"
         inkscape:connector-curvature="0" />
      <path
         inkscape:connector-curvature="0"
         id="path4143"
         d="m 538.81544,513.49085 a 5.8022215,5.8022215 0 0 0 -5.16385,2.8889 c 0,0 -31.9773,53.9711 -1.27539,120.28723 a 5.8022215,5.8022215 0 1 0 10.52939,-4.87319 c -28.43197,-61.41307 0.69999,-109.44935 0.69999,-109.44935 a 5.8022215,5.8022215 0 0 0 -4.79014,-8.85359 z"
         style="color:#000000;font-style:normal;font-variant:normal;font-weight:normal;font-stretch:normal;font-size:medium;line-height:normal;font-family:sans-serif;text-indent:0;text-align:start;text-decoration:none;text-decoration-line:none;text-decoration-style:solid;text-decoration-color:#000000;letter-spacing:normal;word-spacing:normal;text-transform:none;direction:ltr;block-progression:tb;writing-mode:lr-tb;baseline-shift:baseline;text-anchor:start;white-space:normal;clip-rule:nonzero;display:inline;overflow:visible;visibility:visible;opacity:1;isolation:auto;mix-blend-mode:normal;color-interpolation:sRGB;color-interpolation-filters:linearRGB;solid-color:#000000;solid-opacity:1;fill:#000000;fill-opacity:1;fill-rule:evenodd;stroke:none;stroke-width:7.64074755;stroke-linecap:round;stroke-linejoin:miter;stroke-miterlimit:4;stroke-dasharray:none;stroke-dashoffset:0;stroke-opacity:1;color-rendering:auto;image-rendering:auto;shape-rendering:auto;text-rendering:auto;enable-background:accumulate" />
      <path
         inkscape:connector-curvature="0"
         id="path4145"
         d="m 524.43318,562.7951 a 5.8022215,5.8022215 0 0 0 -4.98292,3.19146 c 0,0 -16.42435,31.2005 -15.84749,68.33428 a 5.8022603,5.8022603 0 1 0 11.60311,-0.18093 c -0.5218,-33.58913 14.53352,-62.79078 14.53352,-62.79078 a 5.8022215,5.8022215 0 0 0 -5.30622,-8.55403 z"
         style="color:#000000;font-style:normal;font-variant:normal;font-weight:normal;font-stretch:normal;font-size:medium;line-height:normal;font-family:sans-serif;text-indent:0;text-align:start;text-decoration:none;text-decoration-line:none;text-decoration-style:solid;text-decoration-color:#000000;letter-spacing:normal;word-spacing:normal;text-transform:none;direction:ltr;block-progression:tb;writing-mode:lr-tb;baseline-shift:baseline;text-anchor:start;white-space:normal;clip-rule:nonzero;display:inline;overflow:visible;visibility:visible;opacity:1;isolation:auto;mix-blend-mode:normal;color-interpolation:sRGB;color-interpolation-filters:linearRGB;solid-color:#000000;solid-opacity:1;fill:#000000;fill-opacity:1;fill-rule:evenodd;stroke:none;stroke-width:7.64074755;stroke-linecap:round;stroke-linejoin:miter;stroke-miterlimit:4;stroke-dasharray:none;stroke-dashoffset:0;stroke-opacity:1;color-rendering:auto;image-rendering:auto;shape-rendering:auto;text-rendering:auto;enable-background:accumulate" />
      <path
         id="path16165"
         d="m 569.15029,494.244 a 16.593896,16.593896 0 0 1 -16.5939,16.59389 16.593896,16.593896 0 0 1 -16.59389,-16.59389 16.593896,16.593896 0 0 1 16.59389,-16.5939 16.593896,16.593896 0 0 1 16.5939,16.5939 z"
         style="opacity:1;fill:#000000;fill-opacity:1;stroke:none;stroke-width:0;stroke-linecap:round;stroke-miterlimit:4;stroke-dasharray:none;stroke-dashoffset:0;stroke-opacity:1"
         inkscape:connector-curvature="0" />
      <path
         style="fill:none;fill-rule:evenodd;stroke:#000000;stroke-width:11;stroke-linecap:round;stroke-linejoin:round;stroke-miterlimit:4;stroke-dasharray:none;stroke-opacity:1"
         d="m 535,537.24625 c 15.40607,5.86159 15.15897,6.32213 36.07144,-2.49999"
         id="path15994"
         inkscape:connector-curvature="0"
         sodipodi:nodetypes="cc" />
      <path
         sodipodi:nodetypes="cc"
         inkscape:connector-curvature="0"
         id="path15996"
         d="m 502.85713,514.38911 c 0,0 11.58755,22.7507 26.78573,21.78572"
         style="fill:none;fill-rule:evenodd;stroke:#000000;stroke-width:11;stroke-linecap:round;stroke-linejoin:round;stroke-miterlimit:4;stroke-dasharray:none;stroke-opacity:1" />
      <g
         style="font-style:normal;font-variant:normal;font-weight:normal;font-stretch:normal;font-size:131.42138672px;line-height:125%;font-family:DIN;-inkscape-font-specification:DIN;letter-spacing:0px;word-spacing:0px;fill:#000000;fill-opacity:1;stroke:none;stroke-width:1px;stroke-linecap:butt;stroke-linejoin:miter;stroke-opacity:1"
         id="text15998">
        <path
           d="m 496.50532,476.91329 q 0,8.41097 -6.70249,16.82194 l -9.06808,11.43366 q -2.36558,3.02269 -2.36558,6.1768 l 0,1.1828 -21.55311,0 0,-3.0227 q 0,-8.27954 5.38828,-14.58777 l 9.1995,-10.77655 q 3.54837,-4.20549 3.54837,-7.3596 0,-8.01671 -7.88528,-8.01671 -7.88528,0 -7.88528,8.27955 l -21.55311,0 q 0,-12.87929 8.80523,-20.63316 8.14813,-7.09675 20.63316,-7.09675 12.35361,0 20.50174,6.96533 8.93665,7.62244 8.93665,20.63316 z m -16.42767,54.6713 q 0,5.12543 -3.6798,8.80523 -3.6798,3.6798 -8.80524,3.6798 -5.12543,0 -8.80523,-3.6798 -3.6798,-3.6798 -3.6798,-8.80523 0,-5.12544 3.6798,-8.80524 3.6798,-3.6798 8.80523,-3.6798 5.12544,0 8.80524,3.6798 3.6798,3.6798 3.6798,8.80524 z"
           style=""
           id="path16627" />
      </g>
    </g>
  </g>
</svg>
