<?xml version="1.0" encoding="UTF-8" standalone="no"?>
<!-- Created with Inkscape (http://www.inkscape.org/) -->

<svg
   xmlns:dc="http://purl.org/dc/elements/1.1/"
   xmlns:cc="http://creativecommons.org/ns#"
   xmlns:rdf="http://www.w3.org/1999/02/22-rdf-syntax-ns#"
   xmlns:svg="http://www.w3.org/2000/svg"
   xmlns="http://www.w3.org/2000/svg"
   xmlns:sodipodi="http://sodipodi.sourceforge.net/DTD/sodipodi-0.dtd"
   xmlns:inkscape="http://www.inkscape.org/namespaces/inkscape"
   width="297mm"
   height="210mm"
   viewBox="0 0 1052.3622 744.09448"
   id="svg9118"
   version="1.1"
   inkscape:version="0.91 r13725"
   sodipodi:docname="noc.svg">
  <defs
     id="defs9120" />
  <sodipodi:namedview
     id="base"
     pagecolor="#ffffff"
     bordercolor="#666666"
     borderopacity="1.0"
     inkscape:pageopacity="0.0"
     inkscape:pageshadow="2"
     inkscape:zoom="0.35"
     inkscape:cx="595.05138"
     inkscape:cy="470.14025"
     inkscape:document-units="px"
     inkscape:current-layer="g15927"
     showgrid="false"
     inkscape:window-width="1916"
     inkscape:window-height="987"
     inkscape:window-x="1920"
     inkscape:window-y="72"
     inkscape:window-maximized="0" />
  <metadata
     id="metadata9123">
    <rdf:RDF>
      <cc:Work
         rdf:about="">
        <dc:format>image/svg+xml</dc:format>
        <dc:type
           rdf:resource="http://purl.org/dc/dcmitype/StillImage" />
        <dc:title></dc:title>
      </cc:Work>
    </rdf:RDF>
  </metadata>
  <g
     inkscape:label="Ebene 1"
     inkscape:groupmode="layer"
     id="layer1"
     transform="translate(0,-308.26772)">
    <g
       id="g15927"
       transform="translate(0,67.258808)">
      <text
         sodipodi:linespacing="125%"
         id="text10890"
         y="691.10852"
         x="526.08502"
         style="font-style:normal;font-variant:normal;font-weight:normal;font-stretch:normal;font-size:212.0425415px;line-height:125%;font-family:DIN;-inkscape-font-specification:DIN;letter-spacing:0px;word-spacing:0px;fill:#000000;fill-opacity:1;stroke:none;stroke-width:1px;stroke-linecap:butt;stroke-linejoin:miter;stroke-opacity:1"
         xml:space="preserve"><tspan
           style="font-style:normal;font-variant:normal;font-weight:normal;font-stretch:condensed;font-family:'Viking Squad Condensed';-inkscape-font-specification:'Viking Squad Condensed, Condensed';text-align:center;text-anchor:middle"
           y="691.10852"
           x="526.08502"
           sodipodi:role="line"
           id="tspan18226">NETWORK</tspan></text>
      <text
         xml:space="preserve"
         style="font-style:normal;font-variant:normal;font-weight:normal;font-stretch:normal;font-size:212.0425415px;line-height:125%;font-family:DIN;-inkscape-font-specification:DIN;letter-spacing:0px;word-spacing:0px;fill:#000000;fill-opacity:1;stroke:none;stroke-width:1px;stroke-linecap:butt;stroke-linejoin:miter;stroke-opacity:1"
         x="526.08502"
         y="811.10852"
         id="text18249"
         sodipodi:linespacing="125%"><tspan
           id="tspan18251"
           sodipodi:role="line"
           x="526.08502"
           y="811.10852"
           style="font-style:normal;font-variant:normal;font-weight:normal;font-stretch:condensed;font-family:'Viking Squad Condensed';-inkscape-font-specification:'Viking Squad Condensed, Condensed';text-align:center;text-anchor:middle">OPERATION</tspan></text>
      <text
         sodipodi:linespacing="125%"
         id="text18253"
         y="931.10852"
         x="526.08502"
         style="font-style:normal;font-variant:normal;font-weight:normal;font-stretch:normal;font-size:212.0425415px;line-height:125%;font-family:DIN;-inkscape-font-specification:DIN;letter-spacing:0px;word-spacing:0px;fill:#000000;fill-opacity:1;stroke:none;stroke-width:1px;stroke-linecap:butt;stroke-linejoin:miter;stroke-opacity:1"
         xml:space="preserve"><tspan
           style="font-style:normal;font-variant:normal;font-weight:normal;font-stretch:condensed;font-family:'Viking Squad Condensed';-inkscape-font-specification:'Viking Squad Condensed, Condensed';text-align:center;text-anchor:middle"
           y="931.10852"
           x="526.08502"
           sodipodi:role="line"
           id="tspan18255">CENTER</tspan></text>
      <g
         id="g19633"
         style="fill:#000000"
         transform="matrix(1.8905626,0,0,1.8905626,-990.83733,-372.47627)">
        <path
           style="fill:#000000"
           inkscape:connector-curvature="0"
           d="m 751.66665,359.0934 102.377,0 c 5.073,0 9.053,3.979 9.053,9.05 l 0,103.917 c 0,5.072 -3.979,9.049 -9.053,9.049 l -102.377,0 c -5.069,0 -9.053,-3.979 -9.053,-9.049 l 0,-103.916 c 0,-5.073 3.983,-9.051 9.053,-9.051 z m 0,-6.371 c -8.489,0 -15.424,6.933 -15.424,15.422 l 0,103.916 c 0,8.492 6.936,15.424 15.424,15.424 l 102.377,0 c 8.489,0 15.428,-6.934 15.428,-15.424 l 0,-103.916 c 0,-8.49 -6.938,-15.422 -15.428,-15.422 l -102.377,0 z"
           id="path18956" />
        <path
           style="fill:#000000"
           inkscape:connector-curvature="0"
           d="m 825.73465,424.2389 c -1.812,0 -3.28,1.467 -3.28,3.276 0,1.813 1.47,3.28 3.28,3.28 l 27.889,0 c 4.375,0 4.375,-6.558 0,-6.558 l -27.889,0.002 0,0 z"
           id="path18958" />
        <path
           style="fill:#000000"
           inkscape:connector-curvature="0"
           d="m 840.34265,393.4689 c -1.685,0.027 -3.075,1.324 -3.218,3 l -2.052,20.532 -16.269,-0.791 c -1.871,-0.095 -3.44,1.4 -3.44,3.274 l 0,22.688 c -0.029,1.834 1.447,3.332 3.281,3.332 1.832,0 3.308,-1.498 3.278,-3.332 l 0,-19.246 15.943,0.778 c 1.741,0.085 3.246,-1.212 3.42,-2.951 l 2.365,-23.634 c 0.227,-1.964 -1.329,-3.681 -3.308,-3.65 z"
           id="path18960" />
        <path
           style="fill:#000000"
           inkscape:connector-curvature="0"
           d="m 849.05965,381.9049 c 0,3.613 -2.929,6.542 -6.541,6.542 -3.612,0 -6.542,-2.93 -6.542,-6.542 0,-3.616 2.931,-6.545 6.542,-6.545 3.613,-10e-4 6.541,2.929 6.541,6.545 z"
           id="path18962" />
        <path
           style="fill:#000000"
           inkscape:connector-curvature="0"
           d="m 842.51865,378.1979 c 2.081,0 3.706,1.627 3.706,3.707 0,2.079 -1.626,3.704 -3.706,3.704 -2.08,0 -3.707,-1.625 -3.707,-3.704 0,-2.08 1.627,-3.707 3.707,-3.707 z m 0,-5.674 c -5.146,0 -9.381,4.233 -9.381,9.38 0,5.146 4.234,9.377 9.381,9.377 5.146,0 9.376,-4.231 9.376,-9.377 0,-5.146 -4.229,-9.38 -9.376,-9.38 z"
           id="path18964" />
        <path
           style="fill:#000000"
           inkscape:connector-curvature="0"
           d="m 838.94365,396.1099 c -0.186,0.007 -0.369,0.024 -0.554,0.062 l -19.855,3.577 c -1.823,0.281 -3.059,2.009 -2.729,3.822 0.326,1.815 2.085,3.003 3.894,2.629 l 19.855,-3.574 c 4.02,-0.665 3.462,-6.608 -0.611,-6.516 z"
           id="path18966" />
        <path
           style="fill:#000000"
           inkscape:connector-curvature="0"
           d="m 789.53065,391.1679 c -4.145,0.127 -8.22,0.659 -12.212,1.572 -0.832,0.179 -1.356,1.003 -1.167,1.833 0.19,0.828 1.021,1.341 1.847,1.141 15.225,-3.48 31.607,-1.23 49.053,8.533 1.772,0.994 3.261,-1.667 1.488,-2.66 -13.488,-7.55 -26.573,-10.802 -39.009,-10.419 z"
           id="path18968" />
        <rect
           style="fill:#000000"
           x="778.69165"
           y="394.54788"
           width="1.006"
           height="14.707"
           id="rect18970" />
        <path
           style="fill:#000000"
           inkscape:connector-curvature="0"
           d="m 779.27065,437.1559 c -1.497,0 -2.614,0.406 -3.348,1.217 -0.535,0.601 -0.874,1.531 -1.015,2.791 1.077,0.619 2.046,1.402 2.885,2.312 -0.012,-0.261 -0.019,-0.529 -0.019,-0.83 0,-1.347 0.109,-2.271 0.326,-2.765 0.22,-0.498 0.574,-0.748 1.063,-0.748 0.481,0 0.842,0.244 1.08,0.734 0.243,0.484 0.363,1.438 0.363,2.854 0,0.757 -0.042,1.31 -0.107,1.757 0.583,-0.129 1.179,-0.207 1.803,-0.207 0.387,0 0.77,0.032 1.146,0.078 0.072,-0.527 0.11,-1.109 0.11,-1.75 0,-0.863 -0.1,-1.693 -0.298,-2.49 -0.101,-0.418 -0.239,-0.783 -0.409,-1.094 -0.164,-0.316 -0.394,-0.611 -0.685,-0.896 -0.291,-0.283 -0.667,-0.516 -1.13,-0.691 -0.458,-0.182 -1.05,-0.272 -1.765,-0.272 z"
           id="path18972" />
        <path
           style="fill:#000000"
           inkscape:connector-curvature="0"
           d="m 782.25565,424.2949 0,10.863 -3.002,0 0,-7.119 c -0.483,0.369 -0.957,0.668 -1.413,0.896 -0.45,0.229 -1.02,0.446 -1.705,0.659 l 0,-2.438 c 1.011,-0.324 1.795,-0.713 2.354,-1.172 0.559,-0.457 0.995,-1.021 1.313,-1.689 l 2.453,0 z"
           id="path18974" />
        <path
           style="fill:#000000"
           inkscape:connector-curvature="0"
           d="m 777.77665,416.7389 c 0,1.359 0.118,2.288 0.355,2.789 0.241,0.497 0.594,0.745 1.051,0.745 0.299,0 0.561,-0.104 0.78,-0.313 0.222,-0.215 0.385,-0.549 0.485,-1.007 0.107,-0.456 0.162,-1.167 0.162,-2.134 0,-1.417 -0.123,-2.371 -0.366,-2.855 -0.238,-0.491 -0.596,-0.735 -1.078,-0.735 -0.491,0 -0.846,0.25 -1.065,0.75 -0.216,0.493 -0.324,1.412 -0.324,2.76 z m -2.944,-0.009 c 0,-2.031 0.363,-3.451 1.094,-4.263 0.732,-0.81 1.846,-1.215 3.344,-1.215 0.715,0 1.307,0.09 1.768,0.269 0.463,0.176 0.838,0.406 1.13,0.691 0.291,0.283 0.52,0.58 0.685,0.896 0.17,0.311 0.308,0.676 0.409,1.093 0.198,0.797 0.298,1.626 0.298,2.492 0,1.938 -0.327,3.354 -0.985,4.252 -0.653,0.897 -1.782,1.35 -3.384,1.35 -0.901,0 -1.627,-0.142 -2.178,-0.43 -0.556,-0.287 -1.009,-0.707 -1.363,-1.259 -0.258,-0.394 -0.459,-0.933 -0.604,-1.61 -0.144,-0.682 -0.214,-1.438 -0.214,-2.266 z"
           id="path18976" />
        <path
           style="fill:#000000"
           inkscape:connector-curvature="0"
           d="m 769.10465,442.8399 c 3.828,0 7.075,2.447 8.275,5.861 0.13,0.363 0.561,0.484 0.858,0.24 1.109,-0.9 2.521,-1.445 4.063,-1.445 3.379,0 6.144,2.598 6.417,5.904 0.02,0.231 0.182,0.424 0.409,0.481 2.448,0.623 4.271,2.841 4.271,5.49 0,3.129 -2.531,5.668 -5.668,5.668 l -26.387,0 c -3.126,0 -5.667,-2.535 -5.667,-5.668 0,-2.688 1.879,-4.94 4.393,-5.52 0.288,-0.068 0.467,-0.345 0.415,-0.634 -0.1,-0.521 -0.149,-1.059 -0.149,-1.608 10e-4,-4.849 3.92,-8.769 8.77,-8.769 z m 0,-2.647 c -6.298,0 -11.416,5.119 -11.416,11.416 0,0.053 0.003,0.11 0.003,0.186 l 0.006,0.181 -0.163,0.082 c -2.66,1.395 -4.506,4.125 -4.506,7.315 0,4.582 3.718,8.31 8.31,8.31 l 26.399,0 c 4.582,0 8.309,-3.732 8.309,-8.31 0,-3.336 -1.992,-6.184 -4.847,-7.504 l -0.127,-0.059 -0.032,-0.136 c -1.017,-3.911 -4.517,-6.823 -8.736,-6.823 -1.178,0 -2.285,0.271 -3.333,0.688 l -0.224,0.09 -0.129,-0.201 c -2.041,-3.131 -5.512,-5.235 -9.514,-5.235 z"
           id="path18978" />
      </g>
    </g>
  </g>
</svg>
