<?xml version="1.0" encoding="UTF-8" standalone="no"?>
<!-- Created with Inkscape (http://www.inkscape.org/) -->

<svg
   xmlns:dc="http://purl.org/dc/elements/1.1/"
   xmlns:cc="http://creativecommons.org/ns#"
   xmlns:rdf="http://www.w3.org/1999/02/22-rdf-syntax-ns#"
   xmlns:svg="http://www.w3.org/2000/svg"
   xmlns="http://www.w3.org/2000/svg"
   xmlns:sodipodi="http://sodipodi.sourceforge.net/DTD/sodipodi-0.dtd"
   xmlns:inkscape="http://www.inkscape.org/namespaces/inkscape"
   width="297mm"
   height="210mm"
   viewBox="0 0 1052.3622 744.09448"
   id="svg9118"
   version="1.1"
   inkscape:version="0.91 r13725"
   sodipodi:docname="saal1.svg">
  <defs
     id="defs9120" />
  <sodipodi:namedview
     id="base"
     pagecolor="#ffffff"
     bordercolor="#666666"
     borderopacity="1.0"
     inkscape:pageopacity="0.0"
     inkscape:pageshadow="2"
     inkscape:zoom="0.12374369"
     inkscape:cx="-958.9467"
     inkscape:cy="211.75443"
     inkscape:document-units="px"
     inkscape:current-layer="layer1"
     showgrid="false"
     inkscape:window-width="1364"
     inkscape:window-height="694"
     inkscape:window-x="0"
     inkscape:window-y="54"
     inkscape:window-maximized="0" />
  <metadata
     id="metadata9123">
    <rdf:RDF>
      <cc:Work
         rdf:about="">
        <dc:format>image/svg+xml</dc:format>
        <dc:type
           rdf:resource="http://purl.org/dc/dcmitype/StillImage" />
        <dc:title />
      </cc:Work>
    </rdf:RDF>
  </metadata>
  <g
     inkscape:label="Ebene 1"
     inkscape:groupmode="layer"
     id="layer1"
     transform="translate(0,-308.26772)">
    <g
       id="g10898"
       transform="translate(0,66.653557)">
      <path
         inkscape:connector-curvature="0"
         id="path7098"
         d="m 429.36666,343.70084 c -16.02456,0 -29.12123,13.0959 -29.12123,29.16352 l 0,196.47376 c 0,16.06763 13.09667,29.16352 29.12123,29.16352 l 193.58656,0 c 16.06763,0 29.16353,-13.09589 29.16353,-29.16352 l 0,-196.47376 c 0,-16.06762 -13.0959,-29.16352 -29.16353,-29.16352 l -193.58656,0 z m 0,12.01846 193.58656,0 c 9.60612,0 17.14507,7.53894 17.14507,17.14506 l 0,196.47376 c 0,9.6061 -7.53895,17.10052 -17.14507,17.10054 l -193.58656,0 c -9.56304,0 -17.10277,-7.49444 -17.10277,-17.10054 l 0,-196.47376 c 0,-9.60612 7.53973,-17.14506 17.10277,-17.14506 z m 136.59514,45.05978 a 22.234938,22.234938 0 0 0 -22.22717,22.22715 22.234938,22.234938 0 0 0 22.22717,22.22715 22.234938,22.234938 0 0 0 22.22937,-22.22715 22.234938,22.234938 0 0 0 -22.22937,-22.22715 z m -42.08577,21.71072 -36.83009,0.12909 a 6.3542545,6.3542545 0 1 0 0.0422,12.70632 l 33.51547,-0.1291 4.6324,6.70933 -21.34784,13.58115 c 3.05845,1.20616 5.21253,1.80756 6.97868,1.80756 2.71383,0.043 5.85837,-1.0319 12.14758,-4.52112 2.48816,-1.37774 4.97731,-2.45388 7.47954,-3.25672 l 0.0156,0.0245 c 1.49447,-0.48155 2.99054,-0.87127 4.48995,-1.16867 1.2545,-0.2349 2.51472,-0.40755 3.78206,-0.50977 a 6.353393,6.353393 0 0 0 0.0224,-0.0335 c 1.13526,-0.10101 2.27607,-0.1527 3.42366,-0.14025 0.86154,0 1.68062,0.0438 2.54217,0.0868 l -15.63804,-22.57219 a 6.353393,6.353393 0 0 0 -5.25571,-2.71355 z m 18.35158,28.56027 c -6.5046,-0.0431 -12.8808,1.59286 -19.21308,5.08206 -6.2892,3.48923 -9.43375,4.56642 -12.14758,4.52336 -2.75691,-0.043 -6.28921,-1.33579 -12.87995,-4.39425 -14.43072,-6.67688 -24.72506,-4.39461 -36.48503,0.0422 -5.98766,2.24 -11.45952,4.61089 -16.4995,5.42936 -5.08306,0.81845 -9.64916,0.42994 -15.3353,-3.14542 -1.20614,-0.77529 -2.4557,-1.42254 -3.66185,-2.02563 l 0,11.84707 c 7.10767,3.91999 14.30323,4.5666 20.63553,3.53274 6.89228,-1.12 12.92157,-3.87731 18.47846,-5.98809 11.37227,-4.2646 16.24111,-6.02973 28.51798,-0.3005 6.71998,3.10154 11.54443,5.25416 17.05824,5.34032 5.55692,0.0862 10.59572,-2.06678 17.35879,-5.81447 11.63072,-6.41844 20.54901,-5.38421 35.49664,2.80038 8.39998,4.56615 15.80866,6.58948 23.08864,6.20178 7.2369,-0.3877 13.91416,-3.0144 21.32337,-6.67594 5.85845,-2.88614 11.28633,-3.96482 16.67091,-3.70638 l 0,-10.16414 c -6.89228,-0.25847 -14.00188,1.03255 -21.23877,4.60792 -6.97844,3.40308 -12.2765,5.34229 -17.31647,5.60074 -5.03999,0.25847 -10.25165,-0.99212 -17.57469,-4.95518 -8.22767,-4.47998 -15.98061,-7.15029 -23.47598,-7.75335 -0.94769,-0.0431 -1.85268,-0.0847 -2.80036,-0.0847 z m 1.2488,28.25752 c -4.56613,0 -7.96869,1.23441 -10.20868,3.70415 -2.23998,2.46974 -3.36134,6.81959 -3.36134,13.05136 0,2.52718 0.21703,4.83998 0.64778,6.93638 0.4595,2.06768 1.0767,3.70452 1.85208,4.91067 1.09128,1.69436 2.48395,2.97173 4.1783,3.83328 1.69436,0.89024 3.91903,1.33563 6.67595,1.33563 4.88202,0 8.32977,-1.3791 10.34,-4.13603 2.01026,-2.75689 3.0141,-7.09317 3.0141,-13.00904 0,-2.64205 -0.30073,-5.18323 -0.90379,-7.62423 -0.31588,-1.2636 -0.73189,-2.36913 -1.24882,-3.31684 -0.51692,-0.9764 -1.22227,-1.89431 -2.11252,-2.75584 -0.89025,-0.89026 -2.03876,-1.59338 -3.44593,-2.1103 -1.40718,-0.54564 -3.21585,-0.81919 -5.42713,-0.81919 z m -62.16033,1.63615 c -4.56613,0 -7.96869,1.23442 -10.20868,3.70416 -2.23999,2.46973 -3.35912,6.8218 -3.35912,13.05356 0,2.52719 0.21478,4.82419 0.64556,6.89187 0.43077,2.09641 1.04797,3.74682 1.85207,4.95298 1.09128,1.69435 2.48396,2.97394 4.17831,3.83549 1.69436,0.89025 3.90545,1.33563 6.63364,1.33563 4.91075,0 8.37206,-1.3791 10.38232,-4.13601 2.01024,-2.7569 3.01407,-7.09318 3.01407,-13.00907 0,-2.64203 -0.31429,-5.1832 -0.94607,-7.62423 -0.31587,-1.26358 -0.73413,-2.36913 -1.25104,-3.31682 -0.4882,-0.9764 -1.17553,-1.89653 -2.06578,-2.75807 -0.89024,-0.89026 -2.03876,-1.59339 -3.44593,-2.1103 -1.4359,-0.54564 -3.24679,-0.81919 -5.42935,-0.81919 z m 32.69629,3.92008 c -0.94769,2.03897 -2.28383,3.76172 -4.00689,5.1689 -1.69436,1.37847 -4.09309,2.56992 -7.19462,3.57505 l 0,7.45282 c 2.09641,-0.63178 3.83496,-1.30554 5.21341,-2.02349 1.40719,-0.68922 2.85639,-1.59355 4.34972,-2.71355 l 0,21.753 9.1758,0 0,-33.21273 -7.53742,0 z m 29.16353,0.47416 c 1.46461,0 2.57015,0.74607 3.31682,2.2394 0.71795,1.49334 1.07519,4.40976 1.07519,8.74617 0,2.95793 -0.15603,5.12607 -0.47193,6.50453 -0.31588,1.40717 -0.82004,2.44038 -1.50927,3.10088 -0.6605,0.6318 -1.44954,0.94829 -2.36853,0.94829 -1.40717,0 -2.46975,-0.76187 -3.1877,-2.28392 -0.74666,-1.52204 -1.1197,-4.36614 -1.1197,-8.53023 0,-4.10667 0.34366,-6.91915 1.03289,-8.44121 0.66051,-1.52204 1.73891,-2.28391 3.23223,-2.28391 z m 35.40762,0.1714 c -4.59486,0 -8.01099,1.23663 -10.25099,3.70637 -2.21126,2.49846 -3.31682,6.8483 -3.31682,13.05135 0,2.52718 0.21478,4.83998 0.64556,6.93639 0.43078,2.06769 1.0344,3.70452 1.80979,4.91067 1.09128,1.69436 2.48394,2.97172 4.1783,3.83327 1.69435,0.89024 3.91901,1.33564 6.67592,1.33564 4.88206,0 8.32755,-1.3791 10.33781,-4.13603 2.01025,-2.72819 3.0163,-7.06445 3.0163,-13.00905 0,-2.64204 -0.30073,-5.18322 -0.90379,-7.62423 -0.31588,-1.26359 -0.7341,-2.36913 -1.25102,-3.31682 -0.51694,-0.9764 -1.22006,-1.89655 -2.11032,-2.75808 -0.89025,-0.86155 -2.03874,-1.56465 -3.44591,-2.11029 -1.40719,-0.54564 -3.20227,-0.81919 -5.38483,-0.81919 z m -126.73149,0.34504 c -0.97641,2.03897 -2.31254,3.76172 -4.00689,5.1689 -1.72308,1.37846 -4.11957,2.57213 -7.19238,3.57728 l 0,7.4506 c 2.09641,-0.66052 3.83273,-1.33427 5.21119,-2.02348 1.37846,-0.68926 2.81408,-1.60937 4.30742,-2.7581 l 0,21.79753 9.17579,0 0,-33.21273 -7.49513,0 z m 29.16353,1.11971 c 1.46463,0 2.55435,0.74829 3.2723,2.24163 0.74667,1.49333 1.12193,4.40755 1.12193,8.74395 0,2.95793 -0.15826,5.12607 -0.47415,6.50452 -0.31587,1.40716 -0.82003,2.44038 -1.50926,3.10089 -0.66051,0.63179 -1.44954,0.9483 -2.36852,0.9483 -1.40718,0 -2.48333,-0.76189 -3.23001,-2.28392 -0.71794,-1.52205 -1.07741,-4.36393 -1.07741,-8.52803 0,-4.10664 0.3301,-6.92137 0.9906,-8.44342 0.66051,-1.52204 1.75248,-2.28392 3.27452,-2.28392 z m 97.22291,4.56786 c 1.46461,0 2.57016,0.74608 3.31683,2.23942 0.74666,1.49333 1.12193,4.40753 1.12193,8.74393 0,2.95794 -0.17403,5.14188 -0.51867,6.54905 -0.31589,1.37845 -0.80423,2.39586 -1.46474,3.05637 -0.68924,0.63179 -1.49186,0.94831 -2.41083,0.94831 -1.37846,0 -2.44104,-0.75966 -3.18769,-2.28171 -0.74668,-1.52207 -1.11971,-4.36615 -1.11971,-8.53025 0,-4.10665 0.34365,-6.92137 1.03288,-8.44341 0.66051,-1.52205 1.73669,-2.28171 3.23,-2.28171 z m -31.87487,41.13748 c -0.97641,2.06767 -2.31254,3.79043 -4.00689,5.16888 -1.72307,1.40719 -4.1218,2.59865 -7.1946,3.57506 l 0,7.45282 c 2.09641,-0.63179 3.83496,-1.29196 5.21342,-1.98118 1.37846,-0.71795 2.81408,-1.63808 4.3074,-2.75808 l 0,21.75522 9.17581,0 0,-33.21272 -7.49514,0 z m 58.62536,0.64555 c -0.9764,2.06768 -2.31031,3.79044 -4.00467,5.1689 -1.72307,1.40715 -4.12179,2.61443 -7.1946,3.61956 l 0,7.4083 c 2.06769,-0.63178 3.80624,-1.29196 5.21341,-1.98118 1.37847,-0.68924 2.81409,-1.60714 4.30742,-2.75586 l 0,21.79531 9.1758,0 0,-33.25503 -7.49736,0 z m -122.85369,2.32622 c -4.59485,0 -8.01321,1.23442 -10.2532,3.70416 -2.21127,2.46974 -3.31683,6.82182 -3.31683,13.05357 0,2.49847 0.21703,4.79548 0.64779,6.89187 0.43077,2.09641 1.04797,3.74683 1.85208,4.95298 1.06255,1.69435 2.43942,2.97395 4.13378,3.8355 1.69435,0.89024 3.92124,1.33561 6.67816,1.33561 4.91075,0 8.35626,-1.37909 10.3378,-4.13601 2.01024,-2.7569 3.0163,-7.09317 3.0163,-13.00905 0,-2.64205 -0.30293,-5.18322 -0.906,-7.62423 -0.31588,-1.26359 -0.73191,-2.38495 -1.24882,-3.36134 -0.51692,-0.94771 -1.22005,-1.85202 -2.1103,-2.71357 -0.89026,-0.89025 -2.03877,-1.59338 -3.44594,-2.1103 -1.40717,-0.54564 -3.20226,-0.81919 -5.38482,-0.81919 z m 93.51875,0.64555 c -0.94767,2.03899 -2.2816,3.76396 -4.00466,5.17113 -1.69436,1.37845 -4.09308,2.56992 -7.19462,3.57505 l 0,7.45282 c 2.09641,-0.6605 3.83496,-1.33646 5.21344,-2.02571 1.40717,-0.68922 2.84279,-1.59355 4.30741,-2.71354 l 0,21.75298 9.21807,0 0,-33.21273 -7.53964,0 z m -58.62758,2.28394 c -0.94769,2.03897 -2.28159,3.76173 -4.00468,5.1689 -1.69435,1.37846 -4.09307,2.56994 -7.19459,3.57505 l 0,7.45282 c 2.0964,-0.63179 3.83496,-1.30553 5.21342,-2.02347 1.40717,-0.68924 2.85638,-1.59356 4.34969,-2.71357 l 0,21.753 9.1758,0 0,-33.21273 -7.53964,0 z m -35.2362,3.1009 c 1.49333,0 2.59887,0.7483 3.31681,2.24163 0.74666,1.49333 1.11971,4.40754 1.11971,8.74395 0,2.95794 -0.17183,5.12607 -0.51643,6.50453 -0.31589,1.40716 -0.80424,2.44036 -1.46477,3.10089 -0.68922,0.63179 -1.49405,0.94829 -2.41303,0.94829 -1.37846,0 -2.44105,-0.76189 -3.18771,-2.28391 -0.71795,-1.52208 -1.07519,-4.36395 -1.07519,-8.52805 0,-4.10664 0.3301,-6.92137 0.9906,-8.44342 0.66051,-1.52204 1.73667,-2.28392 3.23001,-2.28392 z"
         clip-path="none"
         style="color:#000000;text-indent:0;text-decoration:none;text-decoration-line:none;text-decoration-style:solid;text-decoration-color:#000000;text-transform:none;block-progression:tb;white-space:normal;isolation:auto;mix-blend-mode:normal;solid-color:#000000;fill:#000000;fill-rule:evenodd;stroke-width:3.77952743;color-rendering:auto;image-rendering:auto;shape-rendering:auto" />
      <text
         sodipodi:linespacing="125%"
         id="text10890"
         y="748.45148"
         x="525.65594"
         style="font-style:normal;font-variant:normal;font-weight:normal;font-stretch:normal;font-size:212.0425415px;line-height:125%;font-family:DIN;-inkscape-font-specification:DIN;letter-spacing:0px;word-spacing:0px;fill:#000000;fill-opacity:1;stroke:none;stroke-width:1px;stroke-linecap:butt;stroke-linejoin:miter;stroke-opacity:1"
         xml:space="preserve"><tspan
           style="font-style:normal;font-variant:normal;font-weight:normal;font-stretch:condensed;font-family:'Viking Squad Condensed';-inkscape-font-specification:'Viking Squad Condensed, Condensed';text-align:center;text-anchor:middle"
           y="748.45148"
           x="525.65594"
           id="tspan10892"
           sodipodi:role="line">SCHNELLER</tspan></text>
      <text
         xml:space="preserve"
         style="font-style:normal;font-variant:normal;font-weight:normal;font-stretch:normal;font-size:151.71578979px;line-height:125%;font-family:DIN;-inkscape-font-specification:DIN;letter-spacing:0px;word-spacing:0px;fill:#000000;fill-opacity:1;stroke:none;stroke-width:1px;stroke-linecap:butt;stroke-linejoin:miter;stroke-opacity:1"
         x="526.96692"
         y="873.45709"
         id="text10894"
         sodipodi:linespacing="125%"><tspan
           sodipodi:role="line"
           id="tspan10896"
           x="526.96692"
           y="873.45709"
           style="font-style:normal;font-variant:normal;font-weight:normal;font-stretch:condensed;font-family:'Viking Squad Condensed';-inkscape-font-specification:'Viking Squad Condensed, Condensed';text-align:center;text-anchor:middle">Vortragssaal</tspan></text>
    </g>
  </g>
</svg>
