<?xml version="1.0" encoding="UTF-8" standalone="no"?>
<!-- Created with Inkscape (http://www.inkscape.org/) -->

<svg
   xmlns:dc="http://purl.org/dc/elements/1.1/"
   xmlns:cc="http://creativecommons.org/ns#"
   xmlns:rdf="http://www.w3.org/1999/02/22-rdf-syntax-ns#"
   xmlns:svg="http://www.w3.org/2000/svg"
   xmlns="http://www.w3.org/2000/svg"
   xmlns:sodipodi="http://sodipodi.sourceforge.net/DTD/sodipodi-0.dtd"
   xmlns:inkscape="http://www.inkscape.org/namespaces/inkscape"
   width="297mm"
   height="210mm"
   viewBox="0 0 1052.3622 744.09448"
   id="svg9118"
   version="1.1"
   inkscape:version="0.91 r13725"
   sodipodi:docname="saal3.svg">
  <defs
     id="defs9120" />
  <sodipodi:namedview
     id="base"
     pagecolor="#ffffff"
     bordercolor="#666666"
     borderopacity="1.0"
     inkscape:pageopacity="0.0"
     inkscape:pageshadow="2"
     inkscape:zoom="0.49497475"
     inkscape:cx="127.10037"
     inkscape:cy="388.45159"
     inkscape:document-units="px"
     inkscape:current-layer="layer1"
     showgrid="false"
     inkscape:window-width="1916"
     inkscape:window-height="987"
     inkscape:window-x="1920"
     inkscape:window-y="72"
     inkscape:window-maximized="0" />
  <metadata
     id="metadata9123">
    <rdf:RDF>
      <cc:Work
         rdf:about="">
        <dc:format>image/svg+xml</dc:format>
        <dc:type
           rdf:resource="http://purl.org/dc/dcmitype/StillImage" />
        <dc:title />
      </cc:Work>
    </rdf:RDF>
  </metadata>
  <g
     inkscape:label="Ebene 1"
     inkscape:groupmode="layer"
     id="layer1"
     transform="translate(0,-308.26772)">
    <text
       xml:space="preserve"
       style="font-style:normal;font-variant:normal;font-weight:normal;font-stretch:normal;font-size:212.0425415px;line-height:125%;font-family:DIN;-inkscape-font-specification:DIN;letter-spacing:0px;word-spacing:0px;fill:#000000;fill-opacity:1;stroke:none;stroke-width:1px;stroke-linecap:butt;stroke-linejoin:miter;stroke-opacity:1"
       x="525.65594"
       y="815.10504"
       id="text10890"
       sodipodi:linespacing="125%"><tspan
         sodipodi:role="line"
         id="tspan10892"
         x="525.65594"
         y="815.10504"
         style="font-style:normal;font-variant:normal;font-weight:normal;font-stretch:condensed;font-family:'Viking Squad Condensed';-inkscape-font-specification:'Viking Squad Condensed, Condensed';text-align:center;text-anchor:middle">WEITER</tspan></text>
    <text
       sodipodi:linespacing="125%"
       id="text10894"
       y="940.11066"
       x="526.96692"
       style="font-style:normal;font-variant:normal;font-weight:normal;font-stretch:normal;font-size:151.71578979px;line-height:125%;font-family:DIN;-inkscape-font-specification:DIN;letter-spacing:0px;word-spacing:0px;fill:#000000;fill-opacity:1;stroke:none;stroke-width:1px;stroke-linecap:butt;stroke-linejoin:miter;stroke-opacity:1"
       xml:space="preserve"><tspan
         style="font-style:normal;font-variant:normal;font-weight:normal;font-stretch:condensed;font-family:'Viking Squad Condensed';-inkscape-font-specification:'Viking Squad Condensed, Condensed';text-align:center;text-anchor:middle"
         y="940.11066"
         x="526.96692"
         id="tspan10896"
         sodipodi:role="line">WORKSHOPS</tspan></text>
    <path
       inkscape:connector-curvature="0"
       style="color:#000000;text-indent:0;text-decoration:none;text-decoration-line:none;text-decoration-style:solid;text-decoration-color:#000000;text-transform:none;block-progression:tb;white-space:normal;isolation:auto;mix-blend-mode:normal;solid-color:#000000;fill:#000000;fill-rule:evenodd;stroke-width:3.77952743;color-rendering:auto;image-rendering:auto;shape-rendering:auto"
       clip-path="none"
       d="m 429.40417,410.37595 c -16.06492,0 -29.1586,13.09368 -29.1586,29.1586 l 0,196.44049 c 0,16.06493 13.09368,29.15859 29.1586,29.15859 l 193.51144,0 c 16.065,0 29.201,-13.09366 29.201,-29.15859 l 0,-196.44049 c 0,-16.06492 -13.136,-29.1586 -29.201,-29.1586 l -193.51144,0 z m 0,12.01643 193.51144,0 c 9.6045,0 17.1422,7.53767 17.1422,17.14217 l 0,196.44049 c 0,9.60449 -7.5377,17.09764 -17.1422,17.09765 l -193.51144,0 c -9.6045,0 -17.14217,-7.49316 -17.14217,-17.09765 l 0,-196.44049 c 0,-9.6045 7.53767,-17.14217 17.14217,-17.14217 z m 29.71723,21.49337 a 22.187673,22.187673 0 0 0 -22.18109,22.17887 22.187673,22.187673 0 0 0 22.18109,22.1811 22.187673,22.187673 0 0 0 22.22562,-22.1811 22.187673,22.187673 0 0 0 -22.22562,-22.17887 z m 15.37721,47.41805 a 6.3398273,6.3398273 0 0 0 -5.72889,9.26105 c 8.8723,17.57234 16.97025,36.86755 18.34848,57.02407 0.0366,0.55047 0.0486,1.10405 0.0757,1.6559 a 6.3398273,6.3398273 0 0 0 0.10016,2.39483 c 0.43093,18.88247 -5.01925,38.58161 -22.09874,59.51906 a 6.3398273,6.3398273 0 1 0 9.81968,8.01021 c 9.25432,-11.3594 15.55567,-22.77199 19.5125,-34.0217 0.40376,9.58511 -0.63335,19.21822 -3.44757,28.29503 a 6.3414309,6.3414309 0 1 0 12.10324,3.79032 c 7.05534,-22.64451 4.60684,-47.18648 -3.33406,-68.07455 -0.0351,-0.81091 -0.0589,-1.62434 -0.11353,-2.43044 -0.97781,-14.44952 -4.88649,-28.07559 -9.9399,-40.71877 l 40.26253,8.97616 a 6.3532955,6.3532955 0 0 0 6.0983,-2.03872 l 33.7657,7.44267 c -0.7589,3.80185 -1.0215,7.59216 0.3629,11.17734 1.6797,4.3931 5.8992,7.70977 12.5751,9.30335 6.6757,1.59355 13.9981,1.37791 20.2002,-0.47408 6.202,-1.89506 11.6724,-5.55583 13.0937,-11.41329 1.4213,-5.9005 -1.8097,-11.62798 -6.4612,-16.10721 -4.6515,-4.5223 -11.0695,-8.05474 -17.7454,-9.64832 -6.6757,-1.63663 -11.9716,-0.60234 -15.4172,2.54173 -2.6428,2.34918 -4.1474,5.49015 -5.1903,8.87823 l -33.8125,-7.44489 a 6.3532955,6.3532955 0 0 0 -4.7139,-4.62051 l -49.3767,-10.97036 c -1.10101,-2.29711 -2.21898,-4.55781 -3.34074,-6.77495 a 6.3398273,6.3398273 0 0 0 -5.59757,-3.53216 z m 110.9278,26.99079 c 1.2106,-0.0343 2.6768,0.13664 4.4134,0.50968 -0.7598,1.73996 -1.471,3.48007 -2.0921,5.21698 l -8.8582,-1.91853 c 0.4779,-0.77481 0.9933,-1.43823 1.5602,-1.94079 1.1844,-1.07674 2.6713,-1.80215 4.9767,-1.86734 z m 8.7224,1.77386 c 4.3316,1.6118 8.478,4.15258 11.4533,7.02645 3.7901,3.70399 5.5129,7.58094 4.7808,10.50966 -0.6892,2.92873 -3.963,5.59915 -9.0452,7.10658 -3.9509,1.21568 -8.7715,1.59575 -13.3697,1.0661 0.3107,-8.48394 2.3104,-17.03606 6.1808,-25.70879 z m -17.0932,6.15399 9.3144,2.04095 c -0.5814,1.97935 -1.075,3.95566 -1.48,5.92921 l -9.2655,-2.17004 c 0.1485,-0.86107 0.3322,-1.75497 0.5608,-2.68861 0.2618,-1.10436 0.5519,-2.14185 0.8703,-3.11151 z m -1.7917,10.28931 8.8715,2.05652 c -0.299,2.13152 -0.494,4.25859 -0.592,6.38102 -5.0012,-1.33007 -6.8817,-3.2312 -7.7454,-5.49297 -0.3206,-0.83991 -0.4885,-1.83338 -0.5341,-2.94457 z m 25.2993,18.23498 c -2.7565,15.20352 -11.8447,29.24216 -24.3779,38.37289 -14.2129,10.42282 -32.3017,15.16049 -50.3047,16.06494 4.5653,2.67031 13.0492,4.2647 23.3428,3.14488 10.4229,-1.11981 21.8797,-5.03881 31.8717,-12.4037 9.1739,-6.84805 15.4189,-15.84984 18.5199,-24.63602 3.1441,-8.70002 2.8862,-16.19298 0.9482,-20.54299 z"
       id="path7128" />
  </g>
</svg>
