<?xml version="1.0" encoding="UTF-8" standalone="no"?>
<!-- Created with Inkscape (http://www.inkscape.org/) -->

<svg
   xmlns:dc="http://purl.org/dc/elements/1.1/"
   xmlns:cc="http://creativecommons.org/ns#"
   xmlns:rdf="http://www.w3.org/1999/02/22-rdf-syntax-ns#"
   xmlns:svg="http://www.w3.org/2000/svg"
   xmlns="http://www.w3.org/2000/svg"
   xmlns:sodipodi="http://sodipodi.sourceforge.net/DTD/sodipodi-0.dtd"
   xmlns:inkscape="http://www.inkscape.org/namespaces/inkscape"
   width="297mm"
   height="210mm"
   viewBox="0 0 1052.3622 744.09448"
   id="svg9118"
   version="1.1"
   inkscape:version="0.91 r13725"
   sodipodi:docname="saal2.svg">
  <defs
     id="defs9120" />
  <sodipodi:namedview
     id="base"
     pagecolor="#ffffff"
     bordercolor="#666666"
     borderopacity="1.0"
     inkscape:pageopacity="0.0"
     inkscape:pageshadow="2"
     inkscape:zoom="0.49497475"
     inkscape:cx="-62.808312"
     inkscape:cy="388.45159"
     inkscape:document-units="px"
     inkscape:current-layer="layer1"
     showgrid="false"
     inkscape:window-width="1364"
     inkscape:window-height="676"
     inkscape:window-x="0"
     inkscape:window-y="72"
     inkscape:window-maximized="0" />
  <metadata
     id="metadata9123">
    <rdf:RDF>
      <cc:Work
         rdf:about="">
        <dc:format>image/svg+xml</dc:format>
        <dc:type
           rdf:resource="http://purl.org/dc/dcmitype/StillImage" />
        <dc:title />
      </cc:Work>
    </rdf:RDF>
  </metadata>
  <g
     inkscape:label="Ebene 1"
     inkscape:groupmode="layer"
     id="layer1"
     transform="translate(0,-308.26772)">
    <text
       xml:space="preserve"
       style="font-style:normal;font-variant:normal;font-weight:normal;font-stretch:normal;font-size:212.0425415px;line-height:125%;font-family:DIN;-inkscape-font-specification:DIN;letter-spacing:0px;word-spacing:0px;fill:#000000;fill-opacity:1;stroke:none;stroke-width:1px;stroke-linecap:butt;stroke-linejoin:miter;stroke-opacity:1"
       x="525.65594"
       y="815.10504"
       id="text10890"
       sodipodi:linespacing="125%"><tspan
         sodipodi:role="line"
         id="tspan10892"
         x="525.65594"
         y="815.10504"
         style="font-style:normal;font-variant:normal;font-weight:normal;font-stretch:condensed;font-family:'Viking Squad Condensed';-inkscape-font-specification:'Viking Squad Condensed, Condensed';text-align:center;text-anchor:middle">HÖHER</tspan></text>
    <text
       sodipodi:linespacing="125%"
       id="text10894"
       y="940.11066"
       x="526.96692"
       style="font-style:normal;font-variant:normal;font-weight:normal;font-stretch:normal;font-size:151.71578979px;line-height:125%;font-family:DIN;-inkscape-font-specification:DIN;letter-spacing:0px;word-spacing:0px;fill:#000000;fill-opacity:1;stroke:none;stroke-width:1px;stroke-linecap:butt;stroke-linejoin:miter;stroke-opacity:1"
       xml:space="preserve"><tspan
         style="font-style:normal;font-variant:normal;font-weight:normal;font-stretch:condensed;font-family:'Viking Squad Condensed';-inkscape-font-specification:'Viking Squad Condensed, Condensed';text-align:center;text-anchor:middle"
         y="940.11066"
         x="526.96692"
         id="tspan10896"
         sodipodi:role="line">Vortragssaal</tspan></text>
    <path
       inkscape:connector-curvature="0"
       style="color:#000000;text-indent:0;text-decoration:none;text-decoration-line:none;text-decoration-style:solid;text-decoration-color:#000000;text-transform:none;block-progression:tb;white-space:normal;isolation:auto;mix-blend-mode:normal;solid-color:#000000;fill:#000000;fill-rule:evenodd;stroke-width:3.77952743;color-rendering:auto;image-rendering:auto;shape-rendering:auto"
       clip-path="none"
       d="m 429.40908,410.35456 c -16.0676,0 -29.16349,13.09587 -29.16349,29.1635 l 0,196.47348 c 0,16.06763 13.09589,29.16349 29.16349,29.16349 l 193.54402,0 c 16.0676,0 29.16349,-13.09586 29.16349,-29.16349 l 0,-196.47348 c 0,-16.06763 -13.09589,-29.1635 -29.16349,-29.1635 l -193.54402,0 z m 0,12.01844 193.54402,0 c 9.60609,0 17.14505,7.53894 17.14505,17.14506 l 0,196.47348 c 0,9.60611 -7.53896,17.10051 -17.14505,17.10053 l -193.54402,0 c -9.60609,0 -17.14505,-7.49442 -17.14505,-17.10053 l 0,-196.47348 c 0,-9.60612 7.53896,-17.14506 17.14505,-17.14506 z m 171.62854,43.10971 c -11.17033,0.099 -22.58218,1.56229 -33.43751,4.40536 -8.59739,2.25575 -16.85507,5.35668 -24.36412,9.33606 -0.56512,0.0488 -1.13859,0.0836 -1.69849,0.14023 -5.34151,0.56 -10.42385,1.46446 -15.24844,2.58445 -11.53216,2.71952 -21.4007,6.84502 -28.98318,11.16143 l -21.84869,-25.16106 a 6.0225555,6.0225555 0 0 0 -5.98587,-1.98119 6.0225555,6.0225555 0 0 0 -3.10311,9.86363 l 21.19423,24.42423 -17.4144,21.50811 c -0.48317,-0.50791 -0.95678,-1.0243 -1.4536,-1.52039 a 3.2336828,3.2336828 0 0 0 -2.32623,-0.9906 3.2336828,3.2336828 0 0 0 -2.23941,5.55624 c 0.65827,0.65721 1.29322,1.33514 1.92554,2.01458 l -1.02177,1.25992 a 6.0351074,6.0351074 0 0 0 8.63263,8.35662 c 18.13199,27.06281 18.93822,64.91913 -5.74542,91.58195 a 3.2336828,3.2336828 0 1 0 4.73925,4.39422 c 27.29413,-29.49894 25.99209,-71.63672 5.30023,-101.11836 l 19.69387,-24.33964 a 6.0335469,6.0335469 0 0 0 1.10857,-0.58546 c 8.74457,-5.94458 24.85626,-13.05177 43.98233,-14.99022 19.16912,-1.98153 41.35443,0.99053 63.49587,14.732 a 6.0242785,6.0242785 0 1 0 6.33089,-10.20867 c -12.88404,-8.00167 -25.92889,-12.73006 -38.504,-15.12825 12.17298,-2.78865 25.11838,-3.80638 37.12608,-2.92057 a 6.0261998,6.0261998 0 1 0 0.90377,-12.01845 c -3.63998,-0.26923 -7.33557,-0.38915 -11.05902,-0.35617 z m -150.35194,12.4414 a 21.077006,21.077006 0 0 0 -4.17607,0.53648 21.077006,21.077006 0 0 0 -15.76489,25.32801 21.077006,21.077006 0 0 0 25.28571,15.76711 21.077006,21.077006 0 0 0 15.76712,-25.33023 21.077006,21.077006 0 0 0 -21.11187,-16.30137 z m 58.71654,26.38093 c -5.85843,5.90151 -9.51858,14.00031 -9.51858,22.9172 0,8.95995 3.66015,17.05797 9.51858,22.95949 l 4.56564,-4.56564 c -4.69537,-4.69536 -7.62422,-11.20004 -7.62422,-18.39385 0,-7.19382 2.92885,-13.65398 7.62422,-18.34935 l -4.56564,-4.56785 z m 45.8767,0 -4.56564,4.56785 c 4.69537,4.69537 7.62423,11.15553 7.62423,18.34935 0,7.19381 -2.92886,13.69849 -7.62423,18.39385 l 4.56564,4.56564 c 5.85843,-5.90152 9.52082,-13.99954 9.52082,-22.95949 0,-8.91689 -3.66239,-17.01569 -9.52082,-22.9172 z m -36.91684,8.95985 c -3.57537,3.57537 -5.81443,8.52968 -5.81443,13.95735 0,5.47073 2.23906,10.42426 5.81443,13.99963 l 4.56564,-4.56563 c -2.4123,-2.36922 -3.92009,-5.72941 -3.92009,-9.434 0,-3.66152 1.50779,-7.02171 3.92009,-9.434 l -4.56564,-4.52335 z m 27.95697,0 -4.52332,4.52335 c 2.36922,2.41229 3.87778,5.77248 3.87778,9.434 0,3.70459 -1.50856,7.06478 -3.87778,9.434 l 4.52332,4.56563 c 3.57538,-3.57537 5.81668,-8.5289 5.81668,-13.99963 0,-5.42767 -2.2413,-10.38198 -5.81668,-13.95735 z m -14.04192,10.4246 a 3.2336828,3.2336828 0 0 0 -3.1454,3.27452 l 0,103.21086 a 3.2336828,3.2336828 0 1 0 6.46222,0 l 0,-103.21086 a 3.2336828,3.2336828 0 0 0 -3.31682,-3.27452 z"
       id="path7080" />
  </g>
</svg>
