<?xml version="1.0" encoding="UTF-8" standalone="no"?>
<!-- Created with Inkscape (http://www.inkscape.org/) -->

<svg
   xmlns:dc="http://purl.org/dc/elements/1.1/"
   xmlns:cc="http://creativecommons.org/ns#"
   xmlns:rdf="http://www.w3.org/1999/02/22-rdf-syntax-ns#"
   xmlns:svg="http://www.w3.org/2000/svg"
   xmlns="http://www.w3.org/2000/svg"
   xmlns:sodipodi="http://sodipodi.sourceforge.net/DTD/sodipodi-0.dtd"
   xmlns:inkscape="http://www.inkscape.org/namespaces/inkscape"
   width="297mm"
   height="210mm"
   viewBox="0 0 1052.3622 744.09448"
   id="svg9118"
   version="1.1"
   inkscape:version="0.91 r13725"
   sodipodi:docname="voc.svg">
  <defs
     id="defs9120" />
  <sodipodi:namedview
     id="base"
     pagecolor="#ffffff"
     bordercolor="#666666"
     borderopacity="1.0"
     inkscape:pageopacity="0.0"
     inkscape:pageshadow="2"
     inkscape:zoom="0.7"
     inkscape:cx="422.26741"
     inkscape:cy="303.87987"
     inkscape:document-units="px"
     inkscape:current-layer="g15927"
     showgrid="false"
     inkscape:window-width="1916"
     inkscape:window-height="1005"
     inkscape:window-x="1920"
     inkscape:window-y="54"
     inkscape:window-maximized="0" />
  <metadata
     id="metadata9123">
    <rdf:RDF>
      <cc:Work
         rdf:about="">
        <dc:format>image/svg+xml</dc:format>
        <dc:type
           rdf:resource="http://purl.org/dc/dcmitype/StillImage" />
        <dc:title></dc:title>
      </cc:Work>
    </rdf:RDF>
  </metadata>
  <g
     inkscape:label="Ebene 1"
     inkscape:groupmode="layer"
     id="layer1"
     transform="translate(0,-308.26772)">
    <g
       id="g15927"
       transform="translate(0,67.258808)">
      <text
         sodipodi:linespacing="125%"
         id="text10890"
         y="691.10852"
         x="526.08502"
         style="font-style:normal;font-variant:normal;font-weight:normal;font-stretch:normal;font-size:212.0425415px;line-height:125%;font-family:DIN;-inkscape-font-specification:DIN;letter-spacing:0px;word-spacing:0px;fill:#000000;fill-opacity:1;stroke:none;stroke-width:1px;stroke-linecap:butt;stroke-linejoin:miter;stroke-opacity:1"
         xml:space="preserve"><tspan
           style="font-style:normal;font-variant:normal;font-weight:normal;font-stretch:condensed;font-family:'Viking Squad Condensed';-inkscape-font-specification:'Viking Squad Condensed, Condensed';text-align:center;text-anchor:middle"
           y="691.10852"
           x="526.08502"
           sodipodi:role="line"
           id="tspan18226">VIDEO</tspan></text>
      <text
         xml:space="preserve"
         style="font-style:normal;font-variant:normal;font-weight:normal;font-stretch:normal;font-size:212.0425415px;line-height:125%;font-family:DIN;-inkscape-font-specification:DIN;letter-spacing:0px;word-spacing:0px;fill:#000000;fill-opacity:1;stroke:none;stroke-width:1px;stroke-linecap:butt;stroke-linejoin:miter;stroke-opacity:1"
         x="526.08502"
         y="817.89392"
         id="text18249"
         sodipodi:linespacing="125%"><tspan
           id="tspan18251"
           sodipodi:role="line"
           x="526.08502"
           y="817.89392"
           style="font-style:normal;font-variant:normal;font-weight:normal;font-stretch:condensed;font-family:'Viking Squad Condensed';-inkscape-font-specification:'Viking Squad Condensed, Condensed';text-align:center;text-anchor:middle">OPERATION</tspan></text>
      <text
         sodipodi:linespacing="125%"
         id="text18253"
         y="931.10852"
         x="526.08502"
         style="font-style:normal;font-variant:normal;font-weight:normal;font-stretch:normal;font-size:212.0425415px;line-height:125%;font-family:DIN;-inkscape-font-specification:DIN;letter-spacing:0px;word-spacing:0px;fill:#000000;fill-opacity:1;stroke:none;stroke-width:1px;stroke-linecap:butt;stroke-linejoin:miter;stroke-opacity:1"
         xml:space="preserve"><tspan
           style="font-style:normal;font-variant:normal;font-weight:normal;font-stretch:condensed;font-family:'Viking Squad Condensed';-inkscape-font-specification:'Viking Squad Condensed, Condensed';text-align:center;text-anchor:middle"
           y="931.10852"
           x="526.08502"
           sodipodi:role="line"
           id="tspan18255">CENTER</tspan></text>
      <g
         style="display:inline;opacity:1;fill:#000000;fill-opacity:1"
         id="g32688"
         transform="matrix(1.5186565,0,0,1.5186565,28.933993,416.55813)">
        <path
           style="color:#000000;font-style:normal;font-variant:normal;font-weight:normal;font-stretch:normal;font-size:medium;line-height:normal;font-family:sans-serif;text-indent:0;text-align:start;text-decoration:none;text-decoration-line:none;text-decoration-style:solid;text-decoration-color:#000000;letter-spacing:normal;word-spacing:normal;text-transform:none;direction:ltr;block-progression:tb;writing-mode:lr-tb;baseline-shift:baseline;text-anchor:start;white-space:normal;clip-rule:nonzero;display:inline;overflow:visible;visibility:visible;opacity:1;isolation:auto;mix-blend-mode:normal;color-interpolation:sRGB;color-interpolation-filters:linearRGB;solid-color:#000000;solid-opacity:1;fill:#000000;fill-opacity:1;fill-rule:nonzero;stroke:none;stroke-width:2.79670215;stroke-linecap:round;stroke-linejoin:round;stroke-miterlimit:4;stroke-dasharray:none;stroke-dashoffset:0;stroke-opacity:1;marker:none;paint-order:normal;color-rendering:auto;image-rendering:auto;shape-rendering:auto;text-rendering:auto;enable-background:accumulate"
           d="m 262.8641,-80.459572 c -10.56933,0 -19.19851,8.62919 -19.19851,19.19851 l 0,129.36684 c 0,10.56929 8.62918,19.1985 19.19851,19.1985 l 127.44863,0 c 10.56932,0 19.20406,-8.62921 19.20406,-19.1985 l 0,-129.36684 c 0,-10.56932 -8.63474,-19.19851 -19.20406,-19.19851 l -127.44863,0 z m 0,7.93331 127.44863,0 c 6.31223,0 11.27077,4.95296 11.27077,11.2652 l 0,129.36684 c 0,6.31224 -4.95854,11.2652 -11.27077,11.2652 l -127.44863,0 c -6.31224,0 -11.26521,-4.95296 -11.26521,-11.2652 l 0,-129.36684 c 0,-6.31224 4.95297,-11.2652 11.26521,-11.2652 z"
           id="path7168"
           inkscape:connector-curvature="0" />
        <g
           style="fill:#000000;fill-opacity:1"
           transform="matrix(1.1407568,0,0,1.1407568,-45.433482,-4.7568706)"
           id="g31201">
          <path
             inkscape:connector-curvature="0"
             id="path17315"
             d="m 326.04883,23.84375 c -1.43524,0.03962 -2.84531,0.252794 -4.21485,0.630859 -10.9563,3.024525 -18.91556,14.560168 -26.91406,26.15625 a 3.2307622,3.2307622 0 1 0 5.31836,3.667969 c 7.91887,-11.480638 15.99125,-21.575521 23.31641,-23.597656 3.66258,-1.011068 7.24831,-0.524504 11.92773,2.878906 4.67942,3.40341 10.18142,9.907047 16.2832,20.498047 a 3.2307622,3.2307622 0 1 0 5.59766,-3.224609 c -6.36086,-11.04068 -12.22529,-18.23978 -18.08008,-22.498047 -4.39109,-3.193701 -8.92867,-4.630577 -13.23437,-4.511719 z"
             style="color:#000000;font-style:normal;font-variant:normal;font-weight:normal;font-stretch:normal;font-size:medium;line-height:normal;font-family:sans-serif;text-indent:0;text-align:start;text-decoration:none;text-decoration-line:none;text-decoration-style:solid;text-decoration-color:#000000;letter-spacing:normal;word-spacing:normal;text-transform:none;direction:ltr;block-progression:tb;writing-mode:lr-tb;baseline-shift:baseline;text-anchor:start;white-space:normal;clip-rule:nonzero;display:inline;overflow:visible;visibility:visible;opacity:1;isolation:auto;mix-blend-mode:normal;color-interpolation:sRGB;color-interpolation-filters:linearRGB;solid-color:#000000;solid-opacity:1;fill:#000000;fill-opacity:1;fill-rule:evenodd;stroke:none;stroke-width:6.46087837;stroke-linecap:round;stroke-linejoin:miter;stroke-miterlimit:4;stroke-dasharray:none;stroke-dashoffset:0;stroke-opacity:1;color-rendering:auto;image-rendering:auto;shape-rendering:auto;text-rendering:auto;enable-background:accumulate" />
          <path
             inkscape:connector-curvature="0"
             id="path17342"
             transform="matrix(0.57566363,0,0,0.57566363,-485.05819,-376.14435)"
             d="m 1312.6621,609.22461 a 5.612305,5.612305 0 0 0 0,11.22461 l 44.2285,0 c -1.4333,-3.59325 -0.1051,-6.92051 2.3321,-8.60156 1.4764,-1.01836 3.3516,-1.44057 5.2285,-1.0625 1.8768,0.37806 3.7547,1.55658 5.2441,3.73242 1.4091,2.00475 2.8285,3.98029 4.2598,5.93164 l 14.0215,0 c -0.4437,-1.72872 -0.6797,-3.54051 -0.6797,-5.40625 0,-2.01609 0.2814,-3.96492 0.7969,-5.81836 l -75.4317,0 z m 77.7637,0 c -0.5728,1.83752 -0.8828,3.79023 -0.8828,5.81836 0,1.87848 0.2793,3.68848 0.7734,5.40625 l 37.4297,0 c 0.4941,-1.7178 0.7734,-3.52773 0.7734,-5.40625 0,-2.02813 -0.31,-3.98084 -0.8828,-5.81836 l -37.2109,0 z m 39.5449,0 c 0.5153,1.85344 0.7949,3.80227 0.7949,5.81836 0,1.86574 -0.2341,3.67753 -0.6777,5.40625 l 15.1797,0 c 1.1079,-1.71647 2.2051,-3.45214 3.2812,-5.21875 2.6618,-4.49609 7.1557,-5.1946 10.2598,-3.40625 2.5896,1.49195 4.2266,4.80684 2.9336,8.625 l 43.2363,0 a 5.612305,5.612305 0 0 0 0,-11.22461 l -75.0078,0 z m -66.916,2.50586 c -1.1614,0.018 -2.2664,0.40027 -3.1953,1.04101 -2.1307,1.46965 -3.3561,4.33882 -1.7656,7.67774 l 14.4667,0 c -1.2718,-1.74509 -2.5319,-3.50997 -3.7851,-5.29297 l 0,-0.004 0,-0.004 c -1.6901,-2.46911 -3.783,-3.44793 -5.7187,-3.41797 z m 92.5,0.27539 c -2.1068,-0.0861 -4.3834,0.99557 -6.043,3.79883 l 0,0.002 c -0.9535,1.56534 -1.9209,3.11187 -2.9004,4.64258 l 13.9649,0 c 1.4243,-3.54503 -0.084,-6.36355 -2.3243,-7.6543 -0.814,-0.46899 -1.7357,-0.74993 -2.6933,-0.78906 z"
             style="color:#000000;font-style:normal;font-variant:normal;font-weight:normal;font-stretch:normal;font-size:medium;line-height:normal;font-family:sans-serif;text-indent:0;text-align:start;text-decoration:none;text-decoration-line:none;text-decoration-style:solid;text-decoration-color:#000000;letter-spacing:normal;word-spacing:normal;text-transform:none;direction:ltr;block-progression:tb;writing-mode:lr-tb;baseline-shift:baseline;text-anchor:start;white-space:normal;clip-rule:nonzero;display:inline;overflow:visible;visibility:visible;opacity:1;isolation:auto;mix-blend-mode:normal;color-interpolation:sRGB;color-interpolation-filters:linearRGB;solid-color:#000000;solid-opacity:1;fill:#000000;fill-opacity:1;fill-rule:evenodd;stroke:none;stroke-width:11.2233572;stroke-linecap:round;stroke-linejoin:miter;stroke-miterlimit:4;stroke-dasharray:none;stroke-dashoffset:0;stroke-opacity:1;color-rendering:auto;image-rendering:auto;shape-rendering:auto;text-rendering:auto;enable-background:accumulate" />
          <path
             inkscape:connector-curvature="0"
             id="path17200"
             transform="matrix(0.57566363,0,0,0.57566363,-485.05819,-376.14435)"
             d="m 1409.0312,595.55469 c -10.777,0 -19.4882,8.71118 -19.4882,19.48828 0,10.7771 8.7112,19.49024 19.4882,19.49023 10.7772,1e-5 19.4883,-8.71313 19.4883,-19.49023 0,-10.7771 -8.7111,-19.48828 -19.4883,-19.48828 z"
             style="opacity:1;fill:#000000;fill-opacity:1;fill-rule:evenodd;stroke:none;stroke-width:2.24467134;stroke-linecap:round;stroke-linejoin:miter;stroke-miterlimit:4;stroke-dasharray:none;stroke-dashoffset:0;stroke-opacity:1;marker:none;paint-order:normal" />
          <path
             inkscape:connector-curvature="0"
             id="path17204"
             transform="matrix(0.57566363,0,0,0.57566363,-485.05819,-376.14435)"
             d="m 1363.0547,611.73047 c -1.1614,0.018 -2.2664,0.40027 -3.1953,1.04101 -2.4551,1.69342 -3.7156,5.243 -0.8418,9.23047 l 0,0.004 0,0.004 c 5.2408,7.46014 10.7938,14.89929 17.1992,21.82812 l 0.01,0.008 c 6.4451,7.22498 14.6843,14.21549 25.3554,17.41797 l 0.014,0.004 c 4.9061,1.35104 10.1026,1.52382 15.127,0.45898 5.8634,-1.32464 11.0579,-3.99167 15.4589,-7.25781 11.8691,-8.81002 20.4279,-20.54181 27.5899,-32.44922 l 0,-0.004 0,-0.002 c 2.6387,-4.27081 1.0335,-7.74336 -1.5274,-9.21875 -2.6049,-1.50077 -6.3223,-1.0677 -8.7363,3.00977 l 0,0.002 c -6.9028,11.33243 -14.3492,21.95334 -24.332,29.0332 -3.5135,2.48878 -7.1898,4.50078 -10.9492,5.24219 l -0.01,0 c -0.038,0.008 -0.078,0.002 -0.1153,0.01 -3.0475,0.64581 -6.3098,0.53104 -9.3496,-0.3086 0,-2.9e-4 0,3e-4 0,0 -7.2242,-1.74147 -13.5042,-7.58208 -19.6094,-13.86718 l -0.025,0 -0.1582,-0.16993 -0.01,-0.006 c -5.8461,-6.2708 -11.054,-13.29995 -16.1738,-20.58398 l 0,-0.004 0,-0.004 c -1.6901,-2.46911 -3.783,-3.44793 -5.7187,-3.41797 z m 51.0488,38.36133 -0.051,-0.54688 c 0,5.7e-4 -0.01,10e-4 -0.01,0.002 l 0.059,0.54492 z m 0.1094,-0.006 -0.055,0.01 -0.055,0 0.1094,-0.01 z"
             style="opacity:1;fill:#000000;fill-opacity:1;fill-rule:evenodd;stroke:none;stroke-width:1.12024081;stroke-linecap:round;stroke-linejoin:miter;stroke-miterlimit:4;stroke-dasharray:none;stroke-dashoffset:0;stroke-opacity:1" />
          <path
             inkscape:connector-curvature="0"
             id="path17317"
             d="m 326.02148,-9.1425781 a 3.2307622,3.2307622 0 0 0 -3.18164,3.2773437 l 0,32.2343754 a 3.2307622,3.2307622 0 1 0 6.46094,0 l 0,-32.2343754 a 3.2307622,3.2307622 0 0 0 -3.2793,-3.2773437 z"
             style="color:#000000;font-style:normal;font-variant:normal;font-weight:normal;font-stretch:normal;font-size:medium;line-height:normal;font-family:sans-serif;text-indent:0;text-align:start;text-decoration:none;text-decoration-line:none;text-decoration-style:solid;text-decoration-color:#000000;letter-spacing:normal;word-spacing:normal;text-transform:none;direction:ltr;block-progression:tb;writing-mode:lr-tb;baseline-shift:baseline;text-anchor:start;white-space:normal;clip-rule:nonzero;display:inline;overflow:visible;visibility:visible;opacity:1;isolation:auto;mix-blend-mode:normal;color-interpolation:sRGB;color-interpolation-filters:linearRGB;solid-color:#000000;solid-opacity:1;fill:#000000;fill-opacity:1;fill-rule:evenodd;stroke:none;stroke-width:6.46087837;stroke-linecap:round;stroke-linejoin:miter;stroke-miterlimit:4;stroke-dasharray:none;stroke-dashoffset:0;stroke-opacity:1;color-rendering:auto;image-rendering:auto;shape-rendering:auto;text-rendering:auto;enable-background:accumulate" />
          <path
             style="opacity:1;fill:#000000;fill-opacity:1;fill-rule:evenodd;stroke:none;stroke-width:0.18348891;stroke-linecap:round;stroke-linejoin:miter;stroke-miterlimit:4;stroke-dasharray:none;stroke-dashoffset:0;stroke-opacity:1;marker:none;paint-order:normal"
             d="m 306.74334,-33.733546 c -0.76713,-0.357609 -1.15628,-1.146774 -0.86919,-1.762642 0.28709,-0.615868 1.14172,-0.825229 1.90885,-0.46762 0.76714,0.357608 1.53972,1.629555 2.53541,2.539358 -1.34825,-0.284633 -2.80793,0.04851 -3.57507,-0.309096 z"
             id="use24274"
             inkscape:connector-curvature="0"
             sodipodi:nodetypes="ssscs" />
          <path
             style="opacity:1;fill:#000000;fill-opacity:1;fill-rule:evenodd;stroke:none;stroke-width:0.18348891;stroke-linecap:round;stroke-linejoin:miter;stroke-miterlimit:4;stroke-dasharray:none;stroke-dashoffset:0;stroke-opacity:1;marker:none;paint-order:normal"
             d="m 315.17032,-38.189325 c -0.57483,-0.621244 -0.63651,-1.498976 -0.13777,-1.960464 0.49875,-0.461486 1.36906,-0.331978 1.94389,0.289267 0.57484,0.621244 0.80881,2.090933 1.38632,3.309795 -1.14037,-0.773531 -2.6176,-1.017354 -3.19244,-1.638598 z"
             id="use24277"
             inkscape:connector-curvature="0"
             sodipodi:nodetypes="ssscs" />
          <path
             style="opacity:1;fill:#000000;fill-opacity:1;fill-rule:evenodd;stroke:none;stroke-width:0.18348891;stroke-linecap:round;stroke-linejoin:miter;stroke-miterlimit:4;stroke-dasharray:none;stroke-dashoffset:0;stroke-opacity:1;marker:none;paint-order:normal"
             d="m 333.97441,-40.592436 c 0.44809,-0.718051 1.27866,-1.008523 1.85512,-0.648792 0.57646,0.359733 0.68053,1.233449 0.23244,1.951501 -0.44808,0.718051 -1.80441,1.330515 -2.82835,2.208395 0.44619,-1.303723 0.2927,-2.793052 0.74079,-3.511104 z"
             id="use24279"
             inkscape:connector-curvature="0"
             sodipodi:nodetypes="ssscs" />
          <path
             style="opacity:1;fill:#000000;fill-opacity:1;fill-rule:evenodd;stroke:none;stroke-width:0.18348891;stroke-linecap:round;stroke-linejoin:miter;stroke-miterlimit:4;stroke-dasharray:none;stroke-dashoffset:0;stroke-opacity:1;marker:none;paint-order:normal"
             d="m 340.61456,-33.667681 c 0.72743,-0.432701 1.59874,-0.310051 1.94612,0.273938 0.34737,0.58399 0.0393,1.408181 -0.68814,1.840882 -0.72743,0.432702 -2.2136,0.355163 -3.52608,0.665891 0.99426,-0.954061 1.54068,-2.348009 2.2681,-2.780711 z"
             id="use24281"
             inkscape:connector-curvature="0"
             sodipodi:nodetypes="ssscs" />
          <path
             style="opacity:1;fill:#000000;fill-opacity:1;fill-rule:evenodd;stroke:none;stroke-width:0.18348891;stroke-linecap:round;stroke-linejoin:miter;stroke-miterlimit:4;stroke-dasharray:none;stroke-dashoffset:0;stroke-opacity:1;marker:none;paint-order:normal"
             d="m 304.43109,-0.72837441 c -0.60283,0.59411704 -1.47819,0.68341048 -1.95515,0.19944885 -0.47697,-0.48396274 -0.37494,-1.35791904 0.2279,-1.95203614 0.60283,-0.594117 2.06442,-0.8742655 3.26449,-1.4898697 -0.73724,1.164163 -0.93441,2.6483399 -1.53724,3.24245699 z"
             id="use24283"
             inkscape:connector-curvature="0"
             sodipodi:nodetypes="ssscs" />
          <path
             style="opacity:1;fill:#000000;fill-opacity:1;fill-rule:evenodd;stroke:none;stroke-width:0.18348891;stroke-linecap:round;stroke-linejoin:miter;stroke-miterlimit:4;stroke-dasharray:none;stroke-dashoffset:0;stroke-opacity:1;marker:none;paint-order:normal"
             d="m 346.00415,5.9615935 c 0.61442,0.5821249 0.73365,1.453906 0.26631,1.9471718 -0.46734,0.4932648 -1.34428,0.4212301 -1.9587,-0.1608948 -0.61442,-0.5821249 -0.94447,-2.0332607 -1.60082,-3.2115366 1.18873,0.6969181 2.67879,0.8431347 3.29321,1.4252596 z"
             id="use24285"
             inkscape:connector-curvature="0"
             sodipodi:nodetypes="ssscs" />
          <path
             style="opacity:1;fill:#000000;fill-opacity:1;fill-rule:evenodd;stroke:none;stroke-width:0.18348891;stroke-linecap:round;stroke-linejoin:miter;stroke-miterlimit:4;stroke-dasharray:none;stroke-dashoffset:0;stroke-opacity:1;marker:none;paint-order:normal"
             d="m 349.45774,-1.2909495 c 0.61442,0.58212485 0.73365,1.45390598 0.26631,1.94717184 -0.46734,0.49326476 -1.34428,0.42123006 -1.9587,-0.16089487 -0.61442,-0.58212488 -0.94447,-2.03326067 -1.60082,-3.21153657 1.18873,0.6969181 2.67879,0.8431347 3.29321,1.4252596 z"
             id="use24287"
             inkscape:connector-curvature="0"
             sodipodi:nodetypes="ssscs" />
          <path
             style="opacity:1;fill:#000000;fill-opacity:1;fill-rule:evenodd;stroke:none;stroke-width:0.18348891;stroke-linecap:round;stroke-linejoin:miter;stroke-miterlimit:4;stroke-dasharray:none;stroke-dashoffset:0;stroke-opacity:1;marker:none;paint-order:normal"
             d="m 311.34213,6.8981134 c -0.42374,0.7326835 -1.2441,1.0508634 -1.83231,0.7106792 -0.58821,-0.3401855 -0.72154,-1.2099175 -0.2978,-1.942601 0.42374,-0.7326836 1.75875,-1.3903169 2.75266,-2.3020638 -0.40219,1.3179625 -0.19881,2.8013021 -0.62255,3.5339856 z"
             id="use24289"
             inkscape:connector-curvature="0"
             sodipodi:nodetypes="ssscs" />
          <path
             style="opacity:1;fill:#000000;fill-opacity:1;fill-rule:evenodd;stroke:none;stroke-width:0.18348891;stroke-linecap:round;stroke-linejoin:miter;stroke-miterlimit:4;stroke-dasharray:none;stroke-dashoffset:0;stroke-opacity:1;marker:none;paint-order:normal"
             d="m 317.69148,-8.1205446 c -0.42374,0.7326835 -1.2441,1.0508634 -1.83231,0.7106792 -0.58821,-0.3401855 -0.72154,-1.2099175 -0.2978,-1.942601 0.42374,-0.7326836 1.75875,-1.3903166 2.75266,-2.3020636 -0.40219,1.317962 -0.19881,2.8013019 -0.62255,3.5339854 z"
             id="use24291"
             inkscape:connector-curvature="0"
             sodipodi:nodetypes="ssscs" />
          <path
             style="opacity:1;fill:#000000;fill-opacity:1;fill-rule:evenodd;stroke:none;stroke-width:0.18348891;stroke-linecap:round;stroke-linejoin:miter;stroke-miterlimit:4;stroke-dasharray:none;stroke-dashoffset:0;stroke-opacity:1;marker:none;paint-order:normal"
             d="m 334.52647,-8.4465535 c 0.61442,0.5821249 0.73365,1.453906 0.26631,1.9471718 -0.46734,0.4932648 -1.34428,0.4212301 -1.9587,-0.1608948 -0.61442,-0.5821249 -0.94447,-2.0332607 -1.60082,-3.2115366 1.18873,0.6969181 2.67879,0.8431347 3.29321,1.4252596 z"
             id="use24293"
             inkscape:connector-curvature="0"
             sodipodi:nodetypes="ssscs" />
          <path
             style="opacity:1;fill:#000000;fill-opacity:1;fill-rule:evenodd;stroke:none;stroke-width:0.18348891;stroke-linecap:round;stroke-linejoin:miter;stroke-miterlimit:4;stroke-dasharray:none;stroke-dashoffset:0;stroke-opacity:1;marker:none;paint-order:normal"
             d="m 340.14321,-13.941188 c 0.61442,0.582125 0.73365,1.453906 0.26631,1.947172 -0.46734,0.493265 -1.34428,0.42123 -1.9587,-0.160895 -0.61442,-0.582124 -0.94447,-2.03326 -1.60082,-3.211536 1.18873,0.696918 2.67879,0.843135 3.29321,1.425259 z"
             id="use24295"
             inkscape:connector-curvature="0"
             sodipodi:nodetypes="ssscs" />
          <g
             style="fill:#000000;fill-opacity:1"
             id="g31110"
             transform="matrix(-0.46410536,0,0,-0.46410536,719.18297,106.99625)">
            <path
               inkscape:connector-curvature="0"
               style="color:#000000;font-style:normal;font-variant:normal;font-weight:normal;font-stretch:normal;font-size:medium;line-height:normal;font-family:sans-serif;text-indent:0;text-align:start;text-decoration:none;text-decoration-line:none;text-decoration-style:solid;text-decoration-color:#000000;letter-spacing:normal;word-spacing:normal;text-transform:none;direction:ltr;block-progression:tb;writing-mode:lr-tb;baseline-shift:baseline;text-anchor:start;white-space:normal;clip-rule:nonzero;display:inline;overflow:visible;visibility:visible;opacity:1;isolation:auto;mix-blend-mode:normal;color-interpolation:sRGB;color-interpolation-filters:linearRGB;solid-color:#000000;solid-opacity:1;fill:#000000;fill-opacity:1;fill-rule:evenodd;stroke:none;stroke-width:9.99089336;stroke-linecap:round;stroke-linejoin:round;stroke-miterlimit:4;stroke-dasharray:none;stroke-dashoffset:0;stroke-opacity:1;color-rendering:auto;image-rendering:auto;shape-rendering:auto;text-rendering:auto;enable-background:accumulate"
               d="m 925.90776,219.6565 c -3.09459,0.001 -5.60264,2.51013 -5.60254,5.60473 l 0,28.79272 c 0.001,3.09374 2.50881,5.60144 5.60254,5.60255 l 42.05304,0 c 3.0946,1.1e-4 5.60362,-2.50795 5.60474,-5.60255 l 0,-28.79272 c 9e-5,-3.09546 -2.50928,-5.60483 -5.60474,-5.60473 l -42.05304,0 z m 21.06487,3.06748 c 7.23894,-0.0638 14.4839,0.36149 21.73314,1.468 l 0.48641,0.0745 0.0722,0.48641 c 1.47927,9.95579 1.00235,19.88408 0.004,29.77872 l -0.0526,0.51271 -0.50832,0.0789 c -15.13669,2.34175 -29.40711,1.54879 -43.42902,0.002 l -0.50833,-0.0547 -0.0767,-0.50613 c -1.51795,-9.92957 -1.6933,-19.87573 0,-29.82691 l 0.0855,-0.4908 0.49517,-0.0591 c 7.22677,-0.84809 14.45915,-1.3998 21.69808,-1.46363 z m 0.0112,1.33216 c -7.00676,0.0618 -14.01806,0.59698 -21.03637,1.40667 -1.54852,9.45475 -1.38182,18.91471 0.0219,28.38958 13.63052,1.48362 27.43095,2.19731 42.00702,0.0112 0.93919,-9.49879 1.36121,-18.96737 0.0219,-28.4093 -7.00016,-1.03764 -14.00446,-1.4597 -21.01448,-1.39789 z"
               id="path31112" />
            <path
               style="color:#000000;font-style:normal;font-variant:normal;font-weight:normal;font-stretch:normal;font-size:medium;line-height:normal;font-family:sans-serif;text-indent:0;text-align:start;text-decoration:none;text-decoration-line:none;text-decoration-style:solid;text-decoration-color:#000000;letter-spacing:normal;word-spacing:normal;text-transform:none;direction:ltr;block-progression:tb;writing-mode:lr-tb;baseline-shift:baseline;text-anchor:start;white-space:normal;clip-rule:nonzero;display:inline;overflow:visible;visibility:visible;opacity:1;isolation:auto;mix-blend-mode:normal;color-interpolation:sRGB;color-interpolation-filters:linearRGB;solid-color:#000000;solid-opacity:1;fill:#000000;fill-opacity:1;fill-rule:evenodd;stroke:none;stroke-width:5.31793737;stroke-linecap:round;stroke-linejoin:round;stroke-miterlimit:4;stroke-dasharray:none;stroke-dashoffset:0;stroke-opacity:1;color-rendering:auto;image-rendering:auto;shape-rendering:auto;text-rendering:auto;enable-background:accumulate"
               d="m 935.74344,257.6655 c -1.64752,-5.7e-4 -2.98358,-0.90913 -2.98422,0.73839 l 0,10.83918 c 6.4e-4,1.64752 1.3367,2.98261 2.98422,2.98203 l 22.38388,0 c 1.64667,-6.4e-4 2.9814,-1.33536 2.98204,-2.98203 l 0,-10.83918 c -6.4e-4,-1.64667 -1.33537,-0.73775 -2.98204,-0.73839 z m 2.98204,1.47896 16.41762,0 0,7.11438 -16.41762,0 z"
               id="path31114"
               inkscape:connector-curvature="0"
               sodipodi:nodetypes="cccccccccccccc" />
            <path
               inkscape:connector-curvature="0"
               id="path31116"
               d="m 929.98828,266.82617 a 3.3314968,3.3314968 0 1 0 0,6.66211 l 33.89258,0 a 3.3314968,3.3314968 0 1 0 0,-6.66211 l -33.89258,0 z"
               style="color:#000000;font-style:normal;font-variant:normal;font-weight:normal;font-stretch:normal;font-size:medium;line-height:normal;font-family:sans-serif;text-indent:0;text-align:start;text-decoration:none;text-decoration-line:none;text-decoration-style:solid;text-decoration-color:#000000;letter-spacing:normal;word-spacing:normal;text-transform:none;direction:ltr;block-progression:tb;writing-mode:lr-tb;baseline-shift:baseline;text-anchor:start;white-space:normal;clip-rule:nonzero;display:inline;overflow:visible;visibility:visible;opacity:1;isolation:auto;mix-blend-mode:normal;color-interpolation:sRGB;color-interpolation-filters:linearRGB;solid-color:#000000;solid-opacity:1;fill:#000000;fill-opacity:1;fill-rule:evenodd;stroke:none;stroke-width:6.66232729;stroke-linecap:round;stroke-linejoin:miter;stroke-miterlimit:4;stroke-dasharray:none;stroke-dashoffset:0;stroke-opacity:1;color-rendering:auto;image-rendering:auto;shape-rendering:auto;text-rendering:auto;enable-background:accumulate" />
          </g>
          <g
             style="fill:#000000;fill-opacity:1"
             transform="matrix(-0.46410536,0,0,-0.46410536,812.04355,106.99625)"
             id="g31132">
            <path
               id="path31134"
               d="m 925.90776,219.6565 c -3.09459,0.001 -5.60264,2.51013 -5.60254,5.60473 l 0,28.79272 c 0.001,3.09374 2.50881,5.60144 5.60254,5.60255 l 42.05304,0 c 3.0946,1.1e-4 5.60362,-2.50795 5.60474,-5.60255 l 0,-28.79272 c 9e-5,-3.09546 -2.50928,-5.60483 -5.60474,-5.60473 l -42.05304,0 z m 21.06487,3.06748 c 7.23894,-0.0638 14.4839,0.36149 21.73314,1.468 l 0.48641,0.0745 0.0722,0.48641 c 1.47927,9.95579 1.00235,19.88408 0.004,29.77872 l -0.0526,0.51271 -0.50832,0.0789 c -15.13669,2.34175 -29.40711,1.54879 -43.42902,0.002 l -0.50833,-0.0547 -0.0767,-0.50613 c -1.51795,-9.92957 -1.6933,-19.87573 0,-29.82691 l 0.0855,-0.4908 0.49517,-0.0591 c 7.22677,-0.84809 14.45915,-1.3998 21.69808,-1.46363 z m 0.0112,1.33216 c -7.00676,0.0618 -14.01806,0.59698 -21.03637,1.40667 -1.54852,9.45475 -1.38182,18.91471 0.0219,28.38958 13.63052,1.48362 27.43095,2.19731 42.00702,0.0112 0.93919,-9.49879 1.36121,-18.96737 0.0219,-28.4093 -7.00016,-1.03764 -14.00446,-1.4597 -21.01448,-1.39789 z"
               style="color:#000000;font-style:normal;font-variant:normal;font-weight:normal;font-stretch:normal;font-size:medium;line-height:normal;font-family:sans-serif;text-indent:0;text-align:start;text-decoration:none;text-decoration-line:none;text-decoration-style:solid;text-decoration-color:#000000;letter-spacing:normal;word-spacing:normal;text-transform:none;direction:ltr;block-progression:tb;writing-mode:lr-tb;baseline-shift:baseline;text-anchor:start;white-space:normal;clip-rule:nonzero;display:inline;overflow:visible;visibility:visible;opacity:1;isolation:auto;mix-blend-mode:normal;color-interpolation:sRGB;color-interpolation-filters:linearRGB;solid-color:#000000;solid-opacity:1;fill:#000000;fill-opacity:1;fill-rule:evenodd;stroke:none;stroke-width:9.99089336;stroke-linecap:round;stroke-linejoin:round;stroke-miterlimit:4;stroke-dasharray:none;stroke-dashoffset:0;stroke-opacity:1;color-rendering:auto;image-rendering:auto;shape-rendering:auto;text-rendering:auto;enable-background:accumulate"
               inkscape:connector-curvature="0" />
            <path
               sodipodi:nodetypes="cccccccccccccc"
               inkscape:connector-curvature="0"
               id="path31136"
               d="m 935.74344,257.6655 c -1.64752,-5.7e-4 -2.98358,-0.90913 -2.98422,0.73839 l 0,10.83918 c 6.4e-4,1.64752 1.3367,2.98261 2.98422,2.98203 l 22.38388,0 c 1.64667,-6.4e-4 2.9814,-1.33536 2.98204,-2.98203 l 0,-10.83918 c -6.4e-4,-1.64667 -1.33537,-0.73775 -2.98204,-0.73839 z m 2.98204,1.47896 16.41762,0 0,7.11438 -16.41762,0 z"
               style="color:#000000;font-style:normal;font-variant:normal;font-weight:normal;font-stretch:normal;font-size:medium;line-height:normal;font-family:sans-serif;text-indent:0;text-align:start;text-decoration:none;text-decoration-line:none;text-decoration-style:solid;text-decoration-color:#000000;letter-spacing:normal;word-spacing:normal;text-transform:none;direction:ltr;block-progression:tb;writing-mode:lr-tb;baseline-shift:baseline;text-anchor:start;white-space:normal;clip-rule:nonzero;display:inline;overflow:visible;visibility:visible;opacity:1;isolation:auto;mix-blend-mode:normal;color-interpolation:sRGB;color-interpolation-filters:linearRGB;solid-color:#000000;solid-opacity:1;fill:#000000;fill-opacity:1;fill-rule:evenodd;stroke:none;stroke-width:5.31793737;stroke-linecap:round;stroke-linejoin:round;stroke-miterlimit:4;stroke-dasharray:none;stroke-dashoffset:0;stroke-opacity:1;color-rendering:auto;image-rendering:auto;shape-rendering:auto;text-rendering:auto;enable-background:accumulate" />
            <path
               inkscape:connector-curvature="0"
               id="path31138"
               d="m 929.98828,266.82617 a 3.3314968,3.3314968 0 1 0 0,6.66211 l 33.89258,0 a 3.3314968,3.3314968 0 1 0 0,-6.66211 l -33.89258,0 z"
               style="color:#000000;font-style:normal;font-variant:normal;font-weight:normal;font-stretch:normal;font-size:medium;line-height:normal;font-family:sans-serif;text-indent:0;text-align:start;text-decoration:none;text-decoration-line:none;text-decoration-style:solid;text-decoration-color:#000000;letter-spacing:normal;word-spacing:normal;text-transform:none;direction:ltr;block-progression:tb;writing-mode:lr-tb;baseline-shift:baseline;text-anchor:start;white-space:normal;clip-rule:nonzero;display:inline;overflow:visible;visibility:visible;opacity:1;isolation:auto;mix-blend-mode:normal;color-interpolation:sRGB;color-interpolation-filters:linearRGB;solid-color:#000000;solid-opacity:1;fill:#000000;fill-opacity:1;fill-rule:evenodd;stroke:none;stroke-width:6.66232729;stroke-linecap:round;stroke-linejoin:miter;stroke-miterlimit:4;stroke-dasharray:none;stroke-dashoffset:0;stroke-opacity:1;color-rendering:auto;image-rendering:auto;shape-rendering:auto;text-rendering:auto;enable-background:accumulate" />
          </g>
        </g>
      </g>
    </g>
  </g>
</svg>
